<svg width="20" height="20" viewBox="0 0 20 20" fill="none" xmlns="http://www.w3.org/2000/svg">
<path d="M16.6654 8.48615C16.6654 13.7892 9.9987 18.3346 9.9987 18.3346C9.9987 18.3346 3.33203 13.7892 3.33203 8.48615C3.33203 6.67786 4.03441 4.94363 5.28465 3.66497C6.53489 2.38631 8.23059 1.66797 9.9987 1.66797C11.7668 1.66797 13.4625 2.38631 14.7127 3.66497C15.963 4.94363 16.6654 6.67786 16.6654 8.48615Z" stroke="white" stroke-width="1.5" stroke-linecap="round" stroke-linejoin="round"/>
<path d="M10 10.832C11.3807 10.832 12.5 9.71274 12.5 8.33203C12.5 6.95132 11.3807 5.83203 10 5.83203C8.61929 5.83203 7.5 6.95132 7.5 8.33203C7.5 9.71274 8.61929 10.832 10 10.832Z" stroke="white" stroke-width="1.5" stroke-linecap="round" stroke-linejoin="round"/>
</svg>
