<svg width="24" height="24" viewBox="0 0 24 24" fill="none" xmlns="http://www.w3.org/2000/svg">
<circle cx="12" cy="12" r="12" fill="#1EB2FF" fill-opacity="0.1"/>
<path d="M12 4C7.5888 4 4 7.58885 4 12C4 16.4112 7.5888 20 12 20C16.4112 20 20 16.4112 20 12C20 7.58885 16.4112 4 12 4ZM12 18.5455C8.39079 18.5455 5.45455 15.6092 5.45455 12C5.45455 8.39088 8.39079 5.45455 12 5.45455C15.6092 5.45455 18.5455 8.39088 18.5455 12C18.5455 15.6092 15.6092 18.5455 12 18.5455Z" fill="#1EB2FF"/>
<path d="M11.9998 7.39355C11.4652 7.39355 11.0303 7.82875 11.0303 8.36369C11.0303 8.89814 11.4652 9.33295 11.9998 9.33295C12.5344 9.33295 12.9693 8.89814 12.9693 8.36369C12.9693 7.82875 12.5344 7.39355 11.9998 7.39355Z" fill="#1EB2FF"/>
<path d="M11.9997 10.7881C11.5981 10.7881 11.2725 11.1137 11.2725 11.5154V15.879C11.2725 16.2806 11.5981 16.6063 11.9997 16.6063C12.4014 16.6063 12.727 16.2806 12.727 15.879V11.5154C12.727 11.1137 12.4014 10.7881 11.9997 10.7881Z" fill="#1EB2FF"/>
</svg>
