<svg width="24" height="24" viewBox="0 0 24 24" fill="none" xmlns="http://www.w3.org/2000/svg">
<circle cx="12" cy="12" r="12" fill="#FFB551" fill-opacity="0.15"/>
<path d="M19.8315 17.2869L19.8315 17.2869C20.1895 16.6669 20.1895 15.9255 19.8315 15.3055L13.7159 4.71295C13.358 4.09301 12.7159 3.72227 12 3.72227C11.2841 3.72227 10.642 4.09301 10.284 4.71295L4.16847 15.3055C3.81051 15.9255 3.81051 16.6669 4.16847 17.2869C4.52642 17.9068 5.1685 18.2776 5.88441 18.2776H18.1156C18.8315 18.2776 19.4736 17.9068 19.8315 17.2869ZM11.2691 5.28167L11.2691 5.28167C11.4219 5.01705 11.6945 4.85967 12 4.85967C12.3056 4.85967 12.5782 5.01705 12.7309 5.28167L12.8176 5.23167L12.731 5.28167L18.8466 15.8742C18.9993 16.1388 18.9993 16.4536 18.8465 16.7182C18.6937 16.9828 18.4211 17.1402 18.1156 17.1402H5.88441C5.57882 17.1402 5.30621 16.9828 5.15345 16.7182C5.00069 16.4536 5.00069 16.1388 5.15345 15.8742L11.2691 5.28167Z" fill="#FFB551" stroke="#FFB551" stroke-width="0.2"/>
<path d="M12.5686 8.5V8.4H12.4686H11.5312H11.4312V8.5V13.1869V13.2869H11.5312H12.4686H12.5686V13.1869V8.5Z" fill="#FFB551" stroke="#FFB551" stroke-width="0.2"/>
<path d="M11.9999 14.025C11.6001 14.025 11.275 14.3501 11.275 14.7499C11.275 15.1498 11.6001 15.4749 11.9999 15.4749C12.3997 15.4749 12.7249 15.1498 12.7249 14.7499C12.7249 14.3501 12.3998 14.025 11.9999 14.025Z" fill="#FFB551" stroke="#FFB551" stroke-width="0.2"/>
</svg>
