<svg width="52" height="52" viewBox="0 0 52 52" fill="none" xmlns="http://www.w3.org/2000/svg">
<circle cx="26" cy="26" r="26" fill="#F04338" fill-opacity="0.1"/>
<path d="M14 18H16.6667H38" stroke="#F04338" stroke-width="2" stroke-linecap="round" stroke-linejoin="round"/>
<path d="M20.6665 17.9998V15.3332C20.6665 14.6259 20.9475 13.9476 21.4476 13.4476C21.9477 12.9475 22.6259 12.6665 23.3332 12.6665H28.6665C29.3738 12.6665 30.052 12.9475 30.5521 13.4476C31.0522 13.9476 31.3332 14.6259 31.3332 15.3332V17.9998M35.3332 17.9998V36.6665C35.3332 37.3737 35.0522 38.052 34.5521 38.5521C34.052 39.0522 33.3738 39.3332 32.6665 39.3332H19.3332C18.6259 39.3332 17.9476 39.0522 17.4476 38.5521C16.9475 38.052 16.6665 37.3737 16.6665 36.6665V17.9998H35.3332Z" stroke="#F04338" stroke-width="2" stroke-linecap="round" stroke-linejoin="round"/>
<path d="M23.3335 24.6665V32.6665" stroke="#F04338" stroke-width="2" stroke-linecap="round" stroke-linejoin="round"/>
<path d="M28.6665 24.6665V32.6665" stroke="#F04338" stroke-width="2" stroke-linecap="round" stroke-linejoin="round"/>
</svg>
