<svg width="20" height="20" viewBox="0 0 20 20" fill="none" xmlns="http://www.w3.org/2000/svg">
<path d="M16.3839 7.49561H9.11128C8.21871 7.49561 7.49515 8.21917 7.49515 9.11174V16.3843C7.49515 17.2769 8.21871 18.0005 9.11128 18.0005H16.3839C17.2764 18.0005 18 17.2769 18 16.3843V9.11174C18 8.21917 17.2764 7.49561 16.3839 7.49561Z" stroke="#1EB2FF" stroke-width="1.3" stroke-linecap="round" stroke-linejoin="round"/>
<path d="M4.26288 12.3437H3.45482C3.02619 12.3437 2.61512 12.1735 2.31204 11.8704C2.00895 11.5673 1.83868 11.1562 1.83868 10.7276V3.455C1.83868 3.02637 2.00895 2.6153 2.31204 2.31222C2.61512 2.00914 3.02619 1.83887 3.45482 1.83887H10.7274C11.156 1.83887 11.5671 2.00914 11.8702 2.31222C12.1733 2.6153 12.3435 3.02637 12.3435 3.455V4.26306" stroke="#1EB2FF" stroke-width="1.3" stroke-linecap="round" stroke-linejoin="round"/>
</svg>
