<svg width="24" height="24" viewBox="0 0 24 24" fill="none" xmlns="http://www.w3.org/2000/svg">
<path d="M18.7862 4.24673H15.2323V3.60057C15.2323 2.53171 14.3627 1.66211 13.2939 1.66211H10.7093C9.6404 1.66211 8.77079 2.53171 8.77079 3.60057V4.24673H5.21695C4.32622 4.24673 3.60156 4.97139 3.60156 5.86211V8.12365C3.60156 8.48049 3.89088 8.7698 4.24772 8.7698H4.60084L5.15908 20.4928C5.20839 21.5281 6.05889 22.339 7.09532 22.339H16.9078C17.9443 22.339 18.7948 21.5281 18.8441 20.4928L19.4023 8.7698H19.7554C20.1122 8.7698 20.4016 8.48049 20.4016 8.12365V5.86211C20.4016 4.97139 19.6769 4.24673 18.7862 4.24673ZM10.0631 3.60057C10.0631 3.2443 10.353 2.95442 10.7093 2.95442H13.2939C13.6501 2.95442 13.94 3.2443 13.94 3.60057V4.24673H10.0631V3.60057ZM4.89387 5.86211C4.89387 5.68397 5.03881 5.53903 5.21695 5.53903H18.7862C18.9643 5.53903 19.1093 5.68397 19.1093 5.86211V7.47749C18.9101 7.47749 5.71905 7.47749 4.89387 7.47749V5.86211ZM17.5532 20.4313C17.5368 20.7764 17.2533 21.0467 16.9078 21.0467H7.09532C6.74983 21.0467 6.46633 20.7764 6.44993 20.4313L5.8946 8.7698H18.1085L17.5532 20.4313Z" fill="#F04338"/>
<path d="M12.0016 19.7548C12.3585 19.7548 12.6478 19.4655 12.6478 19.1087V10.7087C12.6478 10.3518 12.3585 10.0625 12.0016 10.0625C11.6448 10.0625 11.3555 10.3518 11.3555 10.7087V19.1087C11.3555 19.4655 11.6447 19.7548 12.0016 19.7548Z" fill="#F04338"/>
<path d="M15.2321 19.7548C15.5889 19.7548 15.8782 19.4655 15.8782 19.1087V10.7087C15.8782 10.3518 15.5889 10.0625 15.2321 10.0625C14.8753 10.0625 14.5859 10.3518 14.5859 10.7087V19.1087C14.5859 19.4655 14.8752 19.7548 15.2321 19.7548Z" fill="#F04338"/>
<path d="M8.77115 19.7548C9.12799 19.7548 9.41731 19.4655 9.41731 19.1087V10.7087C9.41731 10.3518 9.12799 10.0625 8.77115 10.0625C8.41432 10.0625 8.125 10.3518 8.125 10.7087V19.1087C8.125 19.4655 8.41428 19.7548 8.77115 19.7548Z" fill="#F04338"/>
</svg>
