<svg width="48" height="48" viewBox="0 0 48 48" fill="none" xmlns="http://www.w3.org/2000/svg">
<g filter="url(#filter0_i_754_5758)">
<circle cx="24" cy="24" r="24" fill="white" fill-opacity="0.2"/>
</g>
<g clip-path="url(#clip0_754_5758)">
<path d="M24.0001 11.3794C20.1533 11.3794 17.0234 14.509 17.0234 18.356C17.0234 22.2028 20.1533 25.3323 24.0001 25.3323C27.8468 25.3323 30.9767 22.2028 30.9767 18.356C30.9767 14.509 27.8468 11.3794 24.0001 11.3794Z" fill="white"/>
<path d="M24 4C12.9719 4 4 12.9719 4 24C4 29.1025 5.92169 33.7638 9.07782 37.3011C9.75378 34.3329 11.305 31.6248 13.57 29.5151C15.1597 28.0344 17.0197 26.9263 19.0302 26.2372C16.4179 24.5841 14.6796 21.6694 14.6796 18.3561C14.6796 13.2166 18.8608 9.03571 24 9.03571C29.1392 9.03571 33.3201 13.2166 33.3201 18.3561C33.3201 21.6678 31.5833 24.5817 28.9728 26.2351C31.1506 26.981 33.1467 28.2194 34.8224 29.8951C36.8699 31.9425 38.2834 34.5161 38.9207 37.3023C42.078 33.765 44 29.1031 44 24C44 12.9719 35.0281 4 24 4Z" fill="white"/>
<path d="M11.1173 39.2852C14.6 42.2253 19.0961 44.0002 24 44.0002C28.9039 44.0002 33.4 42.225 36.8827 39.2852C36.562 36.3714 35.2524 33.6398 33.1653 31.5527C30.7166 29.1039 27.4616 27.7554 24 27.7554C17.407 27.7554 11.8329 32.785 11.1173 39.2852Z" fill="white"/>
</g>
<defs>
<filter id="filter0_i_754_5758" x="0" y="0" width="48" height="48" filterUnits="userSpaceOnUse" color-interpolation-filters="sRGB">
<feFlood flood-opacity="0" result="BackgroundImageFix"/>
<feBlend mode="normal" in="SourceGraphic" in2="BackgroundImageFix" result="shape"/>
<feColorMatrix in="SourceAlpha" type="matrix" values="0 0 0 0 0 0 0 0 0 0 0 0 0 0 0 0 0 0 127 0" result="hardAlpha"/>
<feOffset/>
<feGaussianBlur stdDeviation="2"/>
<feComposite in2="hardAlpha" operator="arithmetic" k2="-1" k3="1"/>
<feColorMatrix type="matrix" values="0 0 0 0 1 0 0 0 0 1 0 0 0 0 1 0 0 0 0.25 0"/>
<feBlend mode="normal" in2="shape" result="effect1_innerShadow_754_5758"/>
</filter>
<clipPath id="clip0_754_5758">
<rect width="40" height="40" fill="white" transform="translate(4 4)"/>
</clipPath>
</defs>
</svg>
