<svg width="88" height="88" viewBox="0 0 88 88" fill="none" xmlns="http://www.w3.org/2000/svg">
<path d="M78.4111 42.5741L78.3221 42.6381C77.0299 43.5647 75.3955 43.8756 73.8548 43.4913L72.4408 43.1366C72.2408 43.0881 72.0345 43.0756 71.8298 43.1006L65.4079 44.0038L59.1782 44.8788C58.5141 44.9725 57.8423 44.7569 57.3548 44.2928L56.4422 43.4256L55.3969 41.7569L53.4172 40.5506L58.9391 33.624L59.697 38.0287C59.7204 38.1131 60.2923 38.2225 60.3407 38.2912C60.4876 38.5022 60.6891 38.5772 60.9548 38.574L65.4079 38.5303L71.0345 38.4725C71.2751 38.4694 71.5126 38.4162 71.7314 38.3131L72.5533 37.9225C73.9486 37.2615 75.508 37.0178 77.0408 37.2225C77.0611 37.2256 77.083 37.2272 77.1033 37.2303C78.2236 37.3803 79.1517 38.1709 79.4783 39.2537C79.4892 39.2928 79.5017 39.3319 79.5127 39.3725C79.8721 40.5584 79.4361 41.8397 78.4111 42.5741Z" fill="#FDD8D8"/>
<path d="M60.3413 38.2917C59.9607 38.7342 59.5388 39.1466 59.0788 39.5209C58.7029 39.827 58.3936 40.1997 58.1621 40.6264L58.0749 40.777L56.4429 43.4256L53.4167 40.5502L58.9393 33.624L60.1874 38.0031C60.2193 38.1109 60.2716 38.2092 60.3413 38.2917Z" fill="#FDD8D8"/>
<path d="M6.41589 76.7275H78.6144C79.0115 76.7275 79.3335 77.0777 79.3335 77.5094V83.2185C79.3335 83.6502 79.0115 84.0003 78.6144 84.0003H6.41589C6.01879 84.0003 5.69678 83.6502 5.69678 83.2185V77.5094C5.69678 77.0777 6.01879 76.7275 6.41589 76.7275Z" fill="#FF5F7A"/>
<path d="M42.562 56.0015V56.0031L38.8569 61.2497L35.1974 60.4165L32.7666 57.1354L36.6683 48.3457L42.562 56.0015Z" fill="#81B8FD"/>
<path d="M54.4295 40.6475L52.1033 44.936L46.6131 44.0502L40.8501 38.7211C41.9029 37.4692 42.7262 36.0361 43.2768 34.4883L49.7884 36.4606L54.4295 40.6475Z" fill="#FFE3E3"/>
<path d="M52.5683 50.241L51.8414 55.2169L46.9521 58.8532L42.2559 57.2735C40.7396 56.7627 39.3946 55.8952 38.3193 54.7707C37.2455 53.6461 36.4415 52.2632 36.0021 50.7216C35.2772 48.187 35.6135 45.4686 36.9299 43.1848L37.0805 42.9231C37.3596 42.4394 37.6816 41.9811 38.0385 41.5512C38.3954 41.1229 38.7887 40.7265 39.217 40.3648C39.8101 39.862 40.3557 39.3117 40.8506 38.7217L52.1034 44.9358L51.3422 46.4456L49.4484 47.1055L50.1225 48.866L52.5683 50.241Z" fill="#A0CAFE"/>
<path d="M61.2709 58.1498C61.2709 59.5503 60.7015 60.8873 59.6976 61.8579L45.5804 75.7705L40.8096 71.7293C41.4433 70.5953 43.6658 66.6213 44.1941 65.6564C45.0221 64.1592 46.0513 62.8666 47.2869 61.7675L49.8421 60.6731L49.8834 59.8389L46.9524 58.8523L52.5685 50.2402L58.6414 53.6549C59.4534 54.1117 60.11 54.7699 60.5636 55.5454C61.0187 56.3228 61.2709 57.2173 61.2709 58.1498Z" fill="#FFE3E3"/>
<path d="M52.4298 62.1256C52.2415 62.687 51.7178 63.0422 51.1545 63.0422C51.0128 63.0422 50.8693 63.0189 50.7259 62.9704L47.2876 61.7687C47.9459 61.1822 48.6615 60.6531 49.4364 60.1797L49.8829 59.8389L51.5832 60.4218C52.2881 60.6584 52.6665 61.4206 52.4298 62.1256Z" fill="#FDD8D8"/>
<path d="M51.3427 46.4459L50.123 48.8655L47.0685 47.1275C46.4209 46.7634 46.1914 45.9437 46.5555 45.2962C46.9195 44.6487 47.7392 44.4192 48.3867 44.7833L51.3427 46.4459Z" fill="#81B8FD"/>
<path d="M48.3815 82.0724L48.3456 82.128C47.7412 83.0535 46.4767 83.2993 45.5207 82.6769L38.9902 78.4189C38.0343 77.7947 37.7509 76.5392 38.3552 75.6119L40.8088 71.7305L46.0426 75.3158L46.9896 75.9346C49.0792 77.2978 49.7034 80.0457 48.3815 82.0724Z" fill="#3A85E2"/>
<path d="M38.857 61.2498L36.6762 64.3394C36.0529 65.2339 35.1741 65.9206 34.1545 66.3108L23.5821 70.2505L17.7233 72.4329L15.6519 68.0078C17.4045 66.5684 21.0917 63.5389 22.7985 62.1348C24.67 60.6456 26.8032 59.5322 29.0807 58.8439L30.459 59.1928L32.3305 58.119L32.7666 57.1357L38.857 61.2498Z" fill="#FFE3E3"/>
<path d="M18.8908 71.9969L15.6518 68.0068L12.1992 70.8097C11.3403 71.5069 11.227 72.7901 11.946 73.6759L16.8593 79.7285C17.5784 80.6142 18.8576 80.7672 19.7164 80.07L19.7673 80.0286C21.6461 78.5035 21.8939 75.6964 20.3209 73.7587L18.8908 71.9969Z" fill="#3A85E2"/>
<path d="M32.3306 58.1191L30.6607 61.9145C30.4384 62.4149 29.9468 62.7145 29.4302 62.7145C29.2491 62.7145 29.0626 62.6768 28.8849 62.5979C28.2069 62.2967 27.9002 61.502 28.2016 60.8223L29.0805 58.844C29.7137 58.6521 30.3595 58.4943 31.0123 58.3705L32.3306 58.1191Z" fill="#FDD8D8"/>
<path d="M58.0339 30.8518L59.2356 28.714C59.0422 27.6454 58.7002 26.6086 58.2202 25.6344L57.6953 24.5689C57.4181 24.0061 57.4266 23.3449 57.718 22.7894L58.0681 22.1219C58.2297 21.8139 58.5988 21.6792 58.9208 21.8106L60.7633 22.5461C62.2877 23.1547 63.9975 22.2714 64.3836 20.6761L64.6769 19.4639C64.7221 19.2772 64.8496 19.1209 65.0233 19.0391L65.3818 18.8703C66.0508 18.5555 66.3938 17.8028 66.1924 17.0912L65.8335 15.823C65.7771 15.6236 65.7727 15.4141 65.8215 15.2126C65.9135 14.8319 66.0824 14.1315 66.278 13.3169C66.9499 10.5192 65.2296 7.70526 62.433 7.0287C59.4716 6.31229 56.4873 8.12089 55.7522 11.0778L55.2695 13.0195L53.5808 15.3106C53.7969 16.1739 53.6598 17.6152 53.6598 17.6152L53.3305 18.8195C52.9317 20.2772 52.3601 21.336 51.18 22.2799L50.2512 22.9367L55.3862 30.4899L58.0339 30.8518Z" fill="#FFE3E3"/>
<path d="M59.3423 31.668C59.3423 33.7155 58.4954 34.8099 56.8792 36.1247C56.1829 36.6925 55.604 37.3872 55.1757 38.1786L54.2304 39.7122L43.8768 34.2055C44.0591 33.6964 44.0797 33.2777 44.3557 32.3991L45.3549 30.7812L44.7696 29.733L42.9836 29.9597L40.5261 27.0184L41.3039 23.7312L47.1104 22.2562C49.6099 21.6218 52.1824 22.9906 53.0517 25.4203L53.4132 26.4337C53.594 26.9412 53.881 27.4044 54.2523 27.7945C55.0849 28.6715 56.2206 29.1347 57.3768 29.1347C58.0065 29.1347 58.6409 28.9967 59.2356 28.7128L59.2436 28.7651L59.2642 30.6414C59.3168 30.9844 59.3423 31.327 59.3423 31.668Z" fill="#A0CAFE"/>
<path d="M59.6134 31.7363C59.6134 33.7838 58.6951 35.7457 57.0789 37.0589C56.3826 37.6268 55.8037 38.323 55.3754 39.1129L54.4301 40.6466L43.2771 34.488C43.4594 33.9789 43.7387 33.1192 44.0146 32.2406L44.2493 31.9853L52.7043 36.653C53.4672 37.0749 54.4268 36.8227 54.8851 36.0805L55.0136 35.8727C55.4419 35.0828 56.019 34.3866 56.7155 33.8188C58.2603 32.5627 59.1675 30.7149 59.2436 28.7656L59.5355 30.71C59.5881 31.0527 59.6134 31.3952 59.6134 31.7363Z" fill="#81B8FD"/>
<path d="M42.9838 29.9609L40.73 30.2479C40.113 30.3256 39.5611 30.6729 39.2218 31.1948L33.5406 39.7942C33.4184 39.9877 33.3408 40.2066 33.3122 40.4334L33.2044 41.2899C33.1123 42.0178 32.9158 42.7252 32.6239 43.3897C32.332 44.0542 31.9452 44.676 31.4709 45.2374C30.9253 45.8828 30.1323 46.2382 29.3155 46.2382C29.0601 46.2382 28.8015 46.2033 28.5478 46.1319C27.9673 45.9685 27.4709 45.6291 27.1109 45.1803C26.7525 44.7332 26.5289 44.1749 26.4956 43.5721C26.41 42.0194 27.0111 40.5063 28.1403 39.4356L29.0903 38.5364C29.2314 38.4031 29.3472 38.2445 29.4312 38.0686L35.2583 26.4985C35.6786 25.6135 36.4731 24.9616 37.4232 24.719L41.3041 23.7324L42.9838 29.9609Z" fill="#FDD8D8"/>
<path d="M48.3303 31.6938L44.0146 32.241C44.3143 31.2878 44.6093 30.3124 44.7697 29.7335L48.0289 29.3338C48.6808 29.2513 49.277 29.7128 49.3595 30.3647C49.4422 31.0166 48.9822 31.6114 48.3303 31.6938Z" fill="#95C5F9"/>
<path d="M52.3869 9.09741L51.3311 13.4612C51.3144 13.5306 51.2996 13.5999 51.2869 13.6693C50.9341 15.5907 52.2176 17.4376 54.1163 17.897L55.2323 18.167C56.0252 18.3589 56.844 17.9684 57.1943 17.2317C57.3777 16.8457 57.2313 16.3835 56.859 16.1737C56.0016 15.6906 55.5694 14.6967 55.8009 13.7399C55.9802 12.9987 56.7265 12.5431 57.4679 12.7224L58.4446 12.9587C59.9492 13.3227 61.5368 12.9334 62.7023 11.9146L63.2399 11.4446C64.1042 11.5466 64.552 11.8713 64.9314 12.9374C65.1079 13.0121 65.2915 13.0729 65.4804 13.1187L66.5522 13.3779C67.3734 13.5767 68.2001 13.072 68.3989 12.2507C69.1733 9.05022 67.2064 5.82786 64.0059 5.05348L60.4298 4.18832C56.853 3.32316 53.2522 5.52099 52.3869 9.09741Z" fill="#6E5C59"/>
</svg>
