<svg width="88" height="88" viewBox="0 0 88 88" fill="none" xmlns="http://www.w3.org/2000/svg">
<path d="M60.2283 21.1112C62.5886 15.3999 60.9154 8.95606 57.457 6.41436C54.5663 4.28978 51.1978 4.89988 51.1978 4.89988C51.1978 4.89988 48.663 2.23926 44.0918 2.23926C37.8489 2.23926 25.1716 5.40443 27.5837 21.3155L60.2283 21.1112Z" fill="#6F5C59"/>
<path d="M29.7717 27.488L31.6108 25.5936L33.079 23.3585L31.6108 21.1235C31.0559 20.8509 30.4319 20.6973 29.7717 20.6973C27.9997 20.6973 26.4865 21.8013 25.8796 23.3587C25.8796 26.2046 27.9997 27.488 29.7717 27.488Z" fill="#FDD8D8"/>
<path d="M25.8796 23.3574C25.6964 23.8274 25.595 24.3381 25.595 24.8729C25.595 27.1797 27.4651 29.0498 29.7719 29.0498C30.4319 29.0498 31.056 28.8961 31.611 28.6234L33.0791 27.2255L31.611 25.5923C31.056 25.8649 30.432 26.0185 29.7719 26.0185C27.9996 26.0189 26.4865 24.9148 25.8796 23.3574Z" fill="#FDD8D8"/>
<path d="M25.3092 53.433C24.9144 54.3804 24.5506 55.3891 24.2268 56.4641L44.1839 57.9322L63.957 56.4641C63.6332 55.3891 63.2694 54.3804 62.8746 53.433L44.1839 51.9648L25.3092 53.433Z" fill="#D9E9FF"/>
<path d="M62.8745 53.433C58.3243 42.5118 49.6207 39.8262 49.6207 39.8262H49.6173C47.9513 40.6503 46.0763 41.1155 44.0918 41.1155C42.1074 41.1155 40.2324 40.6503 38.5663 39.8262H38.5628C38.5628 39.8262 29.8592 42.5119 25.3091 53.433H62.8745Z" fill="#E6F1FF"/>
<path d="M38.5654 39.8252L38.5627 39.8257L41.3273 46.8319L44.0918 48.3L46.8563 46.8319L49.6209 39.8257L49.6184 39.8252C49.6207 39.8257 38.5654 39.8252 38.5654 39.8252Z" fill="#A0CAFE"/>
<path d="M40.1222 53.433L39.5688 56.4641L44.1839 57.9322L48.615 56.4641L48.0615 53.433L44.0919 51.9648L40.1222 53.433Z" fill="#3A85E2"/>
<path d="M48.0614 53.4327L46.8563 46.832H41.3273L40.1221 53.4327H48.0614Z" fill="#73AFFA"/>
<path d="M14.0518 84.1979H73.9481C76.7381 84.1979 78.9999 82.6516 78.9999 77.678V61.5156C78.9999 58.7256 76.7381 56.4639 73.9481 56.4639H14.0518C11.2618 56.4639 9 58.7256 9 61.5156V77.678C9 82.1053 11.2618 84.1979 14.0518 84.1979Z" fill="#A0CAFE"/>
<path d="M73.9481 82.7295H14.0518C11.2618 82.7295 9 80.4677 9 77.6777V80.7088C9 83.4988 11.2618 85.7606 14.0518 85.7606H73.9481C76.7381 85.7606 78.9999 83.4988 78.9999 80.7088V77.6777C78.9999 80.4679 76.7381 82.7295 73.9481 82.7295Z" fill="#81B8FD"/>
<path d="M58.4118 27.488L56.5726 25.5936L55.1045 23.3585L56.5726 21.1235C57.1276 20.8509 57.7516 20.6973 58.4118 20.6973C60.1838 20.6973 61.697 21.8013 62.3038 23.3587C62.304 26.2046 60.1838 27.488 58.4118 27.488Z" fill="#FDD8D8"/>
<path d="M62.304 23.3574C62.4872 23.8274 62.5886 24.3381 62.5886 24.8729C62.5886 27.1797 60.7185 29.0498 58.4118 29.0498C57.7517 29.0498 57.1278 28.8961 56.5726 28.6234L55.1045 27.2255L56.5726 25.5923C57.1276 25.8649 57.7516 26.0185 58.4118 26.0185C60.1838 26.0189 61.6972 24.9148 62.304 23.3574Z" fill="#FDD8D8"/>
<path d="M44.0919 39.5528C50.9851 39.5528 56.5729 35.2173 56.5729 25.6037V21.1231C53.349 19.673 49.8931 15.3803 48.6435 13.7267C48.3731 13.3688 47.8656 13.2973 47.5064 13.5658C45.3097 15.2082 37.9585 20.383 31.6108 21.1231V25.6037C31.611 34.5785 37.1988 39.5528 44.0919 39.5528Z" fill="#FFE3E3"/>
<path d="M44.0918 38.0844C37.1988 38.0844 31.6108 32.4965 31.6108 25.6035V28.6346C31.6108 35.5276 37.1988 41.1155 44.0918 41.1155C50.9847 41.1155 56.5727 35.5276 56.5727 28.6346V25.6035C56.5727 32.4967 50.9847 38.0844 44.0918 38.0844Z" fill="#FDD8D8"/>
<path d="M20.4562 79.5738C21.155 79.5738 21.7216 79.0072 21.7216 78.3084V64.3513C21.7216 63.6525 21.155 63.0859 20.4562 63.0859H17.4729C16.7741 63.0859 16.2075 63.6525 16.2075 64.3513C16.2075 65.0502 16.7741 65.6167 17.4729 65.6167H19.1908V78.3084C19.1908 79.0072 19.7573 79.5738 20.4562 79.5738Z" fill="#E6F1FF"/>
<path d="M24.2793 74.2723C24.2793 77.1955 26.6575 79.5738 29.5806 79.5738C32.5039 79.5738 34.8821 77.1955 34.8821 74.2723C34.8821 72.5439 34.0505 71.0063 32.7665 70.038C33.4026 69.3006 33.7885 68.3418 33.7885 67.2938C33.7885 64.9737 31.9008 63.0859 29.5806 63.0859C27.2605 63.0859 25.3727 64.9737 25.3727 67.2938C25.3727 68.3418 25.7587 69.3006 26.3947 70.038C25.1109 71.0063 24.2793 72.5438 24.2793 74.2723ZM29.5806 77.0429C28.0529 77.0429 26.8101 75.8 26.8101 74.2721C26.8101 72.7443 28.0529 71.5014 29.5806 71.5014C31.1085 71.5014 32.3514 72.7443 32.3514 74.2721C32.3514 75.8 31.1085 77.0429 29.5806 77.0429ZM27.9035 67.2937C27.9035 66.3689 28.6559 65.6165 29.5806 65.6165C30.5054 65.6165 31.2578 66.3689 31.2578 67.2937C31.2578 68.2184 30.5054 68.9708 29.5806 68.9708C28.6559 68.9708 27.9035 68.2184 27.9035 67.2937Z" fill="#E6F1FF"/>
<path d="M66.4425 79.5173C66.48 79.5173 66.518 79.5168 66.5555 79.5162C69.4414 79.4579 71.819 77.1562 71.9685 74.2758C72.0481 72.7423 71.5107 71.2854 70.4553 70.1736C69.4147 69.0776 67.9519 68.4491 66.442 68.4491C65.9352 68.4491 65.5047 68.4773 65.1205 68.5313L65.6484 65.3452H69.8194C70.5182 65.3452 71.0848 64.7787 71.0848 64.0798C71.0848 63.381 70.5182 62.8145 69.8194 62.8145H64.5755C63.9564 62.8145 63.4282 63.2622 63.3271 63.8732L62.2883 70.1435C62.2103 70.6144 62.4059 71.088 62.791 71.37C63.176 71.6521 63.6892 71.6924 64.1146 71.4759C64.1257 71.4704 64.1685 71.4491 64.237 71.4183C64.8251 71.1536 65.2964 70.9802 66.4422 70.9802C67.2733 70.9802 68.0469 71.3128 68.6201 71.9165C69.193 72.5199 69.4847 73.3113 69.4414 74.145C69.3604 75.7066 68.0705 76.9547 66.505 76.9862C64.9787 77.0174 63.6778 75.9068 63.468 74.4042C63.4488 74.2657 63.439 74.1241 63.439 73.9835C63.439 73.2847 62.8724 72.7181 62.1736 72.7181C61.4748 72.7181 60.9082 73.2847 60.9082 73.9835C60.9082 74.2406 60.9262 74.4996 60.9616 74.7538C61.3428 77.4878 63.6884 79.5175 66.4425 79.5173Z" fill="#E6F1FF"/>
<path d="M58.3615 67.5946C58.3615 64.9276 56.1917 62.7578 53.5247 62.7578C51.2186 62.7578 49.2227 64.3982 48.7787 66.6584C48.6439 67.3442 49.0908 68.0092 49.7764 68.144C50.462 68.2782 51.1272 67.8319 51.262 67.1463C51.4734 66.07 52.4249 65.2886 53.5246 65.2886C54.796 65.2886 55.8306 66.3231 55.8306 67.5946C55.8306 68.866 54.7962 69.9005 53.5246 69.9005C52.8257 69.9005 52.2592 70.4671 52.2592 71.1659C52.2592 71.8648 52.8257 72.4313 53.5246 72.4313C54.796 72.4313 55.8306 73.4659 55.8306 74.7373C55.8306 76.0087 54.7962 77.0433 53.5246 77.0433C52.3804 77.0433 51.3987 76.1909 51.2409 75.0603C51.2263 74.9546 51.2188 74.8458 51.2188 74.7373C51.2188 74.0384 50.6522 73.4719 49.9534 73.4719C49.2545 73.4719 48.688 74.0384 48.688 74.7373C48.688 74.9626 48.7036 75.189 48.7345 75.4102C49.0658 77.784 51.1251 79.574 53.5246 79.574C56.1916 79.574 58.3613 77.4043 58.3613 74.7373C58.3613 73.3243 57.752 72.0511 56.7827 71.1659C57.7522 70.281 58.3615 69.0076 58.3615 67.5946Z" fill="#E6F1FF"/>
<path d="M39.6436 69.9004C38.9447 69.9004 38.3782 70.4669 38.3782 71.1658C38.3782 71.8646 38.9447 72.4312 39.6436 72.4312H43.7239C44.4227 72.4312 44.9893 71.8646 44.9893 71.1658C44.9893 70.4669 44.4227 69.9004 43.7239 69.9004H39.6436Z" fill="#E6F1FF"/>
</svg>
