<svg width="88" height="88" viewBox="0 0 88 88" fill="none" xmlns="http://www.w3.org/2000/svg">
<path d="M60.5601 34.9545C60.4793 34.4811 60.0303 34.1639 59.5578 34.2437L57.4055 34.6111C56.9325 34.6919 56.6144 35.1404 56.6951 35.6134C56.767 36.0371 57.1348 36.3362 57.5501 36.3362C57.5989 36.3362 57.6477 36.3322 57.6974 36.3237L59.8497 35.9568C60.3227 35.8761 60.6408 35.4275 60.5601 34.9545Z" fill="#6E5C59"/>
<path d="M59.5441 39.0143L57.4721 37.8887C57.0502 37.6597 56.5226 37.8159 56.2937 38.2374C56.0648 38.6589 56.2209 39.1864 56.6424 39.4158L58.7149 40.541C58.8467 40.6129 58.9886 40.6466 59.1288 40.6466C59.4372 40.6466 59.7354 40.4824 59.8929 40.1923C60.1223 39.7708 59.9661 39.2432 59.5441 39.0143Z" fill="#6E5C59"/>
<path d="M27.8752 36.3239C27.9244 36.3323 27.9737 36.3363 28.022 36.3363C28.4378 36.3363 28.8056 36.0372 28.8775 35.6135C28.9582 35.1405 28.6401 34.692 28.1671 34.6112L26.0153 34.2439C25.5423 34.1636 25.0933 34.4812 25.0125 34.9546C24.9318 35.4276 25.2499 35.8762 25.7229 35.9569L27.8752 36.3239Z" fill="#6E5C59"/>
<path d="M28.1005 37.8887L26.0285 39.0143C25.6066 39.2432 25.4508 39.7708 25.6798 40.1927C25.8368 40.4824 26.1354 40.6466 26.4438 40.6466C26.584 40.6466 26.726 40.6129 26.8578 40.5415L28.9302 39.4158C29.3517 39.1864 29.5079 38.6593 29.2789 38.2374C29.0496 37.8159 28.5225 37.6597 28.1005 37.8887Z" fill="#6E5C59"/>
<path d="M62.3184 36.7769C62.4702 39.7784 66.3196 44.4398 65.8719 50.3865C65.4717 55.7067 62.964 62.1681 57.8306 65.4368C57.851 65.7305 57.8621 66.0029 57.8621 66.25C57.8621 69.4876 56.1601 71.3875 52.7029 72.4048C52.706 72.404 71.0648 68.4064 71.0692 48.8101C71.0737 28.8207 62.1183 32.8321 62.3184 36.7769Z" fill="#FDD8D8"/>
<path d="M60.6657 63.0566C59.8285 63.9595 58.8843 64.7648 57.8301 65.4361C57.851 65.7298 57.8621 66.0023 57.8621 66.2494C57.8621 69.4874 56.1601 71.3873 52.7029 72.4046C52.7029 72.4046 56.3979 71.5998 60.4727 68.9439C60.8179 68.171 60.9896 67.2779 60.9896 66.2494C60.9896 65.4264 60.8694 64.3278 60.6657 63.0566Z" fill="#F1CACA"/>
<path d="M47.1261 23.8177C47.1261 23.8177 49.5562 17.5905 51.6384 18.0214C53.7499 18.458 53.3399 25.4828 53.3399 25.4828C53.3399 25.4828 57.7014 32.1772 57.5603 36.0279C57.4192 39.8782 54.9439 42.4467 52.4943 42.9152C52.4943 42.9152 57.862 60.7345 57.862 66.2495C57.862 71.7641 52.9264 73.3986 42.7864 73.3986C32.646 73.3986 27.7104 71.7641 27.7104 66.2495C27.7104 60.7345 33.0782 42.9152 33.0782 42.9152C30.629 42.4467 28.1532 39.8782 28.0122 36.0279C27.8711 32.1772 32.2325 25.4828 32.2325 25.4828C32.2325 25.4828 31.8225 18.458 33.934 18.0214C36.0158 17.5905 38.4463 23.8177 38.4463 23.8177H47.1261Z" fill="#FFE3E3"/>
<path d="M42.7864 70.2708C33.5547 70.2708 28.6378 68.9153 27.8302 64.5117C27.7535 65.1728 27.7104 65.7602 27.7104 66.2492C27.7104 71.7638 32.6456 73.3983 42.786 73.3983C52.9264 73.3983 57.862 71.7633 57.862 66.2492C57.862 65.7602 57.8189 65.1728 57.7422 64.5117C56.9347 68.9153 52.0178 70.2708 42.7864 70.2708Z" fill="#FDD8D8"/>
<path d="M33.934 18.0214C31.8225 18.458 32.2325 25.4828 32.2325 25.4828C32.2325 25.4828 27.871 32.1772 28.0121 36.0279C28.0867 38.064 28.8143 39.7411 29.8454 40.9395C42.108 38.1971 41.0285 23.8177 41.0285 23.8177H38.4463C38.4463 23.8177 36.0158 17.5905 33.934 18.0214Z" fill="#6E5C59"/>
<path d="M51.6384 18.0214C53.7495 18.458 53.34 25.4828 53.34 25.4828C53.34 25.4828 57.7014 32.1772 57.5603 36.0279C57.4858 38.064 56.7581 39.7411 55.727 40.9395C43.4644 38.1971 44.5435 23.8177 44.5435 23.8177H47.1261C47.1261 23.8177 49.5562 17.5905 51.6384 18.0214Z" fill="#6E5C59"/>
<path d="M33.6367 52.8145C33.6367 52.8145 34.4837 75.2862 37.7177 75.2862C40.9518 75.2862 41.0285 55.0276 41.0285 55.0276" fill="#FFE3E3"/>
<path d="M51.9357 52.8145C51.9357 52.8145 51.0887 75.2862 47.8547 75.2862C44.6207 75.2862 44.5435 55.0276 44.5435 55.0276" fill="#FFE3E3"/>
<path d="M37.7178 76.1549C36.1334 76.1549 35.3653 73.9281 34.8737 71.9883C34.391 70.0858 33.9629 67.4467 33.6008 64.1448C32.9885 58.5606 32.7707 52.9036 32.7685 52.8468C32.7503 52.3676 33.1243 51.9643 33.6039 51.9461C34.0831 51.9253 34.4869 52.302 34.505 52.7816C34.5068 52.834 34.7087 58.0712 35.2691 63.4052C35.5961 66.5185 35.979 69.0511 36.4071 70.9323C37.0256 73.6508 37.5718 74.2697 37.7284 74.3966C37.964 74.2218 39.1025 72.9546 39.7596 64.5974C40.1376 59.7896 40.1598 55.0715 40.1598 55.024C40.1616 54.5452 40.5503 54.1588 41.0286 54.1588H41.0321C41.5117 54.1606 41.8991 54.551 41.8973 55.0306C41.8973 55.0817 41.8733 60.1885 41.4518 65.2292C41.202 68.2143 40.8626 70.6022 40.4433 72.3259C40.0436 73.9698 39.3261 76.1549 37.7178 76.1549Z" fill="#FDD8D8"/>
<path d="M47.8548 76.1549C46.2464 76.1549 45.529 73.9697 45.1288 72.3263C44.7095 70.6022 44.3705 68.2147 44.1207 65.2291C43.6992 60.1884 43.6753 55.0816 43.6748 55.0306C43.673 54.5509 44.0604 54.1605 44.5404 54.1587H44.5435C45.0218 54.1587 45.4105 54.5452 45.4123 55.0244C45.4127 55.0714 45.4349 59.798 45.8134 64.6057C46.4705 72.9555 47.6085 74.2217 47.8441 74.397C48.0007 74.2697 48.5469 73.6512 49.1654 70.9323C49.5936 69.0515 49.9765 66.5189 50.3035 63.4051C50.8638 58.0711 51.0657 52.8339 51.0675 52.7815C51.0857 52.3019 51.4925 51.9261 51.9686 51.9461C52.4478 51.9643 52.8218 52.3676 52.8041 52.8472C52.8019 52.9035 52.584 58.5605 51.9717 64.1452C51.6097 67.4467 51.1815 70.0857 50.6988 71.9887C50.2072 73.928 49.4392 76.1549 47.8548 76.1549Z" fill="#FDD8D8"/>
<path d="M25 10H13C10.7909 10 9 11.7909 9 14V26" stroke="#A0CAFE" stroke-width="6" stroke-linecap="round"/>
<path d="M63 10H75C77.2091 10 79 11.7909 79 14V26" stroke="#A0CAFE" stroke-width="6" stroke-linecap="round"/>
<path d="M63 79H75C77.2091 79 79 77.2091 79 75V63" stroke="#A0CAFE" stroke-width="6" stroke-linecap="round"/>
<path d="M25 79H13C10.7909 79 9 77.2091 9 75V63" stroke="#A0CAFE" stroke-width="6" stroke-linecap="round"/>
</svg>
