<svg width="88" height="88" viewBox="0 0 88 88" fill="none" xmlns="http://www.w3.org/2000/svg">
<path d="M71.948 6H69.1735H20.6956H15.8478C13.1705 6 11 8.1804 11 10.8699V60.6689C11 62.7511 12.6802 64.4391 14.753 64.4391H20.6956V79.7703C20.6956 80.3043 21.0603 80.7683 21.5772 80.8924L26.0589 81.9684C26.2345 82.0105 26.4174 82.0105 26.5928 81.9684L31.6893 80.7448C31.8648 80.7027 32.0478 80.7027 32.2232 80.7448L37.3188 81.9682C37.4943 82.0104 37.6772 82.0104 37.8528 81.9682L42.9485 80.7448C43.1241 80.7027 43.307 80.7027 43.4824 80.7448L48.5789 81.9684C48.7544 82.0105 48.9372 82.0105 49.1127 81.9684L54.2092 80.7448C54.3848 80.7027 54.5675 80.7027 54.7431 80.7448L59.8399 81.9684C60.0154 82.0105 60.1982 82.0105 60.3737 81.9684L65.4704 80.7448C65.6459 80.7027 65.8287 80.7027 66.0042 80.7448L71.1018 81.9684C71.2772 82.0105 71.4601 82.0105 71.6356 81.9684L76.1184 80.8924C76.6353 80.7683 77 80.3041 77 79.7702V11.0751C77 8.27213 74.7382 6 71.948 6Z" fill="#A0CAFE"/>
<path d="M16 6C13.2385 6 11 8.16402 11 10.8333V60.2582C11 62.3246 12.733 64 14.8709 64H21V10.8333C21 8.16402 18.7614 6 16 6Z" fill="#D9E9FF"/>
<path d="M71.8639 6H69.0432H68.4501V80.6808L67 81.0231L71.0036 81.9684C71.1819 82.0105 71.3679 82.0105 71.5463 81.9684L76.1038 80.8924C76.6293 80.7683 77 80.3041 77 79.7702V11.0751C77 8.27213 74.7005 6 71.8639 6Z" fill="#81B8FD"/>
<path d="M59.2581 40.6318H29.5185C28.881 40.6318 28.3643 40.115 28.3643 39.4775C28.3643 38.84 28.881 38.3232 29.5185 38.3232H59.2581C59.8956 38.3232 60.4124 38.84 60.4124 39.4775C60.4124 40.115 59.8956 40.6318 59.2581 40.6318Z" fill="#E6F1FF"/>
<path d="M59.2581 50.2353H29.5185C28.881 50.2353 28.3643 49.7185 28.3643 49.081C28.3643 48.4435 28.881 47.9268 29.5185 47.9268H59.2581C59.8956 47.9268 60.4124 48.4435 60.4124 49.081C60.4124 49.7185 59.8956 50.2353 59.2581 50.2353Z" fill="#E6F1FF"/>
<path d="M59.2581 59.8369H29.5185C28.881 59.8369 28.3643 59.3201 28.3643 58.6826C28.3643 58.0451 28.881 57.5283 29.5185 57.5283H59.2581C59.8956 57.5283 60.4124 58.0451 60.4124 58.6826C60.4124 59.3201 59.8956 59.8369 59.2581 59.8369Z" fill="#E6F1FF"/>
<path d="M59.2581 69.4404H29.5185C28.881 69.4404 28.3643 68.9236 28.3643 68.2861C28.3643 67.6486 28.881 67.1318 29.5185 67.1318H59.2581C59.8956 67.1318 60.4124 67.6486 60.4124 68.2861C60.4124 68.9236 59.8956 69.4404 59.2581 69.4404Z" fill="#E6F1FF"/>
<path d="M33.4244 31.7075C30.3284 31.6342 28 30.049 28 28.6832C28 28.0003 28.6398 26.9756 29.4328 26.9756C30.405 26.9756 31.1729 28.5613 33.4244 28.8049V23.9513C31.096 23.122 28.4606 22.1709 28.4606 19.0488C28.4606 15.9512 30.8659 14.6096 33.4244 14.2925V13.6096C33.4244 13.2925 33.8081 13 34.2944 13C34.7293 13 35.1643 13.2927 35.1643 13.6096V14.2439C36.8275 14.2925 39.5396 14.756 39.5396 16.1707C39.5396 16.7316 39.1303 17.8536 38.1835 17.8536C37.4671 17.8536 36.8786 17.0732 35.1641 16.9513V21.2439C37.4414 22.0489 40 23.1462 40 26.4635C40 29.4633 38.0299 31.1951 35.1641 31.6342V32.3904C35.1641 32.7075 34.7291 33 34.2941 33C33.8081 33 33.4242 32.7073 33.4242 32.3904L33.4244 31.7075ZM33.6292 20.7073V17.0243C32.3497 17.2196 31.5823 17.805 31.5823 18.7317C31.582 19.805 32.4522 20.2683 33.6292 20.7073ZM34.9595 24.5367V28.7807C36.0855 28.5613 36.8786 27.927 36.8786 26.7806C36.8786 25.5856 36.0599 25.0002 34.9595 24.5367Z" fill="#FF5F7A"/>
<path d="M66 6H71V82L66 81V6Z" fill="#A0CAFE"/>
</svg>
