<svg width="64" height="64" viewBox="0 0 64 64" fill="none" xmlns="http://www.w3.org/2000/svg">
<path d="M30.3916 16.377C30.3907 16.3509 30.3897 16.3249 30.3886 16.2989C30.3839 16.1901 30.378 16.0815 30.3697 15.9736C30.3695 15.9712 30.3692 15.9688 30.3691 15.9665C30.3607 15.8596 30.3502 15.7532 30.3383 15.6473C30.3358 15.6248 30.3333 15.6024 30.3306 15.58C30.3177 15.4711 30.3034 15.3626 30.2867 15.2549C30.2865 15.254 30.2864 15.2532 30.2862 15.2522C30.2696 15.1445 30.2505 15.0375 30.2302 14.9309C30.227 14.9135 30.2236 14.896 30.2202 14.8785C29.6983 12.22 28.1822 10.6305 28.1904 10.6427C23.2967 4.81827 13.8473 6.92598 11.8634 14.2334C11.3135 16.2634 11.6336 17.6632 11.5354 19.4983H30.3978V16.7054C30.3978 16.5955 30.3952 16.486 30.3916 16.377Z" fill="#6F5C59"/>
<path d="M21.9069 7.32092C17.2502 6.85525 13.0483 9.8629 11.8634 14.233C11.3135 16.2631 11.6336 17.6635 11.5354 19.498H13.416V16.7051C13.416 11.8273 17.1161 7.79566 21.9069 7.32092Z" fill="#5F4C49"/>
<path d="M34.6778 53.3718C32.9207 37.8124 33.0198 38.2515 32.8625 37.4911C32.6071 36.2562 31.863 35.2828 30.8298 34.6518L30.794 34.6429C30.3543 34.3795 29.8641 34.1719 29.3378 34.0203L24.2719 32.7591C24.1073 32.6845 23.9932 32.4393 23.9932 32.1596V29.4033C22.1127 30.2354 19.888 30.2518 17.9761 29.4191V32.1596C17.9761 32.4393 17.8622 32.6845 17.6975 32.7591C13.4119 33.9008 12.4589 33.874 11.1754 34.6429L11.1395 34.6518C10.1101 35.2806 9.36304 36.2525 9.10688 37.4911C8.94934 38.2527 9.0583 37.726 7.29155 53.3718C7.123 55.3213 8.15063 56.7272 10.034 56.7272C16.6474 56.7272 24.7426 56.7272 31.9354 56.7272C33.8161 56.7271 34.847 55.328 34.6778 53.3718Z" fill="#FFE3E3"/>
<path d="M9.76043 53.9106C9.75048 53.3346 9.71899 54.0715 11.4726 37.2448C11.6868 35.4882 12.2752 34.664 13.3634 33.8379C13.0971 33.9204 12.1674 34.0486 11.1754 34.6427L11.1396 34.6516C10.1102 35.2803 9.36306 36.2523 9.1069 37.4909C8.94936 38.2525 9.05831 37.7258 7.29157 53.3716C7.12263 55.3252 8.15442 56.7271 10.034 56.7271C11.5738 56.7271 10.9816 56.7271 12.5217 56.7271C10.7281 56.7271 9.72923 55.3773 9.76043 53.9106Z" fill="#FDD8D8"/>
<path d="M32.8625 37.4905C32.6071 36.2556 31.863 35.2822 30.8298 34.6512L30.794 34.6423C30.3543 34.3789 29.8641 34.1713 29.3378 34.0197L25.6853 33.1104C23.4058 36.3902 18.5642 36.3912 16.2839 33.1104C13.3186 33.916 12.3981 33.9098 11.1753 34.6423L11.1395 34.6512C10.11 35.28 9.36301 36.2519 9.10685 37.4905C8.95453 38.2265 8.9951 38.2797 8.17987 45.4328H13.5336L12.9366 56.7267C16.1365 56.7267 25.6572 56.7267 29.0328 56.7267L28.4357 45.4328H33.7895C32.9635 38.1858 33.0159 38.232 32.8625 37.4905Z" fill="#A0CAFE"/>
<path d="M8.17987 45.4331H10.6128L11.4726 37.2448C11.6868 35.4882 12.2751 34.664 13.3633 33.8379C13.074 33.9269 12.1851 34.0378 11.1753 34.6427L11.1395 34.6516C10.8128 34.8511 10.3193 35.2391 9.96187 35.6767C8.89976 36.9766 9.06097 37.7432 8.17987 45.4331Z" fill="#81B8FD"/>
<path d="M30.8671 20.1426C30.8671 21.2295 29.7155 22.1105 28.4176 22.1105V18.1748C29.7155 18.1748 30.8671 19.0557 30.8671 20.1426Z" fill="#FDD8D8"/>
<path d="M11.0659 20.1426C11.0659 21.2295 12.2176 22.1105 13.5156 22.1105V18.1748C12.2176 18.1748 11.0659 19.0557 11.0659 20.1426Z" fill="#FDD8D8"/>
<path d="M28.4177 20.4187V22.1108C30.1314 22.1108 31.4348 20.625 30.6205 19.2969C30.2137 19.9603 29.3538 20.4187 28.4177 20.4187Z" fill="#FDD8D8"/>
<path d="M11.3127 19.2969C10.4915 20.6363 11.8164 22.1108 13.5156 22.1108V20.4187C12.5793 20.4187 11.7194 19.9603 11.3127 19.2969Z" fill="#FDD8D8"/>
<path d="M18.3336 34.9207L19.5511 34.555C20.1252 34.3825 20.5183 33.8541 20.5183 33.2548V30.0212C19.6094 29.9679 18.7627 29.7613 17.9761 29.4189V32.1595C17.9761 32.4391 17.8622 32.6844 17.6975 32.759L16.2841 33.1108C16.8097 33.8672 17.5131 34.4904 18.3336 34.9207Z" fill="#FDD8D8"/>
<path d="M28.1342 17.6283C28.0676 17.6123 27.9933 17.5918 27.9122 17.5659H27.9119C27.1991 17.338 25.9676 16.6814 24.9816 14.7894C24.7814 14.4052 24.2265 14.4148 24.0405 14.806C23.1343 16.7118 19.4926 19.3532 13.9187 17.8286C13.6721 17.7612 13.4161 17.9413 13.4161 18.2145C13.4347 22.7622 13.3717 22.9358 13.4791 23.7643C13.957 27.4441 17.0947 30.3133 20.9216 30.3335C23.5795 30.3493 26.0126 28.9795 27.3922 26.7518C28.9136 24.2934 28.4506 22.3572 28.5175 18.2145C28.5175 17.8656 28.307 17.7033 28.1342 17.6283Z" fill="#FFE3E3"/>
<path d="M16.0506 24.2625C16.0313 24.1653 16.0049 24.0587 15.9668 23.7643C15.8752 23.0585 15.9036 18.2272 15.9037 18.2131C15.2728 18.1429 14.6106 18.0179 13.9187 17.8286C13.6721 17.7612 13.416 17.9414 13.416 18.2145V22.7839C13.416 23.1162 13.4375 23.4435 13.4791 23.7644C14.0218 27.9504 17.9455 30.9377 22.2106 30.2304C22.0217 30.1991 16.6626 27.3412 16.0506 24.2625Z" fill="#FDD8D8"/>
<path d="M56.1245 28.4372C55.0809 25.1989 53.5669 23.3163 52.686 22.6328C52.4825 23.3334 51.869 23.8594 51.1222 23.9331C52.6369 26.0408 52.4112 28.2565 52.3384 29.508C52.3056 30.0708 52.812 30.5126 53.364 30.3981L55.2027 30.0168C55.9177 29.8685 56.3485 29.1323 56.1245 28.4372Z" fill="#6F5C59"/>
<path d="M51.0458 24.0428C52.0465 24.0428 52.8578 23.2316 52.8578 22.2309C52.8578 21.2302 52.0465 20.4189 51.0458 20.4189C50.0451 20.4189 49.2339 21.2302 49.2339 22.2309C49.2339 23.2316 50.0451 24.0428 51.0458 24.0428Z" fill="#FF5F7A"/>
<path d="M50.653 20.4619C49.8415 20.6416 49.234 21.3643 49.234 22.2299C49.234 23.2306 50.0452 24.0419 51.046 24.0419C51.867 24.0419 52.5595 23.4954 52.7821 22.7467C51.4325 23.0453 50.2593 21.7866 50.653 20.4619Z" fill="#FB4455"/>
<path d="M29.8906 28.4372C30.9343 25.1989 32.4483 23.3163 33.3292 22.6328C33.5327 23.3334 34.1461 23.8594 34.893 23.9331C33.3782 26.0408 33.604 28.2565 33.6768 29.508C33.7096 30.0708 33.2031 30.5126 32.6512 30.3981L30.8125 30.0168C30.0975 29.8685 29.6667 29.1323 29.8906 28.4372Z" fill="#5F4C49"/>
<path d="M34.969 24.0428C35.9698 24.0428 36.781 23.2316 36.781 22.2309C36.781 21.2302 35.9698 20.4189 34.969 20.4189C33.9683 20.4189 33.1571 21.2302 33.1571 22.2309C33.1571 23.2316 33.9683 24.0428 34.969 24.0428Z" fill="#FF5F7A"/>
<path d="M36.4255 21.155C35.3884 19.7522 33.1573 20.4855 33.1573 22.2298C33.1573 23.1811 33.891 23.9597 34.8232 24.0343C33.9097 22.7987 34.8632 21.0301 36.4255 21.155Z" fill="#FB4455"/>
<path d="M55.0119 38.2396C54.8315 36.76 54.3081 35.5373 52.8573 34.6512L52.8215 34.6423C51.543 33.8764 50.6136 33.9079 46.2994 32.7585C46.1348 32.6839 46.0207 32.4387 46.0207 32.1591V29.417C44.0253 30.2885 41.8024 30.1989 40.0036 29.4043V32.1592C40.0036 32.4388 39.8896 32.684 39.7249 32.7586C35.4394 33.9003 34.4863 33.8735 33.2028 34.6424L33.167 34.6513C31.7468 35.5188 31.2009 36.694 31.0124 38.2397L29.319 53.3714C29.1494 55.3332 30.1893 56.7268 32.0614 56.7268C32.9667 56.7268 53.0171 56.7268 53.9629 56.7268C55.781 56.7268 56.7615 55.3419 56.7241 53.9104C56.7342 53.3215 56.7818 54.1958 55.0119 38.2396Z" fill="#FFE3E3"/>
<path d="M31.8065 53.3711C33.561 36.9453 33.4524 37.4138 33.6218 36.5948C33.8729 35.3809 34.582 34.436 35.6121 33.7822C35.1936 33.909 34.2395 34.0211 33.2026 34.6422L33.1667 34.6511C31.7465 35.5184 31.2006 36.6939 31.0122 38.2395L29.3187 53.3712C29.1492 55.333 30.189 56.7266 32.0611 56.7266C33.601 56.7266 33.0087 56.7266 34.5488 56.7266C32.6661 56.7265 31.6377 55.3246 31.8065 53.3711Z" fill="#FDD8D8"/>
<path d="M49.3554 9.56639C42.977 4.2454 33.1261 8.76034 33.1261 17.2024C33.1261 18.1629 33.1261 18.8373 33.1261 19.8166C34.0566 19.8166 52.0021 19.8166 52.9273 19.8166V18.6543C52.8238 18.0982 53.689 13.1879 49.3554 9.56639Z" fill="#6F5C59"/>
<path d="M35.4759 17.2031C35.4759 12.1243 39.2793 7.92645 44.2016 7.34275C38.2891 6.64179 33.1261 11.2736 33.1261 17.2031C33.1261 18.1636 33.1261 18.838 33.1261 19.8173H35.4759C35.4759 18.8377 35.4759 18.1634 35.4759 17.2031Z" fill="#5F4C49"/>
<path d="M33.1261 19.8174C33.1261 20.9043 34.1783 21.7853 35.4761 21.7853V17.8496C34.1783 17.8496 33.1261 18.7306 33.1261 19.8174Z" fill="#FDD8D8"/>
<path d="M52.9273 19.8174C52.9273 20.9043 51.8752 21.7853 50.5773 21.7853V17.8496C51.8753 17.8496 52.9273 18.7306 52.9273 19.8174Z" fill="#FDD8D8"/>
<path d="M33.3468 18.9844C32.6235 20.2789 33.7491 21.785 35.476 21.785V20.1195C34.5338 20.1195 33.7213 19.6549 33.3468 18.9844Z" fill="#FDD8D8"/>
<path d="M50.5771 20.1195V21.785C52.3153 21.785 53.426 20.272 52.7065 18.9844C52.3319 19.6549 51.5196 20.1195 50.5771 20.1195Z" fill="#FDD8D8"/>
<path d="M55.4853 42.4714C55.0232 38.4622 55.0382 38.2082 54.8898 37.4909C54.6342 36.2553 53.8892 35.2819 52.8571 34.6516L52.8213 34.6427C51.5606 33.8875 50.574 33.8928 47.1105 32.9608C47.0471 33.2946 47.4852 35.2216 45.877 36.7909C43.274 39.3278 38.9426 37.4569 38.9426 33.8663C38.9426 33.8362 38.9426 32.9106 38.9426 32.9536C35.3915 33.9088 34.453 33.8937 33.2027 34.6427L33.1668 34.6516C30.557 36.2457 31.1636 38.5094 30.5387 42.4714L35.6859 43.6361L34.9938 56.727H51.0593L50.3672 43.6361L55.4853 42.4714Z" fill="#A0CAFE"/>
<path d="M30.6017 41.9085L30.5387 42.4709L32.9018 43.0056C33.5005 37.5003 33.4595 37.3802 33.622 36.5948C33.873 35.3809 34.5821 34.436 35.6122 33.7822C35.1937 33.909 34.2396 34.0211 33.2028 34.6422L33.1668 34.6511C30.5699 36.2369 31.1415 38.5738 30.6017 41.9085Z" fill="#81B8FD"/>
<path d="M38.9427 32.9536L36.3577 33.5972C36.4065 40.3311 44.4643 42.6534 48.254 37.8746C49.8554 35.8576 49.6784 33.6926 49.6957 33.6044L47.1106 32.9608C47.0473 33.2946 47.4853 35.2216 45.8772 36.7909C43.2741 39.3278 38.9427 37.4568 38.9427 33.8663C38.9427 33.8362 38.9427 32.9107 38.9427 32.9536Z" fill="#A0CAFE"/>
<path d="M39.1424 35.1287C39.0076 34.7152 38.9427 34.2927 38.9427 33.8663C38.9427 33.8361 38.9427 32.9106 38.9427 32.9536L36.3577 33.5972C36.3916 38.2606 40.4672 41.0625 44.3451 40.2709C41.6073 39.7123 39.6064 37.5163 39.1424 35.1287Z" fill="#A0CAFE"/>
<path d="M38.9426 33.8659C38.9426 34.4461 39.0633 35.0269 39.3207 35.5813L41.2996 34.9264C42.0008 34.6944 42.4743 34.039 42.4743 33.3005V30.0134C41.5785 29.9486 40.7446 29.7317 40.0035 29.4043V32.1592C40.0035 32.4388 39.8895 32.684 39.7248 32.7586L38.9426 32.9533C38.9426 32.9864 38.9426 33.8762 38.9426 33.8659Z" fill="#FDD8D8"/>
<path d="M42.5063 15.3435C40.8119 18.1621 37.2147 17.7286 35.9376 17.4706C35.6986 17.4223 35.4759 17.6059 35.4759 17.8497C35.4759 23.1908 35.473 22.8427 35.4823 23.0814C35.4828 23.0924 35.4825 23.1035 35.4829 23.1144C35.4837 23.133 35.4856 23.1512 35.4865 23.1697C35.4902 23.2421 35.4948 23.3142 35.5005 23.3861C35.5028 23.4155 35.505 23.4451 35.5077 23.4745C35.5163 23.5692 35.5261 23.6635 35.5382 23.7571C35.5385 23.7595 35.5387 23.7619 35.539 23.7642C36.3616 30.1001 44.1837 32.5489 48.5134 27.9707C51.0237 25.2992 50.5158 22.3347 50.5774 21.6797V18.9537V17.8497C50.5774 17.6059 50.3546 17.4223 50.1157 17.4706C48.8385 17.7286 45.2413 18.1621 43.5469 15.3435C43.3107 14.9506 42.7425 14.9506 42.5063 15.3435Z" fill="#FFE3E3"/>
<path d="M39.8534 27.7793C37.5132 25.0964 38.0333 22.3507 37.9636 21.6798V18.9538V17.8498C37.9636 17.7786 37.9843 17.7137 38.0171 17.6571C37.1552 17.678 36.3964 17.5634 35.9376 17.4706C35.6986 17.4223 35.4759 17.606 35.4759 17.8498C35.4759 23.1799 35.473 22.8433 35.4823 23.0815C35.4828 23.0924 35.4825 23.1036 35.4829 23.1145C35.4837 23.1331 35.4856 23.1513 35.4865 23.1698C35.4902 23.2421 35.4948 23.3143 35.5005 23.3861C35.5028 23.4156 35.505 23.4452 35.5077 23.4746C35.5163 23.5693 35.5261 23.6636 35.5382 23.7571C35.5385 23.7596 35.5387 23.762 35.539 23.7643C36.0881 27.9956 40.0406 30.9317 44.2705 30.2303C42.6382 29.9598 40.9934 29.0849 39.8534 27.7793Z" fill="#FDD8D8"/>
</svg>
