<svg width="48" height="48" viewBox="0 0 48 48" fill="none" xmlns="http://www.w3.org/2000/svg">
<path d="M30.0399 42.7334L28.0266 35.9385" stroke="#2A7EF9" stroke-width="2" stroke-miterlimit="10" stroke-linecap="round" stroke-linejoin="round"/>
<path d="M19.9733 35.9385L17.96 42.7334" stroke="#2A7EF9" stroke-width="2" stroke-miterlimit="10" stroke-linecap="round" stroke-linejoin="round"/>
<mask id="mask0_877_5140" style="mask-type:luminance" maskUnits="userSpaceOnUse" x="3" y="4" width="42" height="42">
<path d="M3 4H45V46H3V4Z" fill="white"/>
</mask>
<g mask="url(#mask0_877_5140)">
<path d="M3.61523 30.9668H44.3848" stroke="#2A7EF9" stroke-width="2" stroke-miterlimit="10" stroke-linecap="round" stroke-linejoin="round"/>
<path d="M8.7307 4.61566H6.10078C4.7284 4.61566 3.61523 5.72883 3.61523 7.10121V33.4529C3.61523 34.8253 4.7284 35.9385 6.10078 35.9385H33.5025" stroke="#2A7EF9" stroke-width="2" stroke-miterlimit="10" stroke-linecap="round" stroke-linejoin="round"/>
<path d="M11.6018 4.61566H41.8992C43.2716 4.61566 44.3848 5.72883 44.3848 7.10121V33.4529C44.3848 34.8253 43.2716 35.9385 41.8992 35.9385H36.3736" stroke="#2A7EF9" stroke-width="2" stroke-miterlimit="10" stroke-linecap="round" stroke-linejoin="round"/>
</g>
<path d="M14 43H34" stroke="#2A7EF9" stroke-width="2" stroke-linecap="round"/>
<path d="M11.2486 17.6851L11.2441 17.6935L11.2402 17.7021C11.1489 17.9076 11.1358 18.1276 11.2494 18.3294C13.8426 23.2211 18.7404 26.2502 23.9917 26.2502C29.2276 26.2502 34.1256 23.2196 36.7519 18.3275L36.7563 18.3193L36.76 18.3108C36.8515 18.1051 36.8645 17.8848 36.7504 17.6827C34.124 12.8096 29.2271 9.7627 23.9917 9.7627C18.755 9.7627 13.8745 12.8109 11.2486 17.6851ZM23.9748 24.9221C19.3335 24.9221 14.9902 22.2896 12.55 17.9902C15.0064 13.7072 19.3499 11.0908 23.9917 11.0908C28.6173 11.0908 32.9765 13.7077 35.4 17.9894C32.9599 22.2893 28.6163 24.9221 23.9748 24.9221Z" fill="#2A7EF9" stroke="#2A7EF9" stroke-width="0.5"/>
<path d="M18.8914 17.9897C18.8914 20.8138 21.1654 23.1069 23.9917 23.1069C26.7842 23.1069 29.0751 20.8138 29.0751 17.9897C29.0751 15.182 26.8175 12.9062 23.9917 12.9062C21.1845 12.9062 18.8914 15.1803 18.8914 17.9897ZM20.2026 17.9897C20.2026 15.9321 21.8976 14.2344 23.9917 14.2344C26.0682 14.2344 27.7639 15.9314 27.7639 17.9897C27.7639 20.0831 26.0669 21.7788 23.9917 21.7788C21.899 21.7788 20.2026 20.0824 20.2026 17.9897Z" fill="#2A7EF9" stroke="#2A7EF9" stroke-width="0.5"/>
<path d="M20.9 18.3462C20.9 18.6381 21.1307 18.8687 21.4225 18.8687C21.5536 18.8687 21.6787 18.8094 21.77 18.7231C21.8613 18.6369 21.9281 18.5148 21.9281 18.38C21.9281 17.0499 23.0321 15.945 24.38 15.945C24.6719 15.945 24.9025 15.7143 24.9025 15.4225C24.9025 15.1307 24.6719 14.9 24.38 14.9C22.4668 14.9 20.9 16.4479 20.9 18.3462Z" fill="#2A7EF9" stroke="#2A7EF9" stroke-width="0.2"/>
</svg>
