<svg width="48" height="48" viewBox="0 0 48 48" fill="none" xmlns="http://www.w3.org/2000/svg">
<path d="M43.1481 43H37.8519C37.626 43 37.4093 42.916 37.2495 42.7666C37.0898 42.6172 37 42.4145 37 42.2032V21.7968C37 21.5855 37.0898 21.3828 37.2495 21.2334C37.4093 21.084 37.626 21 37.8519 21H43.1481C43.374 21 43.5907 21.084 43.7505 21.2334C43.9102 21.3828 44 21.5855 44 21.7968V42.2032C44 42.4145 43.9102 42.6172 43.7505 42.7666C43.5907 42.916 43.374 43 43.1481 43ZM38.7038 41.4063H42.2962V22.5937H38.7038V41.4063Z" fill="#2A7EF9"/>
<path d="M31.2698 43H26.7302C26.5365 43 26.3508 42.9144 26.2139 42.7619C26.0769 42.6094 26 42.4027 26 42.187V26.813C26 26.5973 26.0769 26.3906 26.2139 26.2381C26.3508 26.0857 26.5365 26 26.7302 26H31.2698C31.4635 26 31.6492 26.0857 31.7861 26.2381C31.9231 26.3906 32 26.5973 32 26.813V42.187C32 42.4027 31.9231 42.6094 31.7861 42.7619C31.6492 42.9144 31.4635 43 31.2698 43ZM27.4604 41.3741H30.5396V27.6259H27.4604V41.3741Z" fill="#2A7EF9"/>
<path d="M20.1481 43H14.8519C14.626 43 14.4093 42.916 14.2495 42.7666C14.0898 42.6172 14 42.4145 14 42.2032V21.7968C14 21.5855 14.0898 21.3828 14.2495 21.2334C14.4093 21.084 14.626 21 14.8519 21H20.1481C20.374 21 20.5907 21.084 20.7505 21.2334C20.9102 21.3828 21 21.5855 21 21.7968V42.2032C21 42.4145 20.9102 42.6172 20.7505 42.7666C20.5907 42.916 20.374 43 20.1481 43ZM15.7038 41.4063H19.2962V22.5937H15.7038V41.4063Z" fill="#2A7EF9"/>
<path d="M10.1481 43H4.85191C4.62597 43 4.40928 42.9136 4.24952 42.7599C4.08975 42.6061 4 42.3976 4 42.1801V27.8199C4 27.6024 4.08975 27.3939 4.24952 27.2401C4.40928 27.0864 4.62597 27 4.85191 27H10.1481C10.374 27 10.5907 27.0864 10.7505 27.2401C10.9102 27.3939 11 27.6024 11 27.8199V42.1801C11 42.3976 10.9102 42.6061 10.7505 42.7599C10.5907 42.9136 10.374 43 10.1481 43ZM5.70381 41.3603H9.29619V28.6397H5.70381V41.3603Z" fill="#2A7EF9"/>
<path d="M17.5 14C16.61 14 15.74 13.7361 14.9999 13.2416C14.2599 12.7471 13.6831 12.0443 13.3425 11.2221C13.0019 10.3998 12.9128 9.49501 13.0865 8.6221C13.2601 7.74918 13.6887 6.94736 14.318 6.31802C14.9474 5.68869 15.7492 5.2601 16.6221 5.08647C17.495 4.91283 18.3998 5.00195 19.2221 5.34254C20.0443 5.68314 20.7471 6.25991 21.2416 6.99994C21.7361 7.73996 22 8.60999 22 9.5C21.9987 10.6931 21.5241 11.8369 20.6805 12.6805C19.8369 13.5241 18.6931 13.9987 17.5 14ZM17.5 6.62108C16.9306 6.62108 16.374 6.78992 15.9006 7.10626C15.4271 7.4226 15.0581 7.87223 14.8402 8.39828C14.6223 8.92434 14.5653 9.5032 14.6764 10.0617C14.7875 10.6201 15.0617 11.1331 15.4643 11.5357C15.8669 11.9383 16.3799 12.2125 16.9384 12.3236C17.4968 12.4347 18.0757 12.3777 18.6017 12.1598C19.1278 11.9419 19.5774 11.5729 19.8937 11.0994C20.2101 10.626 20.3789 10.0694 20.3789 9.5C20.3785 8.7364 20.0751 8.00416 19.5354 7.46402C18.9956 6.92388 18.2636 6.61999 17.5 6.61905V6.62108Z" fill="#2A7EF9"/>
<path d="M7.5 24C6.60994 24 5.73987 23.7361 4.99983 23.2415C4.25979 22.747 3.68301 22.0442 3.34245 21.2218C3.00188 20.3995 2.91283 19.4947 3.08654 18.6217C3.26026 17.7488 3.68894 16.947 4.31838 16.3177C4.94782 15.6884 5.74973 15.2599 6.62272 15.0863C7.4957 14.9128 8.40053 15.0021 9.22278 15.3428C10.045 15.6836 10.7478 16.2605 11.2421 17.0007C11.7365 17.7408 12.0002 18.611 12 19.501C11.9984 20.6939 11.5237 21.8375 10.6801 22.6809C9.83655 23.5243 8.69289 23.9987 7.5 24ZM7.5 16.6211C6.93065 16.6211 6.37408 16.7899 5.90066 17.1062C5.42725 17.4225 5.05825 17.8721 4.84032 18.398C4.62239 18.924 4.56532 19.5028 4.67632 20.0613C4.78732 20.6197 5.06141 21.1327 5.46394 21.5354C5.86646 21.938 6.37934 22.2123 6.93773 22.3235C7.49612 22.4347 8.07494 22.3778 8.60102 22.1601C9.12709 21.9423 9.57678 21.5735 9.89325 21.1002C10.2097 20.6269 10.3787 20.0704 10.3789 19.501C10.3784 18.7375 10.0749 18.0055 9.53518 17.4655C8.99542 16.9256 8.26347 16.6219 7.5 16.6211Z" fill="#2A7EF9"/>
<path d="M28.5 22C27.61 22 26.74 21.7361 25.9999 21.2416C25.2599 20.7471 24.6831 20.0443 24.3425 19.2221C24.0019 18.3998 23.9128 17.495 24.0865 16.6221C24.2601 15.7492 24.6887 14.9474 25.318 14.318C25.9474 13.6887 26.7492 13.2601 27.6221 13.0865C28.495 12.9128 29.3998 13.0019 30.2221 13.3425C31.0443 13.6831 31.7471 14.2599 32.2416 14.9999C32.7361 15.74 33 16.61 33 17.5C32.9987 18.6931 32.5241 19.8369 31.6805 20.6805C30.8369 21.5241 29.6931 21.9987 28.5 22ZM28.5 14.6211C27.9306 14.6211 27.374 14.7899 26.9006 15.1063C26.4271 15.4226 26.0581 15.8722 25.8402 16.3983C25.6223 16.9243 25.5653 17.5032 25.6764 18.0617C25.7875 18.6201 26.0617 19.1331 26.4643 19.5357C26.8669 19.9383 27.3799 20.2125 27.9383 20.3236C28.4968 20.4347 29.0757 20.3777 29.6017 20.1598C30.1278 19.9419 30.5774 19.5729 30.8937 19.0994C31.2101 18.626 31.3789 18.0694 31.3789 17.5C31.3781 16.7367 31.0745 16.0049 30.5348 15.4652C29.9951 14.9255 29.2633 14.6219 28.5 14.6211Z" fill="#2A7EF9"/>
<path d="M40.5 14C39.61 14 38.74 13.7361 37.9999 13.2416C37.2599 12.7471 36.6831 12.0443 36.3425 11.2221C36.002 10.3998 35.9128 9.49501 36.0865 8.62209C36.2601 7.74918 36.6887 6.94736 37.318 6.31802C37.9474 5.68868 38.7492 5.2601 39.6221 5.08647C40.495 4.91283 41.3998 5.00195 42.2221 5.34254C43.0443 5.68314 43.7471 6.25991 44.2416 6.99994C44.7361 7.73996 45 8.60999 45 9.5C44.9987 10.6931 44.5241 11.8369 43.6805 12.6805C42.8369 13.5241 41.6931 13.9987 40.5 14ZM40.5 6.62108C39.9306 6.62108 39.374 6.78992 38.9006 7.10626C38.4271 7.4226 38.0581 7.87223 37.8402 8.39828C37.6223 8.92434 37.5653 9.50319 37.6764 10.0617C37.7875 10.6201 38.0617 11.1331 38.4643 11.5357C38.8669 11.9383 39.3799 12.2125 39.9384 12.3236C40.4968 12.4347 41.0757 12.3777 41.6017 12.1598C42.1278 11.9419 42.5774 11.5729 42.8937 11.0994C43.2101 10.626 43.3789 10.0694 43.3789 9.5C43.378 8.73675 43.0744 8.00503 42.5347 7.46533C41.995 6.92563 41.2633 6.62201 40.5 6.62108Z" fill="#2A7EF9"/>
<path d="M9.88466 17C9.70948 16.9998 9.53828 16.955 9.39273 16.8712C9.24718 16.7873 9.13382 16.6682 9.06699 16.529C9.00015 16.3897 8.98284 16.2365 9.01725 16.0888C9.05166 15.9411 9.13624 15.8055 9.2603 15.6991L14.4894 11.2219C14.6558 11.0794 14.8813 10.9996 15.1162 11C15.3511 11.0004 15.5762 11.0811 15.742 11.2243C15.9077 11.3674 16.0005 11.5614 16 11.7634C15.9995 11.9654 15.9057 12.1589 15.7392 12.3015L10.5096 16.7782C10.4275 16.8487 10.3301 16.9046 10.2228 16.9426C10.1156 16.9807 10.0007 17.0002 9.88466 17Z" fill="#2A7EF9"/>
<path d="M31.7857 16C31.6201 16.0002 31.4586 15.9531 31.3245 15.8655C31.1903 15.7779 31.0904 15.6542 31.0389 15.5122C30.9874 15.3701 30.987 15.2171 31.0379 15.0748C31.0887 14.9326 31.1881 14.8086 31.3218 14.7204L36.7522 11.1365C36.9202 11.0257 37.1301 10.9796 37.3357 11.0084C37.5413 11.0372 37.7259 11.1385 37.8487 11.29C37.9715 11.4416 38.0226 11.631 37.9907 11.8165C37.9588 12.002 37.8465 12.1685 37.6785 12.2794L32.2481 15.8633C32.114 15.9521 31.952 16 31.7857 16Z" fill="#2A7EF9"/>
<path d="M26.2174 16C26.0514 16.0001 25.8898 15.9524 25.7558 15.8639L20.3278 12.2864C20.2435 12.2318 20.1721 12.1627 20.1175 12.083C20.063 12.0034 20.0264 11.9147 20.01 11.8222C19.9935 11.7297 19.9975 11.6352 20.0217 11.544C20.0458 11.4529 20.0897 11.367 20.1508 11.2913C20.2119 11.2156 20.289 11.1516 20.3775 11.103C20.4661 11.0544 20.5645 11.0221 20.667 11.008C20.7694 10.994 20.874 10.9984 20.9745 11.021C21.0751 11.0437 21.1697 11.0841 21.2529 11.14L26.6795 14.7184C26.8127 14.8067 26.9116 14.9309 26.9623 15.0731C27.0129 15.2153 27.0126 15.3683 26.9614 15.5103C26.9102 15.6524 26.8107 15.7762 26.6771 15.8641C26.5435 15.952 26.3826 15.9996 26.2174 16Z" fill="#2A7EF9"/>
</svg>
