<svg width="88" height="88" viewBox="0 0 88 88" fill="none" xmlns="http://www.w3.org/2000/svg">
<path d="M71.9845 8.60878L71.6755 78.642C71.6755 79.4744 71.0007 80.1492 70.1683 80.1492L65.5253 81.0006H28.7987C28.5803 81.0006 28.3685 80.9529 28.1747 80.8643L26.1199 71.1008C26.1199 70.2848 25.4581 69.623 24.6421 69.623L15.4992 68.1888C15.4088 67.995 15.3613 67.7816 15.3613 67.5648V7.59513C15.3613 6.7627 16.0361 6.08789 16.8686 6.08789H68.5338L70.4771 7.10154C71.3097 7.10154 71.9845 7.77635 71.9845 8.60878Z" fill="#A0CAFE"/>
<path d="M28.1749 69.6672V80.8648C28.0123 80.7909 27.863 80.6892 27.7333 80.5595L15.8033 68.6311C15.6751 68.5031 15.5717 68.352 15.4995 68.1895H26.6971C27.5133 68.1895 28.1749 68.8512 28.1749 69.6672Z" fill="#81B8FD"/>
<path d="M72.6389 7.59513V79.4934C72.6389 80.3258 71.9641 81.0006 71.1317 81.0006H64.7578C66.843 81.0006 68.5341 79.3094 68.5341 77.2243V6.08789H71.1315C71.9641 6.08789 72.6389 6.7627 72.6389 7.59513Z" fill="#81B8FD"/>
<path d="M31.8049 53.4432H23.3979C22.7178 53.4432 22.1665 52.8919 22.1665 52.2118C22.1665 51.5318 22.7178 50.9805 23.3979 50.9805H31.8049C32.485 50.9805 33.0363 51.5318 33.0363 52.2118C33.0363 52.8919 32.485 53.4432 31.8049 53.4432Z" fill="#E6F1FF"/>
<path d="M52.9238 53.4432H37.5526C36.8724 53.4432 36.3213 52.8919 36.3213 52.2118C36.3213 51.5318 36.8726 50.9805 37.5526 50.9805H52.9238C53.604 50.9805 54.1551 51.5318 54.1551 52.2118C54.1551 52.8919 53.604 53.4432 52.9238 53.4432Z" fill="#E6F1FF"/>
<path d="M41.2449 45.6688H23.3979C22.7178 45.6688 22.1665 45.1175 22.1665 44.4374C22.1665 43.7572 22.7178 43.2061 23.3979 43.2061H41.2449C41.9251 43.2061 42.4763 43.7573 42.4763 44.4374C42.4764 45.1175 41.9251 45.6688 41.2449 45.6688Z" fill="#E6F1FF"/>
<path d="M61.5527 45.8475H46.1816C45.5013 45.8475 44.9502 45.2962 44.9502 44.6161C44.9502 43.9361 45.5015 43.3848 46.1816 43.3848H61.5527C62.2329 43.3848 62.784 43.9361 62.784 44.6161C62.784 45.2962 62.2329 45.8475 61.5527 45.8475Z" fill="#E6F1FF"/>
<path d="M41.7618 61.9764H23.3984C22.7183 61.9764 22.167 61.4251 22.167 60.745C22.167 60.065 22.7183 59.5137 23.3984 59.5137H41.7616C42.4419 59.5137 42.993 60.065 42.993 60.745C42.993 61.4251 42.4419 61.9764 41.7618 61.9764Z" fill="#E6F1FF"/>
<path d="M56.3704 61.9764H48.1468C47.1138 61.9764 46.2769 61.4251 46.2769 60.745C46.2769 60.065 47.1141 59.5137 48.1468 59.5137H56.3704C57.4034 59.5137 58.2404 60.065 58.2404 60.745C58.2404 61.4251 57.4034 61.9764 56.3704 61.9764Z" fill="#E6F1FF"/>
<path d="M52.9239 37.1473H23.3984C22.7183 37.1473 22.167 36.596 22.167 35.9159C22.167 35.2359 22.7183 34.6846 23.3984 34.6846H52.9239C53.6041 34.6846 54.1552 35.2359 54.1552 35.9159C54.1552 36.596 53.6041 37.1473 52.9239 37.1473Z" fill="#E6F1FF"/>
<path d="M60.503 26.3881L56.7888 26.8895H22.7508C22.4278 26.8895 22.166 26.5941 22.166 26.2296V19.0056C22.166 18.6412 22.4278 18.3457 22.7508 18.3457H56.7888L60.4922 18.6918C60.8152 18.6918 61.077 18.9872 61.077 19.3517L61.0878 25.7282C61.0878 26.0927 60.826 26.3881 60.503 26.3881Z" fill="#E6F1FF"/>
<path d="M61.2675 18.3506H56.3413C56.7041 18.3506 56.9981 18.6446 56.9981 19.0074V26.1973C56.9981 26.56 56.7041 26.8541 56.3413 26.8541H61.2675C61.6303 26.8541 61.9243 26.56 61.9243 26.1973V19.0072C61.9243 18.6446 61.6303 18.3506 61.2675 18.3506Z" fill="#FF5F7A"/>
</svg>
