<svg width="40" height="40" viewBox="0 0 40 40" fill="none" xmlns="http://www.w3.org/2000/svg">
<g clip-path="url(#clip0_2771_59221)">
<path d="M31.6956 3.77644C23.7373 -1.95982 12.7931 -1.07859 5.85499 5.85712C5.77215 5.93996 5.69639 6.02616 5.61523 6.10967L10.9467 6.42284L11.2286 11.2142C15.2054 7.24952 21.3488 6.44977 26.2082 9.26386L23.9578 11.5176L28.7852 11.2344L33.577 10.9522L33.8901 5.62141L34.1423 1.33546L31.6956 3.77644Z" fill="#646464"/>
<path d="M29.0519 33.5761L28.7698 28.7851C24.7936 32.7481 18.6519 33.5475 13.7938 30.7348L16.0439 28.4844L11.2165 28.7679L6.42509 29.0501L6.11193 34.3809L5.85938 38.6675L8.30507 36.2222C16.2634 41.9585 27.2073 41.0772 34.1454 34.1415C34.2275 34.0587 34.304 33.9731 34.3848 33.889L29.0519 33.5761Z" fill="#646464"/>
<path d="M9.26386 13.7959L11.5176 16.0425L11.2341 11.2151L10.9522 6.42374L5.62074 6.11058L1.33175 5.85938L3.77644 8.30507C-1.95982 16.2634 -1.07859 27.2073 5.85712 34.1454C5.93996 34.2282 6.02616 34.304 6.10967 34.3848L6.42284 29.054L11.2142 28.7718C7.25086 24.796 6.45112 18.6543 9.26386 13.7959Z" fill="#2A7EF9"/>
<path d="M34.1435 5.86017C34.0606 5.77835 33.9744 5.70157 33.8909 5.62109L33.5781 10.9519L28.7864 11.2338C32.7514 15.2103 33.5515 21.3543 30.7367 26.2134L28.4863 23.963L28.7699 28.7904L29.052 33.5815L34.3829 33.8946L38.6688 34.1468L36.2241 31.7015C41.9607 23.7428 41.0795 12.7986 34.1435 5.86017Z" fill="#2A7EF9"/>
<path d="M27.584 21.3793V18.6207H26.0455C25.8902 17.9399 25.6205 17.2906 25.2481 16.7L26.3371 15.611L24.3867 13.6607L23.2977 14.7496C22.7074 14.3772 22.0579 14.1075 21.3773 13.9526V12.4141H18.6188V13.9526C17.9379 14.1075 17.2884 14.3772 16.6981 14.7496L15.6091 13.6607L13.6587 15.611L14.7477 16.7C14.3753 17.2906 14.1055 17.9399 13.9506 18.6207H12.4121V21.3793H13.9506C14.1055 22.0598 14.3753 22.7094 14.7477 23.2997L13.6587 24.3887L15.6091 26.339L16.6981 25.25C17.2884 25.6225 17.9379 25.8922 18.6188 26.0474V27.586H21.3773V26.0474C22.0579 25.8922 22.7074 25.6225 23.2977 25.25L24.3867 26.339L26.3371 24.3887L25.2481 23.2997C25.6205 22.7094 25.8902 22.0598 26.0455 21.3793H27.584ZM19.9981 22.7585C18.4743 22.7585 17.2395 21.5234 17.2395 20C17.2395 18.4763 18.4743 17.2415 19.9981 17.2415C21.5214 17.2415 22.7566 18.4763 22.7566 20C22.7566 21.5234 21.5214 22.7585 19.9981 22.7585Z" fill="#FFB531"/>
<path d="M4.67838 10.6758C4.39283 11.1418 4.12681 11.6247 3.88672 12.1093L5.12321 12.7204C5.3441 12.2722 5.59026 11.824 5.85426 11.3957L4.67838 10.6758Z" fill="#62A9E6"/>
<path d="M3.25747 13.5469C2.01021 16.7421 1.71422 20.2304 2.40587 23.59L3.75685 23.3142C3.11873 20.2142 3.39183 16.996 4.54245 14.0476L3.25747 13.5469Z" fill="#62A9E6"/>
<path d="M25.248 16.7009L26.337 15.6119L25.3618 14.6367L21.948 18.0505C22.6652 18.7432 22.9528 19.7689 22.7003 20.7333C22.448 21.6977 21.6948 22.451 20.7304 22.7032C19.7656 22.9557 18.7403 22.6682 18.0476 21.9509L14.6338 25.3647L15.609 26.3399L16.698 25.2509C17.2883 25.6233 17.9378 25.8931 18.6187 26.0483V27.5868H21.3772V26.0483C22.0578 25.8931 22.7073 25.6233 23.2976 25.2509L24.3866 26.3399L26.337 24.3895L25.248 23.3005C25.6204 22.7103 25.8901 22.0607 26.0454 21.3802H27.5839V18.6216H26.0454C25.8901 17.9408 25.6204 17.2915 25.248 16.7009Z" fill="#FFA912"/>
<g style="mix-blend-mode:soft-light" opacity="0.8">
<path d="M34.6046 11.8517L34.9074 6.69965C34.6558 6.41814 34.4117 6.13125 34.1413 5.86017C34.0584 5.77835 33.9722 5.70157 33.8887 5.62109L33.5759 10.9519L28.7842 11.2338C29.0765 11.5264 29.3455 11.8325 29.6028 12.1457L29.8139 12.1332L34.6046 11.8517Z" fill="black"/>
</g>
<g style="mix-blend-mode:soft-light" opacity="0.8">
<path d="M34.381 33.8897L29.0502 33.5769L28.768 28.7852C28.4757 29.0778 28.1693 29.3472 27.8564 29.6038L27.8686 29.8149L28.1501 34.6056L33.3024 34.9083C33.5843 34.6568 33.8705 34.4127 34.1416 34.1423C34.2244 34.0594 34.3002 33.9739 34.381 33.8897Z" fill="black"/>
</g>
<g style="mix-blend-mode:soft-light" opacity="0.8">
<path d="M6.9945 5.08291L6.7241 5.06641C6.43148 5.32636 6.13515 5.57959 5.85499 5.85941C5.77215 5.94225 5.69639 6.02846 5.61523 6.11197L10.9467 6.42513L11.2286 11.2165C11.6566 10.7929 12.1145 10.4013 12.5991 10.0443L12.323 5.39607L6.9945 5.08291Z" fill="black"/>
</g>
<g style="mix-blend-mode:soft-light" opacity="0.8">
<path d="M6.11139 34.3839L6.42456 29.0531L11.2159 28.7709C10.9237 28.4786 10.6539 28.1722 10.3973 27.8594L10.1862 27.8715L5.3955 28.153L5.09277 33.3054C5.34431 33.5872 5.58845 33.8734 5.85884 34.1445C5.94168 34.2274 6.02788 34.3031 6.11139 34.3839Z" fill="black"/>
</g>
</g>
<defs>
<clipPath id="clip0_2771_59221">
<rect width="40" height="40" fill="white"/>
</clipPath>
</defs>
</svg>
