<svg width="88" height="88" viewBox="0 0 88 88" fill="none" xmlns="http://www.w3.org/2000/svg">
<path d="M69.0465 73.0141C71.768 73.0141 73.6408 70.2512 72.6002 67.7365C71.6586 65.461 70.2449 63.8023 71.9707 59.9345C75.0202 53.1 73.3788 49.4754 70.6805 45.0872C66.1063 37.6481 69.4505 33.8486 67.6719 27.4042C61.2672 4.19934 24.7338 4.19788 18.3285 27.4042C16.5498 33.8486 19.8941 37.648 15.3199 45.0872C12.6217 49.4754 10.9802 53.1 14.0298 59.9345C15.7555 63.8023 14.3419 65.4611 13.4002 67.7365C12.3596 70.2512 14.2324 73.0141 16.9539 73.0141H69.0465Z" fill="#6F5C59"/>
<path d="M71.9706 59.9344C75.0201 53.1 73.3787 49.4753 70.6804 45.0872C66.1062 37.6479 69.4504 33.8485 67.6718 27.4041C64.265 15.0614 52.3343 9.28338 40.9473 10.0708C50.9686 10.7637 60.5689 16.5417 63.567 27.4041C65.3458 33.8485 62.0014 37.6479 66.5757 45.0872C69.2739 49.4753 70.9154 53.1 67.8658 59.9344C66.14 63.8022 67.5537 65.4611 68.4954 67.7364C69.536 70.2511 67.6631 73.0141 64.9417 73.0141H69.0463C71.7678 73.0141 73.6406 70.251 72.6 67.7364C71.6585 65.4609 70.2448 63.8021 71.9706 59.9344Z" fill="#5F4C49"/>
<path d="M61.639 50.1747C63.9347 50.1747 65.7958 48.3049 65.7958 45.9985C65.7958 43.692 63.9347 41.8223 61.639 41.8223C59.3432 41.8223 57.4822 43.692 57.4822 45.9985C57.4822 48.3049 59.3432 50.1747 61.639 50.1747Z" fill="#FDD8D8"/>
<path d="M24.3614 50.1747C26.6571 50.1747 28.5182 48.3049 28.5182 45.9985C28.5182 43.692 26.6571 41.8223 24.3614 41.8223C22.0657 41.8223 20.2046 43.692 20.2046 45.9985C20.2046 48.3049 22.0657 50.1747 24.3614 50.1747Z" fill="#FDD8D8"/>
<path d="M23.813 78.0006V74.914C23.813 64.3332 32.3904 55.7559 42.9711 55.7559H43.0294C53.6102 55.7559 62.1875 64.3332 62.1875 74.914V78.0006H23.813Z" fill="#A0CAFE"/>
<path d="M43.0292 55.7559H42.9709C42.2876 55.7559 41.6126 55.7917 40.9478 55.8616C50.5774 56.8723 58.0827 65.0167 58.0827 74.914V78.0006H62.1873V74.914C62.1873 64.3332 53.61 55.7559 43.0292 55.7559Z" fill="#81B8FD"/>
<path d="M43.0075 70.3678H42.9928C40.3086 70.3678 38.1326 68.1918 38.1326 65.5076V57.6416H47.8675V65.5076C47.8675 68.1918 45.6917 70.3678 43.0075 70.3678Z" fill="#FDD8D8"/>
<path d="M33.0849 23.3404C32.4696 29.6001 29.2911 30.2975 27.3284 30.9784C26.3873 31.3048 25.7588 32.1976 25.7588 33.1978V45.0336C25.7588 54.6002 33.4781 62.3553 43.0004 62.3553C52.5226 62.3553 60.2419 54.6001 60.2419 45.0336V34.0226C60.2419 32.6895 59.1401 31.6345 57.8137 31.6735C55.7378 31.7345 52.2907 31.7501 49.6201 29.1059C46.2157 25.7353 44.2466 26.9354 40.6936 26.8542C36.2516 26.7527 34.4135 24.6832 33.6684 23.2288C33.5264 22.9516 33.1155 23.0301 33.0849 23.3404Z" fill="#FFE3E3"/>
<path d="M31 41.0006C31.6667 39.5007 35.8 37.4001 39 41" stroke="#5F4C49" stroke-width="2" stroke-linecap="round"/>
<path d="M46 41.0006C46.6667 39.5007 50.8 37.4001 54 41" stroke="#5F4C49" stroke-width="2" stroke-linecap="round"/>
</svg>
