<svg width="88" height="88" viewBox="0 0 88 88" fill="none" xmlns="http://www.w3.org/2000/svg">
<path d="M25 10H13C10.7909 10 9 11.7909 9 14V26" stroke="#A0CAFE" stroke-width="6" stroke-linecap="round"/>
<path d="M63 10H75C77.2091 10 79 11.7909 79 14V26" stroke="#A0CAFE" stroke-width="6" stroke-linecap="round"/>
<path d="M63 79H75C77.2091 79 79 77.2091 79 75V63" stroke="#A0CAFE" stroke-width="6" stroke-linecap="round"/>
<path d="M25 79H13C10.7909 79 9 77.2091 9 75V63" stroke="#A0CAFE" stroke-width="6" stroke-linecap="round"/>
<path d="M65.8293 28.6055C64.56 25.5358 62.4141 22.9082 59.6598 21.0512C56.9055 19.1943 53.6649 18.1904 50.3432 18.1649C37.1774 17.7601 32.8724 24.1263 31.6974 26.6746C29.8414 26.7497 28.0238 27.2267 26.3701 28.0727C24.7164 28.9186 23.266 30.1132 22.1189 31.5742C19.0936 35.834 19.2239 42.2965 22.5054 50.7835C22.582 50.9817 22.7024 51.1602 22.8574 51.3056C23.0124 51.451 23.1982 51.5596 23.401 51.6234C23.6038 51.6872 23.8183 51.7045 24.0286 51.674C24.239 51.6435 24.4398 51.5661 24.6162 51.4474C25.3232 50.9684 26.1574 50.712 27.0115 50.7113H29.8428C30.2183 50.7113 30.5784 50.5621 30.8439 50.2967C31.1094 50.0312 31.2585 49.6711 31.2585 49.2956V45.033C42.8897 44.781 48.827 41.4528 51.0482 39.8276C52.818 41.1383 54.727 42.2497 56.7406 43.1417V49.2956C56.7406 49.6711 56.8898 50.0312 57.1553 50.2967C57.4208 50.5621 57.7809 50.7113 58.1563 50.7113H60.9877C61.7244 50.7108 62.448 50.9063 63.0843 51.2776C63.374 51.4446 63.7134 51.5036 64.0425 51.4443C64.3716 51.385 64.6691 51.211 64.8822 50.9534C68.2586 46.8621 69.4817 36.6805 65.8293 28.6055Z" fill="#6F5C59"/>
<path d="M31.2585 54.9573V49.2946C31.2585 48.9191 31.1094 48.559 30.8439 48.2935C30.5784 48.0281 30.2183 47.8789 29.8428 47.8789H27.0115C25.1342 47.8789 23.3338 48.6247 22.0063 49.9521C20.6789 51.2796 19.9331 53.08 19.9331 54.9573C19.9331 56.8346 20.6789 58.635 22.0063 59.9624C23.3338 61.2899 25.1342 62.0357 27.0115 62.0357H31.032C31.2677 62.0356 31.4996 61.9767 31.7068 61.8643C31.9139 61.7518 32.0897 61.5895 32.2182 61.392C32.3467 61.1944 32.4239 60.9679 32.4427 60.7329C32.4615 60.498 32.4214 60.2621 32.3259 60.0466C31.6174 58.4437 31.2537 56.7098 31.2585 54.9573Z" fill="#FDD8D8"/>
<path d="M65.9879 49.943C64.6593 48.6214 62.8617 47.8793 60.9877 47.8789H58.1564C57.7809 47.8789 57.4209 48.0281 57.1554 48.2935C56.8899 48.559 56.7407 48.9191 56.7407 49.2946V54.9573C56.7455 56.7098 56.3818 58.4437 55.6733 60.0466C55.5779 60.2621 55.5377 60.498 55.5565 60.7329C55.5753 60.9679 55.6525 61.1944 55.781 61.392C55.9095 61.5895 56.0853 61.7518 56.2925 61.8643C56.4996 61.9767 56.7315 62.0356 56.9672 62.0357H60.9877C62.3892 62.0365 63.7593 61.6213 64.9245 60.8427C66.0898 60.0641 66.9977 58.9571 67.5332 57.662C68.0687 56.3669 68.2077 54.942 67.9326 53.5679C67.6575 52.1937 66.9807 50.9321 65.9879 49.943Z" fill="#FDD8D8"/>
<path d="M58.697 40.9088C56.3021 39.9423 54.0699 38.6135 52.0787 36.969C51.8054 36.7145 51.4453 36.5736 51.0719 36.5752C50.6984 36.5768 50.3396 36.7207 50.0684 36.9775C50.016 37.0299 44.6591 42.2169 29.8427 42.2169C29.4672 42.2169 29.1071 42.3661 28.8416 42.6316C28.5762 42.8971 28.427 43.2571 28.427 43.6326V54.958C28.427 59.0881 30.0677 63.049 32.9881 65.9694C35.9085 68.8898 39.8694 70.5304 43.9994 70.5304C48.1295 70.5304 52.0904 68.8898 55.0108 65.9694C57.9312 63.049 59.5718 59.0881 59.5718 54.958V42.2169C59.5718 41.9368 59.4886 41.663 59.3329 41.4301C59.1772 41.1973 58.9558 41.0159 58.697 40.9088Z" fill="#FFE3E3"/>
</svg>
