<svg width="88" height="88" viewBox="0 0 88 88" fill="none" xmlns="http://www.w3.org/2000/svg">
<path d="M44.0001 86C26.5563 86 12.4153 71.859 12.4153 54.4153V8.76052C12.4153 5.02679 15.4422 2 19.176 2H68.8244C72.5581 2 75.5849 5.02679 75.5849 8.76052V54.4152C75.5849 71.859 61.4439 86 44.0001 86Z" fill="#A0CAFE"/>
<path d="M68.8242 2H63.7539C67.4876 2 70.5144 5.02679 70.5144 8.76052V54.4152C70.5144 71.0053 57.7231 84.6071 41.4648 85.8984C42.3012 85.9651 43.1466 86 44.0001 86C61.4439 86 75.5849 71.859 75.5849 54.4153V8.76052C75.5849 5.02679 72.558 2 68.8242 2Z" fill="#81B8FD"/>
<path d="M65.4442 55.0559H22.5563C21.1561 55.0559 20.021 53.9209 20.021 52.5206V12.5089C20.021 11.1088 21.156 9.97363 22.5563 9.97363H65.444C66.8441 9.97363 67.9793 11.1086 67.9793 12.5089V52.5206C67.9793 53.9207 66.8443 55.0559 65.4442 55.0559Z" fill="#E6F1FF"/>
<path d="M65.4441 9.97363H60.3735C61.7736 9.97363 62.9088 11.1088 62.9088 12.5089V52.5206C62.9088 53.9207 61.7736 55.0559 60.3735 55.0559H65.4439C66.844 55.0559 67.9791 53.9207 67.9791 52.5206V12.5089C67.9791 11.1088 66.8442 9.97363 65.4441 9.97363Z" fill="#D9E9FF"/>
<path d="M30.0745 33.8183H25.3899C24.7429 33.8183 24.2188 33.2508 24.2188 32.5507C24.2188 31.8505 24.7431 31.2832 25.3899 31.2832H30.0745C30.7215 31.2832 31.2456 31.8507 31.2456 32.5507C31.2458 33.2508 30.7215 33.8183 30.0745 33.8183Z" fill="#3A85E3"/>
<path d="M32.4169 28.747H25.3899C24.7429 28.747 24.2188 28.1795 24.2188 27.4795C24.2188 26.7794 24.7431 26.2119 25.3899 26.2119H32.4169C33.0639 26.2119 33.588 26.7794 33.588 27.4795C33.588 28.1795 33.0639 28.747 32.4169 28.747Z" fill="#3A85E3"/>
<path d="M34.5408 23.6064H25.1714C24.5244 23.6064 24.0002 23.0389 24.0002 22.3388C24.0002 21.6388 24.5246 21.0713 25.1714 21.0713H34.5408C35.1878 21.0713 35.7119 21.6388 35.7119 22.3388C35.7119 23.0389 35.1876 23.6064 34.5408 23.6064Z" fill="#3A85E3"/>
<path d="M36.8829 18.5351H25.1711C24.5242 18.5351 24 17.9676 24 17.2675C24 16.5673 24.5243 16 25.1711 16H36.8829C37.5299 16 38.0541 16.5675 38.0541 17.2675C38.0542 17.9678 37.5299 18.5351 36.8829 18.5351Z" fill="#3A85E3"/>
<path d="M42.8977 50.6256C42.7346 50.6256 42.5686 50.5911 42.4096 50.5181C41.7957 50.2364 41.5168 49.4883 41.7866 48.8474L47.0121 36.4384H41.3961C40.7253 36.4384 40.1819 35.8709 40.1819 35.1709C40.1819 34.4707 40.7255 33.9033 41.3961 33.9033H48.8722C49.2824 33.9033 49.6648 34.1196 49.889 34.478C50.1133 34.8365 50.149 35.2892 49.9839 35.6811L44.0099 49.8679C43.81 50.3427 43.3648 50.6256 42.8977 50.6256Z" fill="#81B8FD"/>
<path d="M55.3705 31.3371C52.7595 31.3371 52.5689 31.2708 52.4067 31.2144C51.9998 31.073 51.696 30.7524 51.573 30.3352C51.3597 29.6113 51.6464 29.2192 52.4976 28.0558C53.189 27.1105 54.4763 25.3509 56.6328 22.1342C57.2813 21.1672 57.6995 20.2991 57.8761 19.5528L57.9242 19.1604C57.8876 17.8909 56.8868 16.8699 55.6622 16.8699C54.583 16.8699 53.649 17.6704 53.4416 18.7732C53.3124 19.4601 52.6747 19.9073 52.0162 19.7728C51.3582 19.638 50.9294 18.9717 51.0586 18.2848C51.4892 15.9959 53.4252 14.335 55.6622 14.335C58.2492 14.335 60.3538 16.5321 60.3538 19.2327C60.3538 19.2865 60.3505 19.3402 60.3441 19.3935L60.2768 19.9423C60.2717 19.9846 60.2646 20.0265 60.2553 20.068C60.0161 21.1447 59.4667 22.3292 58.6224 23.5884C56.9366 26.1032 55.7733 27.7412 55.0072 28.7994C56.3163 28.8018 58.0634 28.7887 59.7004 28.7672C59.7054 28.7671 59.7106 28.767 59.7159 28.767C60.3795 28.767 60.9215 29.324 60.9297 30.0188C60.9382 30.7189 60.4015 31.2934 59.7307 31.3021C57.8041 31.3266 56.3995 31.3371 55.3705 31.3371Z" fill="#81B8FD"/>
<path d="M56.0379 50.5574C53.2015 50.5574 50.8938 48.1483 50.8938 45.1873C50.8938 42.2263 53.2015 39.8174 56.0379 39.8174C58.8743 39.8174 61.1818 42.2263 61.1818 45.1873C61.1819 48.1483 58.8744 50.5574 56.0379 50.5574ZM56.0379 42.3525C54.5405 42.3525 53.3222 43.6243 53.3222 45.1873C53.3222 46.7505 54.5405 48.0223 56.0379 48.0223C57.5351 48.0223 58.7534 46.7505 58.7534 45.1873C58.7534 43.6241 57.5353 42.3525 56.0379 42.3525Z" fill="#81B8FD"/>
<path d="M56.0378 42.3542C53.7884 42.3542 51.9585 40.4439 51.9585 38.0956C51.9585 35.7474 53.7884 33.8369 56.0378 33.8369C58.2872 33.8369 60.1172 35.7474 60.1172 38.0956C60.1172 40.4439 58.2872 42.3542 56.0378 42.3542ZM56.0378 36.3722C55.1276 36.3722 54.387 37.1452 54.387 38.0956C54.387 39.0459 55.1276 39.819 56.0378 39.819C56.9481 39.819 57.6886 39.0459 57.6886 38.0956C57.6886 37.1452 56.9481 36.3722 56.0378 36.3722Z" fill="#81B8FD"/>
<path d="M44.3795 30.905C44.0088 30.905 43.6426 30.7284 43.4043 30.3939C43.0048 29.833 43.1155 29.0407 43.6511 28.6224C43.7171 28.5699 47.4095 25.5842 48.0067 20.1561C48.0832 19.4606 48.6848 18.9632 49.3515 19.0413C50.0177 19.1212 50.4959 19.7497 50.4194 20.4452C49.6961 27.0186 45.2904 30.5089 45.1032 30.6541C44.8857 30.8234 44.6314 30.905 44.3795 30.905Z" fill="#81B8FD"/>
<path d="M45.326 25.0751C42.4896 25.0751 40.1819 22.6661 40.1819 19.7051C40.1819 16.7441 42.4896 14.335 45.326 14.335C48.1623 14.335 50.4699 16.7441 50.4699 19.7051C50.4699 22.6661 48.1625 25.0751 45.326 25.0751ZM45.326 16.8701C43.8286 16.8701 42.6103 18.1419 42.6103 19.7051C42.6103 21.2682 43.8284 22.5401 45.326 22.5401C46.8232 22.5401 48.0415 21.2682 48.0415 19.7051C48.0415 18.1419 46.8234 16.8701 45.326 16.8701Z" fill="#81B8FD"/>
<path d="M44 78.5112C47.7327 78.5112 50.7586 75.4853 50.7586 71.7527C50.7586 68.0201 47.7327 64.9941 44 64.9941C40.2674 64.9941 37.2415 68.0201 37.2415 71.7527C37.2415 75.4853 40.2674 78.5112 44 78.5112Z" fill="#FF5F7A"/>
<path d="M44.0001 64.9941C43.1032 64.9941 42.2479 65.1703 41.4648 65.4876C43.9409 66.4906 45.6881 68.917 45.6881 71.7529C45.6881 74.5887 43.9409 77.015 41.4648 78.0181C42.2479 78.3352 43.1032 78.5116 44.0001 78.5116C47.7327 78.5116 50.7587 75.4856 50.7587 71.753C50.7587 68.0199 47.7327 64.9941 44.0001 64.9941Z" fill="#FB4455"/>
<path d="M44.0002 73.0213C43.3 73.0213 42.7327 72.4538 42.7327 71.7537V62.1338C42.7327 61.4335 43.3002 60.8662 44.0002 60.8662C44.7003 60.8662 45.2678 61.4337 45.2678 62.1338V71.7537C45.2678 72.4539 44.7004 73.0213 44.0002 73.0213Z" fill="#E6F1FF"/>
<path d="M37.0003 39.2627C35.8948 38.1574 34.1028 38.1576 32.9975 39.2628L32.3253 39.935C31.9293 40.3311 31.2873 40.3311 30.8913 39.9352L30.2183 39.2624C29.113 38.1572 27.3211 38.1574 26.216 39.2625L26.2158 39.2627C25.1104 40.3681 25.1104 42.1605 26.2158 43.266L27.6051 44.6553L30.8913 47.9414C31.2873 48.3375 31.9294 48.3375 32.3255 47.9414L35.611 44.6553L37.0005 43.2656C38.1061 42.1604 38.1059 40.368 37.0003 39.2627Z" fill="#FF5F7A"/>
<path d="M37.0001 39.2614C35.8946 38.1563 34.1026 38.1563 32.9973 39.2616L32.3894 39.8695C33.0014 40.9492 32.8501 42.3442 31.9299 43.2646L30.5403 44.654L29.0728 46.1219L30.8911 47.9402C31.2871 48.3362 31.9292 48.3362 32.3253 47.9402L35.6108 44.654L37.0004 43.2646C38.1057 42.1591 38.1057 40.3667 37.0001 39.2614Z" fill="#FB4455"/>
</svg>
