<svg width="88" height="88" viewBox="0 0 88 88" fill="none" xmlns="http://www.w3.org/2000/svg">
<path d="M82.2382 74.0421H5.76179C2.57962 74.0421 0 71.4624 0 68.2803V22.7618C0 19.5796 2.57962 17 5.76179 17H82.2382C85.4204 17 88 19.5796 88 22.7618V68.2803C88 71.4624 85.4204 74.0421 82.2382 74.0421Z" fill="#A0CAFE"/>
<path d="M82.6056 17.0127C82.6589 17.3277 82.6881 17.6508 82.6881 17.9809V63.4994C82.6881 66.6815 80.1085 69.2611 76.9264 69.2611H0.449924C0.326334 69.2611 0.204161 69.256 0.0825195 69.2482C0.543236 71.9691 2.90967 74.0418 5.7618 74.0418H82.2382C85.4204 74.0418 88 71.4622 88 68.28V22.7616C88 19.703 85.6164 17.2023 82.6056 17.0127Z" fill="#81B8FD"/>
<path d="M79.7171 31.9777H39.0515C38.16 31.9777 37.4373 31.2549 37.4373 30.3634V26.3643C37.4373 25.4728 38.16 24.75 39.0515 24.75H79.7171C80.6086 24.75 81.3314 25.4728 81.3314 26.3643V30.3634C81.3314 31.2551 80.6086 31.9777 79.7171 31.9777Z" fill="#E6F1FF"/>
<path d="M26.9203 63.1416H7.50222C6.61071 63.1416 5.88794 62.4189 5.88794 61.5274V59.2988C5.88794 58.4073 6.61071 57.6846 7.50222 57.6846H26.9203C27.8118 57.6846 28.5346 58.4073 28.5346 59.2988V61.5274C28.5344 62.419 27.8118 63.1416 26.9203 63.1416Z" fill="#E6F1FF"/>
<path d="M27.1174 53.533H7.30469C6.7921 53.533 6.37671 53.1174 6.37671 52.605V51.9787C6.37671 50.4031 6.93817 48.8789 7.96053 47.6798C9.21945 46.2031 11.0625 45.3525 13.0029 45.3525H17.2112H21.4194C23.3598 45.3525 25.2029 46.2031 26.4618 47.6798C27.4841 48.8789 28.0456 50.4031 28.0456 51.9787V52.605C28.0456 53.1176 27.63 53.533 27.1174 53.533Z" fill="#FF5F7A"/>
<path d="M20.3066 45.3452V40.249H14.1155V45.3452C14.1155 47.0549 15.5013 48.4408 17.2111 48.4408C18.9206 48.4408 20.3066 47.0549 20.3066 45.3452Z" fill="#FDD8D8"/>
<path d="M17.2113 44.0476C12.7359 44.0476 9.10767 40.4196 9.10767 35.9442V32.7625C9.10767 29.2338 11.9683 26.373 15.4971 26.373H18.9254C22.4541 26.373 25.3149 29.2337 25.3149 32.7625V35.9442C25.3147 40.4196 21.6867 44.0476 17.2113 44.0476Z" fill="#FFE3E3"/>
<path d="M17.2112 24.6318C15.8366 24.6318 14.5341 24.9401 13.3685 25.4904C12.3974 25.9483 11.5103 26.5822 10.7604 27.3505C9.17358 28.9754 8.19531 31.197 8.19531 33.6477V35.1832C8.19531 35.5408 8.53952 35.7976 8.88231 35.6956L9.07655 35.6379C10.4118 35.2405 11.5391 34.3375 12.2182 33.1209C12.4275 32.7461 12.947 32.6914 13.226 33.0177C14.2174 34.1769 15.5156 35.0429 16.9801 35.5102C17.7894 35.7685 18.6337 35.8999 19.4832 35.8999H25.6923C25.9874 35.8999 26.2268 35.6605 26.2268 35.3654V33.6477C26.2268 28.6683 22.1903 24.6318 17.2112 24.6318Z" fill="#6F5C59"/>
<path d="M73.6812 40.7682H39.6434C38.91 40.7682 38.3154 40.1737 38.3154 39.4403C38.3154 38.7069 38.91 38.1123 39.6434 38.1123H73.681C74.4144 38.1123 75.0089 38.7069 75.0089 39.4403C75.0089 40.1737 74.4146 40.7682 73.6812 40.7682Z" fill="#D9E9FF"/>
<path d="M77.6337 48.2321H64.4061C63.6727 48.2321 63.0781 47.6375 63.0781 46.9041C63.0781 46.1707 63.6727 45.5762 64.4061 45.5762H77.6337C78.3671 45.5762 78.9617 46.1707 78.9617 46.9041C78.9617 47.6375 78.3671 48.2321 77.6337 48.2321Z" fill="#D9E9FF"/>
<path d="M58.914 48.2321H39.6434C38.91 48.2321 38.3154 47.6375 38.3154 46.9041C38.3154 46.1707 38.91 45.5762 39.6434 45.5762H58.914C59.6474 45.5762 60.2419 46.1707 60.2419 46.9041C60.2419 47.6375 59.6474 48.2321 58.914 48.2321Z" fill="#D9E9FF"/>
<path d="M49.516 55.695H39.6434C38.91 55.695 38.3154 55.1004 38.3154 54.367C38.3154 53.6336 38.91 53.0391 39.6434 53.0391H49.516C50.2494 53.0391 50.844 53.6336 50.844 54.367C50.844 55.1004 50.2494 55.695 49.516 55.695Z" fill="#D9E9FF"/>
<path d="M77.6336 55.695H55.3333C54.5999 55.695 54.0054 55.1004 54.0054 54.367C54.0054 53.6336 54.5999 53.0391 55.3333 53.0391H77.6336C78.367 53.0391 78.9616 53.6336 78.9616 54.367C78.9616 55.1004 78.367 55.695 77.6336 55.695Z" fill="#D9E9FF"/>
<path d="M77.6337 64.8063H39.6434C38.91 64.8063 38.3154 64.2118 38.3154 63.4784C38.3154 62.745 38.91 62.1504 39.6434 62.1504H77.6337C78.3671 62.1504 78.9617 62.745 78.9617 63.4784C78.9617 64.2118 78.3671 64.8063 77.6337 64.8063Z" fill="#D9E9FF"/>
</svg>
