<svg width="88" height="88" viewBox="0 0 88 88" fill="none" xmlns="http://www.w3.org/2000/svg">
<path d="M66.9624 6H21.0376C12.7325 6 6 12.7325 6 21.0376V66.9624C6 75.2675 12.7325 82 21.0376 82H66.9624C75.2675 82 82 75.2675 82 66.9624V21.0376C82 12.7325 75.2675 6 66.9624 6Z" fill="#A0CAFE"/>
<path d="M64.4787 37.2795C60.158 36.1352 55.648 38.6004 54.1548 42.9175C53.5737 44.5973 53.5117 46.3281 53.8785 47.932C55.1851 53.6474 54.9886 59.6163 53.2708 65.2158C52.3037 68.3683 54.0089 71.729 57.0794 72.722C60.15 73.7149 63.4234 71.9642 64.3905 68.8117L70.597 48.5803C72.0828 43.7372 69.33 38.5644 64.4787 37.2795Z" fill="#E6F1FF"/>
<path d="M23.5213 37.2795C27.842 36.1352 32.352 38.6004 33.8452 42.9175C34.4263 44.5973 34.4883 46.3281 34.1215 47.932C32.8149 53.6474 33.0114 59.6163 34.7292 65.2158C35.6963 68.3683 33.9912 71.729 30.9206 72.722C27.85 73.7149 24.5767 71.9642 23.6096 68.8117L17.4029 48.5801C15.9173 43.7372 18.6701 38.5644 23.5213 37.2795Z" fill="#E6F1FF"/>
<path d="M64.8781 19.8635C62.8788 23.5018 60.8779 27.1387 58.8786 30.7772C58.1998 32.0111 56.6906 32.5369 55.401 31.9694C52.1321 30.5283 48.6561 29.735 45.16 29.5928C44.3868 29.5603 43.6137 29.5603 42.8405 29.5928C39.3443 29.735 35.8682 30.5283 32.5995 31.9694C31.3099 32.5369 29.8007 32.0111 29.1219 30.7772C27.1226 27.1388 25.1216 23.502 23.1223 19.8635C22.3662 18.4888 22.9168 16.7507 24.3361 16.0813C36.7853 10.2177 51.2152 10.2177 63.6643 16.0813C65.0837 16.7509 65.6341 18.4888 64.8781 19.8635Z" fill="#E6F1FF"/>
<path d="M45.1598 17.8668V29.5907C44.3866 29.5582 43.6135 29.5582 42.8403 29.5907V17.8668C42.8403 17.2266 43.3599 16.707 44.0001 16.707C44.6403 16.707 45.1598 17.2266 45.1598 17.8668Z" fill="#FF5F7A"/>
<path d="M35.6299 30.8347C34.6031 31.1516 33.5918 31.5306 32.5992 31.9681C31.3096 32.5356 29.8004 32.0099 29.1216 30.7759C27.1223 27.1375 25.1214 23.5007 23.1221 19.8622C22.366 18.4875 22.9165 16.7494 24.3359 16.08C25.327 15.613 26.3291 15.1831 27.3434 14.792C27.3448 15.4136 27.4964 16.0429 27.8181 16.6259C30.4221 21.3621 33.0245 26.0983 35.6299 30.8347Z" fill="#D9E9FF"/>
<path d="M61.4485 72.4187C60.6671 72.7959 59.8017 73 58.9146 73C58.3261 73 57.7272 72.9104 57.1358 72.7211C54.6134 71.9166 53 69.5576 53 67.0136C53 66.419 53.0884 65.8128 53.274 65.2153C55.0164 59.6164 55.215 53.6476 53.8901 47.9313C53.5189 46.3282 53.5813 44.5976 54.1713 42.9182C55.6847 38.6009 60.2569 36.1348 64.6376 37.2797C64.7594 37.312 64.8798 37.3458 65 37.3825C62.4023 38.1796 60.2075 40.1761 59.2449 42.9182C58.6549 44.5976 58.5925 46.3284 58.9637 47.9313C60.2886 53.6476 60.09 59.6164 58.3476 65.2153C58.1621 65.8128 58.0736 66.419 58.0736 67.0136C58.0738 69.292 59.3668 71.4206 61.4485 72.4187Z" fill="#D9E9FF"/>
<path d="M32 72.4187C31.7544 72.5361 31.4986 72.6374 31.2325 72.7211C30.6361 72.9105 30.0324 73 29.4388 73C26.9068 73 24.559 71.3646 23.7579 68.8119L17.4119 48.5806C15.8931 43.7378 18.7072 38.5647 23.6674 37.2802C25.2784 36.8618 26.9157 36.925 28.4185 37.3829C23.6864 38.8216 21.0477 43.8581 22.5287 48.5806L28.8747 68.8119C29.392 70.4619 30.5571 71.7288 32 72.4187Z" fill="#D9E9FF"/>
<path d="M8.10603 74.6401C10.727 79.047 15.5376 82.0004 21.0376 82.0004H66.9624C75.2675 82.0004 82 75.2679 82 66.9628V21.038C82 15.4713 78.9754 10.613 74.4819 8.01367C75.8195 10.2604 76.588 12.886 76.588 15.691V61.6158C76.588 69.9209 69.8554 76.6534 61.5504 76.6534H15.6256C12.8856 76.6534 10.3172 75.9204 8.10603 74.6401Z" fill="#81B8FD"/>
</svg>
