<svg width="88" height="88" viewBox="0 0 88 88" fill="none" xmlns="http://www.w3.org/2000/svg">
<path d="M78.9235 16H9.07655C4.06364 16 0 20.4237 0 25.8808V62.1192C0 67.5763 4.06364 72 9.07655 72H78.9235C83.9364 72 88 67.5763 88 62.1192V25.8808C88 20.4237 83.9362 16 78.9235 16Z" fill="#81B8FD"/>
<path d="M75.336 16H8.66398C3.87893 16 0 20.1077 0 25.175V58.825C0 63.8923 3.87893 68 8.66398 68H75.336C80.1211 68 84 63.8923 84 58.825V25.175C84 20.1077 80.1209 16 75.336 16Z" fill="#A0CAFE"/>
<path d="M8.44461 60.9998C7.0968 60.9998 6 59.8852 6 58.5147V26.4851C6 25.115 7.09663 24 8.44461 24H74.5555C75.9034 24 77 25.1148 77 26.4851V58.5149C77 59.8852 75.9035 61 74.5555 61L8.44461 60.9998Z" fill="#D9E9FF"/>
<path d="M8.30689 60.9998C7.03501 60.9998 6 59.8852 6 58.5147V26.4851C6 25.115 7.03485 24 8.30689 24H70.6933C71.9651 24 73 25.1148 73 26.4851V58.5149C73 59.8852 71.9653 61 70.6933 61L8.30689 60.9998Z" fill="#E6F1FF"/>
<path d="M16.1411 49.3704H14.0822L13.7298 47.0147H11.2257L10.8733 49.3704H9L11.0773 36.3867H14.0636L16.1411 49.3704ZM11.4855 45.2526H13.4516L12.4686 38.6865L11.4855 45.2526Z" fill="#FF5F7A"/>
<path d="M23.8941 39.3725V39.8363C23.8941 41.1718 23.4861 42.025 22.5772 42.4516C23.6715 42.8782 24.0981 43.8613 24.0981 45.2339V46.2913C24.0981 48.2945 23.0409 49.3704 21.0006 49.3704H17.7917V36.3867H20.8708C22.9852 36.3864 23.8941 37.3694 23.8941 39.3725ZM19.8319 38.2412V41.6726H20.6295C21.39 41.6726 21.8536 41.3388 21.8536 40.2999V39.5767C21.8536 38.6493 21.5383 38.2412 20.8149 38.2412H19.8319ZM19.8319 43.5275V47.5153H21.0005C21.6868 47.5153 22.0576 47.2 22.0576 46.2356V45.1039C22.0576 43.8985 21.6681 43.5273 20.7407 43.5273L19.8319 43.5275Z" fill="#FF5F7A"/>
<path d="M31.9436 44.5275V46.2523C31.9436 48.3297 30.9049 49.5168 28.9017 49.5168C26.8986 49.5168 25.8599 48.3297 25.8599 46.2523V39.5008C25.8599 37.4235 26.8986 36.2363 28.9017 36.2363C30.9049 36.2363 31.9436 37.4235 31.9436 39.5008V40.7621H30.0147V39.371C30.0147 38.4436 29.6067 38.0912 28.9575 38.0912C28.3083 38.0912 27.9003 38.4436 27.9003 39.371V46.3823C27.9003 47.3097 28.3083 47.6435 28.9575 47.6435C29.6067 47.6435 30.0147 47.3098 30.0147 46.3823V44.5275H31.9436Z" fill="#FF5F7A"/>
<path d="M37.3782 41.9521H41.0878V43.8069H37.3782V41.9521Z" fill="#81B8FD"/>
<path d="M48.0247 38.019C49.6014 38.019 49.9536 37.2585 50.2691 36.3867H51.6417V49.3704H49.6014V39.4656H48.0247V38.019Z" fill="#81B8FD"/>
<path d="M57.7993 38.0932C57.1499 38.0932 56.7418 38.4456 56.7418 39.3729V40.7641H54.813V39.5028C54.813 37.4254 55.8517 36.2383 57.8549 36.2383C59.858 36.2383 60.8968 37.4254 60.8968 39.5028C60.8968 43.5834 56.8346 45.1043 56.8346 47.2373C56.8346 47.3302 56.8346 47.423 56.8531 47.5155H60.7112V49.3702H54.813V47.7751C54.813 43.9542 58.8563 43.3235 58.8563 39.5768C58.8566 38.4086 58.4484 38.0932 57.7993 38.0932Z" fill="#81B8FD"/>
<path d="M66.7949 39.5771C66.7949 38.4086 66.3869 38.0932 65.7377 38.0932C65.0886 38.0932 64.6802 38.4456 64.6802 39.3729V40.2075H62.7515V39.5028C62.7515 37.4254 63.7902 36.2383 65.7933 36.2383C67.7965 36.2383 68.8352 37.4254 68.8352 39.5028V39.8366C68.8352 41.2277 68.3901 42.0995 67.4071 42.5075C68.4272 42.9526 68.8352 43.9172 68.8352 45.234V46.2541C68.8352 48.3315 67.7965 49.5186 65.7933 49.5186C63.7902 49.5186 62.7515 48.3315 62.7515 46.2541V45.1784H64.6802V46.3839C64.6802 47.3113 65.0884 47.6637 65.7377 47.6637C66.3871 47.6637 66.7949 47.3483 66.7949 46.1984V45.1782C66.7949 43.9728 66.3869 43.5275 65.4594 43.5275H64.7733V41.6727H65.5708C66.3313 41.6727 66.7949 41.3389 66.7949 40.3V39.5771Z" fill="#81B8FD"/>
<path d="M18.6748 30.771C19.44 30.771 20.0603 30.1507 20.0603 29.3855C20.0603 28.6203 19.44 28 18.6748 28C17.9096 28 17.2893 28.6203 17.2893 29.3855C17.2893 30.1507 17.9096 30.771 18.6748 30.771Z" fill="#3A85E3"/>
<path d="M18.6748 57.271C19.44 57.271 20.0603 56.6507 20.0603 55.8855C20.0603 55.1203 19.44 54.5 18.6748 54.5C17.9096 54.5 17.2893 55.1203 17.2893 55.8855C17.2893 56.6507 17.9096 57.271 18.6748 57.271Z" fill="#3A85E3"/>
<path d="M59.6257 30.771C60.3909 30.771 61.0113 30.1507 61.0113 29.3855C61.0113 28.6203 60.3909 28 59.6257 28C58.8605 28 58.2402 28.6203 58.2402 29.3855C58.2402 30.1507 58.8605 30.771 59.6257 30.771Z" fill="#3A85E3"/>
<path d="M59.6257 57.271C60.3909 57.271 61.0113 56.6507 61.0113 55.8855C61.0113 55.1203 60.3909 54.5 59.6257 54.5C58.8605 54.5 58.2402 55.1203 58.2402 55.8855C58.2402 56.6507 58.8605 57.271 59.6257 57.271Z" fill="#3A85E3"/>
</svg>
