<svg width="88" height="88" viewBox="0 0 88 88" fill="none" xmlns="http://www.w3.org/2000/svg">
<path d="M51.2738 46.359L45.0066 42.7407L57.7581 20.6545C58.7572 18.9238 60.9703 18.3309 62.7008 19.3301C64.4315 20.3292 65.0244 22.5423 64.0253 24.2729L51.2738 46.359Z" fill="#FDD8D8"/>
<path d="M33.7199 70.8722C31.7885 70.3593 30.6385 68.3777 31.1514 66.4464L37.6974 41.7979L44.6917 43.6553L38.1457 68.3039C37.6329 70.2353 35.6513 71.3851 33.7199 70.8722Z" fill="#FDD8D8"/>
<path d="M76.4623 71.6929L72.7105 74.1528L70.7231 73.2185L67.4825 71.6929L67.0233 70.6065L64.705 65.1182L63.3556 61.9243C62.9419 60.9447 61.6873 60.6484 60.8878 61.3517C60.0723 62.0685 59.2247 62.6931 58.3679 63.2163C58.3679 63.2163 49.7244 62.9414 49.9807 56.2906L53.7458 52.6309L55.7786 50.6569L62.5775 44.0488C64.7223 44.4546 66.2279 45.9 66.739 48.0809C67.1888 49.9909 66.7711 48.7603 76.4623 71.6929Z" fill="#A0CAFE"/>
<path d="M58.3677 63.2167C57.9166 63.493 57.4642 63.7413 57.0117 63.9601C56.4204 64.2471 55.8318 64.4847 55.2512 64.6729C54.8775 64.7943 54.5679 65.0573 54.3784 65.3989L50.8988 71.6933L45.1209 75.1875L41.4492 71.692L46.9628 61.7192C46.7319 61.0719 46.6025 60.3591 46.5731 59.6024L49.9806 56.291C52.0346 59.1166 54.7574 61.5937 58.3677 63.2167Z" fill="#81B8FD"/>
<path d="M63.0248 50.4787L53.5458 59.9563L53.4337 60.0684C53.4337 60.0684 39.8372 58.5095 43.9441 41.2613L44.1803 40.985L44.9184 40.1175L45.7646 39.1205L48.7329 35.6289L62.0558 43.242C64.6852 44.7448 65.1656 48.3365 63.0248 50.4787Z" fill="#E6F1FF"/>
<path d="M53.4336 60.0687L53.0866 60.4171C50.8296 62.6727 47.1725 62.6727 44.9169 60.4171L37.0049 49.4259L40.4204 45.4072L43.9439 41.2616L44.1802 40.9854C45.029 46.563 47.3127 54.7834 53.4336 60.0687Z" fill="#D9E9FF"/>
<path d="M74.4587 77.5781C72.3538 78.4665 69.9291 77.482 69.0394 75.3786L67.4822 71.6934H67.9025H76.1723H76.4621L76.6584 72.1589C77.5476 74.2614 76.5613 76.6888 74.4587 77.5781Z" fill="#FFE3E3"/>
<path d="M50.8987 71.6927L48.5945 75.8627C47.4979 77.8446 44.9942 78.5962 42.9746 77.4816C41.1246 76.46 40.1367 74.0709 41.4498 71.6914L42.0561 71.6927H50.3273H50.8987Z" fill="#FDD8D8"/>
<path d="M49.2426 48.898C48.578 49.5627 47.7771 50.0085 46.931 50.2367C46.8509 50.2581 46.7695 50.2781 46.688 50.2954C46.688 50.2954 43.2739 47.9571 44.1802 40.9846L44.9182 40.1171C45.1812 40.0824 45.4454 40.069 45.7097 40.0744C46.9923 40.1051 48.2656 40.6096 49.2426 41.5879C51.2607 43.606 51.2607 46.88 49.2426 48.898Z" fill="#FDD8D8"/>
<path d="M46.6879 50.2961C45.6215 50.5257 44.495 50.4163 43.4846 49.9665C42.9214 49.7156 42.3942 49.3605 41.9324 48.8987C40.9634 47.9311 40.4602 46.6738 40.4202 45.4072L43.9437 41.2616L44.18 40.9854C44.5897 43.6814 45.3358 46.9941 46.6879 50.2961Z" fill="#FDD8D8"/>
<path d="M45.4014 29.4521C48.1834 29.3937 50.3913 27.0911 50.3329 24.3091C50.2745 21.5271 47.9718 19.3192 45.1898 19.3776C42.4078 19.436 40.1999 21.7387 40.2584 24.5207C40.3168 27.3026 42.6194 29.5105 45.4014 29.4521Z" fill="#FDD8D8"/>
<path d="M23.5296 48.1249C25.0597 45.8019 24.417 42.6784 22.094 41.1483C19.771 39.6182 16.6475 40.261 15.1174 42.5839C13.5873 44.9069 14.2301 48.0304 16.553 49.5605C18.876 51.0906 21.9995 50.4479 23.5296 48.1249Z" fill="#FFE3E3"/>
<path d="M43.0297 48.1623C41.8283 49.1316 40.5417 49.9211 39.2043 50.5335H39.203C39.203 50.5335 3.92805 56.071 25.7004 19.1716C32.7277 16.0671 41.1033 17.7807 46.016 23.8716C47.4536 25.6538 48.4628 27.6474 49.0559 29.7318C50.9027 36.2058 48.7456 43.5529 43.0297 48.1623Z" fill="#FFE3E3"/>
<path d="M39.2032 50.5336C34.1765 52.8404 28.4275 52.6576 23.7399 50.1506C21.8286 49.129 20.0945 47.7217 18.6569 45.938C12.7514 38.6168 14.0888 27.741 21.6434 21.6475C22.9135 20.6217 24.2796 19.798 25.7007 19.1719C21.8438 26.7235 11.7107 50.778 39.2032 50.5336Z" fill="#FDD8D8"/>
<path d="M41.7627 20.6719C39.4779 21.7417 35.8864 22.5884 30.9923 22.2882C29.7442 22.2113 28.5799 23.0187 28.1844 24.2146C27.3716 26.6669 26.2703 28.9283 25.0333 30.9741C10.4254 30.7503 19.7512 16.2426 19.7512 16.2426C21.0624 15.6508 22.5274 15.4792 23.9197 15.806C24 15.5 30.0835 12.1872 29 13.5C30.667 13.8943 26.6284 14.8145 28.1844 13.5432C29.4283 12.5189 31.9163 13.1835 33.4389 13.5432C36.5091 14.2695 39.5051 15.7977 41.4411 18.1978C42.1059 19.0224 42.722 20.2228 41.7627 20.6719Z" fill="#5F4C49"/>
<path d="M25.0331 30.9748C22.3488 35.4157 19.3328 39.0523 17.0245 41.2515C15.9834 42.2433 14.9179 41.3036 14.0803 40.2662C8.51849 33.3694 10.8766 22.934 18.3052 17.1234C18.7556 16.7692 19.2417 16.4739 19.7511 16.2432C19.3199 20.6207 19.6893 27.3416 25.0331 30.9748Z" fill="#6E5C59"/>
</svg>
