<svg width="88" height="88" viewBox="0 0 88 88" fill="none" xmlns="http://www.w3.org/2000/svg">
<mask id="path-1-inside-1_1040_13988" fill="white">
<path d="M22 12C22 7.58172 25.5817 4 30 4H74C78.4183 4 82 7.58172 82 12V74C82 78.4183 78.4183 82 74 82H30C25.5817 82 22 78.4183 22 74V12Z"/>
</mask>
<path d="M22 12C22 7.58172 25.5817 4 30 4H74C78.4183 4 82 7.58172 82 12V74C82 78.4183 78.4183 82 74 82H30C25.5817 82 22 78.4183 22 74V12Z" fill="#A0CAFE"/>
<path d="M22 4H82H22ZM82 82H22H82ZM22 82V4V82ZM74 4C81.1797 4 87 9.8203 87 17V69C87 76.1797 81.1797 82 74 82C75.6569 82 77 78.4183 77 74V12C77 7.58172 75.6569 4 74 4Z" fill="#81B8FD" mask="url(#path-1-inside-1_1040_13988)"/>
<path d="M9.70635 70.8018C6.55497 70.8018 4.00024 73.3565 4.00024 76.5079C4.00024 79.6592 6.55497 82.214 9.70635 82.214H16.2515L20.0411 76.5079L16.2515 70.8018H9.70635Z" fill="#3A85E2"/>
<path d="M16.2515 82.214H22.7966C25.948 82.214 28.5027 79.6592 28.5027 76.5079C28.5027 73.3565 25.948 70.8018 22.7966 70.8018H16.2515V82.214Z" fill="#FF5F7A"/>
<path d="M15.5919 44.5112C13.3634 42.2827 9.75059 42.2827 7.52234 44.5112C5.29408 46.7396 5.2939 50.3525 7.52234 52.5807L12.1505 57.2088L19.0191 56.3238L20.22 49.1393L15.5919 44.5112Z" fill="#3A85E2"/>
<path d="M12.1504 57.2082L16.7785 61.8363C19.0069 64.0648 22.6198 64.0646 24.8482 61.8363C27.0767 59.6079 27.0767 55.995 24.8482 53.7668L20.2201 49.1387L12.1504 57.2082Z" fill="#FF5F7A"/>
<path d="M46.3746 28.4409L48.6097 26.2059C49.1648 25.651 49.1648 24.7512 48.6097 24.1961C48.0548 23.6412 47.155 23.6412 46.5999 24.1961L44.3649 26.4312L41.5622 23.6287C44.2245 23.4113 46.325 21.1768 46.325 18.4595C46.325 15.5989 43.9976 13.2715 41.1368 13.2715H35.7362C34.9514 13.2715 34.3152 13.9077 34.3152 14.6925V28.7457C34.3152 29.5305 34.9514 30.1667 35.7362 30.1667C36.521 30.1667 37.1572 29.5305 37.1572 28.7457V23.6475H37.5617L42.3551 28.4409L40.1199 30.6762C39.5648 31.2311 39.5648 32.1308 40.1199 32.6859C40.675 33.241 41.5745 33.2408 42.1296 32.6859L44.3649 30.4507L46.3908 32.4766C46.9459 33.0317 47.8455 33.0315 48.4006 32.4766C48.9556 31.9217 48.9556 31.0219 48.4006 30.4669L46.3746 28.4409ZM43.4829 18.4595C43.4829 19.753 42.4305 20.8054 41.137 20.8054H37.1574V16.1137H41.137C42.4305 16.1137 43.4829 17.1661 43.4829 18.4595Z" fill="#E6F1FF"/>
<path d="M46.9657 43.5832H35.7359C34.9511 43.5832 34.3149 42.947 34.3149 42.1622C34.3149 41.3774 34.9511 40.7412 35.7359 40.7412H46.9657C47.7505 40.7412 48.3867 41.3774 48.3867 42.1622C48.3869 42.947 47.7505 43.5832 46.9657 43.5832Z" fill="#E6F1FF"/>
<path d="M70.1301 57.3088H35.8265C35.0417 57.3088 34.4055 56.6726 34.4055 55.8878C34.4055 55.103 35.0417 54.4668 35.8265 54.4668H70.1301C70.9149 54.4668 71.5511 55.103 71.5511 55.8878C71.5511 56.6726 70.9149 57.3088 70.1301 57.3088Z" fill="#E6F1FF"/>
<path d="M70.1301 71.0344H35.8265C35.0417 71.0344 34.4055 70.3982 34.4055 69.6134C34.4055 68.8286 35.0417 68.1924 35.8265 68.1924H70.1301C70.9149 68.1924 71.5511 68.8286 71.5511 69.6134C71.5511 70.3982 70.9149 71.0344 70.1301 71.0344Z" fill="#E6F1FF"/>
</svg>
