<svg width="28" height="28" viewBox="0 0 28 28" fill="none" xmlns="http://www.w3.org/2000/svg">
<path opacity="0.3" d="M28 0C28 3.67701 27.2758 7.31802 25.8686 10.7151C24.4615 14.1123 22.399 17.199 19.799 19.799C17.1989 22.399 14.1122 24.4615 10.7151 25.8686C7.31801 27.2758 3.67701 28 -8.16988e-06 28L-1.22392e-06 -1.22392e-06L28 0Z" fill="#D8E8FF"/>
<path d="M22.3999 0.00156212C22.3999 2.94317 21.8205 5.85598 20.6948 8.57367C19.5691 11.2914 17.9191 13.7607 15.8391 15.8408C13.7591 17.9208 11.2897 19.5708 8.57201 20.6965C5.85431 21.8222 2.94151 22.4016 -0.000103048 22.4016L-9.82539e-05 0.00156114L22.3999 0.00156212Z" fill="#D8E8FF"/>
</svg>
