<svg width="46" height="46" viewBox="0 0 46 46" fill="none" xmlns="http://www.w3.org/2000/svg">
<path opacity="0.3" d="M46 46C39.9592 46 33.9775 44.8102 28.3966 42.4985C22.8156 40.1867 17.7446 36.7984 13.4731 32.5269C9.20159 28.2554 5.81326 23.1844 3.50154 17.6034C1.18983 12.0225 0 6.0408 0 -7.62939e-06L46 0V46Z" fill="#D8E8FF"/>
<path d="M46 36.8008C41.1674 36.8008 36.3821 35.8489 31.9173 33.9995C27.4525 32.1502 23.3957 29.4395 19.9785 26.0223C16.5613 22.6051 13.8507 18.5483 12.0013 14.0835C10.1519 9.61875 9.20005 4.83342 9.20005 0.000774384L46 0.000782013V36.8008Z" fill="#D8E8FF"/>
</svg>
