<svg width="48" height="48" viewBox="0 0 48 48" fill="none" xmlns="http://www.w3.org/2000/svg">
<g clip-path="url(#clip0_1250_17637)">
<path d="M34.8044 11.8502C34.8044 11.7653 34.8404 11.6844 34.9034 11.6275L36.7245 9.98338C36.8187 9.89832 36.8488 9.76218 36.8002 9.64491C36.2554 8.32956 36.2045 8.2067 35.6597 6.89135C35.6111 6.77408 35.4935 6.69907 35.3668 6.70555L32.9165 6.8307C32.8317 6.83503 32.7491 6.80324 32.689 6.74322L30.9802 5.03442C30.9202 4.9744 30.8884 4.89176 30.8928 4.80699L31.0179 2.35668C31.0244 2.22991 30.9494 2.11237 30.8321 2.0638C29.5168 1.51897 29.3939 1.46806 28.0785 0.92323C27.9613 0.874655 27.8251 0.904729 27.7401 0.998945L26.0959 2.82006C26.039 2.88306 25.9581 2.91902 25.8733 2.91902H23.4566C23.3718 2.91902 23.2909 2.88306 23.234 2.82006L21.5898 0.998945C21.5048 0.904729 21.3686 0.874655 21.2514 0.92323C19.936 1.46806 19.8131 1.51897 18.4978 2.0638C18.3805 2.11237 18.3055 2.22991 18.312 2.35668L18.4371 4.80699C18.4415 4.89176 18.4095 4.97463 18.3494 5.03465C17.6843 5.6998 17.3062 6.07784 16.6411 6.74299C16.5811 6.80301 16.4982 6.83503 16.4134 6.8307L13.9631 6.70555C13.8364 6.69907 13.7188 6.77408 13.6702 6.89135C13.1254 8.2067 13.0745 8.32956 12.5297 9.64491C12.4811 9.76218 12.5112 9.89832 12.6054 9.98338L14.4265 11.6275C14.4895 11.6844 14.5255 11.7653 14.5255 11.8502V14.2668C14.5255 14.3517 14.4895 14.4326 14.4265 14.4895L12.6054 16.1336C12.5112 16.2187 12.4811 16.3548 12.5297 16.4721C13.0745 17.7874 13.1254 17.9103 13.6702 19.2257C13.7188 19.3429 13.8364 19.4179 13.9631 19.4115L16.4134 19.2863C16.4982 19.282 16.5811 19.314 16.6411 19.374C17.3062 20.0392 17.6843 20.4172 18.3494 21.0824C18.4095 21.1424 18.4415 21.2252 18.4371 21.31L18.312 23.7603C18.3055 23.8871 18.3805 24.0046 18.4978 24.0532C19.8131 24.598 19.936 24.6489 21.2514 25.1938C21.3686 25.2424 21.5048 25.2123 21.5898 25.1181L23.234 23.297C23.2909 23.2339 23.3718 23.198 23.4566 23.198H25.8733C25.9581 23.198 26.039 23.2339 26.0959 23.297L27.7401 25.1181C27.8251 25.2123 27.9613 25.2424 28.0785 25.1938C29.3939 24.6489 29.5168 24.598 30.8321 24.0532C30.9494 24.0046 31.0244 23.8871 31.0179 23.7603L30.8928 21.31C30.8884 21.2252 30.9204 21.1424 30.9805 21.0824C31.6456 20.4172 32.0237 20.0392 32.6888 19.374C32.7488 19.314 32.8317 19.282 32.9165 19.2863L35.3668 19.4115C35.4935 19.4179 35.6111 19.3429 35.6597 19.2257C36.2045 17.9103 36.2554 17.7874 36.8002 16.4721C36.8488 16.3548 36.8187 16.2187 36.7245 16.1336L34.9034 14.4895C34.8404 14.4326 34.8044 14.3517 34.8044 14.2668V11.8502Z" stroke="#2A7EF9" stroke-width="1.7" stroke-miterlimit="10"/>
<path d="M28.3893 7.79297C29.6595 7.79297 30.6891 8.84699 30.6891 10.1476V14.9908C30.6891 16.2905 29.6596 17.3444 28.3893 17.3444H27.389V19.4534C27.389 19.5333 27.2999 19.5809 27.2335 19.5365L23.9509 17.3444H20.9417C19.6704 17.3444 18.6409 16.2904 18.6409 14.9908V10.1476C18.6409 8.84699 19.6704 7.79297 20.9417 7.79297H28.3893Z" stroke="#2A7EF9" stroke-width="1.7" stroke-miterlimit="10"/>
<path d="M14.1856 36.0879C14.1856 39.7151 11.2346 42.6661 7.6073 42.6661C3.97996 42.6661 1.02905 39.7151 1.02905 36.0879" stroke="#2A7EF9" stroke-width="1.7" stroke-miterlimit="10" stroke-linecap="round"/>
<path d="M7.60739 39.847C5.53139 39.847 3.84839 38.164 3.84839 36.088V30.0656C3.84839 27.9896 5.53139 26.3066 7.60739 26.3066C9.68339 26.3066 11.3664 27.9896 11.3664 30.0656V36.088C11.3664 38.1641 9.68339 39.847 7.60739 39.847Z" stroke="#2A7EF9" stroke-width="1.7" stroke-miterlimit="10"/>
<path d="M7.60742 42.667V47.2958" stroke="#2A7EF9" stroke-width="1.7" stroke-miterlimit="10"/>
<path d="M2.90845 47.2959H12.306" stroke="#2A7EF9" stroke-width="1.7" stroke-miterlimit="10" stroke-linecap="round"/>
<path d="M46.9707 36.0879C46.9707 39.7151 44.0197 42.6661 40.3925 42.6661C36.7651 42.6661 33.8142 39.7151 33.8142 36.0879" stroke="#2A7EF9" stroke-width="1.7" stroke-miterlimit="10" stroke-linecap="round"/>
<path d="M40.3925 39.847C38.3165 39.847 36.6335 38.164 36.6335 36.088V30.0656C36.6335 27.9896 38.3165 26.3066 40.3925 26.3066C42.4685 26.3066 44.1515 27.9896 44.1515 30.0656V36.088C44.1515 38.1641 42.4686 39.847 40.3925 39.847Z" stroke="#2A7EF9" stroke-width="1.7" stroke-miterlimit="10"/>
<path d="M40.3926 42.666V47.2948" stroke="#2A7EF9" stroke-width="1.7" stroke-miterlimit="10"/>
<path d="M35.6938 47.2949H45.0914" stroke="#2A7EF9" stroke-width="1.7" stroke-miterlimit="10" stroke-linecap="round"/>
<path d="M8 19V15.7451C8 14.2289 9.27966 13 10.8585 13H14" stroke="#2A7EF9" stroke-width="1.7" stroke-miterlimit="10" stroke-linecap="round"/>
<path d="M40.5 19V15.7451C40.5 14.2289 39.2203 13 37.6415 13H35" stroke="#2A7EF9" stroke-width="1.7" stroke-miterlimit="10" stroke-linecap="round"/>
<path d="M8 26L8 23" stroke="#2A7EF9" stroke-width="1.7" stroke-miterlimit="10" stroke-linecap="round"/>
<path d="M40.5 26L40.5 23" stroke="#2A7EF9" stroke-width="1.7" stroke-miterlimit="10" stroke-linecap="round"/>
</g>
<defs>
<clipPath id="clip0_1250_17637">
<rect width="48" height="48" fill="white"/>
</clipPath>
</defs>
</svg>
