<svg width="88" height="88" viewBox="0 0 88 88" fill="none" xmlns="http://www.w3.org/2000/svg">
<path d="M69.6801 27.1992H62.2575L60.5132 41.5253L62.2575 62.2023H86.2558C87.2191 62.2023 88.0001 61.4212 88.0001 60.4579V44.0806L69.6801 27.1992Z" fill="#E6F1FF"/>
<path d="M69.6799 27.1992V42.6186C69.6799 43.4261 70.3346 44.0806 71.1421 44.0806H87.9999L80.2318 28.1779C79.9393 27.5791 79.3311 27.1992 78.6645 27.1992H69.6799Z" fill="#A0CAFE"/>
<path d="M57.024 21.2559H20.6553C18.8262 21.2559 17.3433 22.7386 17.3433 24.5679V56.9689L58.4872 58.3212L57.024 21.2559Z" fill="#A0CAFE"/>
<path d="M58.9457 21.2559H57.0241V52.8821C57.0241 55.1391 55.1943 56.9687 52.9374 56.9687H17.3435V58.8901C17.3435 60.7192 18.8263 62.2022 20.6555 62.2022H62.2577V24.5679C62.2575 22.7386 60.7748 21.2559 58.9457 21.2559Z" fill="#81B8FD"/>
<path d="M31.781 70.7446C36.499 70.7446 40.3237 66.9199 40.3237 62.2019C40.3237 57.4839 36.499 53.6592 31.781 53.6592C27.063 53.6592 23.2383 57.4839 23.2383 62.2019C23.2383 66.9199 27.063 70.7446 31.781 70.7446Z" fill="#6E5C59"/>
<path d="M73.0679 70.7446C77.7859 70.7446 81.6106 66.9199 81.6106 62.2019C81.6106 57.4839 77.7859 53.6592 73.0679 53.6592C68.3498 53.6592 64.5251 57.4839 64.5251 62.2019C64.5251 66.9199 68.3498 70.7446 73.0679 70.7446Z" fill="#6E5C59"/>
<path d="M31.781 65.4193C33.5576 65.4193 34.9979 63.979 34.9979 62.2023C34.9979 60.4256 33.5576 58.9854 31.781 58.9854C30.0043 58.9854 28.564 60.4256 28.564 62.2023C28.564 63.979 30.0043 65.4193 31.781 65.4193Z" fill="#8A8786"/>
<path d="M73.0678 65.4193C74.8445 65.4193 76.2848 63.979 76.2848 62.2023C76.2848 60.4256 74.8445 58.9854 73.0678 58.9854C71.2911 58.9854 69.8508 60.4256 69.8508 62.2023C69.8508 63.979 71.2911 65.4193 73.0678 65.4193Z" fill="#8A8786"/>
<path d="M12.415 39.586H4.28324C3.56068 39.586 2.9751 39.0003 2.9751 38.2779C2.9751 37.5555 3.56068 36.9697 4.28324 36.9697H12.415C13.1376 36.9697 13.7231 37.5555 13.7231 38.2779C13.7231 39.0003 13.1376 39.586 12.415 39.586Z" fill="#FF5F7A"/>
<path d="M12.4149 46.505H1.30814C0.585578 46.505 0 45.9192 0 45.1968C0 44.4744 0.585578 43.8887 1.30814 43.8887H12.4147C13.1373 43.8887 13.7228 44.4744 13.7228 45.1968C13.7228 45.9192 13.1374 46.505 12.4149 46.505Z" fill="#FF5F7A"/>
<path d="M12.415 53.4241H4.28324C3.56068 53.4241 2.9751 52.8383 2.9751 52.1158C2.9751 51.3932 3.56068 50.8076 4.28324 50.8076H12.415C13.1376 50.8076 13.7231 51.3934 13.7231 52.1158C13.7231 52.8383 13.1376 53.4241 12.415 53.4241Z" fill="#FF5F7A"/>
<path d="M88 48.9639H83.9944C83.2719 48.9639 82.6863 49.5496 82.6863 50.272C82.6863 50.9944 83.2719 51.5802 83.9944 51.5802H88V48.9639Z" fill="#D9E9FF"/>
</svg>
