<svg width="40" height="40" viewBox="0 0 40 40" fill="none" xmlns="http://www.w3.org/2000/svg">
<mask id="mask0_2771_59083" style="mask-type:luminance" maskUnits="userSpaceOnUse" x="0" y="0" width="40" height="40">
<path d="M0 3.8147e-06H40V40H0V3.8147e-06Z" fill="white"/>
</mask>
<g mask="url(#mask0_2771_59083)">
<path d="M21.9531 4.79688H19.6095H16.4843H14.1406C13.4348 4.79688 12.8594 4.22145 12.8594 3.51562V1.56242C12.8594 0.856527 13.4349 0.28125 14.1406 0.28125H21.9531C22.6589 0.28125 23.2344 0.856527 23.2344 1.56242V3.51562C23.2344 4.22145 22.659 4.79688 21.9531 4.79688Z" fill="#2A7EF9" stroke="#2A7EF9"/>
<path d="M20.1095 8.04688V8.59888L19.5602 8.54444C19.0626 8.49512 18.5577 8.46977 18.047 8.46977C17.5362 8.46977 17.0314 8.49512 16.5337 8.54444L15.9844 8.59888V8.04688V4.29781V3.79781H16.4844H19.6095H20.1095V4.29781V8.04688Z" fill="#646464" stroke="#646464"/>
<path d="M19.6588 7.5483L19.6589 7.54831C22.8315 7.86345 25.7337 9.09795 28.0945 10.9811C29.0425 11.7373 29.9034 12.5981 30.6596 13.5461C32.8576 16.3019 34.1719 19.795 34.1719 23.5938C34.1719 32.4993 26.9525 39.7188 18.0469 39.7188C9.14128 39.7188 1.92188 32.4993 1.92188 23.5938C1.92188 19.795 3.2361 16.302 5.43425 13.5461C6.19033 12.5981 7.05125 11.7373 7.99923 10.9811C10.3601 9.09795 13.2622 7.86345 16.4349 7.54831L16.435 7.5483C16.9653 7.49575 17.503 7.46875 18.0469 7.46875C18.5908 7.46875 19.1286 7.49575 19.6588 7.5483ZM29.2656 23.5938C29.2656 17.3978 24.2428 12.375 18.0469 12.375C11.8509 12.375 6.82812 17.3978 6.82812 23.5938C6.82812 29.7897 11.8509 34.8126 18.0469 34.8126C24.2428 34.8126 29.2656 29.7897 29.2656 23.5938Z" fill="#2A7EF9" stroke="#2A7EF9"/>
<path fill-rule="evenodd" clip-rule="evenodd" d="M29.7656 23.5937C29.7656 17.1216 24.519 11.8749 18.0469 11.8749C11.5748 11.8749 6.32812 17.1216 6.32812 23.5937C6.32812 30.0658 11.5748 35.3125 18.0469 35.3125C24.519 35.3125 29.7656 30.0658 29.7656 23.5937Z" fill="#CAE7FF"/>
<path d="M27.0336 11.4155L27.4709 11.7644C28.3604 12.474 29.1682 13.2817 29.8778 14.1712L30.2267 14.6085L30.6222 14.2129L32.7359 12.0992C32.7359 12.0992 32.7359 12.0992 32.736 12.0992C33.2351 11.6001 33.2351 10.7863 32.736 10.2872L32.7359 10.2872M27.0336 11.4155L32.3824 10.6408L32.7359 10.2872M27.0336 11.4155L27.4292 11.02L29.5429 8.90618L29.8963 9.25946L29.543 8.90613C30.042 8.40704 30.8559 8.40704 31.3549 8.90613L27.0336 11.4155ZM32.7359 10.2872L31.3549 8.90618L32.7359 10.2872Z" fill="#646464" stroke="#646464"/>
<path d="M6.21601 14.1712L5.86716 14.6085L5.47157 14.2129L3.35766 12.0991L3.35766 12.0991C2.85862 11.6001 2.85869 10.7863 3.35761 10.2873L3.35767 10.2872L4.73883 8.90613C4.73883 8.90613 4.73884 8.90613 4.73884 8.90612C5.23796 8.40702 6.0516 8.40709 6.55073 8.90609L6.55079 8.90614L8.66454 11.02L9.06008 11.4155L8.62279 11.7644C7.73331 12.474 6.92547 13.2817 6.21601 14.1712Z" fill="#646464" stroke="#646464"/>
<path fill-rule="evenodd" clip-rule="evenodd" d="M25.7423 30.1846C26.3525 29.5745 27.3417 29.5745 27.9518 30.1846L28.8706 31.1035L31.5794 28.3948C32.1894 27.7846 33.1788 27.7846 33.7888 28.3948C34.399 29.0048 34.399 29.9941 33.7888 30.6042L29.9754 34.4177C29.3653 35.0277 28.376 35.0277 27.7659 34.4177L25.7423 32.3941C25.1322 31.784 25.1322 30.7948 25.7423 30.1846ZM37.578 31.4063C37.578 27.0915 34.0803 23.5938 29.7655 23.5938C25.4509 23.5938 21.9531 27.0915 21.9531 31.4063C21.9531 35.7209 25.4509 39.2188 29.7655 39.2188C34.0803 39.2188 37.578 35.7209 37.578 31.4063Z" fill="#FFA912"/>
<path d="M33.6122 28.5713L33.6122 28.5713C33.0997 28.0588 32.2687 28.0588 31.7564 28.5713L31.7563 28.5713L29.0476 31.2801L28.8708 31.4569L28.694 31.2801L27.7752 30.3612L27.7752 30.3612C27.2628 29.8486 26.4318 29.8486 25.9193 30.3612L25.9193 30.3612C25.4068 30.8736 25.4068 31.7046 25.9193 32.2171L25.9193 32.2171L27.9428 34.2407C27.9428 34.2407 27.9428 34.2407 27.9428 34.2407C28.4554 34.7531 29.2864 34.7531 29.7987 34.2407L29.7987 34.2407L33.6122 30.4272C34.1248 29.9147 34.1248 29.0838 33.6122 28.5713Z" fill="#F2F7FC" stroke="#FFA912" stroke-width="0.5"/>
</g>
<path d="M17.5 21V24.8C17.5 24.9105 17.5895 25 17.7 25H21.5" stroke="#2A7EF9" stroke-width="3" stroke-linecap="round"/>
</svg>
