<svg width="80" height="80" viewBox="0 0 80 80" fill="none" xmlns="http://www.w3.org/2000/svg">
<path d="M40 76C59.8823 76 76 59.8823 76 40C76 20.1178 59.8823 4 40 4C20.1178 4 4 20.1178 4 40C4 59.8823 20.1178 76 40 76Z" fill="url(#paint0_linear_2850_51232)"/>
<path opacity="0.4" d="M31 56.5543L49.4296 75C64.6935 70.9261 76 57.0069 76 40.3718C76 40.0323 76 39.6928 76 39.3533L61.5276 26L31 56.5543Z" fill="url(#paint1_linear_2850_51232)"/>
<path d="M40.9086 48.0631C42.4985 49.653 42.4985 52.3786 40.9086 53.9685L37.6152 57.2618C36.0253 58.8517 33.2998 58.8517 31.7099 57.2618L17.2872 42.7256C15.6973 41.1356 15.6973 38.4101 17.2872 36.8202L20.5805 33.5268C22.1704 31.9369 24.896 31.9369 26.4859 33.5268L40.9086 48.0631Z" fill="white"/>
<path d="M53.5143 22.9653C55.1042 21.3754 57.8298 21.3754 59.4197 22.9653L62.713 26.2587C64.3029 27.8486 64.3029 30.5741 62.713 32.164L37.7288 57.0347C36.1389 58.6246 33.4134 58.6246 31.8235 57.0347L28.5301 53.7413C26.9402 52.1514 26.9402 49.4259 28.5301 47.836L53.5143 22.9653Z" fill="white"/>
<defs>
<linearGradient id="paint0_linear_2850_51232" x1="4" y1="40" x2="76" y2="40" gradientUnits="userSpaceOnUse">
<stop stop-color="#3BC83B"/>
<stop offset="0.479167" stop-color="#0CAE0C"/>
<stop offset="1" stop-color="#009500"/>
</linearGradient>
<linearGradient id="paint1_linear_2850_51232" x1="43" y1="42.5" x2="66" y2="64" gradientUnits="userSpaceOnUse">
<stop/>
<stop offset="1" stop-opacity="0"/>
</linearGradient>
</defs>
</svg>
