<svg width="24" height="24" viewBox="0 0 24 24" fill="none" xmlns="http://www.w3.org/2000/svg">
<path d="M15.6727 3.00369C12.9595 2.94943 10.1611 4.50312 9.39347 8.00884C6.26918 6.94244 3.44823 9.04572 3.74126 12.404C2.10658 13.0648 0.95752 14.6618 0.95752 16.5388C0.95752 19.0104 2.94728 21.0002 5.4189 21.0002H10.8385C10.837 19.4981 10.8338 16.4842 10.8338 15.9133L9.5629 16.3739C8.64089 16.7713 7.95989 15.6102 8.7495 14.8873L11.1543 12.5503C11.7035 12.001 12.3596 12.064 12.8458 12.5503L15.2506 14.8873C16.0402 15.6102 15.3592 16.7713 14.4372 16.3739L13.1662 15.9133V21.0002H18.5812C21.0528 21.0002 23.0426 19.0104 23.0426 16.5388C23.0426 14.7196 21.9628 13.1646 20.4083 12.4687C23.4205 6.5964 19.638 3.08287 15.6727 3.00369Z" fill="#65A3FF"/>
<path d="M15.6728 3.00281C15.5216 2.99983 15.3557 3.00502 15.2044 3.01173C11.7392 8.47298 17.0946 12.4675 20.4084 12.4675C23.4205 6.59522 19.6381 3.08199 15.6728 3.00281Z" fill="#2A7EF9"/>
</svg>
