<svg width="64" height="64" viewBox="0 0 64 64" fill="none" xmlns="http://www.w3.org/2000/svg">
<path d="M54.5759 36.9664H54.4786C54.2838 31.8055 49.9993 27.7157 44.8384 27.7157H42.5987L33.348 20.1204C32.3743 19.3414 31.1084 18.8545 29.8425 18.8545H19.1312C16.9889 18.8545 15.1388 20.023 14.165 21.8731L11.2438 27.7157C9.78313 27.7157 8.61462 28.8842 8.61462 30.3448V36.1874C8.61462 38.3296 10.3674 40.0824 12.5097 40.0824H52.0442H54.4786C54.9654 40.0824 55.2576 39.6929 55.2576 39.3034V37.8427C55.3549 37.3559 54.9654 36.9664 54.5759 36.9664Z" fill="#A0CAFE"/>
<path d="M45.4225 38.5237C46.591 38.5237 47.4674 39.4001 47.6621 40.4712C47.6621 40.3738 47.6621 40.2765 47.6621 40.1791C47.6621 38.9132 46.6884 37.9395 45.4225 37.9395C44.1566 37.9395 43.1829 38.9132 43.1829 40.1791V40.4712C43.3776 39.4001 44.254 38.5237 45.4225 38.5237Z" fill="#F2F2F2"/>
<path d="M52.0435 40.1795C52.0435 39.79 52.0435 39.3031 51.9461 38.9136C51.3618 36.2844 49.0248 34.3369 46.2009 34.3369C43.377 34.3369 41.04 36.2844 40.4558 38.9136C40.3584 39.3031 40.3584 39.6926 40.3584 40.1795H52.0435Z" fill="#81B8FD"/>
<path d="M46.2009 45.1452C48.9436 45.1452 51.1671 42.9218 51.1671 40.1791C51.1671 37.4363 48.9436 35.2129 46.2009 35.2129C43.4582 35.2129 41.2347 37.4363 41.2347 40.1791C41.2347 42.9218 43.4582 45.1452 46.2009 45.1452Z" fill="#6E5C59"/>
<path d="M46.2009 42.2245C47.3303 42.2245 48.2458 41.309 48.2458 40.1797C48.2458 39.0503 47.3303 38.1348 46.2009 38.1348C45.0715 38.1348 44.156 39.0503 44.156 40.1797C44.156 41.309 45.0715 42.2245 46.2009 42.2245Z" fill="#8A8786"/>
<path d="M46.2009 38.6216C47.272 38.6216 48.1484 39.4007 48.2458 40.4718C48.2458 40.3744 48.2458 40.277 48.2458 40.1797C48.2458 39.0111 47.272 38.1348 46.2009 38.1348C45.0324 38.1348 44.156 39.1085 44.156 40.1797V40.4718C44.2534 39.4007 45.1298 38.6216 46.2009 38.6216Z" fill="#F2F2F2"/>
<path d="M24.1944 40.1795C24.1944 39.79 24.1944 39.3031 24.097 38.9136C23.5127 36.2844 21.1757 34.3369 18.3518 34.3369C15.5279 34.3369 13.1909 36.2844 12.6067 38.9136C12.6067 39.3031 12.5093 39.6926 12.5093 40.1795H24.1944Z" fill="#81B8FD"/>
<path d="M18.3518 45.1452C21.0945 45.1452 23.3179 42.9218 23.3179 40.1791C23.3179 37.4363 21.0945 35.2129 18.3518 35.2129C15.609 35.2129 13.3856 37.4363 13.3856 40.1791C13.3856 42.9218 15.609 45.1452 18.3518 45.1452Z" fill="#6E5C59"/>
<path d="M18.3518 42.2245C19.4811 42.2245 20.3967 41.309 20.3967 40.1797C20.3967 39.0503 19.4811 38.1348 18.3518 38.1348C17.2224 38.1348 16.3069 39.0503 16.3069 40.1797C16.3069 41.309 17.2224 42.2245 18.3518 42.2245Z" fill="#8A8786"/>
<path d="M18.3518 38.6216C19.4229 38.6216 20.2993 39.4007 20.3967 40.4718C20.3967 40.3744 20.3967 40.277 20.3967 40.1797C20.3967 39.0111 19.4229 38.1348 18.3518 38.1348C17.1833 38.1348 16.3069 39.1085 16.3069 40.1797V40.4718C16.4043 39.4007 17.2806 38.6216 18.3518 38.6216Z" fill="#F2F2F2"/>
<path d="M30.7188 27.7156H40.2616L32.3741 21.2888C31.8873 20.8993 31.303 20.6071 30.7188 20.5098V27.7156Z" fill="#D9E9FF"/>
<path d="M19.3256 20.3154H19.2282C17.6702 20.3154 16.307 21.1918 15.5279 22.5551L12.8988 27.716H19.3256V20.3154Z" fill="#D9E9FF"/>
<path d="M20.4943 20.3154H29.5502V27.716H20.4943V20.3154Z" fill="#D9E9FF"/>
<path d="M33.4457 27.7155L36.1722 24.4047L35.1011 23.5283L31.5956 27.7155H33.4457Z" fill="#E6F1FF"/>
<path d="M21.5657 27.715H23.5132L29.5505 20.5092V20.3145H27.7977L21.5657 27.715Z" fill="#E6F1FF"/>
<path d="M52.5311 34.8239H54.0891C53.6996 33.4606 53.1153 32.2921 52.239 31.3184C51.3626 31.4157 50.7783 32.1947 50.7783 33.0711C50.7783 33.9475 51.5573 34.8239 52.5311 34.8239Z" fill="#FF5F7A"/>
<path d="M8.61462 31.708H9.78313V34.3372H8.61462V31.708Z" fill="#FF5F7A"/>
<path d="M18.1818 7.27246H10.5454C8.33627 7.27246 6.54541 9.06332 6.54541 11.2725V18.9088" stroke="#A0CAFE" stroke-width="3" stroke-linecap="round"/>
<path d="M45.8181 7.27246H53.4545C55.6636 7.27246 57.4545 9.06332 57.4545 11.2725V18.9088" stroke="#A0CAFE" stroke-width="3" stroke-linecap="round"/>
<path d="M45.8181 57.4541H53.4545C55.6636 57.4541 57.4545 55.6632 57.4545 53.4541V45.8177" stroke="#A0CAFE" stroke-width="3" stroke-linecap="round"/>
<path d="M18.1818 57.4541H10.5454C8.33627 57.4541 6.54541 55.6632 6.54541 53.4541V45.8177" stroke="#A0CAFE" stroke-width="3" stroke-linecap="round"/>
</svg>
