<svg width="40" height="40" viewBox="0 0 40 40" fill="current" xmlns="http://www.w3.org/2000/svg">
<g clip-path="url(#clip0_754_5753)">
<path d="M20.0001 7.37939C16.1533 7.37939 13.0234 10.509 13.0234 14.356C13.0234 18.2028 16.1533 21.3323 20.0001 21.3323C23.8468 21.3323 26.9767 18.2028 26.9767 14.356C26.9767 10.509 23.8468 7.37939 20.0001 7.37939Z" fill="current"/>
<path d="M20 0C8.97186 0 0 8.97186 0 20C0 25.1025 1.92169 29.7638 5.07782 33.3011C5.75378 30.3329 7.30499 27.6248 9.57001 25.5151C11.1597 24.0344 13.0197 22.9263 15.0302 22.2372C12.4179 20.5841 10.6796 17.6694 10.6796 14.3561C10.6796 9.21661 14.8608 5.03571 20 5.03571C25.1392 5.03571 29.3201 9.21661 29.3201 14.3561C29.3201 17.6678 27.5833 20.5817 24.9728 22.2351C27.1506 22.981 29.1467 24.2194 30.8224 25.8951C32.8699 27.9425 34.2834 30.5161 34.9207 33.3023C38.078 29.765 40 25.1031 40 20C40 8.97186 31.0281 0 20 0Z" fill="current"/>
<path d="M7.11731 35.2852C10.6 38.2253 15.0961 40.0002 20 40.0002C24.9039 40.0002 29.4 38.225 32.8827 35.2852C32.562 32.3714 31.2524 29.6398 29.1653 27.5527C26.7166 25.1039 23.4616 23.7554 20 23.7554C13.407 23.7554 7.83295 28.785 7.11731 35.2852Z" fill="current"/>
</g>
<defs>
<clipPath id="clip0_754_5753">
<rect width="40" height="40" fill="current"/>
</clipPath>
</defs>
</svg>
