<svg width="24" height="24" viewBox="0 0 24 24" fill="current" xmlns="http://www.w3.org/2000/svg">
<g clip-path="url(#clip0_754_5631)">
<path d="M13.5591 4.2234C14.4639 3.70806 14.7783 2.55674 14.2628 1.65194C13.7475 0.747906 12.5969 0.431948 11.6921 0.948253C10.7873 1.46441 10.4714 2.61486 10.9868 3.52044C11.5038 4.42442 12.6559 4.73966 13.5591 4.2234Z" fill="current"/>
<path d="M11.2142 20.0547C11.3817 20.1448 11.5696 20.2023 11.7727 20.2055C11.7795 20.2055 11.7863 20.2055 11.7931 20.2055C11.9937 20.2055 12.1804 20.1527 12.348 20.0667L12.2195 19.1659L11.2142 20.0547Z" fill="current"/>
<path d="M23.6656 18.1382L20.5356 14.8239C20.3592 14.4649 18.6188 10.8027 18.3334 10.5465L16.8926 8.01896L17.5404 8.24317L20.7347 10.9439C21.1644 11.3085 21.8083 11.2559 22.1741 10.8243C22.5382 10.3934 22.4844 9.74867 22.0537 9.38486L18.7137 6.56049C18.6176 6.479 18.507 6.41594 18.3882 6.37457C16.3142 5.65801 14.6937 4.99188 14.116 5.03243C13.5512 5.07637 12.707 5.60216 12.4262 5.9189L12.8371 5.93646L10.0963 6.55236L7.13109 5.91415C6.58212 5.79525 6.03716 6.14552 5.91758 6.69691C5.79902 7.24903 6.14972 7.79156 6.70102 7.91032L9.8861 8.59658C10.0361 8.62852 10.1849 8.62688 10.3254 8.59498L13.2858 7.92953L10.5045 9.39207C10.2479 9.52694 10.0747 9.47346 9.80553 9.4152C9.52306 9.55801 6.9499 10.8163 6.73968 11.0509C6.47163 11.2049 5.86329 11.7139 5.66812 12.0578C3.71459 13.8761 4.11426 13.5043 3.60764 13.9751L0.837135 14.4833C0.282599 14.5845 -0.0848013 15.1167 0.0169209 15.6719C0.12266 16.2513 0.709135 16.5815 1.20574 16.4922L4.26956 15.9305C4.60061 15.8699 4.82564 15.6321 5.05672 15.4167L6.25387 14.3029L8.54092 16.9654L7.18577 18.1631L3.36277 17.101C2.73409 16.9255 2.0368 17.2925 1.85402 17.9539C1.67288 18.6059 2.05466 19.2815 2.70695 19.4627L7.17096 20.7026C7.55912 20.8111 7.99239 20.721 8.31038 20.4401C11.0079 18.0561 10.2707 18.7071 11.888 17.2782C13.2189 17.4242 12.8107 17.3795 13.6278 17.4696L14.3103 22.248C14.4045 22.9062 15.0092 23.3819 15.6966 23.2885C16.3668 23.1927 16.8323 22.572 16.7366 21.9017L15.9195 16.1826C15.8406 15.6289 15.3966 15.1989 14.8408 15.1374L11.5748 14.7776L9.1996 12.0115L10.7008 11.2511C10.972 11.1137 11.175 11.0396 11.3511 10.7946L12.7983 8.79441L14.4946 11.7688L12.3104 13.126L12.3946 13.2242L15.0204 13.5131C15.3396 13.5482 15.6419 13.6367 15.9204 13.7675L16.9572 13.1228C16.9601 13.1213 16.9624 13.1189 16.9652 13.1165L18.4177 16.0718C18.472 16.1819 18.5422 16.2831 18.6264 16.3726L21.8833 19.8217C22.3485 20.3141 23.1231 20.3356 23.6159 19.8712C24.108 19.4061 24.1301 18.6304 23.6656 18.1382Z" fill="current"/>
<path d="M4.38846 11.0372C4.92983 11.172 5.5254 11.0548 5.9802 10.6631C6.37756 10.3224 6.58182 9.84449 6.59537 9.35945C6.60138 9.13433 6.56576 8.91017 6.48673 8.69555C5.88046 8.5495 5.41449 8.11947 5.20311 7.57534C4.67407 7.45804 4.09921 7.5768 3.65559 7.95755C2.90918 8.59895 2.82415 9.72549 3.46575 10.4724C3.71618 10.7643 4.04138 10.9519 4.38846 11.0372Z" fill="current"/>
</g>
<defs>
<clipPath id="clip0_754_5631">
<rect width="24" height="24" fill="current"/>
</clipPath>
</defs>
</svg>
