<svg width="16" height="16" viewBox="0 0 16 16" fill="none" xmlns="http://www.w3.org/2000/svg">
<path fill-rule="evenodd" clip-rule="evenodd" d="M7.99993 2.00003C8.27608 2.00003 8.49993 2.22389 8.49993 2.50003V7.50001H13.5C13.7761 7.50001 14 7.72387 14 8.00001C14 8.27615 13.7761 8.50001 13.5 8.50001H8.49993V13.5C8.49993 13.7762 8.27608 14 7.99993 14C7.72379 14 7.49993 13.7762 7.49993 13.5V8.50001H2.5C2.22386 8.50001 2 8.27615 2 8.00001C2 7.72387 2.22386 7.50001 2.5 7.50001H7.49993V2.50003C7.49993 2.22389 7.72379 2.00003 7.99993 2.00003Z" fill="#2A7EF9"/>
</svg>
