<svg width="16" height="16" viewBox="0 0 16 16" fill="none" xmlns="http://www.w3.org/2000/svg">
<path fill-rule="evenodd" clip-rule="evenodd" d="M7.99993 2C8.27608 2 8.49993 2.22386 8.49993 2.5V7.49998H13.5C13.7761 7.49998 14 7.72384 14 7.99998C14 8.27612 13.7761 8.49998 13.5 8.49998H8.49993V13.5C8.49993 13.7761 8.27608 14 7.99993 14C7.72379 14 7.49993 13.7761 7.49993 13.5V8.49998H2.5C2.22386 8.49998 2 8.27612 2 7.99998C2 7.72384 2.22386 7.49998 2.5 7.49998H7.49993V2.5C7.49993 2.22386 7.72379 2 7.99993 2Z" fill="#979797"/>
</svg>
