<svg width="16" height="16" viewBox="0 0 16 16" fill="current" xmlns="http://www.w3.org/2000/svg">
<path fill-rule="evenodd" clip-rule="evenodd" d="M7.99925 15C7.99925 15 13.7275 11.1811 13.7275 6.72581C13.7275 5.20659 13.124 3.74958 12.0497 2.67533C10.9755 1.60107 9.51848 0.997559 7.99925 0.997559C6.48002 0.997559 5.02302 1.60107 3.94876 2.67533C2.87451 3.74958 2.271 5.20659 2.271 6.72581C2.271 11.1811 7.99925 15 7.99925 15ZM9.90914 6.72581C9.90914 7.78036 9.05426 8.63523 7.99972 8.63523C6.94517 8.63523 6.0903 7.78036 6.0903 6.72581C6.0903 5.67127 6.94517 4.8164 7.99972 4.8164C9.05426 4.8164 9.90914 5.67127 9.90914 6.72581Z" fill="current"/>
</svg>
