<svg width="24" height="24" viewBox="0 0 24 24" fill="current" xmlns="http://www.w3.org/2000/svg">
<path d="M15.9276 7.21094C17.3628 7.21094 18.5263 6.04443 18.5263 4.60547C18.5263 3.16651 17.3628 2 15.9276 2C14.4923 2 13.3288 3.16651 13.3288 4.60547C13.3288 6.04443 14.4923 7.21094 15.9276 7.21094Z" fill="current"/>
<path d="M20.9576 15.4141L19.477 9.58984C19.2121 8.55078 18.2809 7.82422 17.2133 7.82422H14.6418C13.5743 7.82422 12.6392 8.55078 12.3781 9.58984L10.8976 15.4141C10.6794 16.2773 11.3301 17.1172 12.2184 17.1172H13.3249V20.8281C13.3249 21.4766 13.847 22 14.4938 22H17.3575C18.0042 22 18.5263 21.4766 18.5263 20.8281V17.1172H19.6368C20.5251 17.1172 21.1758 16.2773 20.9576 15.4141Z" fill="current"/>
<path d="M7.8118 7.82812H5.33772C4.04808 7.82812 3 8.87891 3 10.1719V14.3828C3 14.9648 3.42079 15.4453 3.97405 15.5391V20.8281C3.97405 21.4766 4.49614 22 5.14291 22H8.00661C8.65338 22 9.17547 21.4766 9.17547 20.8281V15.5391C9.72873 15.4453 10.1495 14.9648 10.1495 14.3828V10.1719C10.1495 8.875 9.10534 7.82812 7.8118 7.82812Z" fill="current"/>
<path d="M6.57671 7.21094C8.01196 7.21094 9.17547 6.04443 9.17547 4.60547C9.17547 3.16651 8.01196 2 6.57671 2C5.14145 2 3.97794 3.16651 3.97794 4.60547C3.97794 6.04443 5.14145 7.21094 6.57671 7.21094Z" fill="current"/>
</svg>
