<svg width="48" height="48" viewBox="0 0 48 48" fill="current" xmlns="http://www.w3.org/2000/svg">
<path fill-rule="evenodd" clip-rule="evenodd" d="M28.482 46.6749H19.4649C19.1191 46.6749 18.7999 46.3824 18.7999 46.01V41.3817C18.0285 41.1157 17.2571 40.7699 16.4858 40.3709L13.2141 43.6692C13.1077 43.7756 12.9215 43.8288 12.7619 43.8288C12.5757 43.8288 12.4427 43.7756 12.3097 43.6692L5.9791 37.3386C5.87271 37.2323 5.79291 37.0461 5.79291 36.9131C5.79291 36.7535 5.87271 36.5673 5.9791 36.4609L9.2508 33.1892C8.85181 32.4178 8.53262 31.6198 8.26663 30.8485H3.63838C3.29259 30.8485 3 30.5559 3 30.1835V25.236C3 24.8902 3.29259 24.5977 3.63838 24.5977C4.01077 24.5977 4.27676 24.8902 4.27676 25.236V29.5185H8.74542C9.03801 29.5185 9.304 29.7047 9.3572 29.9973C9.67639 31.0081 10.0754 31.9922 10.634 32.9498C10.767 33.2158 10.7404 33.5084 10.501 33.7212L7.33566 36.9131L12.7619 42.3393L15.9272 39.1474C16.1134 38.9346 16.4592 38.908 16.6986 39.041C17.7359 39.5996 18.6935 39.9986 19.7043 40.2912C19.9437 40.3709 20.183 40.6369 20.183 40.9295V45.3982H27.8436V40.9295C27.8436 40.6369 28.0298 40.3975 28.2958 40.2912C29.413 39.972 30.3971 39.5198 31.2483 39.041C31.5143 38.908 31.8069 38.9346 32.0197 39.1474L35.185 42.3393L40.6112 36.9131L37.4459 33.7212C37.2331 33.5084 37.1799 33.2158 37.3395 32.9498C37.8715 31.9922 38.2971 31.0081 38.5897 29.9973C38.6695 29.7579 38.9088 29.5185 39.2014 29.5185H43.6701V25.236C43.6701 24.8902 43.9627 24.5977 44.3351 24.5977C44.7075 24.5977 45.0001 24.8902 45.0001 25.236V30.1835C45.0001 30.5559 44.7075 30.8485 44.3351 30.8485H39.6802C39.4408 31.6198 39.095 32.4178 38.6961 33.1892L41.9678 36.4609C42.1007 36.5673 42.1539 36.7535 42.1539 36.9131C42.1539 37.0461 42.1007 37.2323 41.9678 37.3386L35.6372 43.6958C35.3712 43.9618 34.9722 43.9618 34.7062 43.6958L31.4345 40.3975C30.7163 40.7699 29.9449 41.1157 29.0938 41.3817V46.01C29.0938 46.3824 28.8012 46.6749 28.482 46.6749Z" fill="current"/>
<path fill-rule="evenodd" clip-rule="evenodd" d="M23.9866 36.728C17.8954 36.728 12.948 31.7806 12.948 25.6894C12.948 25.317 13.2406 25.0244 13.613 25.0244C13.9854 25.0244 14.278 25.317 14.278 25.6894C14.278 31.089 18.6402 35.4247 24.0132 35.4247C29.4129 35.4247 33.7485 31.089 33.7485 25.6894C33.7485 25.317 34.0411 25.0244 34.4135 25.0244C34.7859 25.0244 35.0785 25.317 35.0785 25.6894C34.9987 31.7806 30.0513 36.728 23.9866 36.728Z" fill="current"/>
<path fill-rule="evenodd" clip-rule="evenodd" d="M44.3085 25.8745H38.3237C37.9513 25.8745 37.6587 25.5819 37.6587 25.2095V22.2304C37.6587 19.0385 36.5681 15.953 34.52 13.5059C34.3072 13.2665 34.3338 12.8409 34.5998 12.6015C34.8658 12.3621 35.2648 12.4153 35.5308 12.6813C37.7385 15.3146 38.9621 18.7193 38.9621 22.1772V24.5179H43.6435L43.5903 22.1772C43.5637 17.0968 41.6752 12.3089 38.2439 8.69144C38.0045 8.42545 38.0311 8.02646 38.2971 7.76047C38.5365 7.49448 38.9621 7.54767 39.2015 7.78707C42.8721 11.6705 44.8937 16.7776 44.8937 22.1772L44.9203 25.1829C44.9203 25.3691 44.8671 25.5021 44.7341 25.6085C44.6809 25.7947 44.4947 25.8745 44.3085 25.8745ZM9.6232 25.8745H3.63839C3.4788 25.8745 3.3192 25.7947 3.21281 25.6883C3.10641 25.5819 3.02661 25.3957 3.02661 25.2361L3.05321 22.257C3.02661 10.713 12.4427 1.29688 23.9867 1.29688C28.9076 1.29688 33.722 3.05242 37.4459 6.21772C37.7119 6.43051 37.7385 6.8295 37.5257 7.14869C37.2863 7.38808 36.8873 7.44128 36.5947 7.20189C33.0836 4.22278 28.615 2.60023 23.9867 2.60023C13.1343 2.60023 4.30337 11.4046 4.30337 22.257L4.27677 24.5977H8.95822V22.257C8.95822 13.9847 15.7144 7.25508 23.9867 7.25508C26.7531 7.25508 29.4662 8.02646 31.8601 9.48941C32.1793 9.67561 32.2857 10.0746 32.0995 10.3938C31.9133 10.6864 31.5143 10.7928 31.1951 10.6066C29.0406 9.27662 26.5137 8.53184 23.9867 8.53184C16.406 8.53184 10.2616 14.7028 10.2616 22.257V25.2361C10.2616 25.5819 9.96899 25.8745 9.6232 25.8745Z" fill="current"/>
<path fill-rule="evenodd" clip-rule="evenodd" d="M24.9442 21.6723C23.561 21.6723 22.4971 20.5552 22.4971 19.2252C22.4971 17.8953 23.6142 16.8047 24.9442 16.8047C26.3007 16.8047 27.3647 17.9219 27.3647 19.2252C27.3647 20.6084 26.3007 21.6723 24.9442 21.6723ZM24.9442 18.0548C24.3058 18.0548 23.8004 18.5602 23.8004 19.1986C23.8004 19.837 24.3058 20.3424 24.9442 20.3424C25.6092 20.3424 26.088 19.837 26.088 19.1986C26.088 18.6134 25.556 18.0548 24.9442 18.0548Z" fill="current"/>
<path fill-rule="evenodd" clip-rule="evenodd" d="M23.9867 25.8741C22.3907 25.8741 20.7682 25.1826 19.7042 23.959C18.587 22.7355 18.0284 20.9267 18.2678 19.3042C18.454 17.9742 19.1456 16.9102 20.183 16.2453L42.2869 2.70629C42.5263 2.5733 42.872 2.5999 43.0848 2.81269C43.2976 3.05208 43.2976 3.39787 43.1114 3.63726L27.4179 24.2516C26.6732 25.2358 25.5294 25.7944 24.1994 25.8475C24.1196 25.8741 24.0398 25.8741 23.9867 25.8741ZM39.9993 5.6322L20.8746 17.3624C19.9436 17.8944 19.651 18.8254 19.5446 19.4904C19.3584 20.7405 19.8106 22.1237 20.6618 23.0812C21.5129 24.0388 22.8695 24.624 24.1196 24.5442C24.7846 24.5176 25.7156 24.3314 26.3806 23.4536L39.9993 5.6322Z" fill="current"/>
</svg>
