<svg width="48" height="48" viewBox="0 0 48 48" fill="current" xmlns="http://www.w3.org/2000/svg">
<g clip-path="url(#clip0_1005_13206)">
<mask id="mask0_1005_13206" style="mask-type:luminance" maskUnits="userSpaceOnUse" x="0" y="0" width="48" height="48">
<path d="M0 3.8147e-06H48V48H0V3.8147e-06Z" fill="current"/>
</mask>
<g mask="url(#mask0_1005_13206)">
<path fill-rule="evenodd" clip-rule="evenodd" d="M0.837402 24.6011C0.837402 28.7376 4.19091 32.0947 8.33006 32.0947H19.7899C20.2593 32.0947 20.6399 31.7142 20.6399 31.2447C20.6399 30.7753 20.2593 30.3947 19.7899 30.3947H8.33006C5.13045 30.3947 2.5374 27.7993 2.5374 24.6011C2.5374 22.3079 3.86824 20.326 5.80259 19.3864C6.19807 19.1943 6.38179 18.7323 6.22624 18.3211C5.91899 17.5089 5.74984 16.63 5.74984 15.7094C5.74984 11.6424 9.04666 8.34532 13.1126 8.34532C13.6379 8.34532 14.1466 8.39805 14.6294 8.5017C15.058 8.59371 15.4863 8.34466 15.6183 7.92664C16.743 4.36596 20.0706 1.78676 23.9986 1.78676C27.9265 1.78676 31.2542 4.36597 32.3787 7.92662C32.5107 8.34433 32.9384 8.59337 33.3668 8.50189C33.8534 8.39796 34.3598 8.34532 34.8845 8.34532C38.9509 8.34532 42.2501 11.6428 42.2501 15.7094C42.2501 16.63 42.0809 17.5089 41.7737 18.3211C41.6181 18.7323 41.8018 19.1943 42.1973 19.3864C44.1316 20.326 45.4624 22.3079 45.4624 24.6011C45.4624 27.7991 42.8669 30.3947 39.6698 30.3947H28.2073C27.7379 30.3947 27.3573 30.7753 27.3573 31.2447C27.3573 31.7142 27.7379 32.0947 28.2073 32.0947H39.6698C43.806 32.0947 47.1624 28.7378 47.1624 24.6011C47.1624 21.9009 45.7353 19.5369 43.5976 18.2186C43.8268 17.4212 43.9501 16.5797 43.9501 15.7094C43.9501 10.7034 39.8893 6.64532 34.8845 6.64532C34.5016 6.64532 34.1235 6.66837 33.751 6.71479C32.2133 2.83347 28.4282 0.0867577 23.9986 0.0867577C19.569 0.0867577 15.784 2.83341 14.2461 6.71465C13.8736 6.66829 13.4949 6.64532 13.1126 6.64532C8.10752 6.64532 4.04984 10.7038 4.04984 15.7094C4.04984 16.5796 4.17308 17.4212 4.40227 18.2186C2.26455 19.5369 0.837402 21.9008 0.837402 24.6011Z" fill="current"/>
<path fill-rule="evenodd" clip-rule="evenodd" d="M15.9399 33.7617C15.9399 38.2147 19.549 41.8213 23.9985 41.8213C28.4505 41.8213 32.0597 38.2149 32.0597 33.7617C32.0597 32.7722 31.8784 31.824 31.5518 30.9481C31.3877 30.5083 30.8982 30.2847 30.4583 30.4487C30.0185 30.6127 29.7949 31.1022 29.9589 31.5421C30.2169 32.234 30.3597 32.9813 30.3597 33.7617C30.3597 37.2754 27.5122 40.1213 23.9985 40.1213C20.4877 40.1213 17.6399 37.2756 17.6399 33.7617C17.6399 32.9795 17.7807 32.2323 18.0381 31.5421C18.2021 31.1022 17.9785 30.6127 17.5386 30.4487C17.0987 30.2847 16.6092 30.5083 16.4452 30.9481C16.118 31.8258 15.9399 32.7739 15.9399 33.7617Z" fill="current"/>
<path fill-rule="evenodd" clip-rule="evenodd" d="M22.5319 46.2121C22.4236 46.2121 22.3323 46.1211 22.3323 46.0125V44.915C22.3323 44.5171 22.0563 44.1724 21.668 44.0855C20.4719 43.8177 19.3535 43.3458 18.3497 42.711C18.0142 42.4988 17.5765 42.5471 17.2953 42.8274L16.5168 43.6033L16.5158 43.6043C16.4425 43.6777 16.3129 43.6807 16.234 43.6031C16.2338 43.6029 16.2343 43.6033 16.234 43.6031L14.1605 41.5266C14.0822 41.4482 14.0846 41.3205 14.1582 41.2474L14.1602 41.2454L14.9361 40.4694C15.2172 40.1881 15.2658 39.7496 15.0531 39.4137C14.4158 38.4073 13.9442 37.2889 13.6764 36.0926C13.5895 35.7044 13.2448 35.4283 12.8469 35.4283H11.7496C11.6427 35.4283 11.5528 35.3387 11.5528 35.2312V31.2451C11.5528 30.7756 11.1722 30.3951 10.7028 30.3951C10.2333 30.3951 9.85278 30.7756 9.85278 31.2451V35.2312C9.85278 36.2771 10.7033 37.1283 11.7496 37.1283H12.186C12.4467 38.046 12.8116 38.9189 13.2667 39.7347L12.9599 40.0416C12.9595 40.0419 12.9592 40.0423 12.9588 40.0426C12.2153 40.7828 12.2184 41.9885 12.958 42.7282L15.0327 44.806L15.0351 44.8083C15.7745 45.543 16.9775 45.546 17.7172 44.8071C17.7174 44.8069 17.7177 44.8066 17.7179 44.8064L18.0285 44.4969C18.8426 44.9506 19.715 45.3153 20.6323 45.5759V46.0125C20.6323 47.057 21.4818 47.9121 22.5319 47.9121H25.4679C26.5141 47.9121 27.3674 47.0583 27.3674 46.0125V45.5756C28.2833 45.315 29.1551 44.9504 29.9699 44.497L30.2792 44.8063C31.0177 45.545 32.2255 45.5449 32.964 44.8064L35.0438 42.7262C35.7785 41.9866 35.7813 40.7831 35.0419 40.0435L34.7324 39.7339C35.1861 38.9184 35.5509 38.0457 35.8127 37.1283H36.2476C37.2911 37.1283 38.147 36.2799 38.147 35.2312V31.2451C38.147 30.7756 37.7665 30.3951 37.297 30.3951C36.8276 30.3951 36.447 30.7756 36.447 31.2451V35.2312C36.447 35.3359 36.3572 35.4283 36.2476 35.4283H35.1529C34.7556 35.4283 34.4113 35.7035 34.3238 36.091C34.0533 37.2884 33.5811 38.4079 32.9459 39.4149C32.7341 39.7508 32.783 40.1886 33.0638 40.4694L33.8396 41.2454C33.913 41.3188 33.916 41.4487 33.8383 41.5276C33.8381 41.5278 33.8385 41.5274 33.8383 41.5276L31.7619 43.6043C31.6872 43.679 31.5559 43.6789 31.4814 43.6044L30.7055 42.8284C30.4247 42.5475 29.9868 42.4986 29.6509 42.7105C28.6438 43.3459 27.525 43.8178 26.3313 44.0856C25.9432 44.1726 25.6674 44.5172 25.6674 44.915V46.0125C25.6674 46.1198 25.5749 46.2121 25.4679 46.2121H22.5319Z" fill="current"/>
<path fill-rule="evenodd" clip-rule="evenodd" d="M33.9013 24.3359C34.3707 24.3359 34.7513 23.9554 34.7513 23.4859V14.2381C34.7513 13.7686 34.3707 13.3881 33.9013 13.3881C33.4318 13.3881 33.0513 13.7686 33.0513 14.2381V23.4859C33.0513 23.9554 33.4318 24.3359 33.9013 24.3359Z" fill="current"/>
<path fill-rule="evenodd" clip-rule="evenodd" d="M23.8124 24.5059C24.2818 24.5059 24.6624 24.1253 24.6624 23.6559V14.2379C24.6624 13.7685 24.2818 13.3879 23.8124 13.3879C23.343 13.3879 22.9624 13.7685 22.9624 14.2379V23.6559C22.9624 24.1253 23.343 24.5059 23.8124 24.5059Z" fill="current"/>
<path fill-rule="evenodd" clip-rule="evenodd" d="M23.837 20.416L23.831 19.566L22.981 19.5707C22.9822 19.7963 23.0731 20.0122 23.2337 20.1708C23.3943 20.3294 23.6113 20.4176 23.837 20.416ZM22.9624 14.2412C22.9615 14.0152 23.0507 13.7982 23.2102 13.6381C23.3697 13.4779 23.5864 13.3879 23.8124 13.3879H26.435C28.3492 13.3879 29.9951 14.9376 29.9951 16.8954C29.9951 18.8565 28.3486 20.4028 26.435 20.4028C26.0739 20.4028 25.4254 20.4061 24.865 20.4094C24.5852 20.411 24.3282 20.4127 24.1411 20.4139L23.837 20.416L23.831 19.566L22.981 19.5707L22.9757 18.5126C22.973 17.938 22.9704 17.2683 22.9704 16.8954C22.9704 16.5929 22.9684 15.9301 22.9664 15.3413L22.9624 14.2412ZM24.6767 18.7105L24.6757 18.5048C24.673 17.9294 24.6704 17.2637 24.6704 16.8954C24.6704 16.5893 24.6684 15.9234 24.6664 15.3356L24.6655 15.0879H26.435C27.454 15.0879 28.2951 15.9195 28.2951 16.8954C28.2951 17.8734 27.4546 18.7028 26.435 18.7028C26.068 18.7028 25.4145 18.7061 24.8549 18.7094C24.7943 18.7098 24.7347 18.7101 24.6767 18.7105Z" fill="current"/>
<path fill-rule="evenodd" clip-rule="evenodd" d="M19.3566 24.4509C19.7958 24.2851 20.0174 23.7947 19.8517 23.3555L16.347 14.0704L16.3401 14.0526C15.9823 13.1656 14.7279 13.1646 14.3701 14.0529L14.3642 14.068L10.8276 23.3531C10.6605 23.7918 10.8807 24.2829 11.3194 24.45C11.7581 24.6171 12.2492 24.3969 12.4163 23.9582L15.3524 16.2494L18.2612 23.9558C18.427 24.395 18.9174 24.6166 19.3566 24.4509Z" fill="current"/>
<path fill-rule="evenodd" clip-rule="evenodd" d="M11.8745 21.3434C11.8745 21.8128 12.2551 22.1934 12.7245 22.1934H17.9723C18.4417 22.1934 18.8223 21.8128 18.8223 21.3434C18.8223 20.8739 18.4417 20.4934 17.9723 20.4934H12.7245C12.2551 20.4934 11.8745 20.8739 11.8745 21.3434Z" fill="current"/>
<path fill-rule="evenodd" clip-rule="evenodd" d="M23.1484 31.2447C23.1484 31.7142 23.529 32.0947 23.9984 32.0947H24.0039C24.4733 32.0947 24.8539 31.7142 24.8539 31.2447C24.8539 30.7753 24.4733 30.3947 24.0039 30.3947H23.9984C23.529 30.3947 23.1484 30.7753 23.1484 31.2447Z" fill="current"/>
</g>
</g>
</svg>
