<svg width="16" height="16" viewBox="0 0 16 16" fill="none" xmlns="http://www.w3.org/2000/svg">
<path d="M5.68681 6.35359C5.49154 6.54886 5.17496 6.54886 4.9797 6.35359C4.78444 6.15833 4.78444 5.84175 4.9797 5.64649L7.64637 2.97982C7.84163 2.78456 8.15821 2.78456 8.35347 2.97982L11.0201 5.64649C11.2154 5.84175 11.2154 6.15833 11.0201 6.35359C10.8249 6.54886 10.5083 6.54886 10.313 6.35359L7.99992 4.04048L5.68681 6.35359Z" fill="white"/>
<path d="M10.3132 9.64649C10.5085 9.45123 10.825 9.45122 11.0203 9.64649C11.2156 9.84175 11.2156 10.1583 11.0203 10.3536L8.35364 13.0203C8.25987 13.114 8.13269 13.1667 8.00008 13.1667C7.86747 13.1667 7.7403 13.114 7.64653 13.0203L4.97986 10.3536C4.7846 10.1583 4.7846 9.84175 4.97986 9.64649C5.17512 9.45123 5.49171 9.45123 5.68697 9.64649L8.00008 11.9596L10.3132 9.64649Z" fill="white"/>
</svg>
