<svg width="24" height="24" viewBox="0 0 24 24" fill="current" xmlns="http://www.w3.org/2000/svg">
<path d="M24 12C24 18.6274 18.6274 24 12 24C5.37258 24 0 18.6274 0 12C0 5.37258 5.37258 0 12 0C18.6274 0 24 5.37258 24 12Z" fill="white"/>
<path fill-rule="evenodd" clip-rule="evenodd" d="M12 23C18.0751 23 23 18.0751 23 12C23 5.92487 18.0751 1 12 1C5.92487 1 1 5.92487 1 12C1 18.0751 5.92487 23 12 23ZM12 24C18.6274 24 24 18.6274 24 12C24 5.37258 18.6274 0 12 0C5.37258 0 0 5.37258 0 12C0 18.6274 5.37258 24 12 24Z" fill="current"/>
<path d="M11.6066 6.03803L7.77851 9.9358C7.6789 10.0408 7.62377 10.1815 7.62502 10.3275C7.62627 10.4735 7.68378 10.6131 7.78518 10.7164C7.88657 10.8196 8.02373 10.8782 8.16712 10.8794C8.31051 10.8807 8.44865 10.8246 8.5518 10.7231L11.4464 7.77588L11.4464 17.5682C11.4464 17.7159 11.504 17.8575 11.6066 17.9619C11.7091 18.0663 11.8482 18.125 11.9933 18.125C12.1383 18.125 12.2774 18.0663 12.38 17.9619C12.4825 17.8575 12.5402 17.7159 12.5402 17.5682L12.5402 7.77588L15.4348 10.7231C15.4852 10.7763 15.5456 10.8187 15.6123 10.8479C15.679 10.8771 15.7508 10.8925 15.8234 10.8931C15.896 10.8938 15.968 10.8797 16.0352 10.8517C16.1024 10.8237 16.1635 10.7823 16.2148 10.73C16.2662 10.6778 16.3068 10.6156 16.3343 10.5472C16.3618 10.4787 16.3756 10.4054 16.375 10.3315C16.3743 10.2575 16.3593 10.1845 16.3306 10.1165C16.3019 10.0486 16.2603 9.98716 16.208 9.93579L12.3799 6.03803C12.2774 5.93364 12.1383 5.875 11.9933 5.875C11.8483 5.875 11.7092 5.93364 11.6066 6.03803Z" fill="current"/>
</svg>
