<svg width="24" height="24" viewBox="0 0 24 24" fill="none" xmlns="http://www.w3.org/2000/svg">
<path d="M17.8031 0.414062H6.08527C4.87375 0.414062 3.88818 1.32153 3.88818 2.43705V14.575C3.88818 17.9216 6.84483 20.644 10.4795 20.644C10.8843 20.644 11.2118 20.3424 11.2118 19.9696V19.2953H12.6765V19.9696C12.6765 20.3424 13.0041 20.644 13.4089 20.644C17.0435 20.644 20.0002 17.9216 20.0002 14.575V2.43705C20.0002 1.32153 19.0146 0.414062 17.8031 0.414062Z" fill="#EC1E37"/>
<path fill-rule="evenodd" clip-rule="evenodd" d="M7.83353 17.224C7.83353 16.8021 8.20159 16.4601 8.65558 16.4601C9.10956 16.4601 9.47762 16.8021 9.47762 17.224C9.47762 17.6458 9.10956 17.9878 8.65558 17.9878C8.20159 17.9878 7.83353 17.6458 7.83353 17.224ZM11.9437 16.4601C12.3977 16.4601 12.7658 16.8021 12.7658 17.224C12.7658 17.6458 12.3977 17.9878 11.9437 17.9878C11.4898 17.9878 11.1217 17.6458 11.1217 17.224C11.1217 16.8021 11.4898 16.4601 11.9437 16.4601ZM14.4099 17.224C14.4099 16.8021 14.7779 16.4601 15.2319 16.4601C15.6859 16.4601 16.0539 16.8021 16.0539 17.224C16.0539 17.6458 15.6859 17.9878 15.2319 17.9878C14.7779 17.9878 14.4099 17.6458 14.4099 17.224ZM7.01149 2.71094H16.876C17.3364 2.71094 17.698 3.04698 17.698 3.47478V14.1686C17.698 14.5963 17.3364 14.9324 16.876 14.9324H7.01149C6.5511 14.9324 6.18945 14.5963 6.18945 14.1686V3.47478C6.18945 3.04698 6.5511 2.71094 7.01149 2.71094ZM9.64202 9.61608C9.64202 10.884 10.5791 11.8771 11.9437 11.8771C13.3084 11.8771 14.2455 10.884 14.2455 9.61608C14.2455 8.63836 13.1604 6.82041 12.6178 6.10235C12.3219 5.68993 11.5657 5.68993 11.2697 6.10235C10.7271 6.82041 9.64202 8.63836 9.64202 9.61608Z" fill="#FFEAEC"/>
<path d="M12.7658 19.2476H11.1217C10.6673 19.2476 10.2997 19.8571 10.2997 20.2793V22.6625C10.2997 23.0847 10.6673 23.4264 11.1217 23.4264H12.7658C13.2201 23.4264 13.5878 23.0847 13.5878 22.6625V20.2793C13.5878 19.8571 13.2201 19.2476 12.7658 19.2476Z" fill="#EC1E37"/>
</svg>
