<svg width="25" height="24" viewBox="0 0 25 24" fill="none" xmlns="http://www.w3.org/2000/svg">
<path d="M6.67619 16.3663C4.38205 16.3663 2.3938 14.5331 2.3938 12.2417V5.062C2.3938 2.77059 4.22911 0.9375 6.67619 0.9375C8.97034 0.9375 10.9586 2.77059 10.9586 5.062V12.2417C10.8057 14.5331 8.97034 16.3663 6.67619 16.3663Z" fill="#F5620F"/>
<path d="M17.994 0.9375C14.9351 0.9375 12.488 3.38167 12.488 6.43687C12.488 9.49208 14.9351 11.9362 17.994 11.9362C21.0528 11.9362 23.4999 9.49208 23.4999 6.43687C23.4999 3.38167 21.0528 0.9375 17.994 0.9375ZM18.1469 9.79757C16.1587 9.79757 14.6292 8.26999 14.4763 6.2841C14.4763 4.29822 16.0057 2.77059 17.994 2.77059C19.9822 2.77059 21.5117 4.29822 21.6646 6.2841C21.6646 8.26999 19.9822 9.79757 18.1469 9.79757Z" fill="#F5620F"/>
<path d="M18.456 5.21425V4.45045C18.456 4.14493 18.3031 3.99219 17.9972 3.99219C17.6913 3.99219 17.5384 4.14493 17.5384 4.45045V5.21425C17.0796 5.36701 16.7737 5.82532 16.7737 6.43636C16.7737 7.20016 17.3855 7.65842 17.9972 7.65842C18.7619 7.65842 19.2208 7.0474 19.2208 6.43636C19.3737 5.82532 18.9149 5.36701 18.456 5.21425ZM17.9972 6.74185C17.8443 6.74185 17.5384 6.58912 17.5384 6.43636C17.5384 6.2836 17.6913 6.13082 17.9972 6.13082C18.1502 6.13082 18.456 6.2836 18.456 6.43636C18.456 6.58912 18.3031 6.74185 17.9972 6.74185Z" fill="#F5620F"/>
<path d="M18.0015 12.2395C17.2368 12.2395 16.4721 12.0868 15.7074 11.7812V13.6143C15.7074 13.9199 15.8603 14.0727 16.1662 14.0727H17.5427V19.1137V19.8775V20.7941C17.5427 21.5579 16.9309 22.1689 16.0133 22.1689C15.2485 22.1689 14.4838 21.5579 14.4838 20.7941V16.0585C14.4838 14.9892 13.5662 14.2254 12.6485 14.2254C11.7309 14.2254 10.8132 14.9892 10.8132 16.0585V20.3358C10.8132 21.4051 9.89553 22.1689 8.97787 22.1689C7.90727 22.1689 7.14256 21.4051 7.14256 20.3358V19.4193H7.60139C7.90728 19.4193 8.06023 19.2665 8.06023 18.9609V16.8223C7.6014 16.9751 7.14256 16.9751 6.68373 16.9751C6.2249 16.9751 5.76608 16.9751 5.30725 16.8223V18.9609C5.30725 19.2665 5.4602 19.4193 5.76608 19.4193H6.22489V20.3358C6.22489 21.8634 7.44844 23.0855 8.97787 23.0855C10.5073 23.0855 11.7308 21.8634 11.7308 20.3358V16.0585C11.7308 15.4475 12.1897 15.1419 12.8014 15.1419C13.4132 15.1419 13.872 15.6002 13.872 16.0585V20.7941C13.872 22.0162 14.9426 23.0855 16.1662 23.0855C17.3897 23.0855 18.4603 22.0162 18.4603 20.7941V19.8775V19.1137V14.0727H19.8368C20.1427 14.0727 20.2957 13.9199 20.2957 13.6143V11.7812C19.5309 12.0868 18.7662 12.2395 18.0015 12.2395Z" fill="#F5620F"/>
</svg>
