<svg width="16" height="16" viewBox="0 0 16 16" fill="current" xmlns="http://www.w3.org/2000/svg">
<path fill-rule="evenodd" clip-rule="evenodd" d="M3.69231 3.66153C3.1995 3.66153 2.8 4.06103 2.8 4.55383V12.3077C2.8 12.8005 3.1995 13.2 3.69231 13.2H12.3077C12.8005 13.2 13.2 12.8005 13.2 12.3077V4.55383C13.2 4.06103 12.8005 3.66153 12.3077 3.66153H3.69231ZM2 4.55383C2 3.6192 2.75767 2.86152 3.69231 2.86152H12.3077C13.2423 2.86152 14 3.6192 14 4.55383V12.3077C14 13.2423 13.2423 14 12.3077 14H3.69231C2.75767 14 2 13.2423 2 12.3077V4.55383Z" fill="current"/>
<path fill-rule="evenodd" clip-rule="evenodd" d="M4.55391 2C4.77482 2 4.95391 2.17909 4.95391 2.4V3.26154C4.95391 3.48245 4.77482 3.66154 4.55391 3.66154C4.33299 3.66154 4.15391 3.48245 4.15391 3.26154V2.4C4.15391 2.17909 4.33299 2 4.55391 2Z" fill="current"/>
<path fill-rule="evenodd" clip-rule="evenodd" d="M11.4463 2C11.6672 2 11.8463 2.17909 11.8463 2.4V3.26154C11.8463 3.48245 11.6672 3.66154 11.4463 3.66154C11.2254 3.66154 11.0463 3.48245 11.0463 3.26154V2.4C11.0463 2.17909 11.2254 2 11.4463 2Z" fill="current"/>
<path fill-rule="evenodd" clip-rule="evenodd" d="M2 5.41538C2 5.19447 2.17909 5.01538 2.4 5.01538H13.6C13.8209 5.01538 14 5.19447 14 5.41538C14 5.6363 13.8209 5.81539 13.6 5.81539H2.4C2.17909 5.81539 2 5.6363 2 5.41538Z" fill="current"/>
</svg>
