<svg width="17" height="16" viewBox="0 0 17 16" fill="current" xmlns="http://www.w3.org/2000/svg">
<g clip-path="url(#clip0_4449_68895)">
<path fill-rule="evenodd" clip-rule="evenodd" d="M5.80551 8.71797C5.80551 7.23105 7.0109 6.02566 8.49782 6.02566C9.98474 6.02566 11.1901 7.23105 11.1901 8.71797C11.1901 10.2049 9.98474 11.4103 8.49782 11.4103C7.0109 11.4103 5.80551 10.2049 5.80551 8.71797ZM8.49782 7.10259C7.60567 7.10259 6.88244 7.82582 6.88244 8.71797C6.88244 9.61012 7.60567 10.3334 8.49782 10.3334C9.38997 10.3334 10.1132 9.61012 10.1132 8.71797C10.1132 7.82582 9.38997 7.10259 8.49782 7.10259Z" fill="current"/>
<path d="M12.8055 6.02566C12.5081 6.02566 12.2671 6.26674 12.2671 6.56412C12.2671 6.86151 12.5081 7.10259 12.8055 7.10259H13.5235C13.8208 7.10259 14.0619 6.86151 14.0619 6.56412C14.0619 6.26674 13.8208 6.02566 13.5235 6.02566H12.8055Z" fill="current"/>
<path fill-rule="evenodd" clip-rule="evenodd" d="M5.33763 2.60581C5.5292 1.66538 6.36606 1 7.32485 1H9.67062C10.6294 1 11.4663 1.66538 11.6578 2.60581C11.7021 2.82291 11.8987 2.98215 12.1033 2.98215H12.115L12.1268 2.98267C13.1344 3.02673 13.9083 3.15038 14.5545 3.57426C14.9616 3.84133 15.3117 4.18494 15.5846 4.58589C15.9241 5.08475 16.0738 5.65729 16.1456 6.34976C16.2157 7.02631 16.2157 7.87437 16.2157 8.94846V9.00958C16.2157 10.0837 16.2157 10.9317 16.1456 11.6083C16.0738 12.3007 15.9241 12.8733 15.5846 13.3721C15.3117 13.7731 14.9616 14.1167 14.5545 14.3838C14.0494 14.7151 13.4704 14.8612 12.7681 14.9313C12.0806 15 11.2181 15 10.1229 15H6.87264C5.77742 15 4.9149 15 4.22735 14.9313C3.52507 14.8612 2.94606 14.7151 2.44101 14.3838C2.03391 14.1167 1.68372 13.7731 1.41085 13.3721C1.07136 12.8733 0.92162 12.3007 0.849873 11.6083C0.779774 10.9317 0.779779 10.0837 0.779785 9.00959V8.94845C0.779779 7.87436 0.779774 7.02631 0.849873 6.34976C0.92162 5.65729 1.07136 5.08475 1.41085 4.58589C1.68372 4.18494 2.03391 3.84133 2.44101 3.57426C3.08715 3.15038 3.86108 3.02673 4.86867 2.98267L4.88042 2.98215H4.89219C5.09672 2.98215 5.29341 2.82291 5.33763 2.60581ZM7.32485 2.07692C6.86456 2.07692 6.47962 2.39497 6.39288 2.82077C6.2524 3.51038 5.64101 4.05262 4.90535 4.05902C3.93712 4.10204 3.41851 4.22098 3.03173 4.47471C2.74201 4.66478 2.4939 4.90859 2.30116 5.19179C2.1029 5.48312 1.98375 5.85567 1.92106 6.46075C1.85738 7.07533 1.85671 7.86761 1.85671 8.97902C1.85671 10.0904 1.85738 10.8827 1.92106 11.4973C1.98375 12.1024 2.1029 12.4749 2.30116 12.7662C2.4939 13.0495 2.74201 13.2933 3.03173 13.4833C3.33149 13.68 3.71508 13.7979 4.33437 13.8597C4.96219 13.9225 5.77092 13.9231 6.90229 13.9231H10.0932C11.2245 13.9231 12.0333 13.9225 12.6611 13.8597C13.2804 13.7979 13.664 13.68 13.9637 13.4833C14.2535 13.2933 14.5016 13.0495 14.6943 12.7662C14.8926 12.4749 15.0117 12.1024 15.0744 11.4973C15.1381 10.8827 15.1388 10.0904 15.1388 8.97902C15.1388 7.86761 15.1381 7.07533 15.0744 6.46075C15.0117 5.85567 14.8926 5.48312 14.6943 5.19179C14.5016 4.90859 14.2535 4.66478 13.9637 4.47471C13.577 4.22098 13.0583 4.10204 12.0901 4.05902C11.3545 4.05262 10.7431 3.51037 10.6026 2.82077C10.5159 2.39497 10.1309 2.07692 9.67062 2.07692H7.32485Z" fill="current"/>
</g>
<defs>
<clipPath id="clip0_4449_68895">
<rect width="16" height="16" fill="current" transform="translate(0.5)"/>
</clipPath>
</defs>
</svg>
