<svg width="48" height="48" viewBox="0 0 48 48" fill="current" xmlns="http://www.w3.org/2000/svg">
<g clip-path="url(#clip0_1566_40771)">
<path fill-rule="evenodd" clip-rule="evenodd" d="M33.8546 47.0658H14.1462C9.85799 47.0658 6.36963 43.5772 6.36963 39.2892V25.7844C6.36963 21.4965 9.85827 18.0078 14.1462 18.0078H19.5521C19.8981 18.0078 20.1993 18.2443 20.2812 18.5807C20.5787 19.8067 21.7085 20.6966 22.9671 20.6966C23.8356 20.6966 25.2264 20.5427 25.599 20.9168C25.7394 21.0574 25.8187 21.2484 25.8187 21.4472L25.8176 25.3881L31.3723 20.8653C31.5059 20.7565 31.6735 20.6971 31.8456 20.6971H39.373C39.6028 20.6971 39.8199 20.8023 39.962 20.9823C41.0541 22.3669 41.6315 24.0274 41.6315 25.7844V39.289C41.6315 43.578 38.1428 47.0664 33.8549 47.0664L33.8546 47.0658ZM14.1462 19.508C10.6854 19.508 7.86954 22.3236 7.86954 25.7847V39.2892C7.86954 42.75 10.6851 45.5659 14.1462 45.5659H33.8546C37.3154 45.5659 40.1313 42.75 40.1313 39.2892V25.7844C40.1313 24.487 39.7398 23.2537 38.9964 22.1968H32.112L25.5394 27.5481C25.0515 27.9455 24.316 27.5954 24.316 26.9659L24.3177 22.197H22.9665C21.1958 22.197 19.6424 21.117 19.0051 19.508H14.1459H14.1462Z" fill="current"/>
<path fill-rule="evenodd" clip-rule="evenodd" d="M7.11944 39.491H4.26446C1.91348 39.491 0.000976562 37.5785 0.000976562 35.2275V29.8475C0.000976562 27.4965 1.91348 25.584 4.26446 25.584H7.11944C7.53401 25.584 7.86954 25.9195 7.86954 26.3341V38.7415C7.86954 39.1555 7.53401 39.491 7.11944 39.491ZM4.26474 27.0842C2.74093 27.0842 1.50117 28.3239 1.50117 29.8478V35.2275C1.50117 36.7513 2.74093 37.9911 4.26474 37.9911H6.36991V27.0842H4.26474Z" fill="current"/>
<path fill-rule="evenodd" clip-rule="evenodd" d="M43.7359 39.491H40.881C40.4664 39.491 40.1309 39.1555 40.1309 38.7409V26.3341C40.1309 25.9198 40.4664 25.584 40.881 25.584H43.7359C46.0869 25.584 47.9994 27.4965 47.9994 29.8475V35.2272C47.9994 37.5785 46.0869 39.4907 43.7359 39.4907V39.491ZM41.6313 37.9911H43.7362C45.2598 37.9911 46.4998 36.7513 46.4998 35.2275V29.8475C46.4998 28.3237 45.26 27.0839 43.7362 27.0839H41.6311V37.9908L41.6313 37.9911Z" fill="current"/>
<path fill-rule="evenodd" clip-rule="evenodd" d="M16.9737 32.1577C16.5592 32.1577 16.2236 31.8222 16.2236 31.4076V27.9086C16.2236 26.9211 17.7235 26.9211 17.7235 27.9086V31.4076C17.7235 31.8216 17.3877 32.1577 16.9734 32.1577H16.9737Z" fill="current"/>
<path fill-rule="evenodd" clip-rule="evenodd" d="M31.027 32.1352C30.6127 32.1352 30.2769 31.7997 30.2769 31.3851V27.9291C30.2769 26.9416 31.7768 26.9416 31.7768 27.9291V31.3857C31.7768 31.7997 31.4412 32.1352 31.0267 32.1352H31.027Z" fill="current"/>
<path fill-rule="evenodd" clip-rule="evenodd" d="M27.6785 37.9159H20.3226C19.3352 37.9159 19.3352 36.416 20.3226 36.416H27.6785C28.6659 36.416 28.6659 37.9159 27.6785 37.9159Z" fill="current"/>
<path fill-rule="evenodd" clip-rule="evenodd" d="M25.0664 27.7163C24.6554 27.7163 24.3163 27.3833 24.3163 26.9659L24.3179 22.197H22.9668C20.6161 22.197 18.7036 20.2845 18.7036 17.9335V5.19736C18.7036 2.84638 20.6161 0.933875 22.9668 0.933875L43.0594 0.933594C45.4104 0.933594 47.3223 2.8461 47.3223 5.19708V17.9333C47.3223 20.2842 45.4098 22.1967 43.0594 22.1967H32.1123L25.5397 27.5475C25.4039 27.6586 25.236 27.7157 25.0664 27.7157V27.7163ZM22.9668 2.43379C21.443 2.43379 20.2035 3.67354 20.2035 5.19736V17.9335C20.2035 19.4574 21.443 20.6971 22.9668 20.6971C23.8364 20.6971 25.2255 20.543 25.5982 20.9173C25.7388 21.058 25.8181 21.2489 25.8181 21.4478L25.817 25.3887L31.3717 20.8659C31.5053 20.757 31.6729 20.6977 31.8451 20.6977H43.0591C44.5827 20.6977 45.8221 19.4579 45.8221 17.9341V5.19792C45.8221 3.67439 44.5824 2.43435 43.0591 2.43435L22.9665 2.43407L22.9668 2.43379Z" fill="current"/>
<path fill-rule="evenodd" clip-rule="evenodd" d="M25.8214 14.2919C24.3178 14.2919 23.0952 13.069 23.0952 11.566C23.0952 10.0624 24.3181 8.83984 25.8214 8.83984C27.3244 8.83984 28.5476 10.0627 28.5476 11.566C28.5481 13.069 27.325 14.2919 25.8214 14.2919ZM25.8214 10.3395C24.2076 10.3395 24.2064 12.792 25.8214 12.792C27.436 12.792 27.4352 10.3395 25.8214 10.3395Z" fill="current"/>
<path fill-rule="evenodd" clip-rule="evenodd" d="M33.0128 14.2919C31.5092 14.2919 30.2866 13.069 30.2866 11.566C30.2866 10.0624 31.5095 8.83984 33.0128 8.83984C34.5158 8.83984 35.739 10.0627 35.739 11.566C35.7395 13.069 34.5164 14.2919 33.0128 14.2919ZM33.0128 10.3395C31.399 10.3395 31.3978 12.792 33.0128 12.792C34.6275 12.792 34.6269 10.3395 33.0128 10.3395Z" fill="current"/>
<path fill-rule="evenodd" clip-rule="evenodd" d="M40.2042 14.2919C38.7006 14.2919 37.478 13.069 37.478 11.566C37.478 10.0624 38.7009 8.83984 40.2042 8.83984C41.7072 8.83984 42.9304 10.0627 42.9304 11.566C42.9309 13.069 41.7078 14.2919 40.2042 14.2919ZM40.2042 10.3395C38.5904 10.3395 38.5892 12.792 40.2042 12.792C41.8189 12.792 41.818 10.3395 40.2042 10.3395Z" fill="current"/>
<path fill-rule="evenodd" clip-rule="evenodd" d="M4.26475 27.0834C3.85046 27.0834 3.51465 26.7479 3.51465 26.3333V16.3588C3.51465 15.3713 5.01456 15.3713 5.01456 16.3588V26.3333C5.01456 26.7473 4.67875 27.0834 4.26446 27.0834H4.26475Z" fill="current"/>
<path fill-rule="evenodd" clip-rule="evenodd" d="M4.26493 17.109C2.13333 17.109 0.399414 15.375 0.399414 13.2434C0.399414 11.1118 2.13333 9.37793 4.26493 9.37793C6.39653 9.37793 8.13044 11.1118 8.13044 13.2434C8.13044 15.375 6.39625 17.109 4.26493 17.109ZM4.26493 10.8784C1.15176 10.8784 1.15176 15.6093 4.26493 15.6093C7.3781 15.6093 7.37838 10.8784 4.26493 10.8784Z" fill="current"/>
</g>
<defs>
<clipPath id="clip0_1566_40771">
<rect width="48" height="48" fill="white"/>
</clipPath>
</defs>
</svg>
