<svg width="16" height="16" viewBox="0 0 16 16" fill="none" xmlns="http://www.w3.org/2000/svg">
<circle opacity="0.5" cx="8" cy="8" r="8" fill="black"/>
<path fill-rule="evenodd" clip-rule="evenodd" d="M4.51927 4.51933C4.60063 4.43797 4.73254 4.43797 4.8139 4.51933L7.99992 7.70535L11.1859 4.51933C11.2673 4.43797 11.3992 4.43797 11.4806 4.51933C11.5619 4.60069 11.5619 4.7326 11.4806 4.81396L8.29455 7.99998L11.4806 11.186C11.5619 11.2674 11.5619 11.3993 11.4806 11.4806C11.3992 11.562 11.2673 11.562 11.1859 11.4806L7.99992 8.29461L4.8139 11.4806C4.73254 11.562 4.60063 11.562 4.51927 11.4806C4.43791 11.3993 4.43791 11.2674 4.51927 11.186L7.70529 7.99998L4.51927 4.81396C4.43791 4.7326 4.43791 4.60069 4.51927 4.51933Z" fill="white" stroke="white" stroke-width="0.6" stroke-linecap="round"/>
</svg>
