<svg xmlns="http://www.w3.org/2000/svg" width="48" height="48" viewBox="0 0 48 48" fill="current">
<mask id="path-1-outside-1_1518_14865" maskUnits="userSpaceOnUse" x="9.53674e-05" y="0.644531" width="46" height="46" fill="black">
<rect fill="current" x="9.53674e-05" y="0.644531" width="46" height="46"/>
<path d="M40.3931 11.8403C41.0171 10.5615 41.4445 9.2353 41.4445 8.00007C41.4445 4.49565 38.5934 1.64453 35.0889 1.64453C32.82 1.64453 30.8263 2.84047 29.7015 4.63415C28.4687 4.27341 27.1967 4.02261 25.9152 3.89066C25.5496 3.85267 25.2215 4.11928 25.1838 4.48561C25.1461 4.85186 25.4125 5.17933 25.7787 5.21697C26.904 5.33277 28.0217 5.54549 29.1085 5.84983C28.8662 6.5218 28.7334 7.24565 28.7334 8.00007C28.7334 12.4913 34.3773 18.1868 34.6175 18.427C34.8743 18.6838 35.3036 18.6838 35.5604 18.427C35.712 18.2753 38.0184 15.9479 39.6978 13.1223C41.0682 14.9502 42.0968 16.9589 42.763 19.0896L33.0932 20.1075C32.9206 20.1257 32.7619 20.2104 32.6508 20.3438C32.5506 20.4639 30.1853 23.3066 28.974 25.1272C27.6039 25.2183 26.3509 25.7441 25.3535 26.5697L24.3686 20.6899C24.3424 20.5333 24.2612 20.3914 24.1397 20.2894L18.9841 15.9634C18.8858 15.8808 18.7656 15.8285 18.6382 15.8126L13.3557 15.1523C12.7066 13.2963 11.2202 11.8315 9.35096 11.2116C12.902 7.52466 17.6341 5.37276 22.7642 5.13323C23.132 5.11611 23.4162 4.804 23.3991 4.43627C23.382 4.06854 23.0699 3.78255 22.7021 3.80141C19.8053 3.93659 17.0198 4.64472 14.4228 5.9058C11.9056 7.1282 9.68201 8.81098 7.81357 10.9073C7.66215 10.8965 7.50976 10.889 7.35563 10.889C3.85122 10.889 1.0001 13.7401 1.0001 17.2445C1.0001 18.8279 1.70185 20.5607 2.6207 22.1516C2.48927 23.1113 2.42229 24.0918 2.42229 25.0668C2.42229 30.7533 4.63681 36.0994 8.65767 40.1203C12.6785 44.1412 18.0247 46.3557 23.7111 46.3557C29.3976 46.3557 34.7437 44.1412 38.7646 40.1203C42.7856 36.0994 45 30.7533 45 25.0668C45 20.2076 43.4069 15.6358 40.3931 11.8403ZM35.0889 16.9871C33.7572 15.5423 30.0666 11.2452 30.0666 8.00007C30.0666 5.23086 32.3196 2.97783 35.0889 2.97783C37.8582 2.97783 40.1111 5.23077 40.1111 8.00007C40.1111 11.2453 36.4205 15.5424 35.0889 16.9871ZM29.4 26.4446C32.1692 26.4446 34.4222 28.6975 34.4222 31.4668C34.4222 34.7119 30.7316 39.009 29.4 40.4538C28.0683 39.009 24.3778 34.7119 24.3778 31.4668C24.3778 28.6976 26.6308 26.4446 29.4 26.4446ZM2.33331 17.2445C2.33331 14.4753 4.58625 12.2223 7.35554 12.2223C10.1248 12.2223 12.3778 14.4753 12.3778 17.2445C12.3778 20.4897 8.68727 24.7868 7.35554 26.2316C6.02382 24.7868 2.33331 20.4897 2.33331 17.2445ZM3.75551 25.0668C3.75551 24.698 3.76608 24.3284 3.78625 23.9595C5.24792 26.0216 6.76216 27.5496 6.88416 27.6715C7.14081 27.9282 7.57037 27.9282 7.82693 27.6715C7.95233 27.5461 9.55041 25.9336 11.0494 23.7822L13.6501 29.6339C13.7058 29.7592 13.7988 29.8643 13.9164 29.9348L17.7555 32.2383L16.0314 37.463L11.5653 40.8889C6.8198 37.2373 3.75551 31.5036 3.75551 25.0668ZM12.6984 41.6999L17.0056 38.3958C17.1118 38.3144 17.191 38.2028 17.233 38.0758L19.1886 32.1498C19.2863 31.8537 19.1658 31.5296 18.8985 31.3693L14.7829 28.8998L11.9158 22.4488C12.9191 20.7785 13.7112 18.927 13.7112 17.2445C13.7112 17.0047 13.6966 16.7683 13.6707 16.5354L18.2777 17.1113L23.0943 21.1528L24.2083 27.8081C23.4764 28.8434 23.0445 30.1052 23.0445 31.4669C23.0445 32.3531 23.2649 33.2862 23.6195 34.215L21.7425 39.545L15.3734 43.1948C14.4408 42.7641 13.5469 42.2636 12.6984 41.6999ZM23.7111 45.0224C21.333 45.0224 19.0512 44.6035 16.9344 43.8369L22.6204 40.5785C22.7592 40.499 22.8646 40.3724 22.9177 40.2215L24.4242 35.9438C26.1116 39.0523 28.7656 41.7306 28.9286 41.8938C29.1854 42.1505 29.6147 42.1505 29.8715 41.8938C30.0586 41.7066 33.5253 38.2083 35.048 34.5479L40.4982 35.8456C36.944 41.3619 30.7471 45.0224 23.7111 45.0224ZM35.4882 33.2822C35.6576 32.6664 35.7556 32.0562 35.7556 31.4669C35.7556 28.35 33.4996 25.7519 30.5352 25.2148C31.5589 23.7839 33.0098 22.0044 33.5034 21.405L43.122 20.3926C43.4824 21.9042 43.6667 23.4688 43.6667 25.0667C43.6667 28.5356 42.7763 31.8002 41.213 34.6452L35.4882 33.2822Z"/>
<path d="M29.4 27.9554C27.464 27.9554 25.8889 29.5305 25.8889 31.4665C25.8889 33.4025 27.464 34.9776 29.4 34.9776C31.336 34.9776 32.9111 33.4025 32.9111 31.4665C32.9111 29.5305 31.336 27.9554 29.4 27.9554ZM29.4 33.6442C28.1991 33.6442 27.2222 32.6672 27.2222 31.4665C27.2222 30.2658 28.1992 29.2887 29.4 29.2887C30.6009 29.2887 31.5777 30.2658 31.5777 31.4665C31.5777 32.6672 30.6009 33.6442 29.4 33.6442Z"/>
<path d="M35.0889 4.48975C33.1528 4.48975 31.5777 6.06486 31.5777 8.00089C31.5777 9.93691 33.1528 11.512 35.0889 11.512C37.0249 11.512 38.6 9.93691 38.6 8.00089C38.6 6.06486 37.0249 4.48975 35.0889 4.48975ZM35.0889 10.1786C33.888 10.1786 32.9111 9.20162 32.9111 8.00089C32.9111 6.80006 33.888 5.82314 35.0889 5.82314C36.2898 5.82314 37.2666 6.80015 37.2666 8.00089C37.2667 9.20162 36.2898 10.1786 35.0889 10.1786Z"/>
<path d="M7.35555 13.7346C5.41952 13.7346 3.84441 15.3097 3.84441 17.2457C3.84441 19.1817 5.41952 20.7568 7.35555 20.7568C9.29158 20.7568 10.8667 19.1817 10.8667 17.2457C10.8667 15.3097 9.29158 13.7346 7.35555 13.7346ZM7.35555 19.4235C6.15472 19.4235 5.1778 18.4465 5.1778 17.2458C5.1778 16.045 6.15481 15.068 7.35555 15.068C8.55637 15.068 9.5333 16.0451 9.5333 17.2458C9.5333 18.4465 8.55637 19.4235 7.35555 19.4235Z"/>
</mask>
<path d="M40.3931 11.8403C41.0171 10.5615 41.4445 9.2353 41.4445 8.00007C41.4445 4.49565 38.5934 1.64453 35.0889 1.64453C32.82 1.64453 30.8263 2.84047 29.7015 4.63415C28.4687 4.27341 27.1967 4.02261 25.9152 3.89066C25.5496 3.85267 25.2215 4.11928 25.1838 4.48561C25.1461 4.85186 25.4125 5.17933 25.7787 5.21697C26.904 5.33277 28.0217 5.54549 29.1085 5.84983C28.8662 6.5218 28.7334 7.24565 28.7334 8.00007C28.7334 12.4913 34.3773 18.1868 34.6175 18.427C34.8743 18.6838 35.3036 18.6838 35.5604 18.427C35.712 18.2753 38.0184 15.9479 39.6978 13.1223C41.0682 14.9502 42.0968 16.9589 42.763 19.0896L33.0932 20.1075C32.9206 20.1257 32.7619 20.2104 32.6508 20.3438C32.5506 20.4639 30.1853 23.3066 28.974 25.1272C27.6039 25.2183 26.3509 25.7441 25.3535 26.5697L24.3686 20.6899C24.3424 20.5333 24.2612 20.3914 24.1397 20.2894L18.9841 15.9634C18.8858 15.8808 18.7656 15.8285 18.6382 15.8126L13.3557 15.1523C12.7066 13.2963 11.2202 11.8315 9.35096 11.2116C12.902 7.52466 17.6341 5.37276 22.7642 5.13323C23.132 5.11611 23.4162 4.804 23.3991 4.43627C23.382 4.06854 23.0699 3.78255 22.7021 3.80141C19.8053 3.93659 17.0198 4.64472 14.4228 5.9058C11.9056 7.1282 9.68201 8.81098 7.81357 10.9073C7.66215 10.8965 7.50976 10.889 7.35563 10.889C3.85122 10.889 1.0001 13.7401 1.0001 17.2445C1.0001 18.8279 1.70185 20.5607 2.6207 22.1516C2.48927 23.1113 2.42229 24.0918 2.42229 25.0668C2.42229 30.7533 4.63681 36.0994 8.65767 40.1203C12.6785 44.1412 18.0247 46.3557 23.7111 46.3557C29.3976 46.3557 34.7437 44.1412 38.7646 40.1203C42.7856 36.0994 45 30.7533 45 25.0668C45 20.2076 43.4069 15.6358 40.3931 11.8403ZM35.0889 16.9871C33.7572 15.5423 30.0666 11.2452 30.0666 8.00007C30.0666 5.23086 32.3196 2.97783 35.0889 2.97783C37.8582 2.97783 40.1111 5.23077 40.1111 8.00007C40.1111 11.2453 36.4205 15.5424 35.0889 16.9871ZM29.4 26.4446C32.1692 26.4446 34.4222 28.6975 34.4222 31.4668C34.4222 34.7119 30.7316 39.009 29.4 40.4538C28.0683 39.009 24.3778 34.7119 24.3778 31.4668C24.3778 28.6976 26.6308 26.4446 29.4 26.4446ZM2.33331 17.2445C2.33331 14.4753 4.58625 12.2223 7.35554 12.2223C10.1248 12.2223 12.3778 14.4753 12.3778 17.2445C12.3778 20.4897 8.68727 24.7868 7.35554 26.2316C6.02382 24.7868 2.33331 20.4897 2.33331 17.2445ZM3.75551 25.0668C3.75551 24.698 3.76608 24.3284 3.78625 23.9595C5.24792 26.0216 6.76216 27.5496 6.88416 27.6715C7.14081 27.9282 7.57037 27.9282 7.82693 27.6715C7.95233 27.5461 9.55041 25.9336 11.0494 23.7822L13.6501 29.6339C13.7058 29.7592 13.7988 29.8643 13.9164 29.9348L17.7555 32.2383L16.0314 37.463L11.5653 40.8889C6.8198 37.2373 3.75551 31.5036 3.75551 25.0668ZM12.6984 41.6999L17.0056 38.3958C17.1118 38.3144 17.191 38.2028 17.233 38.0758L19.1886 32.1498C19.2863 31.8537 19.1658 31.5296 18.8985 31.3693L14.7829 28.8998L11.9158 22.4488C12.9191 20.7785 13.7112 18.927 13.7112 17.2445C13.7112 17.0047 13.6966 16.7683 13.6707 16.5354L18.2777 17.1113L23.0943 21.1528L24.2083 27.8081C23.4764 28.8434 23.0445 30.1052 23.0445 31.4669C23.0445 32.3531 23.2649 33.2862 23.6195 34.215L21.7425 39.545L15.3734 43.1948C14.4408 42.7641 13.5469 42.2636 12.6984 41.6999ZM23.7111 45.0224C21.333 45.0224 19.0512 44.6035 16.9344 43.8369L22.6204 40.5785C22.7592 40.499 22.8646 40.3724 22.9177 40.2215L24.4242 35.9438C26.1116 39.0523 28.7656 41.7306 28.9286 41.8938C29.1854 42.1505 29.6147 42.1505 29.8715 41.8938C30.0586 41.7066 33.5253 38.2083 35.048 34.5479L40.4982 35.8456C36.944 41.3619 30.7471 45.0224 23.7111 45.0224ZM35.4882 33.2822C35.6576 32.6664 35.7556 32.0562 35.7556 31.4669C35.7556 28.35 33.4996 25.7519 30.5352 25.2148C31.5589 23.7839 33.0098 22.0044 33.5034 21.405L43.122 20.3926C43.4824 21.9042 43.6667 23.4688 43.6667 25.0667C43.6667 28.5356 42.7763 31.8002 41.213 34.6452L35.4882 33.2822Z" fill="current"/>
<path d="M29.4 27.9554C27.464 27.9554 25.8889 29.5305 25.8889 31.4665C25.8889 33.4025 27.464 34.9776 29.4 34.9776C31.336 34.9776 32.9111 33.4025 32.9111 31.4665C32.9111 29.5305 31.336 27.9554 29.4 27.9554ZM29.4 33.6442C28.1991 33.6442 27.2222 32.6672 27.2222 31.4665C27.2222 30.2658 28.1992 29.2887 29.4 29.2887C30.6009 29.2887 31.5777 30.2658 31.5777 31.4665C31.5777 32.6672 30.6009 33.6442 29.4 33.6442Z" fill="current"/>
<path d="M35.0889 4.48975C33.1528 4.48975 31.5777 6.06486 31.5777 8.00089C31.5777 9.93691 33.1528 11.512 35.0889 11.512C37.0249 11.512 38.6 9.93691 38.6 8.00089C38.6 6.06486 37.0249 4.48975 35.0889 4.48975ZM35.0889 10.1786C33.888 10.1786 32.9111 9.20162 32.9111 8.00089C32.9111 6.80006 33.888 5.82314 35.0889 5.82314C36.2898 5.82314 37.2666 6.80015 37.2666 8.00089C37.2667 9.20162 36.2898 10.1786 35.0889 10.1786Z" fill="current"/>
<path d="M7.35555 13.7346C5.41952 13.7346 3.84441 15.3097 3.84441 17.2457C3.84441 19.1817 5.41952 20.7568 7.35555 20.7568C9.29158 20.7568 10.8667 19.1817 10.8667 17.2457C10.8667 15.3097 9.29158 13.7346 7.35555 13.7346ZM7.35555 19.4235C6.15472 19.4235 5.1778 18.4465 5.1778 17.2458C5.1778 16.045 6.15481 15.068 7.35555 15.068C8.55637 15.068 9.5333 16.0451 9.5333 17.2458C9.5333 18.4465 8.55637 19.4235 7.35555 19.4235Z" fill="current"/>
<path d="M40.3931 11.8403C41.0171 10.5615 41.4445 9.2353 41.4445 8.00007C41.4445 4.49565 38.5934 1.64453 35.0889 1.64453C32.82 1.64453 30.8263 2.84047 29.7015 4.63415C28.4687 4.27341 27.1967 4.02261 25.9152 3.89066C25.5496 3.85267 25.2215 4.11928 25.1838 4.48561C25.1461 4.85186 25.4125 5.17933 25.7787 5.21697C26.904 5.33277 28.0217 5.54549 29.1085 5.84983C28.8662 6.5218 28.7334 7.24565 28.7334 8.00007C28.7334 12.4913 34.3773 18.1868 34.6175 18.427C34.8743 18.6838 35.3036 18.6838 35.5604 18.427C35.712 18.2753 38.0184 15.9479 39.6978 13.1223C41.0682 14.9502 42.0968 16.9589 42.763 19.0896L33.0932 20.1075C32.9206 20.1257 32.7619 20.2104 32.6508 20.3438C32.5506 20.4639 30.1853 23.3066 28.974 25.1272C27.6039 25.2183 26.3509 25.7441 25.3535 26.5697L24.3686 20.6899C24.3424 20.5333 24.2612 20.3914 24.1397 20.2894L18.9841 15.9634C18.8858 15.8808 18.7656 15.8285 18.6382 15.8126L13.3557 15.1523C12.7066 13.2963 11.2202 11.8315 9.35096 11.2116C12.902 7.52466 17.6341 5.37276 22.7642 5.13323C23.132 5.11611 23.4162 4.804 23.3991 4.43627C23.382 4.06854 23.0699 3.78255 22.7021 3.80141C19.8053 3.93659 17.0198 4.64472 14.4228 5.9058C11.9056 7.1282 9.68201 8.81098 7.81357 10.9073C7.66215 10.8965 7.50976 10.889 7.35563 10.889C3.85122 10.889 1.0001 13.7401 1.0001 17.2445C1.0001 18.8279 1.70185 20.5607 2.6207 22.1516C2.48927 23.1113 2.42229 24.0918 2.42229 25.0668C2.42229 30.7533 4.63681 36.0994 8.65767 40.1203C12.6785 44.1412 18.0247 46.3557 23.7111 46.3557C29.3976 46.3557 34.7437 44.1412 38.7646 40.1203C42.7856 36.0994 45 30.7533 45 25.0668C45 20.2076 43.4069 15.6358 40.3931 11.8403ZM35.0889 16.9871C33.7572 15.5423 30.0666 11.2452 30.0666 8.00007C30.0666 5.23086 32.3196 2.97783 35.0889 2.97783C37.8582 2.97783 40.1111 5.23077 40.1111 8.00007C40.1111 11.2453 36.4205 15.5424 35.0889 16.9871ZM29.4 26.4446C32.1692 26.4446 34.4222 28.6975 34.4222 31.4668C34.4222 34.7119 30.7316 39.009 29.4 40.4538C28.0683 39.009 24.3778 34.7119 24.3778 31.4668C24.3778 28.6976 26.6308 26.4446 29.4 26.4446ZM2.33331 17.2445C2.33331 14.4753 4.58625 12.2223 7.35554 12.2223C10.1248 12.2223 12.3778 14.4753 12.3778 17.2445C12.3778 20.4897 8.68727 24.7868 7.35554 26.2316C6.02382 24.7868 2.33331 20.4897 2.33331 17.2445ZM3.75551 25.0668C3.75551 24.698 3.76608 24.3284 3.78625 23.9595C5.24792 26.0216 6.76216 27.5496 6.88416 27.6715C7.14081 27.9282 7.57037 27.9282 7.82693 27.6715C7.95233 27.5461 9.55041 25.9336 11.0494 23.7822L13.6501 29.6339C13.7058 29.7592 13.7988 29.8643 13.9164 29.9348L17.7555 32.2383L16.0314 37.463L11.5653 40.8889C6.8198 37.2373 3.75551 31.5036 3.75551 25.0668ZM12.6984 41.6999L17.0056 38.3958C17.1118 38.3144 17.191 38.2028 17.233 38.0758L19.1886 32.1498C19.2863 31.8537 19.1658 31.5296 18.8985 31.3693L14.7829 28.8998L11.9158 22.4488C12.9191 20.7785 13.7112 18.927 13.7112 17.2445C13.7112 17.0047 13.6966 16.7683 13.6707 16.5354L18.2777 17.1113L23.0943 21.1528L24.2083 27.8081C23.4764 28.8434 23.0445 30.1052 23.0445 31.4669C23.0445 32.3531 23.2649 33.2862 23.6195 34.215L21.7425 39.545L15.3734 43.1948C14.4408 42.7641 13.5469 42.2636 12.6984 41.6999ZM23.7111 45.0224C21.333 45.0224 19.0512 44.6035 16.9344 43.8369L22.6204 40.5785C22.7592 40.499 22.8646 40.3724 22.9177 40.2215L24.4242 35.9438C26.1116 39.0523 28.7656 41.7306 28.9286 41.8938C29.1854 42.1505 29.6147 42.1505 29.8715 41.8938C30.0586 41.7066 33.5253 38.2083 35.048 34.5479L40.4982 35.8456C36.944 41.3619 30.7471 45.0224 23.7111 45.0224ZM35.4882 33.2822C35.6576 32.6664 35.7556 32.0562 35.7556 31.4669C35.7556 28.35 33.4996 25.7519 30.5352 25.2148C31.5589 23.7839 33.0098 22.0044 33.5034 21.405L43.122 20.3926C43.4824 21.9042 43.6667 23.4688 43.6667 25.0667C43.6667 28.5356 42.7763 31.8002 41.213 34.6452L35.4882 33.2822Z" stroke="url(#paint0_linear_1518_14865)" stroke-width="0.4" mask="url(#path-1-outside-1_1518_14865)"/>
<path d="M29.4 27.9554C27.464 27.9554 25.8889 29.5305 25.8889 31.4665C25.8889 33.4025 27.464 34.9776 29.4 34.9776C31.336 34.9776 32.9111 33.4025 32.9111 31.4665C32.9111 29.5305 31.336 27.9554 29.4 27.9554ZM29.4 33.6442C28.1991 33.6442 27.2222 32.6672 27.2222 31.4665C27.2222 30.2658 28.1992 29.2887 29.4 29.2887C30.6009 29.2887 31.5777 30.2658 31.5777 31.4665C31.5777 32.6672 30.6009 33.6442 29.4 33.6442Z" stroke="url(#paint1_linear_1518_14865)" stroke-width="0.4" mask="url(#path-1-outside-1_1518_14865)"/>
<path d="M35.0889 4.48975C33.1528 4.48975 31.5777 6.06486 31.5777 8.00089C31.5777 9.93691 33.1528 11.512 35.0889 11.512C37.0249 11.512 38.6 9.93691 38.6 8.00089C38.6 6.06486 37.0249 4.48975 35.0889 4.48975ZM35.0889 10.1786C33.888 10.1786 32.9111 9.20162 32.9111 8.00089C32.9111 6.80006 33.888 5.82314 35.0889 5.82314C36.2898 5.82314 37.2666 6.80015 37.2666 8.00089C37.2667 9.20162 36.2898 10.1786 35.0889 10.1786Z" stroke="url(#paint2_linear_1518_14865)" stroke-width="0.4" mask="url(#path-1-outside-1_1518_14865)"/>
<path d="M7.35555 13.7346C5.41952 13.7346 3.84441 15.3097 3.84441 17.2457C3.84441 19.1817 5.41952 20.7568 7.35555 20.7568C9.29158 20.7568 10.8667 19.1817 10.8667 17.2457C10.8667 15.3097 9.29158 13.7346 7.35555 13.7346ZM7.35555 19.4235C6.15472 19.4235 5.1778 18.4465 5.1778 17.2458C5.1778 16.045 6.15481 15.068 7.35555 15.068C8.55637 15.068 9.5333 16.0451 9.5333 17.2458C9.5333 18.4465 8.55637 19.4235 7.35555 19.4235Z" stroke="url(#paint3_linear_1518_14865)" stroke-width="0.4" mask="url(#path-1-outside-1_1518_14865)"/>
</svg>