<svg width="20" height="20" viewBox="0 0 20 20" fill="current" xmlns="http://www.w3.org/2000/svg">
<path fill-rule="evenodd" clip-rule="evenodd" d="M12.6453 2.5H9.81529C8.53314 2.49999 7.51757 2.49998 6.72277 2.60684C5.90481 2.71681 5.24275 2.94852 4.72064 3.47064C4.19852 3.99275 3.96681 4.65481 3.85684 5.47277C3.74998 6.26757 3.74999 7.28313 3.75 8.56528V12.7907C3.75 14.0969 4.70725 15.1796 5.9585 15.3754C6.05476 15.9084 6.23897 16.3634 6.60931 16.7337C7.02926 17.1537 7.55801 17.3343 8.18599 17.4187C8.79085 17.5 9.55992 17.5 10.5141 17.5H12.6836C13.6378 17.5 14.4068 17.5 15.0117 17.4187C15.6397 17.3343 16.1684 17.1537 16.5884 16.7337C17.0083 16.3138 17.1889 15.785 17.2734 15.157C17.3547 14.5522 17.3547 13.7831 17.3546 12.829V9.26402C17.3547 8.3099 17.3547 7.54084 17.2734 6.93599C17.1889 6.30801 17.0083 5.77926 16.5884 5.35931C16.218 4.98897 15.7631 4.80476 15.23 4.7085C15.0342 3.45725 13.9516 2.5 12.6453 2.5ZM14.1309 4.60779C13.9197 3.9904 13.3343 3.54651 12.6453 3.54651H9.85465C8.52431 3.54651 7.5792 3.54762 6.86222 3.64402C6.1603 3.73839 5.75589 3.91537 5.46063 4.21063C5.16537 4.50589 4.98839 4.9103 4.89402 5.61222C4.79762 6.3292 4.79651 7.27431 4.79651 8.60465V12.7907C4.79651 13.4797 5.2404 14.065 5.85779 14.2763C5.84301 13.8507 5.84302 13.3696 5.84302 12.829V9.26404C5.84301 8.30991 5.843 7.54085 5.92432 6.93599C6.00875 6.30801 6.18937 5.77926 6.60931 5.35931C7.02926 4.93937 7.55801 4.75875 8.18599 4.67432C8.79085 4.593 9.55991 4.59301 10.514 4.59302H12.6836C13.2242 4.59302 13.7054 4.59301 14.1309 4.60779ZM7.34931 6.09931C7.5424 5.90622 7.8135 5.78033 8.32543 5.7115C8.85242 5.64065 9.55087 5.63954 10.5523 5.63954H12.6453C13.6468 5.63954 14.3453 5.64065 14.8722 5.7115C15.3842 5.78033 15.6553 5.90622 15.8484 6.09931C16.0415 6.2924 16.1673 6.5635 16.2362 7.07543C16.307 7.60242 16.3081 8.30087 16.3081 9.30233V12.7907C16.3081 13.7921 16.307 14.4906 16.2362 15.0176C16.1673 15.5295 16.0415 15.8006 15.8484 15.9937C15.6553 16.1868 15.3842 16.3127 14.8722 16.3815C14.3453 16.4524 13.6468 16.4535 12.6453 16.4535H10.5523C9.55087 16.4535 8.85242 16.4524 8.32543 16.3815C7.8135 16.3127 7.5424 16.1868 7.34931 15.9937C7.15622 15.8006 7.03033 15.5295 6.9615 15.0176C6.89065 14.4906 6.88954 13.7921 6.88954 12.7907V9.30233C6.88954 8.30087 6.89065 7.60242 6.9615 7.07543C7.03033 6.5635 7.15622 6.2924 7.34931 6.09931Z" fill="current"/>
</svg>
