<svg width="24" height="24" viewBox="0 0 24 24" fill="current" xmlns="http://www.w3.org/2000/svg">
<path d="M23.52 16.8656H22.5154V6.06038C22.5154 4.37285 21.2275 3 19.645 3H4.35696C2.7744 3 1.48656 4.37336 1.48656 6.06038V16.8656H0.48C0.2112 16.8656 0 17.0959 0 17.3773C0 19.378 1.5264 21 3.4032 21H20.6016C21.5088 21 22.3632 20.6265 23.0016 19.9408C23.6448 19.2552 24 18.3444 24 17.3773C24 17.0959 23.784 16.8656 23.52 16.8656ZM13.9248 17.8071C13.8528 17.8736 13.7616 17.9094 13.6656 17.9094H10.3392C10.2384 17.9094 10.1472 17.8736 10.0752 17.8071L9.4608 17.2289C9.2112 16.9935 8.8944 16.8656 8.5632 16.8656H2.44656V6.06038C2.44656 4.93723 3.30384 4.02337 4.35696 4.02337H19.645C20.6986 4.02337 21.5554 4.93723 21.5554 6.06038V16.8656H15.4416C15.1104 16.8656 14.7936 16.9935 14.544 17.2289L13.9248 17.8071Z" fill="current"/>
<path d="M12 10C11.4488 10 11 10.4487 11 10.9998C11 11.5513 11.4484 12 12 12C12.5516 12 13 11.5513 13 10.9998C13 10.4487 12.5516 10 12 10Z" fill="current"/>
<path d="M18.9369 11.2179C19.021 11.0813 19.021 10.9138 18.9369 10.7772C17.8861 9.06446 16.1706 7.83213 14.206 7.2975C15.1661 8.1574 16.1893 9.45981 16.05 11.0355C16.03 11.2656 15.8252 11.4396 15.5845 11.4396C15.5714 11.4396 15.5583 11.4392 15.5452 11.4379C15.2881 11.4176 15.097 11.2047 15.118 10.9623C15.2956 8.95251 12.8902 7.36273 12.3097 7.0097C12.2064 7.00573 12.1035 7 11.9998 7C9.15312 7 6.49344 8.44565 5.0631 10.7772C4.97897 10.9138 4.97897 11.0813 5.0631 11.2179C6.02087 12.7791 7.53067 13.9418 9.27745 14.5421C8.50713 13.754 7.79663 12.575 7.95089 10.9592C7.97379 10.7168 8.20096 10.5348 8.45805 10.5599C8.71514 10.582 8.90491 10.7957 8.88201 11.0386C8.62632 13.7227 11.2589 14.9233 11.3711 14.9731C11.3715 14.9731 11.3715 14.9736 11.372 14.974C11.58 14.9894 11.789 15 11.9993 15C14.8469 14.9996 17.5066 13.5495 18.9369 11.2179ZM12.0007 12.9139C10.8812 12.9139 9.97018 12.0549 9.97018 10.9989C9.97018 9.94287 10.8812 9.08429 12.0007 9.08429C13.1207 9.08429 14.0312 9.94287 14.0312 10.9989C14.0312 12.0549 13.1207 12.9139 12.0007 12.9139Z" fill="current"/>
</svg>
