<svg width="48" height="48" viewBox="0 0 48 48" fill="none" xmlns="http://www.w3.org/2000/svg">
<mask id="path-1-outside-1_1267_59785" maskUnits="userSpaceOnUse" x="1.354" y="3.3623" width="45" height="45" fill="black">
<rect fill="white" x="1.354" y="3.3623" width="45" height="45"/>
<path d="M40.7908 29.9565L40.5684 30.0765C39.6701 28.9864 38.1137 28.5639 36.928 29.1649C36.9238 29.1669 36.9195 29.1692 36.9154 29.1713L36.3904 29.454C35.7643 28.9239 34.9899 28.5998 34.1728 28.5259C33.3557 28.4521 32.5358 28.6322 31.8248 29.0415L28.9978 30.579H25.236C24.4214 30.5779 23.6175 30.3937 22.8838 30.04L22.3663 29.7897C20.893 29.0729 19.25 28.7777 17.6193 28.937C15.9886 29.0963 14.4338 29.7037 13.127 30.6921C13.1147 30.7014 13.1027 30.7108 13.0913 30.7214L11.8419 31.8337C11.3697 32.253 10.8116 32.5641 10.2066 32.7452L9.49701 30.4159C9.46186 30.3006 9.39059 30.1996 9.29373 30.1279C9.19686 30.0562 9.07952 30.0174 8.95898 30.0174H2.91651C2.8369 30.0174 2.75819 30.0343 2.68559 30.067C2.613 30.0997 2.54816 30.1474 2.49538 30.207C2.4426 30.2666 2.40307 30.3368 2.37942 30.4128C2.35576 30.4888 2.3485 30.569 2.35814 30.648L4.37226 47.163C4.38889 47.2994 4.45486 47.425 4.55772 47.5161C4.66059 47.6072 4.79324 47.6574 4.93064 47.6574H13.9938C14.0817 47.6574 14.1684 47.6368 14.2469 47.5973C14.3254 47.5577 14.3936 47.5003 14.4459 47.4297C14.4982 47.359 14.5332 47.2771 14.5481 47.1905C14.5631 47.1039 14.5575 47.015 14.5319 46.9309L13.3412 43.0239L17.0494 40.6802C17.5456 40.4057 18.1277 40.3303 18.6774 40.4695C18.689 40.4724 18.7007 40.4751 18.7125 40.4771L26.2556 41.8661C28.3055 42.2329 30.419 41.9345 32.2872 41.0145C32.311 41.0027 32.334 40.9893 32.356 40.9742L45.4026 32.0162C45.5208 31.935 45.6035 31.8118 45.6339 31.6717C45.6643 31.5316 45.6401 31.3852 45.5661 31.2623C45.0914 30.4717 44.33 29.8947 43.4404 29.6514C42.5509 29.4082 41.6018 29.5174 40.7908 29.9565ZM37.4423 30.1654C38.1281 29.822 38.9914 30.1035 39.5429 30.6297L34.5955 33.2988L34.3049 33.4519C34.1482 33.0071 33.9192 32.5912 33.6272 32.2208L37.4423 30.1654ZM32.3692 30.0262C32.3736 30.0236 32.3786 30.0212 32.3825 30.0186C32.8256 29.7624 33.3293 29.6299 33.8411 29.6347C34.3529 29.6395 34.854 29.7815 35.2922 30.0459L32.7768 31.4003C32.2973 31.0503 31.7501 30.804 31.1701 30.6772L32.3692 30.0262ZM5.42826 46.5324L3.55186 31.1424H8.54207L13.2343 46.5324H5.42826ZM31.7518 40.0233C30.1092 40.8229 28.2552 41.0805 26.4569 40.759L18.9324 39.3734C18.1047 39.1691 17.2303 39.2876 16.4869 39.7048C16.4782 39.7096 16.4695 39.7148 16.4609 39.7203L13.0002 41.9081L10.5345 33.8221C11.2948 33.593 11.996 33.2008 12.5893 32.673L13.821 31.5761C14.9623 30.7181 16.3182 30.1918 17.7394 30.0551C19.1606 29.9184 20.592 30.1766 21.8759 30.8013L22.3933 31.0516C23.2798 31.4789 24.2511 31.7015 25.2353 31.7028H30.2533C30.9907 31.7038 31.7047 31.9617 32.2727 32.432C32.8407 32.9023 33.2272 33.5557 33.3658 34.28L29.7287 34.1154C28.4065 34.056 27.0817 34.1172 25.7706 34.2983C25.624 34.3201 25.4919 34.3989 25.403 34.5175C25.3141 34.6362 25.2757 34.7851 25.296 34.9319C25.3163 35.0787 25.3938 35.2116 25.5116 35.3016C25.6294 35.3917 25.7779 35.4316 25.9249 35.4127C27.168 35.2408 28.4242 35.1829 29.6778 35.2394L33.9581 35.433C33.9666 35.433 33.9751 35.4336 33.9836 35.4336C34.1328 35.4336 34.2758 35.3743 34.3813 35.2688C34.4868 35.1633 34.5461 35.0203 34.5461 34.8711C34.5461 34.78 34.5422 34.6898 34.5367 34.6001L35.1237 34.2908L41.3251 30.9461C41.8014 30.6882 42.3495 30.5949 42.8843 30.6806C43.4191 30.7663 43.9106 31.0263 44.2824 31.4201L31.7518 40.0233Z"/>
<path d="M28.2772 10.4657V8.61205C28.2719 7.48312 27.8197 6.40223 27.0196 5.60582C26.2194 4.80941 25.1364 4.3623 24.0075 4.3623C22.8786 4.3623 21.7956 4.80941 20.9954 5.60582C20.1953 6.40223 19.7431 7.48312 19.7378 8.61205V10.4657C19.7431 11.5946 20.1953 12.6755 20.9954 13.4719C21.7956 14.2683 22.8786 14.7154 24.0075 14.7154C25.1364 14.7154 26.2194 14.2683 27.0196 13.4719C27.8197 12.6755 28.2719 11.5946 28.2772 10.4657ZM20.8628 10.4657V8.61205C20.8673 7.781 21.2006 6.98553 21.7899 6.39948C22.3792 5.81344 23.1764 5.48447 24.0075 5.48447C24.8386 5.48447 25.6358 5.81344 26.2251 6.39948C26.8143 6.98553 27.1477 7.781 27.1522 8.61205V10.4657C27.1477 11.2967 26.8143 12.0922 26.2251 12.6782C25.6358 13.2643 24.8386 13.5933 24.0075 13.5933C23.1764 13.5933 22.3792 13.2643 21.7899 12.6782C21.2006 12.0922 20.8673 11.2967 20.8628 10.4657Z"/>
<path d="M17.1252 26.321H30.8898C31.039 26.321 31.1821 26.2618 31.2876 26.1563C31.393 26.0508 31.4523 25.9077 31.4523 25.7585V24.4674H40.8751C41.0243 24.4674 41.1674 24.4081 41.2729 24.3026C41.3784 24.1972 41.4376 24.0541 41.4376 23.9049V20.2539C41.437 19.1826 41.0286 18.1517 40.2954 17.3706C39.5622 16.5896 38.5591 16.1169 37.49 16.0486C37.19 16.0266 37.0358 16.2165 36.9107 16.3691C36.6619 16.6731 36.3469 16.9164 35.9898 17.0803C35.6327 17.2441 35.2429 17.3243 34.8501 17.3147C34.4573 17.3051 34.0718 17.206 33.7232 17.0249C33.3745 16.8438 33.0717 16.5855 32.838 16.2696C32.7843 16.1969 32.7139 16.1382 32.6327 16.0985C32.5515 16.0588 32.462 16.0393 32.3716 16.0415C31.6409 16.0579 30.9274 16.2661 30.3025 16.6452C29.8899 16.1654 29.3853 15.7734 28.8184 15.4922C28.2516 15.2111 27.6341 15.0465 27.0025 15.0084C26.7118 14.9966 26.5648 15.173 26.4224 15.3459C26.1304 15.7027 25.7608 15.9882 25.3418 16.1805C24.9227 16.3729 24.4653 16.467 24.0044 16.4558C23.5434 16.4445 23.0911 16.3281 22.682 16.1156C22.2728 15.903 21.9176 15.5998 21.6433 15.2292C21.5897 15.1564 21.5193 15.0977 21.4381 15.058C21.3569 15.0183 21.2673 14.9988 21.1769 15.0012C19.9434 15.0297 18.7703 15.5414 17.9102 16.4262C17.8392 16.4988 17.7717 16.5741 17.706 16.6505C17.1252 16.2969 16.4669 16.0903 15.7882 16.0485C15.4892 16.0264 15.3339 16.2164 15.2089 16.3689C14.9601 16.6729 14.6451 16.9162 14.288 17.0801C13.9309 17.2439 13.5411 17.3241 13.1483 17.3146C12.7555 17.305 12.3701 17.2058 12.0214 17.0247C11.6727 16.8436 11.37 16.5853 11.1363 16.2694C11.0825 16.1968 11.0121 16.1382 10.9309 16.0985C10.8498 16.0588 10.7602 16.0392 10.6699 16.0413C9.57117 16.0693 8.52684 16.5254 7.75956 17.3123C6.99228 18.0993 6.56278 19.1548 6.56262 20.2539V23.9049C6.56262 24.0541 6.62189 24.1972 6.72737 24.3026C6.83286 24.4081 6.97594 24.4674 7.12512 24.4674H16.5627V25.7585C16.5627 25.9077 16.622 26.0508 16.7275 26.1563C16.833 26.2618 16.9761 26.321 17.1252 26.321ZM32.1314 17.1843C32.4782 17.578 32.9046 17.8935 33.3824 18.1101C33.8602 18.3267 34.3786 18.4394 34.9032 18.4407C35.4278 18.4421 35.9467 18.3321 36.4256 18.118C36.9045 17.904 37.3326 17.5907 37.6814 17.1989C38.4129 17.3092 39.0806 17.6781 39.5633 18.2386C40.0461 18.7992 40.3119 19.5141 40.3126 20.2539V23.3424H31.4523V19.7339C31.4529 18.9848 31.2747 18.2464 30.9325 17.58C31.3 17.3657 31.7085 17.2309 32.1314 17.1843ZM20.9345 16.1432C21.3234 16.5935 21.8045 16.9549 22.3452 17.2032C22.8859 17.4514 23.4737 17.5806 24.0686 17.582C24.6636 17.5834 25.2519 17.457 25.7938 17.2114C26.3357 16.9657 26.8185 16.6065 27.2096 16.1581C28.0733 16.2776 28.8647 16.7054 29.4377 17.3625C30.0108 18.0197 30.3269 18.8619 30.3277 19.7339V25.196H17.6877V19.7339C17.6933 18.841 18.0274 17.9815 18.6262 17.3192C19.2251 16.657 20.0467 16.2384 20.9345 16.1432ZM7.68762 23.3424V20.2539C7.69238 19.496 7.97367 18.7659 8.47866 18.2008C8.98366 17.6357 9.67761 17.2743 10.4302 17.1847C10.777 17.5782 11.2033 17.8936 11.6811 18.1101C12.1588 18.3266 12.6771 18.4392 13.2016 18.4406C13.7261 18.4419 14.2449 18.3319 14.7237 18.1179C15.2026 17.9038 15.6305 17.5906 15.9793 17.1989C16.3666 17.2568 16.7393 17.3883 17.0772 17.5862C16.738 18.2513 16.5617 18.9873 16.5627 19.7339V23.3424H7.68762Z"/>
<path d="M38.6583 12.1418V10.5193C38.6583 9.50951 38.2572 8.54109 37.5432 7.82707C36.8292 7.11305 35.8607 6.71191 34.851 6.71191C33.8412 6.71191 32.8728 7.11305 32.1587 7.82707C31.4447 8.54109 31.0436 9.50951 31.0436 10.5193V12.1418C31.0436 13.1516 31.4447 14.12 32.1587 14.834C32.8728 15.5481 33.8412 15.9492 34.851 15.9492C35.8607 15.9492 36.8292 15.5481 37.5432 14.834C38.2572 14.12 38.6583 13.1516 38.6583 12.1418ZM32.1686 12.1418V10.5193C32.1686 9.80788 32.4512 9.12561 32.9542 8.62256C33.4573 8.11952 34.1395 7.83691 34.851 7.83691C35.5624 7.83691 36.2446 8.11952 36.7477 8.62256C37.2507 9.12561 37.5333 9.80788 37.5333 10.5193V12.1418C37.5333 12.8532 37.2507 13.5355 36.7477 14.0385C36.2446 14.5416 35.5624 14.8242 34.851 14.8242C34.1395 14.8242 33.4573 14.5416 32.9542 14.0385C32.4512 13.5355 32.1686 12.8532 32.1686 12.1418Z"/>
<path d="M16.9567 12.1418V10.5193C16.9567 10.0193 16.8582 9.5242 16.6668 9.06227C16.4755 8.60034 16.1951 8.18062 15.8415 7.82707C15.488 7.47352 15.0682 7.19307 14.6063 7.00173C14.1444 6.81039 13.6493 6.71191 13.1493 6.71191C12.6493 6.71191 12.1542 6.81039 11.6923 7.00173C11.2303 7.19307 10.8106 7.47352 10.4571 7.82707C10.1035 8.18062 9.82308 8.60034 9.63174 9.06227C9.4404 9.5242 9.34192 10.0193 9.34192 10.5193V12.1418C9.34192 12.6418 9.4404 13.1369 9.63174 13.5988C9.82308 14.0608 10.1035 14.4805 10.4571 14.834C10.8106 15.1876 11.2303 15.468 11.6923 15.6594C12.1542 15.8507 12.6493 15.9492 13.1493 15.9492C13.6493 15.9492 14.1444 15.8507 14.6063 15.6594C15.0682 15.468 15.488 15.1876 15.8415 14.834C16.1951 14.4805 16.4755 14.0608 16.6668 13.5988C16.8582 13.1369 16.9567 12.6418 16.9567 12.1418ZM10.4669 12.1418V10.5193C10.4669 9.80788 10.7495 9.12561 11.2526 8.62256C11.7556 8.11952 12.4379 7.83691 13.1493 7.83691C13.8607 7.83691 14.543 8.11952 15.046 8.62256C15.5491 9.12561 15.8317 9.80788 15.8317 10.5193V12.1418C15.8317 12.4941 15.7623 12.8429 15.6275 13.1683C15.4927 13.4938 15.2951 13.7895 15.046 14.0385C14.7969 14.2876 14.5012 14.4852 14.1758 14.62C13.8504 14.7548 13.5015 14.8242 13.1493 14.8242C12.797 14.8242 12.4482 14.7548 12.1228 14.62C11.7974 14.4852 11.5016 14.2876 11.2526 14.0385C11.0035 13.7895 10.8059 13.4938 10.6711 13.1683C10.5363 12.8429 10.4669 12.4941 10.4669 12.1418Z"/>
</mask>
<path d="M40.7908 29.9565L40.5684 30.0765C39.6701 28.9864 38.1137 28.5639 36.928 29.1649C36.9238 29.1669 36.9195 29.1692 36.9154 29.1713L36.3904 29.454C35.7643 28.9239 34.9899 28.5998 34.1728 28.5259C33.3557 28.4521 32.5358 28.6322 31.8248 29.0415L28.9978 30.579H25.236C24.4214 30.5779 23.6175 30.3937 22.8838 30.04L22.3663 29.7897C20.893 29.0729 19.25 28.7777 17.6193 28.937C15.9886 29.0963 14.4338 29.7037 13.127 30.6921C13.1147 30.7014 13.1027 30.7108 13.0913 30.7214L11.8419 31.8337C11.3697 32.253 10.8116 32.5641 10.2066 32.7452L9.49701 30.4159C9.46186 30.3006 9.39059 30.1996 9.29373 30.1279C9.19686 30.0562 9.07952 30.0174 8.95898 30.0174H2.91651C2.8369 30.0174 2.75819 30.0343 2.68559 30.067C2.613 30.0997 2.54816 30.1474 2.49538 30.207C2.4426 30.2666 2.40307 30.3368 2.37942 30.4128C2.35576 30.4888 2.3485 30.569 2.35814 30.648L4.37226 47.163C4.38889 47.2994 4.45486 47.425 4.55772 47.5161C4.66059 47.6072 4.79324 47.6574 4.93064 47.6574H13.9938C14.0817 47.6574 14.1684 47.6368 14.2469 47.5973C14.3254 47.5577 14.3936 47.5003 14.4459 47.4297C14.4982 47.359 14.5332 47.2771 14.5481 47.1905C14.5631 47.1039 14.5575 47.015 14.5319 46.9309L13.3412 43.0239L17.0494 40.6802C17.5456 40.4057 18.1277 40.3303 18.6774 40.4695C18.689 40.4724 18.7007 40.4751 18.7125 40.4771L26.2556 41.8661C28.3055 42.2329 30.419 41.9345 32.2872 41.0145C32.311 41.0027 32.334 40.9893 32.356 40.9742L45.4026 32.0162C45.5208 31.935 45.6035 31.8118 45.6339 31.6717C45.6643 31.5316 45.6401 31.3852 45.5661 31.2623C45.0914 30.4717 44.33 29.8947 43.4404 29.6514C42.5509 29.4082 41.6018 29.5174 40.7908 29.9565ZM37.4423 30.1654C38.1281 29.822 38.9914 30.1035 39.5429 30.6297L34.5955 33.2988L34.3049 33.4519C34.1482 33.0071 33.9192 32.5912 33.6272 32.2208L37.4423 30.1654ZM32.3692 30.0262C32.3736 30.0236 32.3786 30.0212 32.3825 30.0186C32.8256 29.7624 33.3293 29.6299 33.8411 29.6347C34.3529 29.6395 34.854 29.7815 35.2922 30.0459L32.7768 31.4003C32.2973 31.0503 31.7501 30.804 31.1701 30.6772L32.3692 30.0262ZM5.42826 46.5324L3.55186 31.1424H8.54207L13.2343 46.5324H5.42826ZM31.7518 40.0233C30.1092 40.8229 28.2552 41.0805 26.4569 40.759L18.9324 39.3734C18.1047 39.1691 17.2303 39.2876 16.4869 39.7048C16.4782 39.7096 16.4695 39.7148 16.4609 39.7203L13.0002 41.9081L10.5345 33.8221C11.2948 33.593 11.996 33.2008 12.5893 32.673L13.821 31.5761C14.9623 30.7181 16.3182 30.1918 17.7394 30.0551C19.1606 29.9184 20.592 30.1766 21.8759 30.8013L22.3933 31.0516C23.2798 31.4789 24.2511 31.7015 25.2353 31.7028H30.2533C30.9907 31.7038 31.7047 31.9617 32.2727 32.432C32.8407 32.9023 33.2272 33.5557 33.3658 34.28L29.7287 34.1154C28.4065 34.056 27.0817 34.1172 25.7706 34.2983C25.624 34.3201 25.4919 34.3989 25.403 34.5175C25.3141 34.6362 25.2757 34.7851 25.296 34.9319C25.3163 35.0787 25.3938 35.2116 25.5116 35.3016C25.6294 35.3917 25.7779 35.4316 25.9249 35.4127C27.168 35.2408 28.4242 35.1829 29.6778 35.2394L33.9581 35.433C33.9666 35.433 33.9751 35.4336 33.9836 35.4336C34.1328 35.4336 34.2758 35.3743 34.3813 35.2688C34.4868 35.1633 34.5461 35.0203 34.5461 34.8711C34.5461 34.78 34.5422 34.6898 34.5367 34.6001L35.1237 34.2908L41.3251 30.9461C41.8014 30.6882 42.3495 30.5949 42.8843 30.6806C43.4191 30.7663 43.9106 31.0263 44.2824 31.4201L31.7518 40.0233Z" fill="#2A7EF9"/>
<path d="M28.2772 10.4657V8.61205C28.2719 7.48312 27.8197 6.40223 27.0196 5.60582C26.2194 4.80941 25.1364 4.3623 24.0075 4.3623C22.8786 4.3623 21.7956 4.80941 20.9954 5.60582C20.1953 6.40223 19.7431 7.48312 19.7378 8.61205V10.4657C19.7431 11.5946 20.1953 12.6755 20.9954 13.4719C21.7956 14.2683 22.8786 14.7154 24.0075 14.7154C25.1364 14.7154 26.2194 14.2683 27.0196 13.4719C27.8197 12.6755 28.2719 11.5946 28.2772 10.4657ZM20.8628 10.4657V8.61205C20.8673 7.781 21.2006 6.98553 21.7899 6.39948C22.3792 5.81344 23.1764 5.48447 24.0075 5.48447C24.8386 5.48447 25.6358 5.81344 26.2251 6.39948C26.8143 6.98553 27.1477 7.781 27.1522 8.61205V10.4657C27.1477 11.2967 26.8143 12.0922 26.2251 12.6782C25.6358 13.2643 24.8386 13.5933 24.0075 13.5933C23.1764 13.5933 22.3792 13.2643 21.7899 12.6782C21.2006 12.0922 20.8673 11.2967 20.8628 10.4657Z" fill="#2A7EF9"/>
<path d="M17.1252 26.321H30.8898C31.039 26.321 31.1821 26.2618 31.2876 26.1563C31.393 26.0508 31.4523 25.9077 31.4523 25.7585V24.4674H40.8751C41.0243 24.4674 41.1674 24.4081 41.2729 24.3026C41.3784 24.1972 41.4376 24.0541 41.4376 23.9049V20.2539C41.437 19.1826 41.0286 18.1517 40.2954 17.3706C39.5622 16.5896 38.5591 16.1169 37.49 16.0486C37.19 16.0266 37.0358 16.2165 36.9107 16.3691C36.6619 16.6731 36.3469 16.9164 35.9898 17.0803C35.6327 17.2441 35.2429 17.3243 34.8501 17.3147C34.4573 17.3051 34.0718 17.206 33.7232 17.0249C33.3745 16.8438 33.0717 16.5855 32.838 16.2696C32.7843 16.1969 32.7139 16.1382 32.6327 16.0985C32.5515 16.0588 32.462 16.0393 32.3716 16.0415C31.6409 16.0579 30.9274 16.2661 30.3025 16.6452C29.8899 16.1654 29.3853 15.7734 28.8184 15.4922C28.2516 15.2111 27.6341 15.0465 27.0025 15.0084C26.7118 14.9966 26.5648 15.173 26.4224 15.3459C26.1304 15.7027 25.7608 15.9882 25.3418 16.1805C24.9227 16.3729 24.4653 16.467 24.0044 16.4558C23.5434 16.4445 23.0911 16.3281 22.682 16.1156C22.2728 15.903 21.9176 15.5998 21.6433 15.2292C21.5897 15.1564 21.5193 15.0977 21.4381 15.058C21.3569 15.0183 21.2673 14.9988 21.1769 15.0012C19.9434 15.0297 18.7703 15.5414 17.9102 16.4262C17.8392 16.4988 17.7717 16.5741 17.706 16.6505C17.1252 16.2969 16.4669 16.0903 15.7882 16.0485C15.4892 16.0264 15.3339 16.2164 15.2089 16.3689C14.9601 16.6729 14.6451 16.9162 14.288 17.0801C13.9309 17.2439 13.5411 17.3241 13.1483 17.3146C12.7555 17.305 12.3701 17.2058 12.0214 17.0247C11.6727 16.8436 11.37 16.5853 11.1363 16.2694C11.0825 16.1968 11.0121 16.1382 10.9309 16.0985C10.8498 16.0588 10.7602 16.0392 10.6699 16.0413C9.57117 16.0693 8.52684 16.5254 7.75956 17.3123C6.99228 18.0993 6.56278 19.1548 6.56262 20.2539V23.9049C6.56262 24.0541 6.62189 24.1972 6.72737 24.3026C6.83286 24.4081 6.97594 24.4674 7.12512 24.4674H16.5627V25.7585C16.5627 25.9077 16.622 26.0508 16.7275 26.1563C16.833 26.2618 16.9761 26.321 17.1252 26.321ZM32.1314 17.1843C32.4782 17.578 32.9046 17.8935 33.3824 18.1101C33.8602 18.3267 34.3786 18.4394 34.9032 18.4407C35.4278 18.4421 35.9467 18.3321 36.4256 18.118C36.9045 17.904 37.3326 17.5907 37.6814 17.1989C38.4129 17.3092 39.0806 17.6781 39.5633 18.2386C40.0461 18.7992 40.3119 19.5141 40.3126 20.2539V23.3424H31.4523V19.7339C31.4529 18.9848 31.2747 18.2464 30.9325 17.58C31.3 17.3657 31.7085 17.2309 32.1314 17.1843ZM20.9345 16.1432C21.3234 16.5935 21.8045 16.9549 22.3452 17.2032C22.8859 17.4514 23.4737 17.5806 24.0686 17.582C24.6636 17.5834 25.2519 17.457 25.7938 17.2114C26.3357 16.9657 26.8185 16.6065 27.2096 16.1581C28.0733 16.2776 28.8647 16.7054 29.4377 17.3625C30.0108 18.0197 30.3269 18.8619 30.3277 19.7339V25.196H17.6877V19.7339C17.6933 18.841 18.0274 17.9815 18.6262 17.3192C19.2251 16.657 20.0467 16.2384 20.9345 16.1432ZM7.68762 23.3424V20.2539C7.69238 19.496 7.97367 18.7659 8.47866 18.2008C8.98366 17.6357 9.67761 17.2743 10.4302 17.1847C10.777 17.5782 11.2033 17.8936 11.6811 18.1101C12.1588 18.3266 12.6771 18.4392 13.2016 18.4406C13.7261 18.4419 14.2449 18.3319 14.7237 18.1179C15.2026 17.9038 15.6305 17.5906 15.9793 17.1989C16.3666 17.2568 16.7393 17.3883 17.0772 17.5862C16.738 18.2513 16.5617 18.9873 16.5627 19.7339V23.3424H7.68762Z" fill="#2A7EF9"/>
<path d="M38.6583 12.1418V10.5193C38.6583 9.50951 38.2572 8.54109 37.5432 7.82707C36.8292 7.11305 35.8607 6.71191 34.851 6.71191C33.8412 6.71191 32.8728 7.11305 32.1587 7.82707C31.4447 8.54109 31.0436 9.50951 31.0436 10.5193V12.1418C31.0436 13.1516 31.4447 14.12 32.1587 14.834C32.8728 15.5481 33.8412 15.9492 34.851 15.9492C35.8607 15.9492 36.8292 15.5481 37.5432 14.834C38.2572 14.12 38.6583 13.1516 38.6583 12.1418ZM32.1686 12.1418V10.5193C32.1686 9.80788 32.4512 9.12561 32.9542 8.62256C33.4573 8.11952 34.1395 7.83691 34.851 7.83691C35.5624 7.83691 36.2446 8.11952 36.7477 8.62256C37.2507 9.12561 37.5333 9.80788 37.5333 10.5193V12.1418C37.5333 12.8532 37.2507 13.5355 36.7477 14.0385C36.2446 14.5416 35.5624 14.8242 34.851 14.8242C34.1395 14.8242 33.4573 14.5416 32.9542 14.0385C32.4512 13.5355 32.1686 12.8532 32.1686 12.1418Z" fill="#2A7EF9"/>
<path d="M16.9567 12.1418V10.5193C16.9567 10.0193 16.8582 9.5242 16.6668 9.06227C16.4755 8.60034 16.1951 8.18062 15.8415 7.82707C15.488 7.47352 15.0682 7.19307 14.6063 7.00173C14.1444 6.81039 13.6493 6.71191 13.1493 6.71191C12.6493 6.71191 12.1542 6.81039 11.6923 7.00173C11.2303 7.19307 10.8106 7.47352 10.4571 7.82707C10.1035 8.18062 9.82308 8.60034 9.63174 9.06227C9.4404 9.5242 9.34192 10.0193 9.34192 10.5193V12.1418C9.34192 12.6418 9.4404 13.1369 9.63174 13.5988C9.82308 14.0608 10.1035 14.4805 10.4571 14.834C10.8106 15.1876 11.2303 15.468 11.6923 15.6594C12.1542 15.8507 12.6493 15.9492 13.1493 15.9492C13.6493 15.9492 14.1444 15.8507 14.6063 15.6594C15.0682 15.468 15.488 15.1876 15.8415 14.834C16.1951 14.4805 16.4755 14.0608 16.6668 13.5988C16.8582 13.1369 16.9567 12.6418 16.9567 12.1418ZM10.4669 12.1418V10.5193C10.4669 9.80788 10.7495 9.12561 11.2526 8.62256C11.7556 8.11952 12.4379 7.83691 13.1493 7.83691C13.8607 7.83691 14.543 8.11952 15.046 8.62256C15.5491 9.12561 15.8317 9.80788 15.8317 10.5193V12.1418C15.8317 12.4941 15.7623 12.8429 15.6275 13.1683C15.4927 13.4938 15.2951 13.7895 15.046 14.0385C14.7969 14.2876 14.5012 14.4852 14.1758 14.62C13.8504 14.7548 13.5015 14.8242 13.1493 14.8242C12.797 14.8242 12.4482 14.7548 12.1228 14.62C11.7974 14.4852 11.5016 14.2876 11.2526 14.0385C11.0035 13.7895 10.8059 13.4938 10.6711 13.1683C10.5363 12.8429 10.4669 12.4941 10.4669 12.1418Z" fill="#2A7EF9"/>
<path d="M40.7908 29.9565L40.5684 30.0765C39.6701 28.9864 38.1137 28.5639 36.928 29.1649C36.9238 29.1669 36.9195 29.1692 36.9154 29.1713L36.3904 29.454C35.7643 28.9239 34.9899 28.5998 34.1728 28.5259C33.3557 28.4521 32.5358 28.6322 31.8248 29.0415L28.9978 30.579H25.236C24.4214 30.5779 23.6175 30.3937 22.8838 30.04L22.3663 29.7897C20.893 29.0729 19.25 28.7777 17.6193 28.937C15.9886 29.0963 14.4338 29.7037 13.127 30.6921C13.1147 30.7014 13.1027 30.7108 13.0913 30.7214L11.8419 31.8337C11.3697 32.253 10.8116 32.5641 10.2066 32.7452L9.49701 30.4159C9.46186 30.3006 9.39059 30.1996 9.29373 30.1279C9.19686 30.0562 9.07952 30.0174 8.95898 30.0174H2.91651C2.8369 30.0174 2.75819 30.0343 2.68559 30.067C2.613 30.0997 2.54816 30.1474 2.49538 30.207C2.4426 30.2666 2.40307 30.3368 2.37942 30.4128C2.35576 30.4888 2.3485 30.569 2.35814 30.648L4.37226 47.163C4.38889 47.2994 4.45486 47.425 4.55772 47.5161C4.66059 47.6072 4.79324 47.6574 4.93064 47.6574H13.9938C14.0817 47.6574 14.1684 47.6368 14.2469 47.5973C14.3254 47.5577 14.3936 47.5003 14.4459 47.4297C14.4982 47.359 14.5332 47.2771 14.5481 47.1905C14.5631 47.1039 14.5575 47.015 14.5319 46.9309L13.3412 43.0239L17.0494 40.6802C17.5456 40.4057 18.1277 40.3303 18.6774 40.4695C18.689 40.4724 18.7007 40.4751 18.7125 40.4771L26.2556 41.8661C28.3055 42.2329 30.419 41.9345 32.2872 41.0145C32.311 41.0027 32.334 40.9893 32.356 40.9742L45.4026 32.0162C45.5208 31.935 45.6035 31.8118 45.6339 31.6717C45.6643 31.5316 45.6401 31.3852 45.5661 31.2623C45.0914 30.4717 44.33 29.8947 43.4404 29.6514C42.5509 29.4082 41.6018 29.5174 40.7908 29.9565ZM37.4423 30.1654C38.1281 29.822 38.9914 30.1035 39.5429 30.6297L34.5955 33.2988L34.3049 33.4519C34.1482 33.0071 33.9192 32.5912 33.6272 32.2208L37.4423 30.1654ZM32.3692 30.0262C32.3736 30.0236 32.3786 30.0212 32.3825 30.0186C32.8256 29.7624 33.3293 29.6299 33.8411 29.6347C34.3529 29.6395 34.854 29.7815 35.2922 30.0459L32.7768 31.4003C32.2973 31.0503 31.7501 30.804 31.1701 30.6772L32.3692 30.0262ZM5.42826 46.5324L3.55186 31.1424H8.54207L13.2343 46.5324H5.42826ZM31.7518 40.0233C30.1092 40.8229 28.2552 41.0805 26.4569 40.759L18.9324 39.3734C18.1047 39.1691 17.2303 39.2876 16.4869 39.7048C16.4782 39.7096 16.4695 39.7148 16.4609 39.7203L13.0002 41.9081L10.5345 33.8221C11.2948 33.593 11.996 33.2008 12.5893 32.673L13.821 31.5761C14.9623 30.7181 16.3182 30.1918 17.7394 30.0551C19.1606 29.9184 20.592 30.1766 21.8759 30.8013L22.3933 31.0516C23.2798 31.4789 24.2511 31.7015 25.2353 31.7028H30.2533C30.9907 31.7038 31.7047 31.9617 32.2727 32.432C32.8407 32.9023 33.2272 33.5557 33.3658 34.28L29.7287 34.1154C28.4065 34.056 27.0817 34.1172 25.7706 34.2983C25.624 34.3201 25.4919 34.3989 25.403 34.5175C25.3141 34.6362 25.2757 34.7851 25.296 34.9319C25.3163 35.0787 25.3938 35.2116 25.5116 35.3016C25.6294 35.3917 25.7779 35.4316 25.9249 35.4127C27.168 35.2408 28.4242 35.1829 29.6778 35.2394L33.9581 35.433C33.9666 35.433 33.9751 35.4336 33.9836 35.4336C34.1328 35.4336 34.2758 35.3743 34.3813 35.2688C34.4868 35.1633 34.5461 35.0203 34.5461 34.8711C34.5461 34.78 34.5422 34.6898 34.5367 34.6001L35.1237 34.2908L41.3251 30.9461C41.8014 30.6882 42.3495 30.5949 42.8843 30.6806C43.4191 30.7663 43.9106 31.0263 44.2824 31.4201L31.7518 40.0233Z" stroke="#2A7EF9" stroke-width="0.2" mask="url(#path-1-outside-1_1267_59785)"/>
<path d="M28.2772 10.4657V8.61205C28.2719 7.48312 27.8197 6.40223 27.0196 5.60582C26.2194 4.80941 25.1364 4.3623 24.0075 4.3623C22.8786 4.3623 21.7956 4.80941 20.9954 5.60582C20.1953 6.40223 19.7431 7.48312 19.7378 8.61205V10.4657C19.7431 11.5946 20.1953 12.6755 20.9954 13.4719C21.7956 14.2683 22.8786 14.7154 24.0075 14.7154C25.1364 14.7154 26.2194 14.2683 27.0196 13.4719C27.8197 12.6755 28.2719 11.5946 28.2772 10.4657ZM20.8628 10.4657V8.61205C20.8673 7.781 21.2006 6.98553 21.7899 6.39948C22.3792 5.81344 23.1764 5.48447 24.0075 5.48447C24.8386 5.48447 25.6358 5.81344 26.2251 6.39948C26.8143 6.98553 27.1477 7.781 27.1522 8.61205V10.4657C27.1477 11.2967 26.8143 12.0922 26.2251 12.6782C25.6358 13.2643 24.8386 13.5933 24.0075 13.5933C23.1764 13.5933 22.3792 13.2643 21.7899 12.6782C21.2006 12.0922 20.8673 11.2967 20.8628 10.4657Z" stroke="#2A7EF9" stroke-width="0.2" mask="url(#path-1-outside-1_1267_59785)"/>
<path d="M17.1252 26.321H30.8898C31.039 26.321 31.1821 26.2618 31.2876 26.1563C31.393 26.0508 31.4523 25.9077 31.4523 25.7585V24.4674H40.8751C41.0243 24.4674 41.1674 24.4081 41.2729 24.3026C41.3784 24.1972 41.4376 24.0541 41.4376 23.9049V20.2539C41.437 19.1826 41.0286 18.1517 40.2954 17.3706C39.5622 16.5896 38.5591 16.1169 37.49 16.0486C37.19 16.0266 37.0358 16.2165 36.9107 16.3691C36.6619 16.6731 36.3469 16.9164 35.9898 17.0803C35.6327 17.2441 35.2429 17.3243 34.8501 17.3147C34.4573 17.3051 34.0718 17.206 33.7232 17.0249C33.3745 16.8438 33.0717 16.5855 32.838 16.2696C32.7843 16.1969 32.7139 16.1382 32.6327 16.0985C32.5515 16.0588 32.462 16.0393 32.3716 16.0415C31.6409 16.0579 30.9274 16.2661 30.3025 16.6452C29.8899 16.1654 29.3853 15.7734 28.8184 15.4922C28.2516 15.2111 27.6341 15.0465 27.0025 15.0084C26.7118 14.9966 26.5648 15.173 26.4224 15.3459C26.1304 15.7027 25.7608 15.9882 25.3418 16.1805C24.9227 16.3729 24.4653 16.467 24.0044 16.4558C23.5434 16.4445 23.0911 16.3281 22.682 16.1156C22.2728 15.903 21.9176 15.5998 21.6433 15.2292C21.5897 15.1564 21.5193 15.0977 21.4381 15.058C21.3569 15.0183 21.2673 14.9988 21.1769 15.0012C19.9434 15.0297 18.7703 15.5414 17.9102 16.4262C17.8392 16.4988 17.7717 16.5741 17.706 16.6505C17.1252 16.2969 16.4669 16.0903 15.7882 16.0485C15.4892 16.0264 15.3339 16.2164 15.2089 16.3689C14.9601 16.6729 14.6451 16.9162 14.288 17.0801C13.9309 17.2439 13.5411 17.3241 13.1483 17.3146C12.7555 17.305 12.3701 17.2058 12.0214 17.0247C11.6727 16.8436 11.37 16.5853 11.1363 16.2694C11.0825 16.1968 11.0121 16.1382 10.9309 16.0985C10.8498 16.0588 10.7602 16.0392 10.6699 16.0413C9.57117 16.0693 8.52684 16.5254 7.75956 17.3123C6.99228 18.0993 6.56278 19.1548 6.56262 20.2539V23.9049C6.56262 24.0541 6.62189 24.1972 6.72737 24.3026C6.83286 24.4081 6.97594 24.4674 7.12512 24.4674H16.5627V25.7585C16.5627 25.9077 16.622 26.0508 16.7275 26.1563C16.833 26.2618 16.9761 26.321 17.1252 26.321ZM32.1314 17.1843C32.4782 17.578 32.9046 17.8935 33.3824 18.1101C33.8602 18.3267 34.3786 18.4394 34.9032 18.4407C35.4278 18.4421 35.9467 18.3321 36.4256 18.118C36.9045 17.904 37.3326 17.5907 37.6814 17.1989C38.4129 17.3092 39.0806 17.6781 39.5633 18.2386C40.0461 18.7992 40.3119 19.5141 40.3126 20.2539V23.3424H31.4523V19.7339C31.4529 18.9848 31.2747 18.2464 30.9325 17.58C31.3 17.3657 31.7085 17.2309 32.1314 17.1843ZM20.9345 16.1432C21.3234 16.5935 21.8045 16.9549 22.3452 17.2032C22.8859 17.4514 23.4737 17.5806 24.0686 17.582C24.6636 17.5834 25.2519 17.457 25.7938 17.2114C26.3357 16.9657 26.8185 16.6065 27.2096 16.1581C28.0733 16.2776 28.8647 16.7054 29.4377 17.3625C30.0108 18.0197 30.3269 18.8619 30.3277 19.7339V25.196H17.6877V19.7339C17.6933 18.841 18.0274 17.9815 18.6262 17.3192C19.2251 16.657 20.0467 16.2384 20.9345 16.1432ZM7.68762 23.3424V20.2539C7.69238 19.496 7.97367 18.7659 8.47866 18.2008C8.98366 17.6357 9.67761 17.2743 10.4302 17.1847C10.777 17.5782 11.2033 17.8936 11.6811 18.1101C12.1588 18.3266 12.6771 18.4392 13.2016 18.4406C13.7261 18.4419 14.2449 18.3319 14.7237 18.1179C15.2026 17.9038 15.6305 17.5906 15.9793 17.1989C16.3666 17.2568 16.7393 17.3883 17.0772 17.5862C16.738 18.2513 16.5617 18.9873 16.5627 19.7339V23.3424H7.68762Z" stroke="#2A7EF9" stroke-width="0.2" mask="url(#path-1-outside-1_1267_59785)"/>
<path d="M38.6583 12.1418V10.5193C38.6583 9.50951 38.2572 8.54109 37.5432 7.82707C36.8292 7.11305 35.8607 6.71191 34.851 6.71191C33.8412 6.71191 32.8728 7.11305 32.1587 7.82707C31.4447 8.54109 31.0436 9.50951 31.0436 10.5193V12.1418C31.0436 13.1516 31.4447 14.12 32.1587 14.834C32.8728 15.5481 33.8412 15.9492 34.851 15.9492C35.8607 15.9492 36.8292 15.5481 37.5432 14.834C38.2572 14.12 38.6583 13.1516 38.6583 12.1418ZM32.1686 12.1418V10.5193C32.1686 9.80788 32.4512 9.12561 32.9542 8.62256C33.4573 8.11952 34.1395 7.83691 34.851 7.83691C35.5624 7.83691 36.2446 8.11952 36.7477 8.62256C37.2507 9.12561 37.5333 9.80788 37.5333 10.5193V12.1418C37.5333 12.8532 37.2507 13.5355 36.7477 14.0385C36.2446 14.5416 35.5624 14.8242 34.851 14.8242C34.1395 14.8242 33.4573 14.5416 32.9542 14.0385C32.4512 13.5355 32.1686 12.8532 32.1686 12.1418Z" stroke="#2A7EF9" stroke-width="0.2" mask="url(#path-1-outside-1_1267_59785)"/>
<path d="M16.9567 12.1418V10.5193C16.9567 10.0193 16.8582 9.5242 16.6668 9.06227C16.4755 8.60034 16.1951 8.18062 15.8415 7.82707C15.488 7.47352 15.0682 7.19307 14.6063 7.00173C14.1444 6.81039 13.6493 6.71191 13.1493 6.71191C12.6493 6.71191 12.1542 6.81039 11.6923 7.00173C11.2303 7.19307 10.8106 7.47352 10.4571 7.82707C10.1035 8.18062 9.82308 8.60034 9.63174 9.06227C9.4404 9.5242 9.34192 10.0193 9.34192 10.5193V12.1418C9.34192 12.6418 9.4404 13.1369 9.63174 13.5988C9.82308 14.0608 10.1035 14.4805 10.4571 14.834C10.8106 15.1876 11.2303 15.468 11.6923 15.6594C12.1542 15.8507 12.6493 15.9492 13.1493 15.9492C13.6493 15.9492 14.1444 15.8507 14.6063 15.6594C15.0682 15.468 15.488 15.1876 15.8415 14.834C16.1951 14.4805 16.4755 14.0608 16.6668 13.5988C16.8582 13.1369 16.9567 12.6418 16.9567 12.1418ZM10.4669 12.1418V10.5193C10.4669 9.80788 10.7495 9.12561 11.2526 8.62256C11.7556 8.11952 12.4379 7.83691 13.1493 7.83691C13.8607 7.83691 14.543 8.11952 15.046 8.62256C15.5491 9.12561 15.8317 9.80788 15.8317 10.5193V12.1418C15.8317 12.4941 15.7623 12.8429 15.6275 13.1683C15.4927 13.4938 15.2951 13.7895 15.046 14.0385C14.7969 14.2876 14.5012 14.4852 14.1758 14.62C13.8504 14.7548 13.5015 14.8242 13.1493 14.8242C12.797 14.8242 12.4482 14.7548 12.1228 14.62C11.7974 14.4852 11.5016 14.2876 11.2526 14.0385C11.0035 13.7895 10.8059 13.4938 10.6711 13.1683C10.5363 12.8429 10.4669 12.4941 10.4669 12.1418Z" stroke="#2A7EF9" stroke-width="0.2" mask="url(#path-1-outside-1_1267_59785)"/>
</svg>
