<svg width="24" height="24" viewBox="0 0 24 24" fill="current" xmlns="http://www.w3.org/2000/svg">
<path d="M2.00456 10.7133C1.96112 11.0629 2.23374 11.3715 2.586 11.3715H4.96983C5.25597 11.3715 5.50027 11.1648 5.54765 10.8826C6.00644 8.15039 8.15035 6.00644 10.8826 5.54769C11.1648 5.5003 11.3715 5.25601 11.3715 4.96983V2.586C11.3715 2.23374 11.0629 1.96112 10.7133 2.00456C8.51523 2.27772 6.43874 3.29409 4.8664 4.8664C3.29409 6.43874 2.27772 8.51523 2.00456 10.7133Z" fill="current"/>
<path d="M15.7334 17.2606C14.6213 18.0547 13.3173 18.4744 11.9623 18.4744C8.77402 18.4744 6.07628 16.1896 5.54769 13.0416C5.5003 12.7595 5.25601 12.5527 4.96987 12.5527H2.586C2.23374 12.5527 1.96112 12.8613 2.00456 13.2109V13.2109C2.62725 18.2213 6.90816 21.9997 11.9623 21.9997C14.2139 21.9997 16.3432 21.2689 18.1201 19.8863C18.3982 19.6699 18.4238 19.2587 18.1746 19.0095L16.4882 17.3232C16.2857 17.1207 15.9665 17.0942 15.7334 17.2606Z" fill="current"/>
<path d="M13.0417 5.54769C16.1896 6.07628 18.4745 8.77402 18.4745 11.9623C18.4745 13.3173 18.0547 14.6213 17.2607 15.7334C17.0943 15.9665 17.1207 16.2857 17.3232 16.4882L19.0097 18.1746C19.2588 18.4238 19.67 18.3982 19.8864 18.1201L19.8864 18.1201C21.269 16.3433 21.9997 14.2139 21.9997 11.9623C21.9997 6.90816 18.2214 2.62725 13.211 2.00456H13.2109C12.8614 1.96112 12.5527 2.23374 12.5527 2.586V4.96983C12.5528 5.25601 12.7595 5.5003 13.0417 5.54769Z" fill="current"/>
<path d="M12.353 7.93555H11.5713C11.2477 7.93555 10.9854 8.19789 10.9854 8.52149V15.3574H12.9389V8.52149C12.9389 8.19789 12.6766 7.93555 12.353 7.93555Z" fill="current"/>
<path d="M14.1104 15.3574H15.478C15.8016 15.3574 16.0639 15.095 16.0639 14.7715V10.084C16.0639 9.76039 15.8016 9.49805 15.478 9.49805H14.1104V15.3574Z" fill="current"/>
<path d="M9.81344 11.0605H8.44727C8.12367 11.0605 7.86133 11.3229 7.86133 11.6465V14.7715C7.86133 15.095 8.12367 15.3574 8.44727 15.3574H9.81344V11.0605Z" fill="current"/>
</svg>
