<svg width="80" height="80" viewBox="0 0 80 80" fill="none" xmlns="http://www.w3.org/2000/svg">
<path d="M40 75.9997C59.8823 75.9997 76 59.882 76 39.9998C76 20.1177 59.8823 4 40 4C20.1178 4 4 20.1177 4 39.9998C4 59.882 20.1178 75.9997 40 75.9997Z" fill="url(#paint0_linear_5753_2111)"/>
<path fill-rule="evenodd" clip-rule="evenodd" d="M75.9934 39.4844C75.9958 39.6563 76 39.8277 76 40.0002C76 59.8823 59.8822 76 40 76C39.8112 76 39.6234 75.9958 39.4351 75.9928L26.1357 62.6933C25.6761 62.2991 25.3725 61.7264 25.3329 61.0768L23.4733 30.5792H23.7064L21.0864 27.9592C20.9505 27.8233 20.8663 27.6358 20.8663 27.4292V23.5652C20.8663 22.2907 21.9058 21.2513 23.1802 21.2513H32.9301V19.3594C32.9301 17.9221 34.1023 16.75 35.5395 16.75H44.4606C45.2241 16.75 45.9129 17.0807 46.3908 17.6065L50.0356 21.2513H56.8198C57.5367 21.2513 58.1793 21.5803 58.6042 22.0949L75.9934 39.4844Z" fill="url(#paint1_linear_5753_2111)"/>
<path fill-rule="evenodd" clip-rule="evenodd" d="M32.4885 36.7655C33.1512 36.7655 33.6885 37.3028 33.6885 37.9655V53.2031C33.6885 53.8658 33.1512 54.4031 32.4885 54.4031C31.8258 54.4031 31.2885 53.8658 31.2885 53.2031V37.9655C31.2885 37.3028 31.8258 36.7655 32.4885 36.7655ZM38.8001 37.9655C38.8001 37.3028 39.3374 36.7655 40.0001 36.7655C40.6628 36.7655 41.2001 37.3028 41.2001 37.9655V53.2031C41.2001 53.8658 40.6628 54.4031 40.0001 54.4031C39.3374 54.4031 38.8001 53.8658 38.8001 53.2031V37.9655ZM46.3116 37.9655C46.3116 37.3028 46.8489 36.7655 47.5116 36.7655C48.1743 36.7655 48.7116 37.3028 48.7116 37.9655V53.2031C48.7116 53.8658 48.1743 54.4031 47.5116 54.4031C46.8489 54.4031 46.3116 53.8658 46.3116 53.2031V37.9655ZM23.4734 30.579L25.3329 61.0766C25.4075 62.2994 26.4174 63.2497 27.6425 63.2497H52.3575C53.5826 63.2497 54.5927 62.2994 54.6671 61.0766L56.5266 30.579H23.4734ZM23.1803 21.2513H32.9301V19.3594C32.9301 17.9221 34.1024 16.75 35.5395 16.75H44.4606C45.8978 16.75 47.07 17.9221 47.07 19.3594V21.2513H56.8197C58.0943 21.2513 59.1336 22.2908 59.1336 23.5652V27.4292C59.1336 27.8423 58.7967 28.1792 58.3836 28.1792H21.6162C21.2031 28.1792 20.8662 27.8423 20.8662 27.4292V23.5652C20.8662 22.2907 21.9059 21.2513 23.1803 21.2513Z" fill="white"/>
<defs>
<linearGradient id="paint0_linear_5753_2111" x1="4.48" y1="39.9998" x2="76.48" y2="39.9998" gradientUnits="userSpaceOnUse">
<stop stop-color="#F46868"/>
<stop offset="0.525" stop-color="#E22D2D"/>
<stop offset="1" stop-color="#C70505"/>
</linearGradient>
<linearGradient id="paint1_linear_5753_2111" x1="22" y1="21.5" x2="65.4398" y2="65.44" gradientUnits="userSpaceOnUse">
<stop offset="5.41147e-05" stop-opacity="0.5"/>
<stop offset="1" stop-opacity="0"/>
</linearGradient>
</defs>
</svg>
