<svg width="48" height="48" viewBox="0 0 48 48" fill="none" xmlns="http://www.w3.org/2000/svg">
<path d="M31 26.7809V21.217C31 20.9186 30.8946 20.6324 30.7071 20.4214C30.5196 20.2103 30.2652 20.0918 30 20.0918C29.7348 20.0918 29.4804 20.2103 29.2929 20.4214C29.1054 20.6324 29 20.9186 29 21.217V26.7809C29 27.0793 29.1054 27.3655 29.2929 27.5765C29.4804 27.7876 29.7348 27.9061 30 27.9061C30.2652 27.9061 30.5196 27.7876 30.7071 27.5765C30.8946 27.3655 31 27.0793 31 26.7809Z" fill="#2A7EF9"/>
<path d="M46 27V21C46 20.798 45.8946 20.366 45.7071 20.2231C45.5196 20.0803 45.2652 20 45 20C44.7348 20 44.4804 20.0803 44.2929 20.2231C44.1054 20.366 44 20.798 44 21V27C44 27.202 44.1054 27.634 44.2929 27.7769C44.4804 27.9197 44.7348 28 45 28C45.2652 28 45.5196 27.9197 45.7071 27.7769C45.8946 27.634 46 27.202 46 27Z" fill="#2A7EF9"/>
<path d="M35.2056 16.1787C35.0742 16.1787 34.9442 16.2078 34.8229 16.2643C34.7015 16.3209 34.5913 16.4038 34.4984 16.5083C34.4056 16.6128 34.3319 16.7368 34.2817 16.8733C34.2314 17.0099 34.2056 17.1562 34.2056 17.304V30.6961C34.2056 30.9946 34.3109 31.2808 34.4985 31.4918C34.686 31.7028 34.9403 31.8214 35.2056 31.8214C35.4708 31.8214 35.7251 31.7028 35.9127 31.4918C36.1002 31.2808 36.2056 30.9946 36.2056 30.6961V17.304C36.2056 17.1562 36.1797 17.0099 36.1295 16.8733C36.0792 16.7368 36.0056 16.6128 35.9127 16.5083C35.8198 16.4038 35.7096 16.3209 35.5883 16.2643C35.4669 16.2078 35.3369 16.1787 35.2056 16.1787Z" fill="#2A7EF9"/>
<path d="M40 13.2646C39.8687 13.2646 39.7386 13.3005 39.6173 13.3702C39.496 13.4399 39.3857 13.5421 39.2929 13.6709C39.2 13.7997 39.1264 13.9526 39.0761 14.1209C39.0258 14.2892 39 14.4696 39 14.6517V35.8776C39 36.2454 39.1054 36.5982 39.2929 36.8584C39.4804 37.1185 39.7348 37.2646 40 37.2646C40.2652 37.2646 40.5196 37.1185 40.7071 36.8584C40.8946 36.5982 41 36.2454 41 35.8776V14.6517C41 14.4696 40.9742 14.2892 40.9239 14.1209C40.8736 13.9526 40.8 13.7997 40.7071 13.6709C40.6143 13.5421 40.504 13.4399 40.3827 13.3702C40.2614 13.3005 40.1313 13.2646 40 13.2646Z" fill="#2A7EF9"/>
<path d="M21 10.2646C20.8687 10.2646 20.7386 10.3005 20.6173 10.3702C20.496 10.4399 20.3857 10.5421 20.2929 10.6709C20.2 10.7997 20.1264 10.9526 20.0761 11.1209C20.0258 11.2892 20 11.4696 20 11.6517V32.8776C20 33.2454 20.1054 33.5982 20.2929 33.8584C20.4804 34.1185 20.7348 34.2646 21 34.2646C21.2652 34.2646 21.5196 34.1185 21.7071 33.8584C21.8946 33.5982 22 33.2454 22 32.8776V11.6517C22 11.4696 21.9742 11.2892 21.9239 11.1209C21.8736 10.9526 21.8 10.7997 21.7071 10.6709C21.6143 10.5421 21.504 10.4399 21.3827 10.3702C21.2614 10.3005 21.1313 10.2646 21 10.2646Z" fill="#2A7EF9"/>
<path d="M12.5 4C12.3687 3.99998 12.2386 4.05288 12.1173 4.15569C11.996 4.2585 11.8857 4.40919 11.7929 4.59917C11.7 4.78916 11.6264 5.0147 11.5761 5.26293C11.5258 5.51115 11.5 5.7772 11.5 6.04587V41.9541C11.5 42.4967 11.6054 43.0171 11.7929 43.4008C11.9804 43.7845 12.2348 44 12.5 44C12.7652 44 13.0196 43.7845 13.2071 43.4008C13.3946 43.0171 13.5 42.4967 13.5 41.9541V6.04587C13.5 5.7772 13.4742 5.51115 13.4239 5.26293C13.3737 5.0147 13.3 4.78916 13.2071 4.59917C13.1143 4.40919 13.004 4.2585 12.8827 4.15569C12.7614 4.05288 12.6313 3.99998 12.5 4Z" fill="#2A7EF9"/>
<path d="M7.65796 15.8213C7.52663 15.8213 7.39659 15.8504 7.27526 15.9069C7.15393 15.9635 7.04369 16.0463 6.95083 16.1508C6.85797 16.2553 6.78431 16.3794 6.73406 16.5159C6.68381 16.6524 6.65795 16.7988 6.65796 16.9465V31.0534C6.65796 31.3519 6.76332 31.6381 6.95085 31.8491C7.13839 32.0601 7.39274 32.1787 7.65796 32.1787C7.92318 32.1787 8.17753 32.0601 8.36507 31.8491C8.5526 31.6381 8.65796 31.3519 8.65796 31.0534V16.9465C8.65797 16.7988 8.63211 16.6524 8.58186 16.5159C8.53161 16.3794 8.45795 16.2553 8.36509 16.1508C8.27223 16.0463 8.16199 15.9635 8.04065 15.9069C7.91932 15.8504 7.78928 15.8213 7.65796 15.8213Z" fill="#2A7EF9"/>
<path d="M1.771 19.7678V28.2318C1.771 28.5302 1.87635 28.8164 2.06389 29.0274C2.25143 29.2385 2.50578 29.357 2.771 29.357C3.03621 29.357 3.29057 29.2385 3.4781 29.0274C3.66564 28.8164 3.771 28.5302 3.771 28.2318V19.7678C3.771 19.4694 3.66564 19.1832 3.4781 18.9722C3.29057 18.7611 3.03621 18.6426 2.771 18.6426C2.50578 18.6426 2.25143 18.7611 2.06389 18.9722C1.87635 19.1832 1.771 19.4694 1.771 19.7678Z" fill="#2A7EF9"/>
<path d="M16 18.1129V29.1723C16 29.5622 16.1054 29.9362 16.2929 30.2119C16.4804 30.4877 16.7348 30.6426 17 30.6426C17.2652 30.6426 17.5196 30.4877 17.7071 30.2119C17.8946 29.9362 18 29.5622 18 29.1723V18.1129C18 17.7229 17.8946 17.349 17.7071 17.0732C17.5196 16.7975 17.2652 16.6426 17 16.6426C16.7348 16.6426 16.4804 16.7975 16.2929 17.0732C16.1054 17.349 16 17.7229 16 18.1129Z" fill="#2A7EF9"/>
<path d="M25.5 2L25.5 46" stroke="#2A7EF9" stroke-linecap="round"/>
</svg>
