<svg width="48" height="48" viewBox="0 0 48 48" fill="current" xmlns="http://www.w3.org/2000/svg">
<path d="M40.625 14.5H7.375C6.06558 14.5 5 13.4344 5 12.125V7.375C5 6.06558 6.06558 5 7.375 5H40.625C41.9344 5 43 6.06558 43 7.375V12.125C43 13.4344 41.9344 14.5 40.625 14.5ZM7.375 6.58333C6.93958 6.58333 6.58333 6.938 6.58333 7.375V12.125C6.58333 12.562 6.93958 12.9167 7.375 12.9167H40.625C41.0604 12.9167 41.4167 12.562 41.4167 12.125V7.375C41.4167 6.938 41.0604 6.58333 40.625 6.58333H7.375Z" fill="current"/>
<path d="M38.25 28.75C35.6312 28.75 33.5 26.6188 33.5 24C33.5 21.3812 35.6312 19.25 38.25 19.25C40.8688 19.25 43 21.3812 43 24C43 26.6188 40.8688 28.75 38.25 28.75ZM38.25 20.8333C36.5036 20.8333 35.0833 22.2536 35.0833 24C35.0833 25.7464 36.5036 27.1667 38.25 27.1667C39.9964 27.1667 41.4167 25.7464 41.4167 24C41.4167 22.2536 39.9964 20.8333 38.25 20.8333Z" fill="current"/>
<path d="M38.25 43C35.6312 43 33.5 40.8688 33.5 38.25C33.5 35.6312 35.6312 33.5 38.25 33.5C40.8688 33.5 43 35.6312 43 38.25C43 40.8688 40.8688 43 38.25 43ZM38.25 35.0833C36.5036 35.0833 35.0833 36.5036 35.0833 38.25C35.0833 39.9964 36.5036 41.4167 38.25 41.4167C39.9964 41.4167 41.4167 39.9964 41.4167 38.25C41.4167 36.5036 39.9964 35.0833 38.25 35.0833Z" fill="current"/>
<path d="M29.5417 22.4167H5.79167C5.35467 22.4167 5 22.062 5 21.625C5 21.188 5.35467 20.8333 5.79167 20.8333H29.5417C29.9787 20.8333 30.3333 21.188 30.3333 21.625C30.3333 22.062 29.9787 22.4167 29.5417 22.4167Z" fill="current"/>
<path d="M29.5417 27.1667H5.79167C5.35467 27.1667 5 26.812 5 26.375C5 25.938 5.35467 25.5833 5.79167 25.5833H29.5417C29.9787 25.5833 30.3333 25.938 30.3333 26.375C30.3333 26.812 29.9787 27.1667 29.5417 27.1667Z" fill="current"/>
<path d="M29.5417 36.6667H5.79167C5.35467 36.6667 5 36.312 5 35.875C5 35.438 5.35467 35.0833 5.79167 35.0833H29.5417C29.9787 35.0833 30.3333 35.438 30.3333 35.875C30.3333 36.312 29.9787 36.6667 29.5417 36.6667Z" fill="current"/>
<path d="M29.5417 41.4167H5.79167C5.35467 41.4167 5 41.062 5 40.625C5 40.188 5.35467 39.8333 5.79167 39.8333H29.5417C29.9787 39.8333 30.3333 40.188 30.3333 40.625C30.3333 41.062 29.9787 41.4167 29.5417 41.4167Z" fill="current"/>
</svg>
