<svg width="48" height="48" viewBox="0 0 48 48" fill="current" xmlns="http://www.w3.org/2000/svg">
<path d="M21.1647 37.6619H14.5982C13.9161 37.6619 13.3655 38.2137 13.3655 38.8973V40.4703C13.3655 41.1539 13.9161 41.7057 14.5982 41.7057H21.1647C21.8468 41.7057 22.3975 41.1539 22.3975 40.4703V38.8973C22.3975 38.2137 21.8468 37.6619 21.1647 37.6619ZM21.0497 40.355H14.7215V39.0126H21.0497V40.355ZM40.0752 7.68355L21.5592 3.03856C20.9264 2.8656 20.2196 3.29387 20.0717 3.93626L19.7265 5.32811L7.72769 9.0754C7.4647 9.15776 7.2428 9.34718 7.11953 9.59426C6.98803 9.84133 6.96338 10.1296 7.05378 10.3931L11.426 24.4599C10.6945 24.6493 10.1521 25.3164 10.1521 26.1071V43.287C10.1521 44.2341 10.9164 45 11.8615 45H36.155C37.1001 45 37.8644 44.2341 37.8644 43.287V28.6354C37.8644 27.8119 37.2891 27.1283 36.5166 26.9636L40.9627 9.17423C41.1271 8.5236 40.7326 7.84827 40.0752 7.68355ZM8.42625 10.2778L19.3402 6.86821L18.5266 10.1214H14.7462C14.1709 10.1214 13.6942 10.5908 13.6942 11.1755V24.4022H12.8149L8.42625 10.2778ZM33.5662 11.4638V26.9306H21.2633C21.1565 26.9306 21.0579 26.8812 20.9921 26.8071L19.406 24.9705C19.0855 24.5917 18.6088 24.3775 18.1075 24.3775L15.0502 24.3858V11.4638H33.5662ZM36.5166 43.287C36.5166 43.4846 36.3522 43.6493 36.155 43.6493H11.8615C11.6643 43.6493 11.4999 43.4846 11.4999 43.287V26.1071C11.5164 25.6541 12.0095 25.7529 12.3135 25.7447C13.5792 25.7447 16.8008 25.7282 18.1075 25.72C18.2143 25.72 18.3129 25.7612 18.3869 25.8435L19.973 27.6801C20.3018 28.0589 20.7702 28.2731 21.2633 28.2731H36.155C36.3605 28.2731 36.5166 28.4296 36.5166 28.6354V43.287ZM35.1359 26.9306H34.914V11.1673C34.914 10.5908 34.4456 10.1131 33.8621 10.1131H19.9155C20.2032 8.9601 21.0743 5.47635 21.3537 4.38099L39.6314 8.96834L35.1359 26.9306Z" fill="current"/>
<path fill-rule="evenodd" clip-rule="evenodd" d="M17.2062 16.0923C17.2062 15.7284 17.5006 15.4334 17.8637 15.4334H30.1364C30.4995 15.4334 30.7939 15.7284 30.7939 16.0923C30.7939 16.4562 30.4995 16.7512 30.1364 16.7512H17.8637C17.5006 16.7512 17.2062 16.4562 17.2062 16.0923Z" fill="current"/>
<path fill-rule="evenodd" clip-rule="evenodd" d="M17.2062 21.3632C17.2062 20.9993 17.5006 20.7044 17.8637 20.7044L26.6299 20.7044C26.993 20.7044 27.2874 20.9993 27.2874 21.3632C27.2874 21.7271 26.993 22.0221 26.6299 22.0221L17.8637 22.0221C17.5006 22.0221 17.2062 21.7271 17.2062 21.3632Z" fill="current"/>
</svg>
