<svg width="64" height="64" viewBox="0 0 64 64" fill="none" xmlns="http://www.w3.org/2000/svg">
<g clip-path="url(#clip0_5731_91824)">
<path d="M7.40115 26.9175L4.0249 30.3038H7.40115V26.9175Z" fill="#088FAF"/>
<path d="M56.5913 26.9175L59.9688 30.3038H56.5913V26.9175Z" fill="#088FAF"/>
<path d="M56.6326 13.6612C56.6325 13.3298 56.5008 13.0119 56.2663 12.7775L43.8388 0.349999C43.6045 0.115563 43.2866 -0.0161798 42.9551 -0.0162506H8.65259C8.32107 -0.0162506 8.00312 0.115445 7.7687 0.349866C7.53428 0.584286 7.40259 0.902229 7.40259 1.23375V62.7337C7.40259 63.0653 7.53428 63.3832 7.7687 63.6176C8.00312 63.8521 8.32107 63.9837 8.65259 63.9837H55.3826C55.7141 63.9837 56.0321 63.8521 56.2665 63.6176C56.5009 63.3832 56.6326 63.0653 56.6326 62.7337V13.6612Z" fill="#F1F1F1"/>
<path d="M56.5913 13.35C56.5368 13.1333 56.4245 12.9354 56.2663 12.7775L43.8388 0.349999C43.6045 0.115563 43.2866 -0.0161798 42.9551 -0.0162506V11.8488C42.9551 12.2466 43.1131 12.6281 43.3944 12.9094C43.6757 13.1907 44.0573 13.3488 44.4551 13.3488L56.5913 13.35Z" fill="#CCCCCC"/>
<path d="M56.5913 13.35H44.4563C44.0585 13.35 43.6769 13.192 43.3956 12.9107C43.1143 12.6294 42.9563 12.2478 42.9563 11.85V13.1187C42.9563 13.9475 43.4713 14.9937 44.5038 14.9937H56.6288V13.6613C56.6368 13.556 56.624 13.4503 56.5913 13.35Z" fill="#E8E8E8"/>
<path d="M59.0138 51.5212H4.98633C4.65481 51.5212 4.33687 51.3896 4.10244 51.1551C3.86802 50.9207 3.73633 50.6028 3.73633 50.2712V31.1038C3.73633 30.7722 3.86802 30.4543 4.10244 30.2199C4.33687 29.9854 4.65481 29.8538 4.98633 29.8538H59.0138C59.3454 29.8538 59.6633 29.9854 59.8977 30.2199C60.1321 30.4543 60.2638 30.7722 60.2638 31.1038V50.27C60.264 50.4343 60.2318 50.5969 60.169 50.7487C60.1063 50.9005 60.0143 51.0385 59.8982 51.1547C59.7821 51.2709 59.6442 51.3631 59.4925 51.426C59.3407 51.4889 59.1781 51.5212 59.0138 51.5212Z" fill="#29ABE1"/>
<path d="M7.40137 51.5213H56.6326V53.1425H7.40137V51.5213Z" fill="#E0E0E0"/>
<path d="M14.935 45.5312C14.8383 45.4254 14.7641 45.301 14.7169 45.1656C14.6696 45.0303 14.6502 44.8868 14.66 44.7438V38.0525C14.6436 37.909 14.6599 37.7637 14.7075 37.6273C14.7551 37.491 14.8329 37.3671 14.935 37.265C15.0371 37.1629 15.161 37.0851 15.2973 37.0375C15.4337 36.9899 15.579 36.9737 15.7225 36.99H18.25C19.2266 36.99 20.0666 37.1671 20.77 37.5213C21.4525 37.8524 22.019 38.3823 22.395 39.0412C22.77 39.7004 22.9575 40.4842 22.9575 41.3925C22.9575 42.3008 22.7721 43.0925 22.4012 43.7675C22.0325 44.4278 21.4689 44.9582 20.7875 45.2862C20.0841 45.6362 19.24 45.8112 18.255 45.8112H15.7225C15.5791 45.8201 15.4354 45.7998 15.3001 45.7517C15.1648 45.7036 15.0406 45.6286 14.935 45.5312ZM18.0862 43.9562C18.9454 43.9562 19.5896 43.7454 20.0187 43.3237C20.4479 42.9021 20.6625 42.2583 20.6625 41.3925C20.6625 40.525 20.4479 39.8829 20.0187 39.4662C19.5896 39.0496 18.9454 38.8412 18.0862 38.8412H16.9612V43.9562H18.0862Z" fill="white"/>
<path d="M26.1725 45.3625C25.5174 45.0003 24.9841 44.4523 24.64 43.7875C24.2861 43.0387 24.1025 42.2207 24.1025 41.3925C24.1025 40.5643 24.2861 39.7463 24.64 38.9975C24.9833 38.3334 25.5169 37.7867 26.1725 37.4275C26.9013 37.0657 27.7039 36.8775 28.5175 36.8775C29.3311 36.8775 30.1337 37.0657 30.8625 37.4275C31.5172 37.7866 32.0486 38.3346 32.3875 39C32.7385 39.7498 32.9199 40.5678 32.9188 41.3957C32.9177 42.2236 32.7342 43.0411 32.3812 43.79C32.0371 44.4548 31.5039 45.0028 30.8487 45.365C30.1239 45.7316 29.3229 45.9226 28.5106 45.9226C27.6983 45.9226 26.8974 45.7316 26.1725 45.365V45.3625ZM30.08 43.45C30.455 42.9783 30.6425 42.2925 30.6425 41.3925C30.6425 40.4925 30.4529 39.8088 30.0737 39.3413C29.6954 38.8738 29.1767 38.6404 28.5175 38.6413C27.8583 38.6421 27.3371 38.8733 26.9537 39.335C26.5787 39.7975 26.3912 40.4833 26.3912 41.3925C26.3912 42.3017 26.5787 42.9896 26.9537 43.4562C27.3287 43.9229 27.85 44.1562 28.5175 44.1562C29.185 44.1562 29.7058 43.9208 30.08 43.45Z" fill="white"/>
<path d="M36.1399 45.375C35.4819 45.0145 34.9463 44.4662 34.6011 43.8C34.2432 43.0523 34.0574 42.2339 34.0574 41.405C34.0574 40.5761 34.2432 39.7577 34.6011 39.01C34.9466 38.3437 35.4821 37.7951 36.1399 37.4337C36.9415 37.0283 37.8359 36.8413 38.7328 36.8918C39.6298 36.9423 40.4976 37.2284 41.2486 37.7212C41.3744 37.8045 41.4792 37.9158 41.5549 38.0462C41.6224 38.1864 41.6545 38.3408 41.6486 38.4962C41.6553 38.7343 41.5779 38.9671 41.4299 39.1538C41.3681 39.2368 41.2878 39.3044 41.1954 39.351C41.103 39.3977 41.0009 39.4222 40.8974 39.4225C40.7824 39.4242 40.6681 39.4051 40.5599 39.3662C40.4376 39.3174 40.3203 39.2567 40.2099 39.185C39.9521 39.0251 39.6748 38.899 39.3849 38.81C39.1249 38.7348 38.8555 38.6969 38.5849 38.6975C37.8424 38.6975 37.2899 38.9204 36.9274 39.3662C36.5649 39.8121 36.3836 40.4896 36.3836 41.3988C36.3836 42.3154 36.5649 42.9971 36.9274 43.4437C37.2899 43.8904 37.8424 44.1133 38.5849 44.1125C38.8318 44.1109 39.0767 44.0687 39.3099 43.9875C39.5436 43.9087 39.8436 43.785 40.2099 43.6188C40.3849 43.5263 40.5149 43.4638 40.5974 43.43C40.6935 43.3954 40.7952 43.3789 40.8974 43.3812C41.001 43.3813 41.1031 43.4056 41.1956 43.4523C41.2881 43.499 41.3683 43.5667 41.4299 43.65C41.5779 43.8361 41.6553 44.0686 41.6486 44.3063C41.6533 44.4595 41.6212 44.6117 41.5549 44.75C41.4809 44.8834 41.3759 44.9971 41.2486 45.0812C40.4294 45.6462 39.4535 45.9396 38.4586 45.92C37.6518 45.9403 36.8532 45.7527 36.1399 45.375Z" fill="white"/>
<path d="M50.0776 44.8312C50.0785 44.9726 50.0495 45.1125 49.9924 45.2418C49.9353 45.371 49.8514 45.4867 49.7463 45.5812C49.6492 45.6822 49.5327 45.7625 49.4039 45.8175C49.275 45.8725 49.1364 45.901 48.9963 45.9012C48.8492 45.9002 48.7042 45.8659 48.5722 45.8009C48.4402 45.736 48.3245 45.6421 48.2338 45.5262L46.0826 42.95L43.9001 45.5187C43.8111 45.6334 43.6975 45.7266 43.5677 45.7915C43.4379 45.8564 43.2952 45.8913 43.1501 45.8937C43.0095 45.8931 42.8705 45.8638 42.7416 45.8078C42.6126 45.7517 42.4964 45.6699 42.4001 45.5675C42.2959 45.4723 42.2127 45.3564 42.1557 45.2273C42.0987 45.0982 42.0691 44.9586 42.0688 44.8175C42.0719 44.5682 42.1651 44.3284 42.3313 44.1425L44.7326 41.3662L42.3938 38.6525C42.2233 38.4678 42.1256 38.2275 42.1189 37.9763C42.1188 37.836 42.1483 37.6973 42.2054 37.5691C42.2624 37.441 42.3458 37.3263 42.4501 37.2325C42.5489 37.1318 42.6668 37.0517 42.7968 36.997C42.9269 36.9423 43.0665 36.914 43.2076 36.9137C43.3546 36.9153 43.4995 36.9498 43.6314 37.0147C43.7634 37.0796 43.8791 37.1732 43.9701 37.2887L46.0839 39.7887L48.1851 37.2887C48.2697 37.1725 48.3807 37.0779 48.5088 37.0127C48.637 36.9476 48.7788 36.9136 48.9226 36.9137C49.0635 36.914 49.2029 36.9423 49.3328 36.9971C49.4626 37.0518 49.5803 37.1318 49.6788 37.2325C49.7831 37.3263 49.8665 37.441 49.9236 37.5691C49.9807 37.6973 50.0101 37.836 50.0101 37.9763C50.0073 38.226 49.914 38.4663 49.7476 38.6525L47.4088 41.3662L49.7976 44.1425C49.9745 44.3285 50.0745 44.5746 50.0776 44.8312Z" fill="white"/>
</g>
<defs>
<clipPath id="clip0_5731_91824">
<rect width="64" height="64" fill="white"/>
</clipPath>
</defs>
</svg>
