<svg width="24" height="24" viewBox="0 0 24 24" fill="none" xmlns="http://www.w3.org/2000/svg">
<path fill-rule="evenodd" clip-rule="evenodd" d="M11.9995 3C12.4137 3 12.7495 3.33579 12.7495 3.75V13.1896L16.7202 9.21968C17.0132 8.92681 17.488 8.92686 17.7809 9.21978C18.0738 9.5127 18.0737 9.98758 17.7808 10.2804L12.5298 15.5304C12.2369 15.8232 11.762 15.8232 11.4692 15.5303L6.22014 10.2803C5.92727 9.98742 5.92731 9.51255 6.22023 9.21968C6.51315 8.92682 6.98802 8.92686 7.28089 9.21978L11.2495 13.1891V3.75C11.2495 3.33579 11.5853 3 11.9995 3ZM3.75 14.25C4.16421 14.25 4.5 14.5858 4.5 15V18.2558C4.5 18.6074 4.62862 18.9328 4.83984 19.1633C5.04905 19.3915 5.31811 19.5058 5.58333 19.5058H18.4167C18.6819 19.5058 18.951 19.3915 19.1602 19.1633C19.3714 18.9328 19.5 18.6074 19.5 18.2558V15C19.5 14.5858 19.8358 14.25 20.25 14.25C20.6642 14.25 21 14.5858 21 15V18.2558C21 18.9651 20.7423 19.6571 20.2659 20.1768C19.7875 20.6988 19.1239 21.0058 18.4167 21.0058H5.58333C4.87609 21.0058 4.21253 20.6988 3.73411 20.1768C3.25769 19.6571 3 18.9651 3 18.2558V15C3 14.5858 3.33579 14.25 3.75 14.25Z" fill="#646464"/>
</svg>
