<svg width="16" height="16" viewBox="0 0 16 16" fill="current" xmlns="http://www.w3.org/2000/svg">
<path fill-rule="evenodd" clip-rule="evenodd" d="M11.6 3.15055C11.4216 3.15055 11.2504 3.21851 11.1243 3.33948L3.74179 10.4177L3.42463 11.6341L4.69326 11.33L12.0757 4.25174C12.1382 4.19184 12.1878 4.12073 12.2216 4.04247C12.2554 3.96421 12.2728 3.88032 12.2728 3.79561C12.2728 3.7109 12.2554 3.62702 12.2216 3.54876C12.1878 3.47049 12.1382 3.39938 12.0757 3.33948C12.0133 3.27958 11.9391 3.23207 11.8575 3.19965C11.7758 3.16723 11.6884 3.15055 11.6 3.15055ZM10.2757 2.52592C10.627 2.18918 11.1033 2 11.6 2C11.8459 2 12.0895 2.04644 12.3167 2.13668C12.5439 2.22692 12.7504 2.35919 12.9243 2.52592C13.0982 2.69266 13.2361 2.89061 13.3302 3.10846C13.4244 3.32631 13.4728 3.55981 13.4728 3.79561C13.4728 4.03142 13.4244 4.26491 13.3302 4.48276C13.2361 4.70062 13.0982 4.89857 12.9243 5.0653L5.42427 12.2562C5.34738 12.3299 5.25103 12.3822 5.14553 12.4075L2.74553 12.9828C2.54107 13.0318 2.32478 12.9744 2.17575 12.8315C2.02672 12.6886 1.96681 12.4812 2.01793 12.2852L2.61793 9.9841C2.6443 9.88294 2.69885 9.79057 2.77575 9.71684L10.2757 2.52592ZM7.40001 12.4247C7.40001 12.107 7.66864 11.8494 8.00001 11.8494H13.4C13.7314 11.8494 14 12.107 14 12.4247C14 12.7424 13.7314 13 13.4 13H8.00001C7.66864 13 7.40001 12.7424 7.40001 12.4247Z" fill="rgba(42, 126, 249, 1)"/>
</svg>