<svg width="24" height="24" viewBox="0 0 24 24" fill="current" xmlns="http://www.w3.org/2000/svg">
<path fill-rule="evenodd" clip-rule="evenodd" d="M12 1C18.071 1 23 5.92902 23 12C23 18.071 18.071 23 12 23C5.92902 23 1 18.071 1 12C1 5.92902 5.92902 1 12 1ZM6.37209 12.2558C5.94847 12.2558 5.60465 12.5996 5.60465 13.0233C5.60465 16.5525 8.47079 19.4186 12 19.4186C15.5292 19.4186 18.3953 16.5525 18.3953 13.0233C18.3953 12.5996 18.0515 12.2558 17.6279 12.2558H6.37209ZM15.0196 9.54419C15.3184 9.31907 15.6899 9.18605 16.093 9.18605C16.4962 9.18605 16.8676 9.31907 17.1664 9.54419C17.5051 9.79898 17.9871 9.73042 18.2419 9.39172C18.4956 9.05302 18.4281 8.57209 18.0894 8.3173C17.5327 7.89879 16.842 7.65116 16.093 7.65116C15.344 7.65116 14.6533 7.89879 14.0967 8.3173C13.758 8.57209 13.6904 9.05302 13.9442 9.39172C14.199 9.73042 14.6809 9.79898 15.0196 9.54419ZM6.83358 9.54419C7.13237 9.31907 7.50381 9.18605 7.90698 9.18605C8.31014 9.18605 8.68158 9.31907 8.98037 9.54419C9.31907 9.79898 9.80102 9.73042 10.0558 9.39172C10.3096 9.05302 10.242 8.57209 9.90335 8.3173C9.3467 7.89879 8.656 7.65116 7.90698 7.65116C7.15795 7.65116 6.46726 7.89879 5.9106 8.3173C5.57191 8.57209 5.50437 9.05302 5.75814 9.39172C6.01293 9.73042 6.49488 9.79898 6.83358 9.54419Z" fill="current"/>
</svg>
