<svg width="150" height="150" viewBox="0 0 150 150" fill="none" xmlns="http://www.w3.org/2000/svg">
<rect width="150" height="150" fill="white"/>
<path fill-rule="evenodd" clip-rule="evenodd" d="M8 78C8 76.3431 9.34315 75 11 75H31.5571C34.7997 75 37.7216 76.9574 38.9554 79.9561L45.8696 96.761C46.178 97.5107 46.9085 98 47.7191 98H101.783C102.593 98 103.324 97.5107 103.632 96.761L110.547 79.9561C111.78 76.9574 114.702 75 117.945 75H139C140.657 75 142 76.3431 142 78C142 79.6569 140.657 81 139 81H117.945C117.134 81 116.404 81.4893 116.095 82.239L109.181 99.0439C107.947 102.043 105.025 104 101.783 104H47.7191C44.4765 104 41.5546 102.043 40.3209 99.0439L33.4067 82.239C33.0983 81.4893 32.3678 81 31.5571 81H11C9.34315 81 8 79.6569 8 78Z" fill="#D9D9D9"/>
<path fill-rule="evenodd" clip-rule="evenodd" d="M30.1126 25.6769C32.2092 21.0055 36.8525 18 41.9728 18H108.027C113.147 18 117.791 21.0055 119.887 25.6769L141.86 74.6333C142.612 76.3073 143 78.1215 143 79.9564V119C143 126.18 137.18 132 130 132H20C12.8203 132 7 126.18 7 119V79.9564C7 78.1215 7.38845 76.3073 8.13981 74.6333L30.1126 25.6769ZM41.9728 24C39.2157 24 36.7155 25.6184 35.5865 28.1337L13.6137 77.0901C13.2092 77.9915 13 78.9684 13 79.9564V119C13 122.866 16.134 126 20 126H130C133.866 126 137 122.866 137 119V79.9564C137 78.9684 136.791 77.9915 136.386 77.0901L114.413 28.1337C113.285 25.6184 110.784 24 108.027 24H41.9728Z" fill="#D9D9D9"/>
<path fill-rule="evenodd" clip-rule="evenodd" d="M70.8606 51.0042L56.8887 64.9774C54.1759 67.7195 58.2888 71.8327 61.0015 69.0906L74.9735 55.1174L88.9746 69.1197C91.6873 71.8035 95.8585 67.7486 93.0874 65.0065L79.0863 51.0042L93.0874 37.0019C95.8293 34.289 91.7165 30.1758 88.9746 32.8887L74.9735 46.891L61.0015 32.9179C58.2888 30.1757 54.1759 34.3181 56.8887 37.031L70.8606 51.0042Z" fill="#ADADAD"/>
<path fill-rule="evenodd" clip-rule="evenodd" d="M38.9297 8.85938C40.5477 8.85938 41.8594 7.54771 41.8594 5.92969C41.8594 4.31167 40.5477 3 38.9297 3C37.3117 3 36 4.31167 36 5.92969C36 7.54771 37.3117 8.85938 38.9297 8.85938ZM129.789 13.3945C129.789 15.8216 127.822 17.7891 125.395 17.7891C122.967 17.7891 121 15.8216 121 13.3945C121 10.9675 122.967 9 125.395 9C127.822 9 129.789 10.9675 129.789 13.3945ZM8.39453 28.7891C10.8216 28.7891 12.7891 26.8216 12.7891 24.3945C12.7891 21.9675 10.8216 20 8.39453 20C5.9675 20 4 21.9675 4 24.3945C4 26.8216 5.9675 28.7891 8.39453 28.7891ZM118.395 145.789C120.822 145.789 122.789 143.822 122.789 141.395C122.789 138.967 120.822 137 118.395 137C115.967 137 114 138.967 114 141.395C114 143.822 115.967 145.789 118.395 145.789ZM137.93 46.8594C139.548 46.8594 140.859 45.5477 140.859 43.9297C140.859 42.3117 139.548 41 137.93 41C136.312 41 135 42.3117 135 43.9297C135 45.5477 136.312 46.8594 137.93 46.8594ZM131.859 137.93C131.859 139.548 130.548 140.859 128.93 140.859C127.312 140.859 126 139.548 126 137.93C126 136.312 127.312 135 128.93 135C130.548 135 131.859 136.312 131.859 137.93ZM9.85938 61.9297C9.85938 63.5477 8.54771 64.8594 6.92969 64.8594C5.31167 64.8594 4 63.5477 4 61.9297C4 60.3117 5.31167 59 6.92969 59C8.54771 59 9.85938 60.3117 9.85938 61.9297Z" fill="#D9D9D9"/>
</svg>
