<svg width="48" height="48" viewBox="0 0 48 48" fill="current" xmlns="http://www.w3.org/2000/svg">
<path d="M41.1796 39.9309C41.6328 39.9309 42 39.6162 42 39.2278V36.5616C42 33.4098 39.5006 30.7027 35.922 29.9785L27.9667 28.3682V26.1872C30.7265 24.8915 32.6432 22.4349 32.8155 19.5891H33.776C35.6907 19.5891 37.2483 18.2541 37.2483 16.6131C37.2483 15.3539 36.3307 14.2757 35.0388 13.8417V7.90031C35.0388 5.07562 32.4221 2.76487 29.1571 2.65538L28.4963 2.06822C27.7552 1.41019 26.8825 0.895594 25.9028 0.538969C24.9222 0.181406 23.8834 0 22.8153 0C20.1567 0 17.5982 0.833156 15.6112 2.34581C15.2724 2.60372 15.2418 3.04809 15.5426 3.33844C15.8434 3.62888 16.362 3.65512 16.7007 3.39722C18.3873 2.11331 20.5588 1.40625 22.8153 1.40625C23.6613 1.40625 24.484 1.54978 25.2609 1.83319C26.0371 2.11575 26.7284 2.52338 27.3155 3.04472L28.2135 3.84262C28.3681 3.97997 28.5812 4.05759 28.8039 4.05759H28.9144C31.3868 4.05759 33.398 5.78147 33.398 7.90031V13.6373H32.4269L29.4682 10.1346C29.2601 9.88828 28.8911 9.78487 28.5533 9.87731L14.8634 13.6373H13.6019V9.30281C13.6019 8.06428 13.9272 6.87881 14.5686 5.77913C14.7713 5.43178 14.607 5.00944 14.2018 4.83581C13.7964 4.662 13.3037 4.80291 13.1011 5.15025C12.3447 6.447 11.9612 7.84406 11.9612 9.30281V13.8418C10.6693 14.2758 9.75172 15.354 9.75172 16.6131C9.75172 18.2541 11.3093 19.5891 13.224 19.5891H14.1845C14.3568 22.4349 16.2735 24.8915 19.0333 26.1872V28.3682L11.0781 29.9785C7.49941 30.7027 5.00011 33.4098 5.00011 36.5616V39.2277C5.00011 39.6161 5.36742 39.9308 5.82048 39.9308C6.27355 39.9308 6.64086 39.6161 6.64086 39.2277V36.5616C6.64086 34.065 8.62059 31.9207 11.4553 31.3471L15.6221 30.5036C15.7365 31.0558 15.9298 31.5931 16.1975 32.1042H15.1025C13.188 32.1042 11.6303 33.4392 11.6303 35.0802V43.942H11.3457C10.4058 43.942 9.64124 44.5972 9.64124 45.4027V46.5392C9.64124 46.5576 9.64365 46.5755 9.64442 46.5937H6.64075V42.509C6.64075 42.1206 6.27344 41.8058 5.82037 41.8058C5.36731 41.8058 5 42.1206 5 42.509V47.2968C5 47.6852 5.36731 47.9999 5.82037 47.9999H41.1796C41.6328 47.9999 42 47.6852 42 47.2968V42.509C42 42.1206 41.6328 41.8058 41.1796 41.8058C40.7265 41.8058 40.3593 42.1206 40.3593 42.509V46.5938H37.3556C37.3564 46.5756 37.3588 46.5577 37.3588 46.5393V45.4028C37.3588 44.5973 36.5943 43.9421 35.6545 43.9421H35.3698V35.0803C35.3698 33.4393 33.8122 32.1043 31.8976 32.1043H30.8026C31.0703 31.5932 31.2636 31.0559 31.3779 30.5037L35.5447 31.3472C38.3794 31.9208 40.3591 34.0651 40.3591 36.5617V39.2278C40.3593 39.6161 40.7265 39.9309 41.1796 39.9309ZM35.6075 16.6132C35.6075 17.4787 34.7858 18.1829 33.776 18.1829H32.8284V15.0435H33.776C34.786 15.0435 35.6075 15.7477 35.6075 16.6132ZM11.3925 16.6132C11.3925 15.7477 12.214 15.0435 13.224 15.0435H14.1716V18.1829H13.224C12.214 18.1829 11.3925 17.4787 11.3925 16.6132ZM15.8122 19.1701V14.8534L28.4879 11.3719L31.1877 14.5681V19.17C31.1877 22.8032 27.739 25.759 23.5 25.759C19.261 25.759 15.8122 22.8033 15.8122 19.1701ZM23.5 27.1655C24.4849 27.1655 25.434 27.033 26.3259 26.7894V29.3034C26.3259 30.6389 25.0582 31.7255 23.5 31.7255C21.9417 31.7255 20.6741 30.6389 20.6741 29.3034V26.7894C21.566 27.033 22.5151 27.1655 23.5 27.1655ZM17.2212 30.1799L19.0728 29.8051C19.2114 30.708 19.7179 31.5126 20.4594 32.1042H18.0445C17.6291 31.5118 17.35 30.8591 17.2212 30.1799ZM35.718 45.4028V46.5393C35.718 46.5693 35.6895 46.5938 35.6545 46.5938H11.3455C11.3104 46.5938 11.2819 46.5693 11.2819 46.5393V45.4028C11.2819 45.3728 11.3104 45.3484 11.3455 45.3484H35.6545C35.6895 45.3484 35.718 45.3728 35.718 45.4028ZM33.7292 35.0802V43.942H13.2709V35.0802C13.2709 34.2147 14.0925 33.5105 15.1024 33.5105H31.8977C32.9075 33.5105 33.7292 34.2147 33.7292 35.0802ZM28.9555 32.1042H26.5405C27.282 31.5125 27.7885 30.7079 27.9271 29.8051L29.7788 30.1799C29.65 30.8591 29.3709 31.5119 28.9555 32.1042Z" fill="current"/>
<path d="M24.6046 40.655C24.7651 40.8442 25.0151 40.9447 25.2686 40.9447C25.436 40.9446 25.6049 40.9009 25.7505 40.81L28.1813 39.2947C28.3935 39.1625 28.5192 38.9511 28.5192 38.7262C28.5192 38.5012 28.3936 38.2898 28.1813 38.1576L25.7505 36.6424C25.3841 36.414 24.8711 36.4833 24.6044 36.7974C24.3379 37.1115 24.419 37.5512 24.7854 37.7797L26.3039 38.7262L24.7854 39.6729C24.4189 39.9012 24.338 40.341 24.6046 40.655Z" fill="current"/>
<path d="M18.8187 39.2949L21.2497 40.8102C21.3954 40.9011 21.5641 40.9449 21.7315 40.9449C21.985 40.9448 22.2351 40.8444 22.3957 40.6552C22.6622 40.3411 22.5812 39.9014 22.2147 39.6729L20.6962 38.7263L22.2147 37.7797C22.5812 37.5512 22.6622 37.1115 22.3957 36.7974C22.1293 36.4834 21.6162 36.4139 21.2497 36.6424L18.8187 38.1576C18.6065 38.2899 18.4808 38.5013 18.4808 38.7262C18.4808 38.9511 18.6064 39.1626 18.8187 39.2949Z" fill="current"/>
</svg>
