<svg width="80" height="80" viewBox="0 0 80 80" fill="none" xmlns="http://www.w3.org/2000/svg">
<path d="M40 76C59.8823 76 76 59.8823 76 40C76 20.1178 59.8823 4 40 4C20.1178 4 4 20.1178 4 40C4 59.8823 20.1178 76 40 76Z" fill="url(#paint0_linear_2848_50607)"/>
<path opacity="0.4" d="M24.896 56.2397L44.3156 75.6593C60.6689 73.7287 73.6152 60.8959 75.6594 44.5426L56.1263 25.0095L24.896 56.2397Z" fill="url(#paint1_linear_2848_50607)"/>
<path d="M57.0345 47.9495C58.6244 49.5394 58.6244 52.265 57.0345 53.8549L53.8547 57.0347C52.2648 58.6246 49.5393 58.6246 47.9494 57.0347L22.9651 32.0505C21.3752 30.4606 21.3752 27.735 22.9651 26.1451L26.2585 22.8517C27.8484 21.2618 30.574 21.2618 32.1639 22.8517L57.0345 47.9495Z" fill="white"/>
<path d="M43.8611 34.6625L34.6624 43.8612L47.9494 57.0347C49.5393 58.6246 52.2649 58.6246 53.8548 57.0347L57.1482 53.7413C58.7381 52.1514 58.7381 49.4259 57.1482 47.836L43.8611 34.6625Z" fill="#D6D6D6"/>
<path d="M47.9494 22.9653C49.5393 21.3754 52.2648 21.3754 53.8547 22.9653L57.1481 26.2587C58.738 27.8486 58.738 30.5741 57.1481 32.164L32.0503 57.0347C30.4604 58.6246 27.7348 58.6246 26.1449 57.0347L22.9651 53.8549C21.3752 52.265 21.3752 49.5394 22.9651 47.9495L47.9494 22.9653Z" fill="white"/>
<defs>
<linearGradient id="paint0_linear_2848_50607" x1="4" y1="40" x2="76" y2="40" gradientUnits="userSpaceOnUse">
<stop stop-color="#F46868"/>
<stop offset="0.515625" stop-color="#E22D2D"/>
<stop offset="1" stop-color="#C70505"/>
<stop offset="1" stop-color="#C70505"/>
</linearGradient>
<linearGradient id="paint1_linear_2848_50607" x1="38.5" y1="41.5" x2="66" y2="66" gradientUnits="userSpaceOnUse">
<stop/>
<stop offset="1" stop-opacity="0"/>
</linearGradient>
</defs>
</svg>
