<svg width="12" height="12" viewBox="0 0 12 12" fill="none" xmlns="http://www.w3.org/2000/svg">
<path d="M2.656 2.02971C2.48306 1.85676 2.20266 1.85676 2.02971 2.02971C1.85676 2.20266 1.85676 2.48306 2.02971 2.656L5.37371 6L2.02971 9.344C1.85676 9.51694 1.85676 9.79734 2.02971 9.97029C2.20266 10.1432 2.48306 10.1432 2.656 9.97029L6 6.62629L9.344 9.97029C9.51694 10.1432 9.79734 10.1432 9.97029 9.97029C10.1432 9.79734 10.1432 9.51694 9.97029 9.344L6.62629 6L9.97029 2.656C10.1432 2.48306 10.1432 2.20266 9.97029 2.02971C9.79734 1.85676 9.51694 1.85676 9.344 2.02971L6 5.37371L2.656 2.02971Z" fill="#DE2D2D" stroke="#DE2D2D" stroke-width="0.2" stroke-linecap="round"/>
</svg>
