<svg xmlns="http://www.w3.org/2000/svg" width="48" height="48" viewBox="0 0 48 48" fill="current">
<path d="M43.0909 25.8946C42.5181 25.8946 42.1363 26.2736 42.1363 26.842V39.1579C42.1363 39.7263 41.7545 40.1052 41.1818 40.1052H6.81812C6.24538 40.1052 5.86361 39.7262 5.86361 39.1579V26.842C5.86361 26.2735 5.48175 25.8946 4.90909 25.8946C4.33643 25.8946 3.95457 26.2736 3.95457 26.842V39.1579C3.95457 40.7684 5.19546 42 6.8182 42H41.1818C42.8046 42 44.0455 40.7684 44.0455 39.1579V26.842C44.0455 26.2735 43.6636 25.8946 43.0909 25.8946Z" fill="current"/>
<path d="M42.1364 12.6312H5.86363C4.24089 12.6312 3 13.8628 3 15.4733V21.5365C3 22.8628 3.95452 23.9997 5.19548 24.2839L20.1819 27.5997V30.6313C20.1819 31.1997 20.5637 31.5786 21.1364 31.5786H26.8636C27.4364 31.5786 27.8181 31.1996 27.8181 30.6313V27.5997L42.8045 24.2839C44.0455 23.9997 45 22.8628 45 21.5365V15.4732C45 13.8628 43.7591 12.6312 42.1364 12.6312ZM25.9091 29.6839H22.091V25.8944H25.9091V29.6839ZM43.0909 21.5365C43.0909 22.0101 42.8045 22.3891 42.3273 22.4838L27.8181 25.7049V24.947C27.8181 24.3786 27.4363 23.9997 26.8636 23.9997H21.1364C20.5636 23.9997 20.1819 24.3787 20.1819 24.947V25.7049L5.67274 22.4839C5.19548 22.3891 4.90911 22.0102 4.90911 21.5365V15.4733C4.90911 14.9049 5.29097 14.526 5.86363 14.526H42.1364C42.7091 14.526 43.0909 14.905 43.0909 15.4733V21.5365Z" fill="current"/>
<path d="M28.7728 6H19.2273C17.6046 6 16.3637 7.23157 16.3637 8.84212V9.78946C16.3637 10.3579 16.7456 10.7368 17.3182 10.7368C17.8909 10.7368 18.2728 10.3578 18.2728 9.78946V8.84212C18.2728 8.27368 18.6546 7.89477 19.2273 7.89477H28.7728C29.3455 7.89477 29.7273 8.27376 29.7273 8.84212V9.78946C29.7273 10.3579 30.1091 10.7368 30.6818 10.7368C31.2545 10.7368 31.6363 10.3578 31.6363 9.78946V8.84212C31.6365 7.23157 30.3956 6 28.7728 6Z" fill="current"/>
<path fill-rule="evenodd" clip-rule="evenodd" d="M20.4391 10.4073C20.4391 9.95683 20.807 9.59169 21.2609 9.59169L26.7391 9.59169C27.193 9.59169 27.5609 9.95683 27.5609 10.4073C27.5609 10.8577 27.193 11.2228 26.7391 11.2228L21.2609 11.2228C20.807 11.2228 20.4391 10.8577 20.4391 10.4073Z" fill="current"/>
</svg>