<svg width="24" height="24" viewBox="0 0 24 24" fill="current" xmlns="http://www.w3.org/2000/svg">
<path d="M1.64453 6.62891C2.00048 6.62891 2.28906 6.34033 2.28906 5.98438V2.28906H5.98438C6.34033 2.28906 6.62891 2.00048 6.62891 1.64453C6.62891 1.28858 6.34033 1 5.98438 1H1.64453C1.28858 1 1 1.28858 1 1.64453V5.98438C1 6.34033 1.28858 6.62891 1.64453 6.62891Z" fill="current"/>
<path d="M5.98438 21.7109H2.28906V18.0156C2.28906 17.6597 2.00048 17.3711 1.64453 17.3711C1.28858 17.3711 1 17.6597 1 18.0156V22.3555C1 22.7114 1.28858 23 1.64453 23H5.98438C6.34033 23 6.62891 22.7114 6.62891 22.3555C6.62891 21.9995 6.34033 21.7109 5.98438 21.7109Z" fill="current"/>
<path d="M22.3555 17.3711C21.9995 17.3711 21.7109 17.6597 21.7109 18.0156V21.7109H18.0156C17.6597 21.7109 17.3711 21.9995 17.3711 22.3555C17.3711 22.7114 17.6597 23 18.0156 23H22.3555C22.7114 23 23 22.7114 23 22.3555V18.0156C23 17.6597 22.7114 17.3711 22.3555 17.3711Z" fill="current"/>
<path d="M22.3555 1H18.0156C17.6597 1 17.3711 1.28858 17.3711 1.64453C17.3711 2.00048 17.6597 2.28906 18.0156 2.28906H21.7109V5.98438C21.7109 6.34033 21.9995 6.62891 22.3555 6.62891C22.7114 6.62891 23 6.34033 23 5.98438V1.64453C23 1.28858 22.7114 1 22.3555 1Z" fill="current"/>
<path d="M20.0628 19.5149C20.1839 19.3918 20.2506 19.2253 20.2479 19.0526L20.186 15.1316C19.8162 15.3446 19.388 15.4672 18.9315 15.4672H17.4803C16.8483 17.9032 14.6309 19.7073 12 19.7073H19.6034C19.7761 19.7073 19.9416 19.638 20.0628 19.5149Z" fill="current"/>
<path d="M5.06849 10.4238H6.44641C6.49059 10.2006 6.54812 9.98007 6.61936 9.76312C6.7062 9.49856 6.95327 9.31968 7.23171 9.31968H8.36377C9.80468 9.31972 11.3555 8.54491 11.3555 6.84374C11.3555 6.48778 11.6441 6.1992 12 6.1992C12.356 6.1992 12.6446 6.48778 12.6446 6.84374C12.6446 8.03625 13.5808 9.31972 15.6363 9.31972H16.7683C17.0468 9.31972 17.2938 9.49856 17.3807 9.76307C17.4519 9.98002 17.5094 10.2006 17.5537 10.4238H18.9316C19.356 10.4238 19.756 10.5297 20.1073 10.7157C19.9824 8.74918 19.1528 6.91296 17.7385 5.4986C16.1998 3.96002 14.1619 3.11263 12 3.11263C9.8382 3.11263 7.80027 3.95997 6.26165 5.4986C4.84738 6.91291 4.01769 8.74918 3.89278 10.7157C4.24409 10.5297 4.64405 10.4238 5.06849 10.4238Z" fill="current"/>
<path d="M6.51973 15.467H5.0685C4.66224 15.467 4.27844 15.3699 3.93821 15.1985L3.9994 19.0729C4.00494 19.4248 4.29189 19.7072 4.64385 19.7072L12 19.7073C9.36907 19.7073 7.15172 17.9031 6.51973 15.467Z" fill="current"/>
<path d="M17.6592 14.1779H18.9315C19.6111 14.1779 20.1641 13.625 20.1641 12.9454C20.1641 12.2658 19.6112 11.7129 18.9315 11.7129H17.6609V14.0462C17.6609 14.0902 17.6603 14.1341 17.6592 14.1779Z" fill="current"/>
<path d="M5.06845 14.1779H6.34076C6.33977 14.1342 6.33908 14.0903 6.33908 14.0462V11.7129H5.06845C4.38882 11.7129 3.83594 12.2658 3.83594 12.9454C3.83594 13.625 4.38882 14.1779 5.06845 14.1779Z" fill="current"/>
<path d="M16.3718 14.0464V11.5191C16.3718 11.2115 16.3396 10.9068 16.2759 10.6089H15.6363C14.0465 10.6089 12.7361 9.95847 12 8.91699C11.2639 9.95851 9.95354 10.6089 8.36373 10.6089H7.7241C7.66034 10.9069 7.62815 11.2115 7.62815 11.5191V14.0464C7.62815 16.457 9.58938 18.4182 12 18.4182C14.4106 18.4182 16.3718 16.457 16.3718 14.0464Z" fill="current"/>
</svg>
