<svg width="24" height="24" viewBox="0 0 24 24" fill="current" xmlns="http://www.w3.org/2000/svg">
<mask id="path-1-inside-1_18_2822" fill="current">
<path fill-rule="evenodd" clip-rule="evenodd" d="M12 24C18.6274 24 24 18.6274 24 12C24 5.37258 18.6274 0 12 0C5.37258 0 0 5.37258 0 12C0 18.6274 5.37258 24 12 24ZM10.3779 12.775L10.4344 12.775C10.4344 12.8308 10.4344 16.0949 10.4346 17.6848C10.4346 17.9117 10.5231 17.9999 10.75 17.9999C11.1674 18 11.5849 18 12.0024 18C12.2111 18 12.4198 17.9999 12.6285 17.9999C12.8853 17.9999 12.9672 17.917 12.9672 17.6567V12.775C13.0176 12.775 14.1703 12.7751 14.7112 12.7748C14.9584 12.7747 15.0373 12.697 15.0375 12.4535C15.0379 11.8504 15.0381 11.2471 15.0381 10.6439C15.0381 10.3969 14.9541 10.3124 14.7084 10.3124C14.2335 10.3123 13.2835 10.3124 13.0329 10.3124L12.9721 10.3124C12.9721 10.1872 12.9717 10.0632 12.9713 9.93998C12.9702 9.6092 12.9691 9.28458 12.9762 8.96019C12.9762 8.53929 13.1901 8.34069 13.5967 8.34069C13.8899 8.32889 14.1835 8.32712 14.4771 8.32535C14.5867 8.32469 14.6962 8.32402 14.8057 8.32284C15.0219 8.32044 15.1117 8.23404 15.112 8.01894C15.1129 7.44864 15.1129 6.87819 15.112 6.30774C15.1116 6.09489 15.0178 6.00144 14.8065 6.00114C14.3146 6.00024 13.8229 5.99979 13.3312 6.00009C12.9382 6.00039 12.5538 6.05454 12.1834 6.19029C11.6052 6.40209 11.154 6.76839 10.8439 7.30314C10.5411 7.82559 10.4347 8.39619 10.4344 8.99229C10.4343 9.33846 10.4344 10.0328 10.4344 10.2486L10.4344 10.3126L10.3849 10.3126C10.1716 10.3126 9.35049 10.3125 8.94553 10.3127C8.71393 10.3129 8.62543 10.4018 8.62528 10.6349C8.62483 11.2414 8.62498 11.8478 8.62528 12.4543C8.62528 12.6904 8.70898 12.7747 8.94358 12.7748C9.34374 12.7752 10.1544 12.775 10.3779 12.775Z"/>
</mask>
<path fill-rule="evenodd" clip-rule="evenodd" d="M12 24C18.6274 24 24 18.6274 24 12C24 5.37258 18.6274 0 12 0C5.37258 0 0 5.37258 0 12C0 18.6274 5.37258 24 12 24ZM10.3779 12.775L10.4344 12.775C10.4344 12.8308 10.4344 16.0949 10.4346 17.6848C10.4346 17.9117 10.5231 17.9999 10.75 17.9999C11.1674 18 11.5849 18 12.0024 18C12.2111 18 12.4198 17.9999 12.6285 17.9999C12.8853 17.9999 12.9672 17.917 12.9672 17.6567V12.775C13.0176 12.775 14.1703 12.7751 14.7112 12.7748C14.9584 12.7747 15.0373 12.697 15.0375 12.4535C15.0379 11.8504 15.0381 11.2471 15.0381 10.6439C15.0381 10.3969 14.9541 10.3124 14.7084 10.3124C14.2335 10.3123 13.2835 10.3124 13.0329 10.3124L12.9721 10.3124C12.9721 10.1872 12.9717 10.0632 12.9713 9.93998C12.9702 9.6092 12.9691 9.28458 12.9762 8.96019C12.9762 8.53929 13.1901 8.34069 13.5967 8.34069C13.8899 8.32889 14.1835 8.32712 14.4771 8.32535C14.5867 8.32469 14.6962 8.32402 14.8057 8.32284C15.0219 8.32044 15.1117 8.23404 15.112 8.01894C15.1129 7.44864 15.1129 6.87819 15.112 6.30774C15.1116 6.09489 15.0178 6.00144 14.8065 6.00114C14.3146 6.00024 13.8229 5.99979 13.3312 6.00009C12.9382 6.00039 12.5538 6.05454 12.1834 6.19029C11.6052 6.40209 11.154 6.76839 10.8439 7.30314C10.5411 7.82559 10.4347 8.39619 10.4344 8.99229C10.4343 9.33846 10.4344 10.0328 10.4344 10.2486L10.4344 10.3126L10.3849 10.3126C10.1716 10.3126 9.35049 10.3125 8.94553 10.3127C8.71393 10.3129 8.62543 10.4018 8.62528 10.6349C8.62483 11.2414 8.62498 11.8478 8.62528 12.4543C8.62528 12.6904 8.70898 12.7747 8.94358 12.7748C9.34374 12.7752 10.1544 12.775 10.3779 12.775Z" fill="current"/>
<path d="M10.4344 12.775H11.4344V11.7748L10.4342 11.775L10.4344 12.775ZM10.3779 12.775L10.3777 11.775L10.3777 11.775L10.3779 12.775ZM10.4346 17.6848L11.4346 17.6848L11.4346 17.6847L10.4346 17.6848ZM10.75 17.9999L10.7503 16.9999H10.75V17.9999ZM12.0024 18L12.0024 19L12.0024 19L12.0024 18ZM12.9672 12.775V11.775H11.9672V12.775H12.9672ZM14.7112 12.7748L14.7118 13.7748L14.7118 13.7748L14.7112 12.7748ZM15.0375 12.4535L14.0375 12.4528L14.0375 12.4529L15.0375 12.4535ZM14.7084 10.3124L14.7081 11.3124H14.7084V10.3124ZM13.0329 10.3124L13.033 11.3124L13.033 11.3124L13.0329 10.3124ZM12.9721 10.3124H11.9721V11.3125L12.9722 11.3124L12.9721 10.3124ZM12.9713 9.93998L13.9713 9.9366L13.9713 9.9366L12.9713 9.93998ZM12.9762 8.96019L13.9759 8.98209L13.9762 8.97114V8.96019H12.9762ZM13.5967 8.34069V9.34069H13.6168L13.6369 9.33988L13.5967 8.34069ZM14.4771 8.32535L14.4832 9.32533L14.4832 9.32533L14.4771 8.32535ZM14.8057 8.32284L14.8165 9.32278L14.8168 9.32278L14.8057 8.32284ZM15.112 8.01894L14.112 8.01736L14.112 8.01755L15.112 8.01894ZM15.112 6.30774L16.112 6.30616L16.112 6.30563L15.112 6.30774ZM14.8065 6.00114L14.8046 7.00114L14.8051 7.00114L14.8065 6.00114ZM13.3312 6.00009L13.3306 5.00009L13.3305 5.00009L13.3312 6.00009ZM12.1834 6.19029L12.5274 7.12929L12.5276 7.12921L12.1834 6.19029ZM10.8439 7.30314L9.97883 6.80155L9.97878 6.80164L10.8439 7.30314ZM10.4344 8.99229L9.43443 8.99179L9.43443 8.99192L10.4344 8.99229ZM10.4344 10.2486L11.4344 10.2485L11.4344 10.2485L10.4344 10.2486ZM10.4344 10.3126L10.4343 11.3126L11.4346 11.3127L11.4344 10.3125L10.4344 10.3126ZM10.3849 10.3126L10.3848 11.3126L10.3848 11.3126L10.3849 10.3126ZM8.94553 10.3127L8.94618 11.3127L8.94619 11.3127L8.94553 10.3127ZM8.62528 10.6349L9.62528 10.6357L9.62528 10.6356L8.62528 10.6349ZM8.62528 12.4543L9.62528 12.4543L9.62528 12.4538L8.62528 12.4543ZM8.94358 12.7748L8.94457 11.7748L8.94422 11.7748L8.94358 12.7748ZM23 12C23 18.0751 18.0751 23 12 23V25C19.1797 25 25 19.1797 25 12H23ZM12 1C18.0751 1 23 5.92487 23 12H25C25 4.8203 19.1797 -1 12 -1V1ZM1 12C1 5.92487 5.92487 1 12 1V-1C4.8203 -1 -1 4.8203 -1 12H1ZM12 23C5.92487 23 1 18.0751 1 12H-1C-1 19.1797 4.8203 25 12 25V23ZM10.4342 11.775L10.3777 11.775L10.3781 13.775L10.4346 13.775L10.4342 11.775ZM11.4346 17.6847C11.4344 16.0949 11.4344 12.8308 11.4344 12.775H9.43443C9.43443 12.8308 9.43443 16.095 9.43458 17.6849L11.4346 17.6847ZM10.75 16.9999C10.7519 16.9999 10.8059 16.9994 10.8869 17.0232C10.9761 17.0494 11.0998 17.106 11.2138 17.2198C11.3278 17.3337 11.3848 17.4575 11.4112 17.5471C11.4351 17.6284 11.4346 17.6827 11.4346 17.6848H9.43458C9.43458 17.8906 9.46768 18.3027 9.80062 18.6351C10.1332 18.9672 10.5448 18.9999 10.75 18.9999V16.9999ZM12.0023 17C11.5848 17 11.1675 17 10.7503 16.9999L10.7498 18.9999C11.1674 19 11.585 19 12.0024 19L12.0023 17ZM12.6285 16.9999C12.4197 16.9999 12.211 17 12.0023 17L12.0024 19C12.2112 19 12.4198 18.9999 12.6285 18.9999V16.9999ZM11.9672 17.6567C11.9672 17.678 11.9645 17.6369 11.9834 17.5654C12.0047 17.4842 12.0578 17.3497 12.1824 17.2235C12.4301 16.9725 12.7094 16.9999 12.6285 16.9999V18.9999C12.8044 18.9999 13.253 18.9859 13.6059 18.6284C13.9548 18.2748 13.9672 17.8299 13.9672 17.6567H11.9672ZM11.9672 12.775V17.6567H13.9672V12.775H11.9672ZM14.7107 11.7748C14.1701 11.7751 13.018 11.775 12.9672 11.775V13.775C13.0172 13.775 14.1705 13.7751 14.7118 13.7748L14.7107 11.7748ZM14.0375 12.4529C14.0374 12.5264 14.0114 12.2429 14.2653 11.9929C14.3927 11.8675 14.5287 11.8137 14.6117 11.7918C14.6851 11.7725 14.7287 11.7748 14.7106 11.7748L14.7118 13.7748C14.8784 13.7747 15.3181 13.7631 15.6687 13.4179C16.0238 13.0682 16.0374 12.6241 16.0375 12.4542L14.0375 12.4529ZM14.0381 10.6439C14.0381 11.2469 14.0379 11.85 14.0375 12.4528L16.0375 12.4543C16.0379 11.8508 16.0381 11.2472 16.0381 10.6439H14.0381ZM14.7084 11.3124C14.769 11.3124 14.499 11.3347 14.2563 11.0907C14.0153 10.8484 14.0381 10.5807 14.0381 10.6439H16.0381C16.0381 10.4602 16.0189 10.0267 15.6744 9.68036C15.3284 9.33244 14.8935 9.31244 14.7084 9.31244V11.3124ZM13.033 11.3124C13.2837 11.3124 14.2334 11.3123 14.7081 11.3124L14.7087 9.31244C14.2335 9.31231 13.2833 9.31241 13.0328 9.31243L13.033 11.3124ZM12.9722 11.3124L13.033 11.3124L13.0328 9.31243L12.972 9.31244L12.9722 11.3124ZM11.9713 9.94337C11.9717 10.0668 11.9721 10.1892 11.9721 10.3124H13.9721C13.9721 10.1853 13.9717 10.0595 13.9713 9.9366L11.9713 9.94337ZM11.9764 8.9383C11.969 9.27745 11.9702 9.61476 11.9713 9.94337L13.9713 9.9366C13.9702 9.60364 13.9692 9.29171 13.9759 8.98209L11.9764 8.9383ZM13.5967 7.34069C13.2451 7.34069 12.793 7.4265 12.4339 7.77853C12.0711 8.13416 11.9762 8.59144 11.9762 8.96019H13.9762C13.9762 8.90804 13.9882 9.05557 13.834 9.20667C13.6836 9.35418 13.5417 9.34069 13.5967 9.34069V7.34069ZM14.4711 7.32537C14.1804 7.32712 13.8697 7.3289 13.5565 7.3415L13.6369 9.33988C13.9102 9.32889 14.1867 9.32712 14.4832 9.32533L14.4711 7.32537ZM14.7949 7.3229C14.6882 7.32405 14.581 7.3247 14.4711 7.32537L14.4832 9.32533C14.5923 9.32467 14.7042 9.32399 14.8165 9.32278L14.7949 7.3229ZM14.112 8.01755C14.112 8.01551 14.1083 7.7646 14.338 7.53831C14.4483 7.42958 14.5671 7.37419 14.654 7.3478C14.7338 7.32354 14.7883 7.32297 14.7946 7.3229L14.8168 9.32278C15.0232 9.32049 15.4186 9.28129 15.7416 8.963C16.0704 8.63914 16.1117 8.23747 16.112 8.02033L14.112 8.01755ZM14.112 6.30932C14.1129 6.87872 14.1129 7.44812 14.112 8.01736L16.112 8.02052C16.1129 7.44917 16.1129 6.87767 16.112 6.30616L14.112 6.30932ZM14.8051 7.00114C14.7874 7.00112 14.5486 6.99963 14.3306 6.78118C14.1131 6.56333 14.1121 6.32564 14.112 6.30986L16.112 6.30563C16.1115 6.07699 16.0634 5.68616 15.7461 5.36829C15.4282 5.04983 15.0369 5.00147 14.8079 5.00114L14.8051 7.00114ZM13.3318 7.00009C13.8225 6.99979 14.3134 7.00024 14.8046 7.00114L14.8083 5.00114C14.3159 5.00024 13.8233 4.99979 13.3306 5.00009L13.3318 7.00009ZM12.5276 7.12921C12.7663 7.0417 13.0307 7.00032 13.332 7.00009L13.3305 5.00009C12.8458 5.00046 12.3412 5.06738 11.8393 5.25138L12.5276 7.12921ZM11.709 7.80473C11.8963 7.48171 12.1581 7.26454 12.5274 7.12929L11.8395 5.2513C11.0523 5.53964 10.4116 6.05507 9.97883 6.80155L11.709 7.80473ZM11.4344 8.99279C11.4347 8.51572 11.5192 8.1322 11.7091 7.80465L9.97878 6.80164C9.56295 7.51898 9.43479 8.27666 9.43443 8.99179L11.4344 8.99279ZM11.4344 10.2485C11.4344 10.0326 11.4343 9.33852 11.4344 8.99266L9.43443 8.99192C9.4343 9.3384 9.4344 10.0331 9.43442 10.2487L11.4344 10.2485ZM11.4344 10.3125L11.4344 10.2485L9.43442 10.2487L9.43443 10.3127L11.4344 10.3125ZM10.3848 11.3126L10.4343 11.3126L10.4345 9.31259L10.385 9.31258L10.3848 11.3126ZM8.94619 11.3127C9.35067 11.3125 10.1713 11.3126 10.3848 11.3126L10.385 9.31258C10.1718 9.31256 9.35031 9.31247 8.94487 9.31274L8.94619 11.3127ZM9.62528 10.6356C9.62528 10.6373 9.62523 10.6496 9.62285 10.6701C9.62047 10.6904 9.61525 10.7235 9.60317 10.7651C9.57779 10.8525 9.522 10.9766 9.40779 11.0915C9.29336 11.2066 9.16877 11.2637 9.07959 11.2898C9.03729 11.3023 9.00356 11.3077 8.9825 11.3102C8.96142 11.3127 8.94847 11.3127 8.94618 11.3127L8.94489 9.31274C8.74047 9.31287 8.32416 9.34477 7.98944 9.68145C7.65624 10.0166 7.62541 10.4315 7.62528 10.6343L9.62528 10.6356ZM9.62528 12.4538C9.62498 11.8475 9.62483 11.2415 9.62528 10.6357L7.62528 10.6342C7.62483 11.2413 7.62498 11.8482 7.62528 12.4548L9.62528 12.4538ZM8.94422 11.7748C8.94442 11.7748 8.94709 11.7748 8.9519 11.7751C8.9567 11.7753 8.96427 11.7758 8.97424 11.777C8.99347 11.7791 9.02637 11.7841 9.06841 11.796C9.15713 11.8213 9.28674 11.8783 9.40606 11.9984C9.5251 12.1183 9.58067 12.2475 9.60498 12.3343C9.61654 12.3755 9.62127 12.4077 9.62331 12.4262C9.62437 12.4358 9.62485 12.443 9.62507 12.4475C9.62518 12.4498 9.62523 12.4515 9.62526 12.4526C9.62527 12.4532 9.62528 12.4536 9.62528 12.4539C9.62528 12.4541 9.62528 12.4543 9.62528 12.4543H7.62528C7.62528 12.6425 7.64821 13.0666 7.98686 13.4076C8.32726 13.7505 8.75306 13.7747 8.94295 13.7748L8.94422 11.7748ZM10.3777 11.775C10.1539 11.775 9.34397 11.7752 8.94457 11.7748L8.9426 13.7748C9.34351 13.7752 10.1549 13.775 10.3782 13.775L10.3777 11.775Z" fill="current" mask="url(#path-1-inside-1_18_2822)"/>
</svg>
