<svg width="64" height="64" viewBox="0 0 64 64" fill="none" xmlns="http://www.w3.org/2000/svg">
<g clip-path="url(#clip0_6540_89352)">
<path d="M56.6326 13.6612C56.6325 13.3298 56.5008 13.0119 56.2663 12.7775L43.8388 0.349999C43.6045 0.115563 43.2866 -0.0161798 42.9551 -0.0162506H8.65259C8.32107 -0.0162506 8.00312 0.115445 7.7687 0.349866C7.53428 0.584286 7.40259 0.902229 7.40259 1.23375V62.7337C7.40259 63.0653 7.53428 63.3832 7.7687 63.6176C8.00312 63.8521 8.32107 63.9837 8.65259 63.9837H55.3826C55.7141 63.9837 56.0321 63.8521 56.2665 63.6176C56.5009 63.3832 56.6326 63.0653 56.6326 62.7337V13.6612Z" fill="#F1F1F1"/>
<path d="M56.5913 13.35C56.5368 13.1333 56.4245 12.9354 56.2663 12.7775L43.8388 0.349999C43.6045 0.115563 43.2866 -0.0161798 42.9551 -0.0162506V11.8487C42.9551 12.2466 43.1131 12.6281 43.3944 12.9094C43.6757 13.1907 44.0573 13.3487 44.4551 13.3487L56.5913 13.35Z" fill="#CCCCCC"/>
<path d="M56.5913 13.35H44.4563C44.0585 13.35 43.6769 13.192 43.3956 12.9107C43.1143 12.6294 42.9563 12.2478 42.9563 11.85V13.1187C42.9563 13.9475 43.4713 14.9937 44.5038 14.9937H56.6288V13.6613C56.6368 13.556 56.624 13.4503 56.5913 13.35Z" fill="#E8E8E8"/>
</g>
<defs>
<clipPath id="clip0_6540_89352">
<rect width="64" height="64" fill="white"/>
</clipPath>
</defs>
</svg>
