<svg width="16" height="16" viewBox="0 0 16 16" fill="none" xmlns="http://www.w3.org/2000/svg">
<path fill-rule="evenodd" clip-rule="evenodd" d="M4.07143 2C3.77431 2 3.49695 2.10888 3.29863 2.29118C3.10171 2.47218 3 2.70821 3 2.94444V13.0556C3 13.2918 3.10171 13.5278 3.29863 13.7088C3.49695 13.8911 3.77431 14 4.07143 14H11.9286C12.2257 14 12.503 13.8911 12.7014 13.7088C12.8983 13.5278 13 13.2918 13 13.0556V5.83333H10.094C9.77943 5.83333 9.46667 5.72431 9.22686 5.51395C8.98496 5.30175 8.83398 4.99881 8.83398 4.66667V2H4.07143ZM9.83398 2.42048L12.459 4.83333H10.094C10.0054 4.83333 9.93155 4.80188 9.8863 4.76219C9.84316 4.72434 9.83398 4.68815 9.83398 4.66667V2.42048ZM2.62189 1.55495C3.01297 1.19548 3.53501 1 4.07143 1H9.57143C9.69676 1 9.81752 1.04707 9.9098 1.13189L13.8384 4.743C13.9414 4.83768 14 4.9712 14 5.11111V13.0556C14 13.5855 13.7706 14.0843 13.3781 14.445C12.987 14.8045 12.465 15 11.9286 15H4.07143C3.53501 15 3.01297 14.8045 2.62189 14.445C2.22941 14.0843 2 13.5855 2 13.0556V2.94444C2 2.4145 2.22941 1.91572 2.62189 1.55495Z" fill="current"/>
</svg>
