<svg width="24" height="24" viewBox="0 0 24 24" fill="none" xmlns="http://www.w3.org/2000/svg">
<path d="M24 3.99988H0V20H24V3.99988Z" fill="#F0F0F0"/>
<path d="M24 5.99969H0V7.99952H24V5.99969Z" fill="#D80027"/>
<path d="M24 9.99988H0V11.9997H24V9.99988Z" fill="#D80027"/>
<path d="M24 13.9995H0V15.9993H24V13.9995Z" fill="#D80027"/>
<path d="M24 17.9997H0V19.9995H24V17.9997Z" fill="#D80027"/>
<path d="M12 3.99988H0V12.6154H12V3.99988Z" fill="#2E52B2"/>
<path d="M4.67923 7.52924L4.48596 8.1238H3.86084L4.36667 8.49106L4.1734 9.08558L4.67923 8.71831L5.18473 9.08558L4.99151 8.49106L5.49734 8.1238H4.87217L4.67923 7.52924Z" fill="#F0F0F0"/>
<path d="M4.87217 10.2694L4.67923 9.67487L4.48596 10.2694H3.86084L4.36667 10.6367L4.1734 11.2312L4.67923 10.8639L5.18473 11.2312L4.99151 10.6367L5.49734 10.2694H4.87217Z" fill="#F0F0F0"/>
<path d="M2.23012 10.2694L2.03714 9.67487L1.84388 10.2694H1.21875L1.72458 10.6367L1.53131 11.2312L2.03714 10.8639L2.54269 11.2312L2.34947 10.6367L2.8552 10.2694H2.23012Z" fill="#F0F0F0"/>
<path d="M2.03714 7.52924L1.84388 8.1238H1.21875L1.72458 8.49106L1.53131 9.08558L2.03714 8.71831L2.54269 9.08558L2.34947 8.49106L2.8552 8.1238H2.23012L2.03714 7.52924Z" fill="#F0F0F0"/>
<path d="M4.67923 5.38361L4.48596 5.97822H3.86084L4.36667 6.34553L4.1734 6.94004L4.67923 6.57273L5.18473 6.94004L4.99151 6.34553L5.49734 5.97822H4.87217L4.67923 5.38361Z" fill="#F0F0F0"/>
<path d="M2.03714 5.38361L1.84388 5.97822H1.21875L1.72458 6.34553L1.53131 6.94004L2.03714 6.57273L2.54269 6.94004L2.34947 6.34553L2.8552 5.97822H2.23012L2.03714 5.38361Z" fill="#F0F0F0"/>
<path d="M7.32103 7.52924L7.12781 8.1238H6.50269L7.00847 8.49106L6.81529 9.08558L7.32103 8.71831L7.82662 9.08558L7.63336 8.49106L8.13918 8.1238H7.51406L7.32103 7.52924Z" fill="#F0F0F0"/>
<path d="M7.51406 10.2694L7.32103 9.67487L7.12781 10.2694H6.50269L7.00847 10.6367L6.81529 11.2312L7.32103 10.8639L7.82662 11.2312L7.63336 10.6367L8.13918 10.2694H7.51406Z" fill="#F0F0F0"/>
<path d="M10.1561 10.2694L9.96312 9.67487L9.76985 10.2694H9.14478L9.65051 10.6367L9.45729 11.2312L9.96312 10.8639L10.4687 11.2312L10.2754 10.6367L10.7812 10.2694H10.1561Z" fill="#F0F0F0"/>
<path d="M9.96312 7.52924L9.76985 8.1238H9.14478L9.65051 8.49106L9.45729 9.08558L9.96312 8.71831L10.4687 9.08558L10.2754 8.49106L10.7812 8.1238H10.1561L9.96312 7.52924Z" fill="#F0F0F0"/>
<path d="M7.32103 5.38361L7.12781 5.97822H6.50269L7.00847 6.34553L6.81529 6.94004L7.32103 6.57273L7.82662 6.94004L7.63336 6.34553L8.13918 5.97822H7.51406L7.32103 5.38361Z" fill="#F0F0F0"/>
<path d="M9.96312 5.38361L9.76985 5.97822H9.14478L9.65051 6.34553L9.45729 6.94004L9.96312 6.57273L10.4687 6.94004L10.2754 6.34553L10.7812 5.97822H10.1561L9.96312 5.38361Z" fill="#F0F0F0"/>
</svg>
