<svg width="24" height="24" viewBox="0 0 24 24" fill="none" xmlns="http://www.w3.org/2000/svg">
<path d="M22.1693 10.0875L13.1957 10.087C12.7995 10.087 12.4783 10.4082 12.4783 10.8044V13.6711C12.4783 14.0673 12.7995 14.3885 13.1957 14.3885H18.2491C17.6957 15.8246 16.6629 17.0272 15.3452 17.7914L17.5 21.5215C20.9565 19.5224 23 16.0149 23 12.0885C23 11.5295 22.9588 11.1298 22.8764 10.6798C22.8138 10.3379 22.5169 10.0875 22.1693 10.0875Z" fill="#167EE6"/>
<path d="M12.0002 18.6956C9.52716 18.6956 7.36823 17.3444 6.20872 15.345L2.47876 17.4949C4.37691 20.7847 7.93276 23 12.0002 23C13.9955 23 15.8783 22.4628 17.5002 21.5265V21.5214L15.3455 17.7913C14.3598 18.3629 13.2193 18.6956 12.0002 18.6956Z" fill="#12B347"/>
<path d="M17.5 21.5266V21.5215L15.3453 17.7913C14.3596 18.3629 13.2192 18.6957 12 18.6957V23.0001C13.9953 23.0001 15.8782 22.4628 17.5 21.5266Z" fill="#0F993E"/>
<path d="M5.30437 12C5.30437 10.781 5.63703 9.64061 6.20856 8.65503L2.4786 6.50513C1.5372 8.12192 1 9.99957 1 12C1 14.0005 1.5372 15.8781 2.4786 17.4949L6.20856 15.345C5.63703 14.3595 5.30437 13.219 5.30437 12Z" fill="#FFD500"/>
<path d="M12.0002 5.30431C13.6129 5.30431 15.0942 5.87734 16.2512 6.83052C16.5366 7.06564 16.9515 7.04867 17.213 6.7872L19.2441 4.75606C19.5408 4.45941 19.5196 3.97382 19.2027 3.6989C17.2642 2.01714 14.7419 0.999939 12.0002 0.999939C7.93276 0.999939 4.37691 3.21529 2.47876 6.50507L6.20872 8.65498C7.36823 6.6555 9.52716 5.30431 12.0002 5.30431Z" fill="#FF4B26"/>
<path d="M16.251 6.83052C16.5364 7.06564 16.9513 7.04867 17.2128 6.78721L19.2439 4.75607C19.5405 4.45941 19.5194 3.97382 19.2025 3.6989C17.264 2.0171 14.7417 0.999939 12 0.999939V5.30431C13.6126 5.30431 15.094 5.87734 16.251 6.83052Z" fill="#D93F21"/>
</svg>
