<svg width="13" height="13" viewBox="0 0 13 13" fill="current" xmlns="http://www.w3.org/2000/svg">
<path d="M2 3.5C2 3.22386 2.22386 3 2.5 3H10.5C10.7761 3 11 3.22386 11 3.5V3.5C11 3.77614 10.7761 4 10.5 4H2.5C2.22386 4 2 3.77614 2 3.5V3.5Z" fill="current"/>
<path d="M2 6.5C2 6.22386 2.22386 6 2.5 6H10.5C10.7761 6 11 6.22386 11 6.5V6.5C11 6.77614 10.7761 7 10.5 7H2.5C2.22386 7 2 6.77614 2 6.5V6.5Z" fill="current"/>
<path d="M2 9.5C2 9.22386 2.22386 9 2.5 9H10.5C10.7761 9 11 9.22386 11 9.5V9.5C11 9.77614 10.7761 10 10.5 10H2.5C2.22386 10 2 9.77614 2 9.5V9.5Z" fill="current"/>
</svg>
