<svg width="48" height="48" viewBox="0 0 48 48" fill="current" xmlns="http://www.w3.org/2000/svg">
<path fill-rule="evenodd" clip-rule="evenodd" d="M32.9304 27.6524C32.9303 27.8414 32.8552 28.0228 32.7215 28.1564L28.1562 32.7217C28.0225 32.8554 27.8412 32.9306 27.6521 32.9306H15.7826C15.5934 32.9306 15.4121 32.8555 15.2784 32.7218C15.1446 32.5881 15.0695 32.4067 15.0695 32.2176V15.7828C15.0695 15.5937 15.1446 15.4123 15.2784 15.2786C15.4121 15.1449 15.5934 15.0698 15.7826 15.0698H32.2173C32.4065 15.0698 32.5878 15.1449 32.7215 15.2786C32.8553 15.4123 32.9304 15.5937 32.9304 15.7828V27.6524ZM31.5043 27.3571V16.4958H16.4956V31.5045H27.3569L31.5043 27.3571ZM44.0869 19.235H40.2347V23.2872H44.0869C44.276 23.2872 44.4574 23.3623 44.5911 23.496C44.7248 23.6297 44.7999 23.8111 44.7999 24.0002C44.7999 24.1893 44.7248 24.3707 44.5911 24.5044C44.4574 24.6381 44.276 24.7132 44.0869 24.7132H40.2347V28.7654H44.0869C44.276 28.7654 44.4574 28.8405 44.5911 28.9743C44.7248 29.108 44.7999 29.2893 44.7999 29.4785C44.7999 29.6676 44.7248 29.8489 44.5911 29.9827C44.4574 30.1164 44.276 30.1915 44.0869 30.1915H40.2347V34.2437H44.0869C44.276 34.2437 44.4574 34.3188 44.5911 34.4525C44.7248 34.5862 44.7999 34.7676 44.7999 34.9567C44.7999 35.1458 44.7248 35.3272 44.5911 35.4609C44.4574 35.5946 44.276 35.6698 44.0869 35.6698H40.2347V37.6956C40.234 38.3689 39.9662 39.0143 39.4902 39.4904C39.0141 39.9665 38.3686 40.2342 37.6954 40.235H35.6695V44.0872C35.6695 44.2763 35.5944 44.4576 35.4607 44.5914C35.327 44.7251 35.1456 44.8002 34.9565 44.8002C34.7674 44.8002 34.586 44.7251 34.4523 44.5914C34.3186 44.4576 34.2434 44.2763 34.2434 44.0872V40.235H30.1913V44.0872C30.1913 44.2763 30.1161 44.4576 29.9824 44.5914C29.8487 44.7251 29.6673 44.8002 29.4782 44.8002C29.2891 44.8002 29.1077 44.7251 28.974 44.5914C28.8403 44.4576 28.7652 44.2763 28.7652 44.0872V40.235H24.713V44.0872C24.713 44.2763 24.6379 44.4576 24.5042 44.5914C24.3704 44.7251 24.1891 44.8002 24 44.8002C23.8108 44.8002 23.6295 44.7251 23.4958 44.5914C23.362 44.4576 23.2869 44.2763 23.2869 44.0872V40.235H19.2347V44.0872C19.2347 44.2763 19.1596 44.4576 19.0259 44.5914C18.8922 44.7251 18.7108 44.8002 18.5217 44.8002C18.3326 44.8002 18.1512 44.7251 18.0175 44.5914C17.8838 44.4576 17.8086 44.2763 17.8086 44.0872V40.235H13.7565V44.0872C13.7565 44.2763 13.6813 44.4576 13.5476 44.5914C13.4139 44.7251 13.2325 44.8002 13.0434 44.8002C12.8543 44.8002 12.673 44.7251 12.5392 44.5914C12.4055 44.4576 12.3304 44.2763 12.3304 44.0872V40.235H10.3045C9.63127 40.2342 8.9858 39.9665 8.50974 39.4904C8.03368 39.0143 7.76591 38.3689 7.76517 37.6956V35.6698H3.91299C3.72388 35.6698 3.54252 35.5946 3.4088 35.4609C3.27508 35.3272 3.19995 35.1458 3.19995 34.9567C3.19995 34.7676 3.27508 34.5862 3.4088 34.4525C3.54252 34.3188 3.72388 34.2437 3.91299 34.2437H7.76517V30.1915H3.91299C3.72388 30.1915 3.54252 30.1164 3.4088 29.9827C3.27508 29.8489 3.19995 29.6676 3.19995 29.4785C3.19995 29.2893 3.27508 29.108 3.4088 28.9743C3.54252 28.8405 3.72388 28.7654 3.91299 28.7654H7.76517V24.7132H3.91299C3.72388 24.7132 3.54252 24.6381 3.4088 24.5044C3.27508 24.3707 3.19995 24.1893 3.19995 24.0002C3.19995 23.8111 3.27508 23.6297 3.4088 23.496C3.54252 23.3623 3.72388 23.2872 3.91299 23.2872H7.76517V19.235H3.91299C3.72388 19.235 3.54252 19.1599 3.4088 19.0261C3.27508 18.8924 3.19995 18.711 3.19995 18.5219C3.19995 18.3328 3.27508 18.1515 3.4088 18.0177C3.54252 17.884 3.72388 17.8089 3.91299 17.8089H7.76517V13.7567H3.91299C3.72388 13.7567 3.54252 13.6816 3.4088 13.5479C3.27508 13.4142 3.19995 13.2328 3.19995 13.0437C3.19995 12.8546 3.27508 12.6732 3.4088 12.5395C3.54252 12.4058 3.72388 12.3306 3.91299 12.3306H7.76517V10.3048C7.76591 9.63151 8.03368 8.98605 8.50974 8.50999C8.9858 8.03393 9.63127 7.76615 10.3045 7.76541H12.3304V3.91324C12.3304 3.72413 12.4055 3.54276 12.5392 3.40904C12.673 3.27532 12.8543 3.2002 13.0434 3.2002C13.2325 3.2002 13.4139 3.27532 13.5476 3.40904C13.6813 3.54276 13.7565 3.72413 13.7565 3.91324V7.76541H17.8086V3.91324C17.8086 3.72413 17.8838 3.54276 18.0175 3.40904C18.1512 3.27532 18.3326 3.2002 18.5217 3.2002C18.7108 3.2002 18.8922 3.27532 19.0259 3.40904C19.1596 3.54276 19.2347 3.72413 19.2347 3.91324V7.76541H23.2869V3.91324C23.2869 3.72413 23.362 3.54276 23.4958 3.40904C23.6295 3.27532 23.8108 3.2002 24 3.2002C24.1891 3.2002 24.3704 3.27532 24.5042 3.40904C24.6379 3.54276 24.713 3.72413 24.713 3.91324V7.76541H28.7652V3.91324C28.7652 3.72413 28.8403 3.54276 28.974 3.40904C29.1077 3.27532 29.2891 3.2002 29.4782 3.2002C29.6673 3.2002 29.8487 3.27532 29.9824 3.40904C30.1161 3.54276 30.1913 3.72413 30.1913 3.91324V7.76541H34.2434V3.91324C34.2434 3.72413 34.3186 3.54276 34.4523 3.40904C34.586 3.27532 34.7674 3.2002 34.9565 3.2002C35.1456 3.2002 35.327 3.27532 35.4607 3.40904C35.5944 3.54276 35.6695 3.72413 35.6695 3.91324V7.76541H37.6954C38.3686 7.76615 39.0141 8.03393 39.4902 8.50999C39.9662 8.98605 40.234 9.63151 40.2347 10.3048V12.3306H44.0869C44.276 12.3306 44.4574 12.4058 44.5911 12.5395C44.7248 12.6732 44.7999 12.8546 44.7999 13.0437C44.7999 13.2328 44.7248 13.4142 44.5911 13.5479C44.4574 13.6816 44.276 13.7567 44.0869 13.7567H40.2347V17.8089H44.0869C44.276 17.8089 44.4574 17.884 44.5911 18.0177C44.7248 18.1515 44.7999 18.3328 44.7999 18.5219C44.7999 18.711 44.7248 18.8924 44.5911 19.0261C44.4574 19.1599 44.276 19.235 44.0869 19.235ZM38.8086 37.6958V10.3045C38.8083 10.0095 38.6909 9.72645 38.4823 9.51785C38.2737 9.30925 37.9906 9.19188 37.6956 9.1915H10.304C10.009 9.19188 9.72621 9.30925 9.5176 9.51785C9.309 9.72645 9.19164 10.0095 9.19126 10.3045V37.6961C9.19164 37.9911 9.309 38.2739 9.5176 38.4825C9.72621 38.6911 10.0093 38.8085 10.3043 38.8089H37.6959C37.9909 38.8085 38.2737 38.6911 38.4823 38.4825C38.6909 38.2739 38.8083 37.9909 38.8086 37.6958ZM12.8434 12.1306C12.8434 12.2717 12.8016 12.4095 12.7233 12.5268C12.6449 12.644 12.5335 12.7354 12.4033 12.7894C12.273 12.8434 12.1296 12.8575 11.9913 12.83C11.853 12.8025 11.7259 12.7345 11.6262 12.6348C11.5265 12.5351 11.4586 12.4081 11.431 12.2697C11.4035 12.1314 11.4177 11.9881 11.4716 11.8578C11.5256 11.7275 11.617 11.6161 11.7342 11.5378C11.8515 11.4594 11.9894 11.4176 12.1304 11.4176C12.3195 11.4176 12.5009 11.4927 12.6346 11.6264C12.7683 11.7602 12.8434 11.9415 12.8434 12.1306ZM35.4734 11.5378C35.5906 11.4594 35.7285 11.4176 35.8695 11.4176C36.0586 11.4176 36.24 11.4927 36.3737 11.6264C36.5074 11.7602 36.5826 11.9415 36.5826 12.1306C36.5826 12.2717 36.5407 12.4095 36.4624 12.5268C36.384 12.644 36.2727 12.7354 36.1424 12.7894C36.0121 12.8434 35.8687 12.8575 35.7304 12.83C35.5921 12.8025 35.465 12.7345 35.3653 12.6348C35.2656 12.5351 35.1977 12.4081 35.1702 12.2697C35.1427 12.1314 35.1568 11.9881 35.2108 11.8578C35.2647 11.7275 35.3561 11.6161 35.4734 11.5378ZM11.7342 35.2769C11.8515 35.1985 11.9894 35.1567 12.1304 35.1567C12.3195 35.1567 12.5009 35.2318 12.6346 35.3656C12.7683 35.4993 12.8434 35.6806 12.8434 35.8698C12.8434 36.0108 12.8016 36.1486 12.7233 36.2659C12.6449 36.3832 12.5335 36.4746 12.4033 36.5285C12.273 36.5825 12.1296 36.5966 11.9913 36.5691C11.853 36.5416 11.7259 36.4737 11.6262 36.374C11.5265 36.2742 11.4586 36.1472 11.431 36.0089C11.4035 35.8706 11.4177 35.7272 11.4716 35.5969C11.5256 35.4666 11.617 35.3552 11.7342 35.2769ZM35.4734 35.2769C35.5906 35.1985 35.7285 35.1567 35.8695 35.1567C36.0586 35.1567 36.24 35.2318 36.3737 35.3656C36.5074 35.4993 36.5826 35.6806 36.5826 35.8698C36.5826 36.0108 36.5407 36.1486 36.4624 36.2659C36.384 36.3832 36.2727 36.4746 36.1424 36.5285C36.0121 36.5825 35.8687 36.5966 35.7304 36.5691C35.5921 36.5416 35.465 36.4737 35.3653 36.374C35.2656 36.2742 35.1977 36.1472 35.1702 36.0089C35.1427 35.8706 35.1568 35.7272 35.2108 35.5969C35.2647 35.4666 35.3561 35.3552 35.4734 35.2769Z" fill="current"/>
</svg>
