<svg width="16" height="16" viewBox="0 0 16 16" fill="current" xmlns="http://www.w3.org/2000/svg">
<path fill-rule="evenodd" clip-rule="evenodd" d="M2.30656 1.02701C2.13733 0.857779 1.86296 0.857779 1.69373 1.02701C1.52451 1.19623 1.52451 1.4706 1.69373 1.63983L4.12127 4.06737C2.81212 5.07063 1.73158 6.34125 0.951646 7.79473C0.885071 7.9188 0.882926 8.06748 0.945895 8.19342L1.33348 7.99963C0.945895 8.19342 0.94597 8.19357 0.946055 8.19374L0.946272 8.19417L0.946873 8.19537L0.948748 8.19908L0.955178 8.21167C0.960655 8.22232 0.968511 8.23745 0.978727 8.25675C0.999157 8.29536 1.02905 8.35071 1.06825 8.42041C1.14663 8.55974 1.26243 8.75677 1.41454 8.9923C1.71822 9.46251 2.16943 10.0905 2.75977 10.7202C3.93254 11.9712 5.70581 13.2814 8.00015 13.2814V13.2815L8.00723 13.2814C9.4022 13.2586 10.7533 12.79 11.8628 11.9443C11.8888 11.9244 11.912 11.9023 11.9322 11.8783L15.0271 14.9732C15.1963 15.1424 15.4707 15.1424 15.6399 14.9732C15.8091 14.8039 15.8091 14.5296 15.6399 14.3603L2.30656 1.02701ZM11.3212 11.2673L9.61694 9.56304C9.61214 9.56875 9.60717 9.57437 9.60203 9.57989C9.3959 9.8011 9.14733 9.97852 8.87115 10.1016C8.59496 10.2246 8.29682 10.2908 7.99451 10.2961C7.6922 10.3015 7.39191 10.2459 7.11156 10.1326C6.8312 10.0194 6.57653 9.85084 6.36273 9.63704C6.14893 9.42324 5.98038 9.16857 5.86714 8.88822C5.75391 8.60786 5.69829 8.30757 5.70363 8.00526C5.70896 7.70295 5.77513 7.40481 5.89819 7.12862C6.02125 6.85244 6.19868 6.60387 6.41988 6.39775C6.4254 6.3926 6.43102 6.38763 6.43673 6.38283L4.73215 4.67825C4.71204 4.70217 4.68901 4.72427 4.66314 4.74403C3.50646 5.62728 2.54185 6.73573 1.82704 8.00159C1.89781 8.12715 2.00338 8.30659 2.14257 8.52211C2.42601 8.96098 2.84601 9.54507 3.39204 10.1275C4.49133 11.3001 6.05016 12.4134 7.99661 12.4148C9.19857 12.3944 10.3628 11.9925 11.3212 11.2673ZM7.04727 6.99337C7.03601 7.00675 7.02383 7.01959 7.01071 7.03181C6.87465 7.15859 6.76552 7.31148 6.68983 7.48135C6.61414 7.65123 6.57344 7.83461 6.57016 8.02055C6.56688 8.20649 6.60108 8.39119 6.67073 8.56363C6.74038 8.73607 6.84405 8.89271 6.97556 9.02422C7.10706 9.15572 7.2637 9.25939 7.43614 9.32904C7.60858 9.39869 7.79328 9.43289 7.97922 9.42961C8.16517 9.42633 8.34855 9.38563 8.51842 9.30994C8.68829 9.23425 8.84118 9.12512 8.96796 8.98906C8.98018 8.97595 8.99303 8.96376 9.00641 8.9525L7.04727 6.99337ZM6.82618 3.71853C7.21065 3.62853 7.60427 3.58355 7.99913 3.58447L8.00015 3.58448C9.94824 3.58448 11.5083 4.69847 12.6083 5.87176C13.1543 6.45419 13.5743 7.03827 13.8577 7.47715C13.9971 7.69289 14.1027 7.87248 14.1735 7.99806C13.8437 8.58449 13.4596 9.13889 13.0262 9.65396C12.8721 9.83708 12.8956 10.1104 13.0787 10.2645C13.2618 10.4186 13.5352 10.3951 13.6893 10.212C14.2112 9.59175 14.6669 8.91875 15.049 8.20391C15.1152 8.07995 15.1173 7.93155 15.0544 7.80583L14.6668 7.99963C15.0544 7.80583 15.0543 7.80568 15.0542 7.80551L15.054 7.80508L15.0534 7.80388L15.0515 7.80018L15.0451 7.78759C15.0396 7.77693 15.0318 7.7618 15.0216 7.7425C15.0011 7.70389 14.9712 7.64854 14.932 7.57885C14.8537 7.43951 14.7379 7.24248 14.5858 7.00696C14.2821 6.53674 13.8309 5.9087 13.2405 5.27901C12.0678 4.02815 10.2947 2.718 8.00066 2.71781L8.00116 2.71781L8.00015 3.15114V2.71781H8.00066C7.53879 2.71676 7.07837 2.7694 6.62866 2.87467C6.39563 2.92921 6.25095 3.16233 6.30549 3.39536C6.36004 3.62838 6.59316 3.77307 6.82618 3.71853ZM14.6668 7.99963L14.2846 7.79535C14.2483 7.86333 14.2113 7.93091 14.1735 7.99806L14.1767 8.00374C14.212 8.06662 14.2384 8.11544 14.2555 8.14785L14.2701 8.17557L14.2743 8.18385L14.2785 8.19205L14.2793 8.1936L14.2793 8.19363C14.2793 8.19353 14.2792 8.19342 14.6668 7.99963Z" fill="current"/>
</svg>
