<svg width="24" height="24" viewBox="0 0 24 24" fill="current" xmlns="http://www.w3.org/2000/svg">
<path d="M20.4791 4H3.52089C2.13028 4 1 5.09603 1 6.4445V17.5555C1 18.904 2.13028 20 3.52089 20H20.4791C21.8697 20 23 18.904 23 17.5555V6.4445C23 5.09603 21.8697 4 20.4791 4ZM7.875 7.5555C9.13821 7.5555 10.1666 8.5529 10.1666 9.77783C10.1666 11.0026 9.13821 12 7.875 12C6.61179 12 5.58339 11.0026 5.58339 9.77783C5.58339 8.5529 6.61179 7.5555 7.875 7.5555ZM12 15.7778C12 16.1458 11.692 16.4445 11.3125 16.4445H4.4375C4.058 16.4445 3.75 16.1458 3.75 15.7778V15.3333C3.75 13.9849 4.88028 12.8888 6.27089 12.8888H9.47911C10.8697 12.8888 12 13.9849 12 15.3333V15.7778ZM19.5625 16.4445H14.5209C14.1414 16.4445 13.8334 16.1458 13.8334 15.7778C13.8334 15.4098 14.1414 15.1112 14.5209 15.1112H19.5625C19.942 15.1112 20.25 15.4098 20.25 15.7778C20.25 16.1458 19.942 16.4445 19.5625 16.4445ZM19.5625 12.8888H14.5209C14.1414 12.8888 13.8334 12.5902 13.8334 12.2222C13.8334 11.8542 14.1414 11.5555 14.5209 11.5555H19.5625C19.942 11.5555 20.25 11.8542 20.25 12.2222C20.25 12.5902 19.942 12.8888 19.5625 12.8888ZM19.5625 9.33333H14.5209C14.1414 9.33333 13.8334 9.03467 13.8334 8.66667C13.8334 8.29867 14.1414 8 14.5209 8H19.5625C19.942 8 20.25 8.29867 20.25 8.66667C20.25 9.03467 19.942 9.33333 19.5625 9.33333Z" fill="current"/>
</svg>
