<svg width="17" height="16" viewBox="0 0 17 16" fill="current" xmlns="http://www.w3.org/2000/svg">
<path fill-rule="evenodd" clip-rule="evenodd" d="M9.31395 5.39537C9.31395 4.40639 10.1157 3.60467 11.1047 3.60467C12.0936 3.60467 12.8953 4.40639 12.8953 5.39537C12.8953 6.38434 12.0936 7.18607 11.1047 7.18607C10.1157 7.18607 9.31395 6.38434 9.31395 5.39537ZM11.1047 4.58142C10.6551 4.58142 10.2907 4.94583 10.2907 5.39537C10.2907 5.8449 10.6551 6.20932 11.1047 6.20932C11.5542 6.20932 11.9186 5.8449 11.9186 5.39537C11.9186 4.94583 11.5542 4.58142 11.1047 4.58142Z" fill="current"/>
<path fill-rule="evenodd" clip-rule="evenodd" d="M8.46264 1H8.53736C10.0405 0.999992 11.2185 0.999985 12.1376 1.12356C13.0783 1.25004 13.8207 1.51398 14.4034 2.09665C14.986 2.67931 15.25 3.42166 15.3764 4.36241C15.5 5.28152 15.5 6.45949 15.5 7.96262V8.03738C15.5 9.54051 15.5 10.7185 15.3764 11.6376C15.25 12.5783 14.986 13.3207 14.4034 13.9034C13.8207 14.486 13.0783 14.75 12.1376 14.8764C11.2185 15 10.0405 15 8.53738 15H8.46262C6.95949 15 5.78152 15 4.86241 14.8764C3.92166 14.75 3.17931 14.486 2.59665 13.9034C2.01398 13.3207 1.75004 12.5783 1.62356 11.6376C1.50817 10.7793 1.50053 9.69537 1.50003 8.33171C1.49999 8.32796 1.49999 8.3242 1.50003 8.32045C1.5 8.2274 1.5 8.13304 1.5 8.03736V7.96264C1.49999 6.4595 1.49999 5.28152 1.62356 4.36241C1.75004 3.42166 2.01398 2.67931 2.59665 2.09665C3.17931 1.51398 3.92166 1.25004 4.86241 1.12356C5.78152 0.999985 6.9595 0.999992 8.46264 1ZM2.47699 8.54711C2.47867 9.81581 2.49165 10.7641 2.59159 11.5074C2.70351 12.3399 2.91637 12.8418 3.28731 13.2127C3.65825 13.5836 4.16011 13.7965 4.99256 13.9084C5.83906 14.0222 6.95139 14.0233 8.5 14.0233C10.0486 14.0233 11.1609 14.0222 12.0074 13.9084C12.8399 13.7965 13.3418 13.5836 13.7127 13.2127C13.8712 13.0541 14.0009 12.8717 14.1062 12.6497C14.0809 12.6342 14.0566 12.6162 14.0338 12.5957L11.9347 10.7066C11.427 10.2496 10.671 10.2041 10.1122 10.5969L9.91801 10.7333C9.20606 11.2337 8.23747 11.1498 7.62216 10.5345L4.82885 7.74116C4.45312 7.36543 3.85043 7.34536 3.45054 7.69526L2.47699 8.54711ZM14.3944 11.6062L12.5881 9.98054C11.742 9.21902 10.4819 9.14319 9.55057 9.79773L9.35639 9.9342C9.03278 10.1616 8.59251 10.1235 8.31282 9.8438L5.51952 7.0505C4.78018 6.31116 3.59423 6.27167 2.80735 6.96018L2.47738 7.24891C2.48034 6.08175 2.49708 5.1955 2.59159 4.49256C2.70351 3.66011 2.91637 3.15825 3.28731 2.78731C3.65825 2.41637 4.16011 2.20351 4.99256 2.09159C5.83906 1.97778 6.95139 1.97674 8.5 1.97674C10.0486 1.97674 11.1609 1.97778 12.0074 2.09159C12.8399 2.20351 13.3418 2.41637 13.7127 2.78731C14.0836 3.15825 14.2965 3.66011 14.4084 4.49256C14.5222 5.33906 14.5233 6.45139 14.5233 8C14.5233 9.54861 14.5222 10.6609 14.4084 11.5074C14.4039 11.5409 14.3993 11.5738 14.3944 11.6062Z" fill="current"/>
</svg>
