<svg width="24" height="24" viewBox="0 0 24 24" fill="current" xmlns="http://www.w3.org/2000/svg">
<path d="M12.0003 4.21371C13.1634 4.21371 14.1064 3.2703 14.1064 2.1069C14.1064 0.943088 13.1634 0 12.0003 0C10.8369 0 9.89347 0.943087 9.89347 2.10685C9.89343 3.2703 10.8369 4.21371 12.0003 4.21371Z" fill="current"/>
<path d="M17.611 11.4343L15.2628 6.04924C15.0262 5.50625 14.5281 5.14594 13.9569 5.04895C13.8705 5.02616 10.1299 5.0258 10.0405 5.04973C9.47007 5.147 8.97302 5.50731 8.73682 6.04961L6.38898 11.4339C6.24824 11.7573 6.27976 12.1296 6.47292 12.4247C6.66608 12.7199 6.99491 12.8975 7.34764 12.8975C7.76368 12.8975 8.13984 12.6512 8.3063 12.2699L9.19113 10.2409V20.8591C9.19113 21.4893 9.70191 22 10.3321 22C10.9627 22 11.4734 21.4893 11.4734 20.8591V13.6967H12.5269V20.8591C12.5269 21.4893 13.0377 22 13.6678 22C14.2976 22 14.8084 21.4893 14.8084 20.8594V10.2402L15.6937 12.2703C15.8601 12.6516 16.2363 12.898 16.6523 12.898C17.005 12.898 17.3339 12.7203 17.527 12.4252C17.7203 12.1303 17.752 11.7577 17.611 11.4343Z" fill="current"/>
<path d="M5 23C5 22.4477 5.44772 22 6 22H18C18.5523 22 19 22.4477 19 23C19 23.5523 18.5523 24 18 24H6C5.44772 24 5 23.5523 5 23Z" fill="current"/>
</svg>
