<svg width="40" height="40" viewBox="0 0 40 40" fill="none" xmlns="http://www.w3.org/2000/svg">
<rect width="40" height="40" rx="20" fill="#D8E8FF"/>
<path fill-rule="evenodd" clip-rule="evenodd" d="M2.5 20.0002C2.5 10.3353 10.3353 2.5 20.0002 2.5C29.6651 2.5 37.5004 10.3353 37.5004 20.0002C37.5004 29.6651 29.6651 37.5004 20.0002 37.5004C10.3353 37.5004 2.5 29.6651 2.5 20.0002ZM9.31312 9.31312C6.47873 12.1475 4.88639 15.9918 4.88639 20.0002C4.88639 24.0086 6.47873 27.8529 9.31312 30.6873C12.1475 33.5217 15.9918 35.114 20.0002 35.114C24.0086 35.114 27.8529 33.5217 30.6873 30.6873C33.5217 27.8529 35.114 24.0086 35.114 20.0002C35.114 15.9918 33.5217 12.1475 30.6873 9.31312C27.8529 6.47873 24.0086 4.88639 20.0002 4.88639C15.9918 4.88639 12.1475 6.47873 9.31312 9.31312ZM20.2896 14.1689C21.2561 14.1689 22.0396 13.3854 22.0396 12.4189C22.0396 11.4524 21.2561 10.6689 20.2896 10.6689C19.3231 10.6689 18.5396 11.4524 18.5396 12.4189C18.5396 13.3854 19.3231 14.1689 20.2896 14.1689ZM24.082 26.2554H21.7486V16.2783H18.2486C17.9391 16.2783 17.6424 16.4097 17.4236 16.6436C17.2048 16.8775 17.0819 17.1947 17.0819 17.5255C17.0819 17.8562 17.2048 18.1734 17.4236 18.4073C17.6424 18.6412 17.9391 18.7726 18.2486 18.7726H19.4153V26.2554H17.0819C16.7725 26.2554 16.4757 26.3868 16.2569 26.6207C16.0381 26.8546 15.9152 27.1718 15.9152 27.5026C15.9152 27.8334 16.0381 28.1506 16.2569 28.3845C16.4757 28.6183 16.7725 28.7497 17.0819 28.7497H24.082C24.3914 28.7497 24.6881 28.6183 24.9069 28.3845C25.1257 28.1506 25.2487 27.8334 25.2487 27.5026C25.2487 27.1718 25.1257 26.8546 24.9069 26.6207C24.6881 26.3868 24.3914 26.2554 24.082 26.2554Z" fill="#2A7EF9"/>
</svg>
