<svg width="24" height="24" viewBox="0 0 24 24" fill="current" xmlns="http://www.w3.org/2000/svg">
<path d="M20.8614 1.2002H3.13836C2.73054 1.2002 2.3999 1.48353 2.3999 1.83301V20.8892C2.3999 21.0998 2.52209 21.2965 2.72596 21.4142L4.94134 22.6923C5.19065 22.8361 5.5168 22.8361 5.76616 22.6923L7.56913 21.6521L9.37211 22.6923C9.62142 22.8361 9.94757 22.8361 10.1969 22.6923L11.9999 21.6521L13.8029 22.6923C14.0522 22.8361 14.3783 22.8361 14.6277 22.6923L16.4307 21.6521L18.2337 22.6923C18.3583 22.7643 18.5022 22.8002 18.6461 22.8002C18.79 22.8002 18.9338 22.7642 19.0585 22.6923L21.2738 21.4142C21.4777 21.2965 21.5999 21.0998 21.5999 20.8892V1.83301C21.5999 1.48353 21.2693 1.2002 20.8614 1.2002ZM6.09221 3.77363H9.04606C9.45388 3.77363 9.78452 4.05696 9.78452 4.40645C9.78452 4.75593 9.45388 5.03926 9.04606 5.03926H6.09221C5.68438 5.03926 5.35375 4.75593 5.35375 4.40645C5.35375 4.05696 5.68438 3.77363 6.09221 3.77363ZM12.7384 18.2195V18.3283C12.7384 18.6778 12.4077 18.9611 11.9999 18.9611C11.5921 18.9611 11.2614 18.6778 11.2614 18.3283V18.219C10.7643 18.0679 10.3366 17.7674 10.0697 17.3621C9.86929 17.0578 9.99473 16.6718 10.3498 16.5C10.7051 16.3283 11.1555 16.4357 11.356 16.74C11.7296 17.3074 12.7384 17.0762 12.7384 16.4299C12.7384 16.081 12.4071 15.7971 11.9999 15.7971C10.7783 15.7971 9.78452 14.9454 9.78452 13.8986C9.78452 13.0737 10.4019 12.3703 11.2614 12.109V12.0002C11.2614 11.6507 11.5921 11.3674 11.9999 11.3674C12.4077 11.3674 12.7384 11.6507 12.7384 12.0002V12.1096C13.2355 12.2607 13.6631 12.5611 13.93 12.9664C14.1305 13.2707 14.0051 13.6567 13.65 13.8285C13.2948 14.0003 12.8444 13.8929 12.6439 13.5885C12.2702 13.0212 11.2614 13.2522 11.2614 13.8986C11.2614 14.2476 11.5927 14.5314 11.9999 14.5314C13.2215 14.5314 14.2153 15.3831 14.2153 16.4299C14.2153 17.2549 13.5979 17.9583 12.7384 18.2195ZM17.9076 10.1018H6.09221C5.68438 10.1018 5.35375 9.81843 5.35375 9.46895C5.35375 9.11946 5.68438 8.83613 6.09221 8.83613H17.9076C18.3154 8.83613 18.6461 9.11946 18.6461 9.46895C18.6461 9.81843 18.3154 10.1018 17.9076 10.1018ZM17.9076 7.57051H6.09221C5.68438 7.57051 5.35375 7.28718 5.35375 6.9377C5.35375 6.58821 5.68438 6.30488 6.09221 6.30488H17.9076C18.3154 6.30488 18.6461 6.58821 18.6461 6.9377C18.6461 7.28718 18.3154 7.57051 17.9076 7.57051Z" fill="current"/>
</svg>
