<svg width="24" height="24" viewBox="0 0 24 24" fill="current" xmlns="http://www.w3.org/2000/svg">
<path d="M18.4286 6.28567H21.5786L17.7143 2.42142V5.57139C17.7143 5.76083 17.7895 5.94251 17.9235 6.07646C18.0574 6.21042 18.2391 6.28567 18.4286 6.28567Z" fill="current"/>
<path d="M18.4286 7.71423C17.8603 7.71423 17.3152 7.48847 16.9133 7.08661C16.5115 6.68475 16.2857 6.13971 16.2857 5.57139V2H8.42857C7.86025 2 7.31521 2.22576 6.91334 2.62762C6.51148 3.02948 6.28571 3.57452 6.28571 4.14284V6.28567C7.38253 6.28826 8.45542 6.60645 9.3763 7.20224C10.2972 7.79804 11.0271 8.64628 11.479 9.64567C11.9309 10.6451 12.0856 11.7534 11.9247 12.8383C11.7637 13.9233 11.294 14.939 10.5714 15.7641V21.2855C10.5723 21.5294 10.5288 21.7715 10.4429 21.9998H19.8571C20.4255 21.9998 20.9705 21.774 21.3724 21.3722C21.7742 20.9703 22 20.4253 22 19.857V7.71423H18.4286ZM11.2857 6.99995C11.2857 6.81051 11.361 6.62883 11.4949 6.49488C11.6289 6.36093 11.8106 6.28567 12 6.28567H14.1429C14.3323 6.28567 14.514 6.36093 14.6479 6.49488C14.7819 6.62883 14.8571 6.81051 14.8571 6.99995C14.8571 7.18939 14.7819 7.37107 14.6479 7.50502C14.514 7.63897 14.3323 7.71423 14.1429 7.71423H12C11.8106 7.71423 11.6289 7.63897 11.4949 7.50502C11.361 7.37107 11.2857 7.18939 11.2857 6.99995ZM18.4286 18.4284H12.7143C12.5248 18.4284 12.3432 18.3532 12.2092 18.2192C12.0753 18.0852 12 17.9036 12 17.7141C12 17.5247 12.0753 17.343 12.2092 17.2091C12.3432 17.0751 12.5248 16.9999 12.7143 16.9999H18.4286C18.618 16.9999 18.7997 17.0751 18.9336 17.2091C19.0676 17.343 19.1429 17.5247 19.1429 17.7141C19.1429 17.9036 19.0676 18.0852 18.9336 18.2192C18.7997 18.3532 18.618 18.4284 18.4286 18.4284ZM18.4286 14.857H14.1429C13.9534 14.857 13.7717 14.7818 13.6378 14.6478C13.5038 14.5139 13.4286 14.3322 13.4286 14.1427C13.4286 13.9533 13.5038 13.7716 13.6378 13.6377C13.7717 13.5037 13.9534 13.4285 14.1429 13.4285H18.4286C18.618 13.4285 18.7997 13.5037 18.9336 13.6377C19.0676 13.7716 19.1429 13.9533 19.1429 14.1427C19.1429 14.3322 19.0676 14.5139 18.9336 14.6478C18.7997 14.7818 18.618 14.857 18.4286 14.857ZM18.4286 11.2856H14.1429C13.9534 11.2856 13.7717 11.2104 13.6378 11.0764C13.5038 10.9425 13.4286 10.7608 13.4286 10.5713C13.4286 10.3819 13.5038 10.2002 13.6378 10.0663C13.7717 9.93232 13.9534 9.85706 14.1429 9.85706H18.4286C18.618 9.85706 18.7997 9.93232 18.9336 10.0663C19.0676 10.2002 19.1429 10.3819 19.1429 10.5713C19.1429 10.7608 19.0676 10.9425 18.9336 11.0764C18.7997 11.2104 18.618 11.2856 18.4286 11.2856Z" fill="current"/>
<path d="M3.42857 16.9427V21.2855C3.42928 21.4265 3.47171 21.5642 3.55052 21.6811C3.62932 21.7981 3.74099 21.8891 3.87143 21.9427C4.00151 21.9974 4.14487 22.0123 4.28344 21.9856C4.422 21.9589 4.54955 21.8918 4.65 21.7927L6.28571 20.1498L7.92143 21.7927C7.98817 21.8589 8.06733 21.9112 8.15435 21.9468C8.24138 21.9823 8.33457 22.0003 8.42857 21.9998C8.52227 22.0022 8.61523 21.9826 8.7 21.9427C8.83044 21.8891 8.9421 21.7981 9.02091 21.6811C9.09972 21.5642 9.14215 21.4265 9.14286 21.2855V16.9427C8.27537 17.4478 7.28951 17.7138 6.28571 17.7138C5.28192 17.7138 4.29606 17.4478 3.42857 16.9427Z" fill="current"/>
<path d="M6.28571 16.2856C8.65265 16.2856 10.5714 14.3668 10.5714 11.9999C10.5714 9.63299 8.65265 7.71423 6.28571 7.71423C3.91878 7.71423 2 9.63299 2 11.9999C2 14.3668 3.91878 16.2856 6.28571 16.2856Z" fill="current"/>s
</svg>
