<svg width="24" height="24" viewBox="0 0 24 24" fill="current" xmlns="http://www.w3.org/2000/svg">
<path d="M21.75 5H2.25C1.00922 5 0 6.0466 0 7.33333V16.6667C0 17.9534 1.00922 19 2.25 19H21.75C22.9908 19 24 17.9534 24 16.6667V7.33333C24 6.0466 22.9908 5 21.75 5ZM2.68969 8.81597C2.52141 8.42319 2.69203 7.96382 3.07031 7.78931C3.44859 7.61479 3.89203 7.79174 4.06031 8.18403L4.875 10.0852L5.68969 8.18403C5.85797 7.79174 6.30141 7.61479 6.67969 7.78931C7.05797 7.96382 7.22859 8.42319 7.06031 8.81597L5.69578 12L7.06031 15.184C7.28194 15.7013 6.91327 16.2778 6.37547 16.2778C6.08812 16.2778 5.81391 16.1057 5.68969 15.816L4.875 13.9153L4.06031 15.816C3.93609 16.1057 3.66188 16.2778 3.37453 16.2778C2.83706 16.2778 2.46797 15.7015 2.68969 15.184L4.05422 12L2.68969 8.81597ZM12 12.7778H11.625C11.2106 12.7778 10.875 12.4297 10.875 12C10.875 11.5703 11.2106 11.2222 11.625 11.2222H12C12.2067 11.2222 12.375 11.0477 12.375 10.8333V9.66667C12.375 9.45229 12.2067 9.27778 12 9.27778H10.5C10.0856 9.27778 9.75 8.92972 9.75 8.5C9.75 8.07028 10.0856 7.72222 10.5 7.72222H12C13.0341 7.72222 13.875 8.59431 13.875 9.66667C13.875 10.8008 13.9647 11.3591 13.4991 12C13.7353 12.3252 13.875 12.7292 13.875 13.1667V14.3333C13.875 15.4057 13.0341 16.2778 12 16.2778H10.5C10.0856 16.2778 9.75 15.9297 9.75 15.5C9.75 15.0703 10.0856 14.7222 10.5 14.7222H12C12.2067 14.7222 12.375 14.5477 12.375 14.3333V13.1667C12.375 12.9523 12.2067 12.7778 12 12.7778ZM9 12.7778H7.875C7.46063 12.7778 7.125 12.4297 7.125 12C7.125 11.5703 7.46063 11.2222 7.875 11.2222H9C9.41438 11.2222 9.75 11.5703 9.75 12C9.75 12.4297 9.41438 12.7778 9 12.7778ZM18.375 14.7222C18.7894 14.7222 19.125 15.0703 19.125 15.5C19.125 15.9297 18.7894 16.2778 18.375 16.2778H15.375C14.7776 16.2778 14.4184 15.5849 14.7511 15.0683L17.1272 11.3724C17.453 10.8659 17.625 10.2758 17.625 9.66667C17.625 9.45229 17.4567 9.27778 17.25 9.27778H16.5C16.2933 9.27778 16.125 9.45229 16.125 9.66667C16.125 10.0964 15.7894 10.4444 15.375 10.4444C14.9606 10.4444 14.625 10.0964 14.625 9.66667C14.625 8.59431 15.4659 7.72222 16.5 7.72222H17.25C18.2841 7.72222 19.125 8.59431 19.125 9.66667C19.125 10.584 18.8658 11.4721 18.375 12.2353L16.7766 14.7222H18.375ZM21.375 15.5C21.375 15.9297 21.0394 16.2778 20.625 16.2778C20.2106 16.2778 19.875 15.9297 19.875 15.5V8.5C19.875 8.07028 20.2106 7.72222 20.625 7.72222C21.0394 7.72222 21.375 8.07028 21.375 8.5V15.5Z" fill="current"/>
<path d="M0 6C0 4.34315 1.34315 3 3 3H21C22.6569 3 24 4.34315 24 6V7H0V6Z" fill="current"/>
<path d="M0 18C0 19.6569 1.34315 21 3 21H21C22.6569 21 24 19.6569 24 18V17H0V18Z" fill="current"/>
</svg>
