<svg width="24" height="24" viewBox="0 0 24 24" fill="none" xmlns="http://www.w3.org/2000/svg">
<mask id="path-1-inside-1_18_2825" fill="current">
<path fill-rule="evenodd" clip-rule="evenodd" d="M12 24C18.6274 24 24 18.6274 24 12C24 5.37258 18.6274 0 12 0C5.37258 0 0 5.37258 0 12C0 18.6274 5.37258 24 12 24ZM6 7.44105C6 6.64545 6.64545 6 7.44105 6C8.23605 6 8.8815 6.64545 8.8821 7.44105C8.8821 8.23665 8.23665 8.8956 7.44105 8.8956C6.64545 8.8956 6 8.23665 6 7.44105ZM17.9976 17.9981L18.0006 17.9977V13.5967C18.0006 11.4437 17.5371 9.78516 15.0201 9.78516C13.81 9.78516 12.9981 10.4492 12.6666 11.0786H12.6316V9.98616H10.2451V17.9977H12.7302V14.0306C12.7302 12.9862 12.9282 11.9761 14.2216 11.9761C15.4962 11.9761 15.5151 13.1681 15.5151 14.0975V17.9981H17.9976ZM6.19922 9.99023H8.68727V18.0017H6.19922V9.99023Z"/>
</mask>
<path fill-rule="evenodd" clip-rule="evenodd" d="M12 24C18.6274 24 24 18.6274 24 12C24 5.37258 18.6274 0 12 0C5.37258 0 0 5.37258 0 12C0 18.6274 5.37258 24 12 24ZM6 7.44105C6 6.64545 6.64545 6 7.44105 6C8.23605 6 8.8815 6.64545 8.8821 7.44105C8.8821 8.23665 8.23665 8.8956 7.44105 8.8956C6.64545 8.8956 6 8.23665 6 7.44105ZM17.9976 17.9981L18.0006 17.9977V13.5967C18.0006 11.4437 17.5371 9.78516 15.0201 9.78516C13.81 9.78516 12.9981 10.4492 12.6666 11.0786H12.6316V9.98616H10.2451V17.9977H12.7302V14.0306C12.7302 12.9862 12.9282 11.9761 14.2216 11.9761C15.4962 11.9761 15.5151 13.1681 15.5151 14.0975V17.9981H17.9976ZM6.19922 9.99023H8.68727V18.0017H6.19922V9.99023Z" fill="current"/>
<path d="M8.8821 7.44105L9.8821 7.44105L9.8821 7.4403L8.8821 7.44105ZM18.0006 17.9977L18.1484 18.9867L19.0006 18.8593V17.9977H18.0006ZM17.9976 17.9981V18.9981H18.0719L18.1454 18.9871L17.9976 17.9981ZM12.6666 11.0786V12.0786H13.2701L13.5513 11.5446L12.6666 11.0786ZM12.6316 11.0786H11.6316V12.0786H12.6316V11.0786ZM12.6316 9.98616H13.6316V8.98616H12.6316V9.98616ZM10.2451 9.98616V8.98616H9.24512V9.98616H10.2451ZM10.2451 17.9977H9.24512V18.9977H10.2451V17.9977ZM12.7302 17.9977V18.9977H13.7302V17.9977H12.7302ZM15.5151 17.9981H14.5151V18.9981H15.5151V17.9981ZM8.68727 9.99023H9.68727V8.99023H8.68727V9.99023ZM6.19922 9.99023V8.99023H5.19922V9.99023H6.19922ZM8.68727 18.0017V19.0017H9.68727V18.0017H8.68727ZM6.19922 18.0017H5.19922V19.0017H6.19922V18.0017ZM23 12C23 18.0751 18.0751 23 12 23V25C19.1797 25 25 19.1797 25 12H23ZM12 1C18.0751 1 23 5.92487 23 12H25C25 4.8203 19.1797 -1 12 -1V1ZM1 12C1 5.92487 5.92487 1 12 1V-1C4.8203 -1 -1 4.8203 -1 12H1ZM12 23C5.92487 23 1 18.0751 1 12H-1C-1 19.1797 4.8203 25 12 25V23ZM7.44105 5C6.09317 5 5 6.09317 5 7.44105H7C7 7.19773 7.19773 7 7.44105 7V5ZM9.8821 7.4403C9.88109 6.09342 8.78875 5 7.44105 5V7C7.68335 7 7.88192 7.19748 7.8821 7.4418L9.8821 7.4403ZM7.44105 9.8956C8.80102 9.8956 9.8821 8.77678 9.8821 7.44105H7.8821C7.8821 7.69653 7.67228 7.8956 7.44105 7.8956V9.8956ZM5 7.44105C5 8.77678 6.08108 9.8956 7.44105 9.8956V7.8956C7.20982 7.8956 7 7.69653 7 7.44105H5ZM17.8527 17.0086L17.8497 17.0091L18.1454 18.9871L18.1484 18.9867L17.8527 17.0086ZM17.0006 13.5967V17.9977H19.0006V13.5967H17.0006ZM15.0201 10.7852C16.0317 10.7852 16.4067 11.0968 16.608 11.4164C16.8759 11.842 17.0006 12.542 17.0006 13.5967H19.0006C19.0006 12.4984 18.8935 11.2927 18.3004 10.3507C17.6407 9.30284 16.5255 8.78516 15.0201 8.78516V10.7852ZM13.5513 11.5446C13.7178 11.2286 14.1979 10.7852 15.0201 10.7852V8.78516C13.4221 8.78516 12.2783 9.66984 11.7818 10.6126L13.5513 11.5446ZM12.6316 12.0786H12.6666V10.0786H12.6316V12.0786ZM11.6316 9.98616V11.0786H13.6316V9.98616H11.6316ZM10.2451 10.9862H12.6316V8.98616H10.2451V10.9862ZM11.2451 17.9977V9.98616H9.24512V17.9977H11.2451ZM12.7302 16.9977H10.2451V18.9977H12.7302V16.9977ZM11.7302 14.0306V17.9977H13.7302V14.0306H11.7302ZM14.2216 10.9761C13.7682 10.9761 13.3382 11.0651 12.9584 11.2754C12.5728 11.4889 12.2997 11.7941 12.1151 12.1289C11.7719 12.7514 11.7302 13.4901 11.7302 14.0306H13.7302C13.7302 13.5267 13.7874 13.2381 13.8666 13.0944C13.8932 13.0461 13.9121 13.0335 13.9274 13.025C13.9485 13.0133 14.0283 12.9761 14.2216 12.9761V10.9761ZM16.5151 14.0975C16.5151 13.6764 16.5232 12.944 16.276 12.32C16.1411 11.9792 15.9138 11.6219 15.5336 11.3567C15.1513 11.09 14.6999 10.9761 14.2216 10.9761V12.9761C14.3806 12.9761 14.4096 13.0111 14.3893 12.997C14.3711 12.9843 14.3875 12.9831 14.4166 13.0565C14.4491 13.1387 14.4788 13.2689 14.4962 13.463C14.5134 13.6553 14.5151 13.8625 14.5151 14.0975H16.5151ZM16.5151 17.9981V14.0975H14.5151V17.9981H16.5151ZM17.9976 16.9981H15.5151V18.9981H17.9976V16.9981ZM8.68727 8.99023H6.19922V10.9902H8.68727V8.99023ZM9.68727 18.0017V9.99023H7.68727V18.0017H9.68727ZM6.19922 19.0017H8.68727V17.0017H6.19922V19.0017ZM5.19922 9.99023V18.0017H7.19922V9.99023H5.19922Z" fill="current" mask="url(#path-1-inside-1_18_2825)"/>
</svg>
