<svg width="16" height="16" viewBox="0 0 16 16" fill="current" xmlns="http://www.w3.org/2000/svg">
<path d="M8 2.69779C8 2.31241 8.31345 1.99581 8.69623 2.04053C9.37527 2.11986 10.0375 2.31488 10.6537 2.61876C11.4791 3.02581 12.1999 3.61729 12.7601 4.34743C13.3204 5.07758 13.7052 5.92682 13.8847 6.82946C14.0188 7.50333 14.0357 8.19349 13.9366 8.86992C13.8807 9.25123 13.4938 9.47206 13.1215 9.37231V9.37231C12.7493 9.27257 12.5341 8.88965 12.5765 8.50661C12.6282 8.03933 12.6082 7.56551 12.5159 7.10172C12.3782 6.40903 12.0829 5.75732 11.6529 5.19701C11.223 4.63669 10.6699 4.18279 10.0365 3.87042C9.61238 3.66128 9.15987 3.51933 8.69513 3.44836C8.31417 3.39017 8 3.08317 8 2.69779V2.69779Z" fill="current"/>
</svg>
