<svg width="24" height="24" viewBox="0 0 24 24" fill="current" xmlns="http://www.w3.org/2000/svg">
<path fill-rule="evenodd" clip-rule="evenodd" d="M11.8555 18.8146V19.8113C11.8555 20.6106 11.4543 21.3007 10.7572 21.7003C10.4219 21.8925 10.0475 21.9998 9.65945 22C9.271 22.0002 8.89679 21.8927 8.56118 21.7003L4.09823 19.1415C3.40107 18.7418 3 18.052 3 17.2526V4.18117C3 2.9784 3.9853 2 5.19646 2H15.0255C16.2367 2 17.2221 2.97832 17.2221 4.18117V6.93659C17.2221 7.33186 16.8989 7.6528 16.5009 7.6528C16.1027 7.6528 15.7798 7.3319 15.7798 6.93659V4.18117C15.7798 3.76816 15.4414 3.43211 15.0255 3.43211H6.4127L10.7572 5.92339C11.4541 6.323 11.8555 7.01284 11.8555 7.81194V17.3824H15.0255C15.4413 17.3824 15.7798 17.0465 15.7798 16.6334V14.218C15.7798 13.8224 16.1025 13.5018 16.5009 13.5018C16.8991 13.5018 17.2221 13.8225 17.2221 14.218V16.6334C17.2221 17.8363 16.2367 18.8146 15.0255 18.8146H11.8555ZM18.5381 11.1233L17.7438 11.9121C17.4622 12.1917 17.4623 12.6451 17.7438 12.9247C17.8794 13.0594 18.062 13.1343 18.2537 13.1343C18.4456 13.1343 18.6281 13.0596 18.7638 12.9247L20.7888 10.9135C21.0704 10.6339 21.0704 10.1808 20.7888 9.90116L18.7638 7.89022C18.4822 7.61054 18.0256 7.61065 17.7439 7.89018C17.4623 8.16956 17.4624 8.62311 17.7439 8.90256L18.5381 9.69108H13.2174C12.819 9.69108 12.4963 10.0117 12.4963 10.4073C12.4963 10.803 12.819 11.1234 13.2174 11.1234H18.5381V11.1233Z" fill="current"/>
</svg>
