<svg width="48" height="48" viewBox="0 0 48 48" fill="current" xmlns="http://www.w3.org/2000/svg">
<path d="M25.0064 33.0811C25.1184 34.0037 24.8713 34.8456 24.2917 35.5158C23.606 36.3086 22.4634 36.8391 21.164 36.9852V37.9803C21.164 38.3945 20.8282 38.7303 20.414 38.7303C19.9998 38.7303 19.664 38.3945 19.664 37.9803V36.9744C17.7428 36.7162 16.2487 35.505 15.817 33.7739C15.7168 33.372 15.9614 32.9649 16.3633 32.8647C16.7655 32.7651 17.1723 33.0092 17.2725 33.411C17.6585 34.959 19.1709 35.5131 20.41 35.5255C20.4166 35.5254 20.4233 35.5256 20.4298 35.5257C20.4714 35.5255 20.5127 35.5255 20.5536 35.5245C21.6374 35.4987 22.6594 35.1101 23.1571 34.5345C23.4608 34.1833 23.5787 33.767 23.5174 33.2618C23.3726 32.0697 22.3814 31.3859 20.3034 31.0448C17.0243 30.5064 16.2608 28.8458 16.1979 27.5476C16.1106 25.7484 17.3708 24.2405 19.3338 23.7952C19.4419 23.7707 19.5522 23.7498 19.664 23.7325V22.716C19.664 22.3018 19.9998 21.966 20.414 21.966C20.8282 21.966 21.164 22.3018 21.164 22.716V23.7261C22.5716 23.9299 23.9627 24.7419 24.6563 26.394C24.8166 26.7758 24.637 27.2155 24.2551 27.3758C23.8732 27.5363 23.4336 27.3566 23.2733 26.9747C22.7345 25.6916 21.5817 25.1707 20.4694 25.1689C20.4386 25.1712 20.4069 25.1714 20.3759 25.17C20.134 25.1758 19.8951 25.2061 19.6656 25.2581C18.6724 25.4833 17.6334 26.184 17.6962 27.4749C17.7158 27.8793 17.7755 29.1097 20.5464 29.5647C21.5642 29.7318 24.6615 30.2402 25.0064 33.0811ZM43.1055 37.7912L36.0886 46.0555C35.8453 46.3421 35.5044 46.4999 35.1284 46.4999C34.7526 46.4999 34.4115 46.342 34.1682 46.0556L31.3607 42.749C28.468 45.1784 24.7395 46.5 20.7493 46.5C20.6517 46.5 20.5543 46.4992 20.4564 46.4977C20.361 46.4993 20.2647 46.4999 20.1695 46.4999C14.3866 46.5002 9.13463 43.6739 6.40969 39.0758C3.93704 34.9035 3.99113 29.9255 6.558 25.4184C8.16469 22.5974 10.6253 19.4032 14.2554 15.432C13.2244 14.9631 12.5053 13.9239 12.5053 12.7193C12.5053 11.1007 13.8034 9.78028 15.4132 9.74222L13.0421 7.37128C11.8566 6.18572 11.8566 4.25672 13.0421 3.07125C14.0455 2.06775 15.6412 1.89637 16.8363 2.66344C16.9646 2.74575 17.0903 2.757 17.2313 2.69869C17.372 2.64037 17.4529 2.54372 17.4854 2.39456C17.7882 1.00725 19.0376 0.0001875 20.4563 0C21.8751 0 23.1247 1.00697 23.4277 2.39438C23.4602 2.54363 23.541 2.64037 23.682 2.69878C23.8227 2.75709 23.9483 2.74575 24.0767 2.66344C25.2717 1.89647 26.8673 2.06775 27.8708 3.07116C29.0563 4.25681 29.0563 6.18591 27.8708 7.37138L25.4999 9.74231C27.1096 9.78047 28.4077 11.1008 28.4077 12.7195C28.4077 13.924 27.6886 14.9632 26.6575 15.4321C28.1869 17.1053 29.5044 18.6368 30.6382 20.0593C30.7224 19.1614 31.4797 18.4561 32.3991 18.4561H37.8579C38.8335 18.4562 39.6273 19.25 39.6272 20.2255V35.7166H42.1453C42.642 35.7166 43.0801 35.9966 43.2885 36.4474C43.4969 36.8976 43.4269 37.4126 43.1055 37.7912ZM14.1027 6.31059L17.5327 9.74034H23.3805L26.8103 6.31059C27.4109 5.70984 27.4109 4.7325 26.8103 4.13184C26.3019 3.62344 25.493 3.53672 24.887 3.92569C24.3478 4.27163 23.6994 4.32956 23.1079 4.08441C22.5163 3.83934 22.0988 3.33994 21.9622 2.71425C21.8085 2.01075 21.1752 1.5 20.4564 1.5C19.7377 1.50009 19.1045 2.01084 18.9509 2.71434C18.8143 3.34003 18.3968 3.83944 17.8051 4.0845C17.2133 4.32938 16.565 4.27153 16.0261 3.92578C15.42 3.53672 14.6111 3.62344 14.1026 4.13184C13.502 4.7325 13.502 5.70994 14.1027 6.31059ZM14.0053 12.7193C14.0053 13.5349 14.6688 14.1983 15.4843 14.1983H25.4286C26.2441 14.1983 26.9076 13.5349 26.9076 12.7194C26.9076 11.9039 26.2441 11.2404 25.4286 11.2404H15.4843C14.6688 11.2403 14.0053 11.9038 14.0053 12.7193ZM30.39 41.6057L27.1514 37.7913C26.8299 37.4124 26.76 36.8974 26.9685 36.4468C27.1769 35.9963 27.6149 35.7163 28.1116 35.7163H30.6297V22.5051C29.1404 20.5013 27.2497 18.2697 24.863 15.6984H16.0495C12.1163 19.9358 9.5101 23.266 7.86132 26.1608C5.53482 30.2458 5.47754 34.5609 7.69997 38.3112C10.1978 42.526 15.0821 45.0875 20.4437 44.9977C20.4521 44.9976 20.4606 44.9976 20.469 44.9977C24.2083 45.0618 27.7016 43.8608 30.39 41.6057ZM34.9457 45.0841C34.9455 45.0844 34.9453 45.0846 34.9451 45.0847L34.9457 45.0841ZM41.6259 37.2164H38.8772C38.463 37.2164 38.1272 36.8806 38.1272 36.4664V20.2253C38.1272 20.0792 38.0039 19.9559 37.8579 19.9559H32.3991C32.2531 19.9559 32.1297 20.0793 32.1297 20.2253V36.4663C32.1297 36.8805 31.7939 37.2163 31.3797 37.2163H28.631L35.1285 44.8689L41.6259 37.2164Z" fill="current"/>
</svg>
