<svg width="24" height="24" viewBox="0 0 24 24" fill="current" xmlns="http://www.w3.org/2000/svg">
<path d="M15.3256 20.8402C15.107 20.9433 14.8639 21 14.6077 21H2.70494C1.76419 21 1 20.2344 1 19.2886C1 17.3302 1.79168 15.5578 3.06967 14.2735C4.34765 12.9892 6.11483 12.196 8.06582 12.196H9.24684C9.95892 12.196 10.6478 12.302 11.2962 12.4982L11.2905 12.5083C11.0878 12.8614 11.0343 13.2725 11.1385 13.6662C11.2441 14.0599 11.496 14.3897 11.8477 14.5931L12.0098 14.6876C11.991 14.8764 11.9808 15.0667 11.9808 15.2571C11.9808 15.4474 11.991 15.6377 12.0098 15.8266L11.8477 15.921C11.496 16.1244 11.2441 16.4542 11.1385 16.8479C11.0343 17.2416 11.0878 17.6527 11.2905 18.0058L12.085 19.3859C12.3557 19.8566 12.8608 20.1501 13.4021 20.1501C13.6684 20.1501 13.9304 20.0789 14.1619 19.9453L14.324 19.8508C14.6323 20.0731 14.9623 20.2649 15.3082 20.4203V20.6092C15.3082 20.6876 15.314 20.7646 15.3256 20.8402Z" fill="current"/>
<path d="M8.65631 10.6854C10.7705 10.6854 12.4845 8.96493 12.4845 6.84268C12.4845 4.72042 10.7705 3 8.65631 3C6.54208 3 4.82815 4.72042 4.82815 6.84268C4.82815 8.96493 6.54208 10.6854 8.65631 10.6854Z" fill="current"/>
<path d="M22.8184 16.9279L21.9514 16.4252C22.0513 16.0518 22.1049 15.661 22.1049 15.2571C22.1049 14.8533 22.0513 14.461 21.9514 14.0891L22.8184 13.5864C22.9921 13.4862 23.0514 13.2639 22.9515 13.0896L22.157 11.7094C22.0571 11.5351 21.8356 11.4755 21.662 11.5757L20.795 12.0784C20.245 11.5263 19.5532 11.1166 18.7789 10.9089V9.905C18.7789 9.70452 18.6168 9.5418 18.4171 9.5418H16.8294C16.6296 9.5418 16.4675 9.70452 16.4675 9.905V10.9089C15.6932 11.1152 15.0014 11.5249 14.4514 12.0784L13.5845 11.5757C13.4108 11.4755 13.1894 11.5351 13.0895 11.7094L12.2949 13.0896C12.195 13.2639 12.2544 13.4862 12.4281 13.5864L13.295 14.0891C13.1951 14.4625 13.1416 14.8533 13.1416 15.2571C13.1416 15.661 13.1951 16.0533 13.295 16.4252L12.4281 16.9279C12.2544 17.0281 12.195 17.2504 12.2949 17.4247L13.0895 18.8049C13.1894 18.9792 13.4108 19.0388 13.5845 18.9386L14.4514 18.4359C15.0014 18.988 15.6932 19.3976 16.4675 19.6054V20.6093C16.4675 20.8098 16.6296 20.9725 16.8294 20.9725H18.4171C18.6168 20.9725 18.7789 20.8098 18.7789 20.6093V19.6054C19.5532 19.3991 20.245 18.9894 20.795 18.4359L21.662 18.9386C21.8356 19.0388 22.0571 18.9792 22.157 18.8049L22.9515 17.4247C23.0514 17.2504 22.9921 17.0281 22.8184 16.9279ZM17.6225 17.092C16.6123 17.092 15.7945 16.2698 15.7945 15.2571C15.7945 14.2431 16.6137 13.4222 17.6225 13.4222C18.6313 13.4222 19.4505 14.2445 19.4505 15.2571C19.4505 16.2698 18.6327 17.092 17.6225 17.092Z" fill="current"/>
</svg>
