<svg width="24" height="24" viewBox="0 0 24 24" fill="current" xmlns="http://www.w3.org/2000/svg">
<path d="M19.4609 2.5H4.53906C3.13902 2.5 2 3.65421 2 5.07292V18.9271C2 20.3458 3.13902 21.5 4.53906 21.5H19.4609C20.861 21.5 22 20.3458 22 18.9271V5.07292C22 3.65421 20.861 2.5 19.4609 2.5ZM8.48438 17.9375C8.16078 17.9375 7.89844 17.6717 7.89844 17.3438C7.89844 17.0158 8.16078 16.75 8.48438 16.75C8.80797 16.75 9.07031 17.0158 9.07031 17.3438C9.07031 17.6717 8.80797 17.9375 8.48438 17.9375ZM12 19.125C11.0307 19.125 10.2422 18.3259 10.2422 17.3438C10.2422 16.3616 11.0307 15.5625 12 15.5625C12.9693 15.5625 13.7578 16.3616 13.7578 17.3438C13.7578 18.3259 12.9693 19.125 12 19.125ZM15.5156 17.9375C15.192 17.9375 14.9297 17.6717 14.9297 17.3438C14.9297 17.0158 15.192 16.75 15.5156 16.75C15.8392 16.75 16.1016 17.0158 16.1016 17.3438C16.1016 17.6717 15.8392 17.9375 15.5156 17.9375ZM19.6172 13.7812C19.6172 14.1092 19.3548 14.375 19.0312 14.375H4.96875C4.64516 14.375 4.38281 14.1092 4.38281 13.7812V5.38958C4.38281 5.06167 4.64516 4.79583 4.96875 4.79583H19.0312C19.3548 4.79583 19.6172 5.06167 19.6172 5.38958V13.7812Z" fill="current"/>
<path d="M12 17.9375C12.3236 17.9375 12.5859 17.6717 12.5859 17.3438C12.5859 17.0158 12.3236 16.75 12 16.75C11.6764 16.75 11.4141 17.0158 11.4141 17.3438C11.4141 17.6717 11.6764 17.9375 12 17.9375Z" fill="current"/>
<path d="M16.6574 11.594C16.5126 12.0345 15.9451 12.1434 15.6514 11.7864L13.3951 9.04273L13.1418 9.81282C13.062 10.0552 12.8382 10.2188 12.5859 10.2188H11.8364L11.384 11.594C11.2389 12.0351 10.6711 12.1429 10.378 11.7864L8.12168 9.04273L7.86836 9.81282C7.78859 10.0552 7.56473 10.2188 7.3125 10.2188H5.55469V13.1875H18.4453V10.2188H17.1098L16.6574 11.594Z" fill="current"/>
<path d="M5.55469 9.03125H6.89016L7.34254 7.65597C7.48742 7.2156 8.05477 7.10647 8.34855 7.46363L10.6048 10.2073L10.8582 9.43718C10.938 9.19477 11.1618 9.03125 11.4141 9.03125H12.1636L12.616 7.65597C12.7609 7.2156 13.3282 7.10647 13.622 7.46363L15.8783 10.2073L16.1316 9.43718C16.2114 9.19477 16.4353 9.03125 16.6875 9.03125H18.4453V5.98333H5.55469V9.03125Z" fill="current"/>
</svg>
