<svg width="24" height="24" viewBox="0 0 24 24" fill="current" xmlns="http://www.w3.org/2000/svg">
<path fill-rule="evenodd" clip-rule="evenodd" d="M22.0002 4.76758C22.0002 4.34323 21.6584 3.99922 21.2369 3.99922H2.76357C2.34201 3.99922 2.00025 4.34323 2.00025 4.76758C2.00025 5.19193 2.34201 5.53594 2.76357 5.53594H21.2369C21.6584 5.53594 22.0002 5.19193 22.0002 4.76758Z" fill="current"/>
<path d="M17.895 11.9992C17.895 11.5749 17.5532 11.2309 17.1316 11.2309H2.76352C2.34194 11.2309 2.00019 11.5749 2.00019 11.9992C2.00019 12.4236 2.34194 12.7676 2.76352 12.7676H17.1316C17.5532 12.7676 17.895 12.4236 17.895 11.9992Z" fill="current"/>
<path fill-rule="evenodd" clip-rule="evenodd" d="M17.1316 10.9309C17.7208 10.9309 18.195 11.411 18.195 11.9992C18.195 12.5874 17.7208 13.0676 17.1316 13.0676H2.76352C2.1744 13.0676 1.7002 12.5874 1.7002 11.9992C1.7002 11.411 2.1744 10.9309 2.76352 10.9309H17.1316ZM17.1316 11.2309C17.5532 11.2309 17.895 11.5749 17.895 11.9992C17.895 12.4236 17.5532 12.7676 17.1316 12.7676H2.76352C2.34194 12.7676 2.00019 12.4236 2.00019 11.9992C2.00019 11.5749 2.34194 11.2309 2.76352 11.2309H17.1316Z" fill="current"/>
<path d="M13.7899 19.2309C13.7899 18.8065 13.4482 18.4625 13.0266 18.4625H2.76368C2.34211 18.4625 2.00036 18.8065 2.00036 19.2309C2.00036 19.6552 2.34211 19.9992 2.76368 19.9992H13.0266C13.4482 19.9992 13.7899 19.6552 13.7899 19.2309Z" fill="current"/>
<path fill-rule="evenodd" clip-rule="evenodd" d="M22.3002 4.76758C22.3002 4.17941 21.826 3.69922 21.2369 3.69922H2.76357C2.17446 3.69922 1.70025 4.17941 1.70025 4.76758C1.70025 5.35576 2.17446 5.83594 2.76357 5.83594H21.2369C21.826 5.83594 22.3002 5.35576 22.3002 4.76758ZM22.0002 4.76758C22.0002 4.34323 21.6584 3.99922 21.2369 3.99922H2.76357C2.34201 3.99922 2.00025 4.34323 2.00025 4.76758C2.00025 5.19193 2.34201 5.53594 2.76357 5.53594H21.2369C21.6584 5.53594 22.0002 5.19193 22.0002 4.76758Z" fill="current"/>
<path fill-rule="evenodd" clip-rule="evenodd" d="M13.0266 18.1625C13.6157 18.1625 14.0899 18.6427 14.0899 19.2309C14.0899 19.819 13.6157 20.2992 13.0266 20.2992H2.76368C2.17457 20.2992 1.70036 19.819 1.70036 19.2309C1.70036 18.6427 2.17457 18.1625 2.76368 18.1625H13.0266ZM13.0266 18.4625C13.4482 18.4625 13.7899 18.8065 13.7899 19.2309C13.7899 19.6552 13.4482 19.9992 13.0266 19.9992H2.76368C2.34211 19.9992 2.00036 19.6552 2.00036 19.2309C2.00036 18.8065 2.34211 18.4625 2.76368 18.4625H13.0266Z" fill="current"/>
</svg>
