<svg width="48" height="48" viewBox="0 0 48 48" fill="current" xmlns="http://www.w3.org/2000/svg">
<path fill-rule="evenodd" clip-rule="evenodd" d="M40.1053 5.42857H7.89474C7.63313 5.42857 7.42105 5.64177 7.42105 5.90476V42.0952C7.42105 42.3582 7.63313 42.5714 7.89474 42.5714H40.1053C40.3669 42.5714 40.5789 42.3582 40.5789 42.0952V5.90476C40.5789 5.64177 40.3669 5.42857 40.1053 5.42857ZM7.89474 4C6.8483 4 6 4.85279 6 5.90476V42.0952C6 43.1472 6.8483 44 7.89474 44H40.1053C41.1517 44 42 43.1472 42 42.0952V5.90476C42 4.85279 41.1517 4 40.1053 4H7.89474Z" fill="current"/>
<path fill-rule="evenodd" clip-rule="evenodd" d="M26.8421 10.1905H15.4737C15.2121 10.1905 15 10.4037 15 10.6667V12.5714C15 12.8344 15.2121 13.0476 15.4737 13.0476H26.8421C27.1037 13.0476 27.3158 12.8344 27.3158 12.5714V10.6667C27.3158 10.4037 27.1037 10.1905 26.8421 10.1905ZM15.4737 8.7619C14.4272 8.7619 13.5789 9.6147 13.5789 10.6667V12.5714C13.5789 13.6234 14.4272 14.4762 15.4737 14.4762H26.8421C27.8885 14.4762 28.7368 13.6234 28.7368 12.5714V10.6667C28.7368 9.6147 27.8885 8.7619 26.8421 8.7619H15.4737Z" fill="current"/>
<path fill-rule="evenodd" clip-rule="evenodd" d="M35.3684 22.5714H21.1579C20.8963 22.5714 20.6842 22.7846 20.6842 23.0476V24.9524C20.6842 25.2154 20.8963 25.4286 21.1579 25.4286H35.3684C35.63 25.4286 35.8421 25.2154 35.8421 24.9524V23.0476C35.8421 22.7846 35.63 22.5714 35.3684 22.5714ZM21.1579 21.1429C20.1115 21.1429 19.2632 21.9956 19.2632 23.0476V24.9524C19.2632 26.0044 20.1115 26.8571 21.1579 26.8571H35.3684C36.4149 26.8571 37.2632 26.0044 37.2632 24.9524V23.0476C37.2632 21.9956 36.4149 21.1429 35.3684 21.1429H21.1579Z" fill="current"/>
<path fill-rule="evenodd" clip-rule="evenodd" d="M32.5263 34H14.5263C14.2647 34 14.0526 34.2132 14.0526 34.4762V36.381C14.0526 36.6439 14.2647 36.8571 14.5263 36.8571H32.5263C32.7879 36.8571 33 36.6439 33 36.381V34.4762C33 34.2132 32.7879 34 32.5263 34ZM14.5263 32.5714C13.4799 32.5714 12.6316 33.4242 12.6316 34.4762V36.381C12.6316 37.4329 13.4799 38.2857 14.5263 38.2857H32.5263C33.5728 38.2857 34.4211 37.4329 34.4211 36.381V34.4762C34.4211 33.4242 33.5728 32.5714 32.5263 32.5714H14.5263Z" fill="current"/>
<path fill-rule="evenodd" clip-rule="evenodd" d="M10.9737 17.3333C10.9737 16.9388 11.2918 16.619 11.6842 16.619L32.5263 16.619C32.9187 16.619 33.2368 16.9388 33.2368 17.3333C33.2368 17.7278 32.9187 18.0476 32.5263 18.0476L11.6842 18.0476C11.2918 18.0476 10.9737 17.7278 10.9737 17.3333Z" fill="current"/>
<path fill-rule="evenodd" clip-rule="evenodd" d="M10.9737 29.7143C10.9737 29.3198 11.2918 29 11.6842 29L24 29C24.3924 29 24.7105 29.3198 24.7105 29.7143C24.7105 30.1088 24.3924 30.4286 24 30.4286L11.6842 30.4286C11.2918 30.4286 10.9737 30.1088 10.9737 29.7143Z" fill="current"/>
</svg>
