<svg width="16" height="16" viewBox="0 0 16 16" fill="current" xmlns="http://www.w3.org/2000/svg">
<path d="M14.8137 7.55045L10.3591 3.17545C10.2391 3.0616 10.0783 2.9986 9.91147 3.00002C9.74461 3.00145 9.585 3.06718 9.46702 3.18306C9.34903 3.29894 9.2821 3.4557 9.28065 3.61957C9.2792 3.78344 9.34334 3.94132 9.45926 4.05919L12.8276 7.36732H1.63637C1.46759 7.36732 1.30573 7.43317 1.18639 7.55038C1.06705 7.66759 1 7.82656 1 7.99232C1 8.15808 1.06705 8.31705 1.18639 8.43426C1.30573 8.55147 1.46759 8.61732 1.63637 8.61732H12.8276L9.45926 11.9254C9.39848 11.9831 9.35 12.0521 9.31665 12.1283C9.2833 12.2046 9.26575 12.2866 9.26501 12.3696C9.26428 12.4526 9.28038 12.5349 9.31238 12.6117C9.34437 12.6885 9.39163 12.7583 9.45138 12.8169C9.51113 12.8756 9.58218 12.922 9.66039 12.9535C9.73859 12.9849 9.82239 13.0007 9.90689 13C9.99138 12.9993 10.0749 12.982 10.1525 12.9493C10.2302 12.9165 10.3004 12.8689 10.3591 12.8092L14.8137 8.43419C14.933 8.31699 15 8.15805 15 7.99232C15 7.82659 14.933 7.66765 14.8137 7.55045Z" fill="current"/>
</svg>
