<svg width="22" height="22" viewBox="0 0 22 22" fill="current" xmlns="http://www.w3.org/2000/svg">
<g clip-path="url(#clip0_2805_67132)">
<path d="M8.86359 13.3207C9.52222 13.3207 10.1323 13.5307 10.632 13.8863V2.04374C10.632 0.940305 9.7295 0.00285613 8.62606 0.00195379C7.55395 0.00109441 6.61938 0.837395 6.61938 1.90818C6.59858 2.38027 6.57873 2.55499 6.36775 2.72115C6.19102 2.84679 6.04046 2.86088 5.79262 2.84859C5.64261 2.84111 5.49166 2.84382 5.34282 2.86406C4.14683 3.02678 3.2221 4.05481 3.2221 5.29476C3.20856 6.59654 4.32339 7.7631 5.67523 7.74789C6.03848 7.74789 6.33157 8.04841 6.31937 8.41438C6.30764 8.76758 6.00261 9.03927 5.64923 9.03682C4.0914 9.02617 2.75687 8.05868 2.20468 6.69404C0.845797 7.52793 0 9.00876 0 10.6406C0 11.6485 0.317926 12.6065 0.919402 13.4112C1.50146 14.1899 2.33015 14.7771 3.25278 15.0645C3.48584 15.1371 3.66231 15.3371 3.69918 15.5882C3.71933 15.7256 3.69192 15.8665 3.62661 15.989C3.47084 16.2812 3.39187 16.5982 3.39187 16.9316C3.39187 18.0385 4.29245 18.9391 5.39945 18.9391C5.6879 18.9524 6.06465 18.7576 6.39074 19.0273C6.54431 19.1566 6.62883 19.3501 6.61934 19.5507C6.61766 19.5861 6.61684 19.9614 6.61684 19.991C6.61684 21.1109 7.53857 22.0196 8.66323 21.9982C9.76233 21.9773 10.632 21.0566 10.632 19.9573V16.4106C10.632 15.4292 9.84629 14.6105 8.8648 14.6098C7.89177 14.6092 7.09947 15.3985 7.09526 16.3704C7.0938 16.7079 6.83358 16.9977 6.49683 17.0211C6.12 17.0473 5.8062 16.7494 5.8062 16.3782C5.80615 14.6922 7.17771 13.3207 8.86359 13.3207Z" fill="current"/>
<path d="M20.2222 9.21875C19.4679 9.21875 18.8239 9.68879 18.5657 10.3517H11.918V11.6408H18.5657C18.8239 12.3037 19.4679 12.7737 20.2222 12.7737C21.2038 12.7737 21.9996 11.9779 21.9996 10.9962C21.9996 10.0146 21.2039 9.21875 20.2222 9.21875Z" fill="current"/>
<path d="M19.3905 17.813C18.6304 17.813 17.982 18.2903 17.7279 18.9615H15.9896V14.8418C15.9896 14.4858 15.7011 14.1973 15.3451 14.1973H11.918V15.4863H14.7006V19.606C14.7006 19.962 14.9892 20.2506 15.3451 20.2506H17.7402C18.0023 20.9052 18.6422 21.3679 19.3905 21.3679C20.3722 21.3679 21.168 20.5721 21.168 19.5904C21.168 18.6088 20.3722 17.813 19.3905 17.813Z" fill="current"/>
<path d="M19.3905 0.597656C18.6317 0.597656 17.9843 1.07341 17.7293 1.74273H15.3451C14.9892 1.74273 14.7006 2.03131 14.7006 2.38726V6.50698H11.918V7.79604H15.3451C15.7011 7.79604 15.9896 7.50746 15.9896 7.15151V3.03179H17.7389C18.0001 3.68831 18.6409 4.15259 19.3905 4.15259C20.3722 4.15259 21.168 3.35677 21.168 2.3751C21.168 1.39344 20.3722 0.597656 19.3905 0.597656Z" fill="current"/>
</g>
<defs>
<clipPath id="clip0_2805_67132">
<rect width="22" height="22" fill="white"/>
</clipPath>
</defs>
</svg>
