<!DOCTYPE svg PUBLIC "-//W3C//DTD SVG 1.1//EN" "http://www.w3.org/Graphics/SVG/1.1/DTD/svg11.dtd">
<!-- Uploaded to: SVG Repo, www.svgrepo.com, Transformed by: SVG Repo Mixer Tools -->
<svg fill="#ff0000" height="800px" width="800px" version="1.1" id="Layer_1" xmlns="http://www.w3.org/2000/svg" xmlns:xlink="http://www.w3.org/1999/xlink" viewBox="0 0 512 512" enable-background="new 0 0 512 512" xml:space="preserve" stroke="#ff0000">
<g id="SVGRepo_bgCarrier" stroke-width="0"/>
<g id="SVGRepo_tracerCarrier" stroke-linecap="round" stroke-linejoin="round"/>
<g id="SVGRepo_iconCarrier"> <path d="M256,0C114.6,0,0,114.6,0,256s114.6,256,256,256s256-114.6,256-256S397.4,0,256,0z M377.3,316.5c8.4,8.4,8.4,22,0,30.4 l-30.4,30.4c-8.4,8.4-22,8.4-30.4,0l-60.8-60.8l-60.8,60.8c-8.4,8.4-22,8.4-30.4,0L134,346.9c-8.4-8.4-8.4-22,0-30.4l60.8-60.8 L134,194.8c-8.4-8.4-8.4-22,0-30.4l30.4-30.4c8.4-8.4,22-8.4,30.4,0l60.8,60.8l60.8-60.8c8.4-8.4,22-8.4,30.4,0l30.4,30.4 c8.4,8.4,8.4,22,0,30.4l-60.8,60.8L377.3,316.5z"/> </g>
</svg>