<svg width="40" height="40" viewBox="0 0 40 40" fill="none" xmlns="http://www.w3.org/2000/svg">
<rect x="0.5" y="0.5" width="39" height="39" rx="19.5" stroke="#2A7EF9"/>
<path d="M19 14.5V25.5C19 25.8978 18.842 26.2794 18.5607 26.5607C18.2794 26.842 17.8978 27 17.5 27H16C15.6022 27 15.2206 26.842 14.9393 26.5607C14.658 26.2794 14.5 25.8978 14.5 25.5V14.5C14.5 14.1022 14.658 13.7206 14.9393 13.4393C15.2206 13.158 15.6022 13 16 13H17.5C17.8978 13 18.2794 13.158 18.5607 13.4393C18.842 13.7206 19 14.1022 19 14.5ZM24 13H22.5C22.1022 13 21.7206 13.158 21.4393 13.4393C21.158 13.7206 21 14.1022 21 14.5V25.5C21 25.8978 21.158 26.2794 21.4393 26.5607C21.7206 26.842 22.1022 27 22.5 27H24C24.3978 27 24.7794 26.842 25.0607 26.5607C25.342 26.2794 25.5 25.8978 25.5 25.5V14.5C25.5 14.1022 25.342 13.7206 25.0607 13.4393C24.7794 13.158 24.3978 13 24 13Z" fill="#2A7EF9"/>
</svg>
