<svg width="24" height="24" viewBox="0 0 24 24" fill="current" xmlns="http://www.w3.org/2000/svg">
<g clip-path="url(#clip0_754_5666)">
<path d="M12 10.0078C13.4239 10.0078 14.5781 8.85355 14.5781 7.42969C14.5781 6.00583 13.4239 4.85156 12 4.85156C10.5761 4.85156 9.42188 6.00583 9.42188 7.42969C9.42188 8.85355 10.5761 10.0078 12 10.0078Z" fill="current"/>
<path d="M19.9688 8.36719C19.9688 7.07484 18.9173 6.02344 17.625 6.02344C16.3697 6.02344 15.3417 7.01531 15.2841 8.25656C16.1162 8.85633 16.7907 9.68822 17.198 10.672C17.3367 10.6973 17.4792 10.7109 17.625 10.7109C18.9154 10.7109 19.9688 9.66122 19.9688 8.36719Z" fill="current"/>
<path d="M8.71594 8.25656C8.65828 7.01531 7.63031 6.02344 6.375 6.02344C5.08266 6.02344 4.03125 7.07484 4.03125 8.36719C4.03125 9.81928 5.34863 10.9372 6.80203 10.672C7.20192 9.70608 7.86567 8.86941 8.71594 8.25656Z" fill="current"/>
<path d="M3.3525 10.5853C3.3525 10.5848 3.35203 10.5848 3.35156 10.5844C2.61234 11.3442 2.15625 12.3816 2.15625 13.5234V17.0391C2.15625 17.4272 2.47125 17.7422 2.85938 17.7422H6.375V12.8203C6.375 12.5822 6.39 12.3473 6.41906 12.1167C6.40453 12.1172 6.38953 12.1172 6.375 12.1172C5.18766 12.1172 4.05797 11.5444 3.3525 10.5853Z" fill="current"/>
<path d="M21.1406 17.7422C21.5287 17.7422 21.8438 17.4272 21.8438 17.0391V13.5234C21.8438 12.3816 21.3877 11.3442 20.6484 10.5844C19.9425 11.5439 18.8123 12.1172 17.625 12.1172C17.6105 12.1172 17.5955 12.1172 17.5809 12.1167C17.61 12.3473 17.625 12.5822 17.625 12.8203V17.7422H21.1406Z" fill="current"/>
<path d="M12 11.4141C10.7569 11.4141 9.645 10.8422 8.91375 9.94734C8.21109 10.7006 7.78125 11.7113 7.78125 12.8203V18.4453C7.78125 18.8334 8.09625 19.1484 8.48438 19.1484H15.5156C15.9038 19.1484 16.2188 18.8334 16.2188 18.4453V12.8203C16.2188 11.7113 15.7889 10.7006 15.0863 9.94734C14.355 10.8422 13.2431 11.4141 12 11.4141Z" fill="current"/>
<path d="M23.2969 17.3906C22.9086 17.3906 22.5938 17.7054 22.5938 18.0938V21.6562H19.0312C18.6429 21.6562 18.3281 21.9711 18.3281 22.3594C18.3281 22.7477 18.6429 23.0625 19.0312 23.0625H23.2969C23.6852 23.0625 24 22.7477 24 22.3594V18.0938C24 17.7054 23.6852 17.3906 23.2969 17.3906Z" fill="current"/>
<path d="M4.96875 21.6562H1.40625V18.0938C1.40625 17.7054 1.09144 17.3906 0.703125 17.3906C0.314812 17.3906 0 17.7054 0 18.0938V22.3594C0 22.7477 0.314812 23.0625 0.703125 23.0625H4.96875C5.35706 23.0625 5.67188 22.7477 5.67188 22.3594C5.67188 21.9711 5.35706 21.6562 4.96875 21.6562Z" fill="current"/>
<path d="M0.703125 6.60938C1.09144 6.60938 1.40625 6.29456 1.40625 5.90625V2.34375H4.96875C5.35706 2.34375 5.67188 2.02894 5.67188 1.64062C5.67188 1.25231 5.35706 0.9375 4.96875 0.9375H0.703125C0.314812 0.9375 0 1.25231 0 1.64062V5.90625C0 6.29456 0.314812 6.60938 0.703125 6.60938Z" fill="current"/>
<path d="M23.2969 0.9375H18.9844C18.5961 0.9375 18.2812 1.25231 18.2812 1.64062C18.2812 2.02894 18.5961 2.34375 18.9844 2.34375H22.5938V5.90625C22.5938 6.29456 22.9086 6.60938 23.2969 6.60938C23.6852 6.60938 24 6.29456 24 5.90625V1.64062C24 1.25231 23.6852 0.9375 23.2969 0.9375Z" fill="current"/>
</g>
<defs>
<clipPath id="clip0_754_5666">
<rect width="24" height="24" fill="current"/>
</clipPath>
</defs>
</svg>
