<svg width="40" height="40" viewBox="0 0 40 40" fill="none" xmlns="http://www.w3.org/2000/svg">
<g clip-path="url(#clip0_2282_47448)">
<path fill-rule="evenodd" clip-rule="evenodd" d="M20 38C29.9411 38 38 29.9413 38 20C38 10.0589 29.9413 1.99996 20 1.99996C10.0589 1.99996 1.99996 10.0589 1.99996 20C1.99996 29.9411 10.0589 38 20 38ZM20 40C31.0456 40 40 31.0456 40 20C40 8.95422 31.0456 0 20 0C8.95422 0 0 8.95422 0 20C0 31.0456 8.95422 40 20 40Z" fill="white"/>
<path fill-rule="evenodd" clip-rule="evenodd" d="M25.1973 19.9995L16.0002 13.8682V26.1311L25.1973 19.9995ZM27.0554 18.8347C27.8868 19.389 27.8868 20.6103 27.0554 21.1646L16.1766 28.4173C15.2463 29.0375 14 28.3704 14 27.2522V12.747C14 11.6289 15.2463 10.9619 16.1766 11.5822L27.0554 18.8347Z" fill="white"/>
</g>
<defs>
<clipPath id="clip0_2282_47448">
<rect width="40" height="40" fill="white"/>
</clipPath>
</defs>
</svg>
