<svg width="24" height="24" viewBox="0 0 24 24" fill="current" xmlns="http://www.w3.org/2000/svg">
<path d="M18.4644 5.23192C18.4644 5.07028 18.3937 4.91469 18.2663 4.79686L14.3788 1.19974C14.241 1.07234 14.0488 1 13.848 1H13.6049V5.44357H18.4644V5.23192Z" fill="current"/>
<path d="M17.7283 13.4843C17.9779 13.4843 18.2239 13.5044 18.4644 13.542V6.71317H12.876C12.4734 6.71317 12.1471 6.429 12.1471 6.07837V1H4.12883C3.72621 1 3.3999 1.28416 3.3999 1.6348V17.9278C3.3999 18.2785 3.72621 18.5626 4.12883 18.5626H10.2596C10.3858 18.4109 10.5271 18.2656 10.684 18.1289L14.8076 14.538C15.5878 13.8586 16.6251 13.4843 17.7283 13.4843ZM9.47438 8.4059H10.2033V7.7711C10.2033 7.42064 10.5296 7.13631 10.9322 7.13631C11.3349 7.13631 11.6612 7.42064 11.6612 7.7711V8.4059H12.3901C12.7925 8.4059 13.119 8.69023 13.119 9.0407C13.119 9.39133 12.7925 9.67549 12.3901 9.67549H11.6612V10.3103C11.6612 10.6609 11.3349 10.9451 10.9322 10.9451C10.5296 10.9451 10.2033 10.6609 10.2033 10.3103V9.67549H9.47438C9.07176 9.67549 8.74545 9.39133 8.74545 9.0407C8.74545 8.69023 9.07176 8.4059 9.47438 8.4059ZM7.04455 12.2147H14.8197C15.2224 12.2147 15.5487 12.499 15.5487 12.8495C15.5487 13.2001 15.2224 13.4843 14.8197 13.4843H7.04455C6.64212 13.4843 6.31562 13.2001 6.31562 12.8495C6.31562 12.499 6.64212 12.2147 7.04455 12.2147ZM11.904 16.0235H7.04455C6.64212 16.0235 6.31562 15.7393 6.31562 15.3887C6.31562 15.038 6.64212 14.7539 7.04455 14.7539H11.904C12.3066 14.7539 12.633 15.038 12.633 15.3887C12.633 15.7393 12.3066 16.0235 11.904 16.0235Z" fill="current"/>
<path d="M11.7149 19.0266C10.6728 19.9341 10.6728 21.4107 11.7149 22.3182C12.2197 22.758 12.891 23 13.6049 23C14.3188 23 14.9899 22.758 15.4949 22.3182L17.041 20.9717L13.2613 17.6799L11.7149 19.0266Z" fill="current"/>
<path d="M19.6183 15.4357C19.1135 14.9961 18.4422 14.7539 17.7283 14.7539C17.0144 14.7539 16.3433 14.9961 15.8385 15.4357L14.2922 16.7823L18.072 20.0739L19.6183 18.7273C20.6604 17.8197 20.6604 16.3432 19.6183 15.4357Z" fill="current"/>
</svg>
