<svg width="48" height="48" viewBox="0 0 48 48" fill="none" xmlns="http://www.w3.org/2000/svg">
<path d="M21.1615 9.75575C21.1615 9.34156 21.4973 9.00575 21.9115 9.00575H33.6412C34.0553 9.00575 34.3912 9.34156 34.3912 9.75575C34.3912 10.1699 34.0553 10.5057 33.6412 10.5057H21.9115C21.4973 10.5057 21.1615 10.17 21.1615 9.75575ZM14.9784 11.3552C15.1249 11.5017 15.3168 11.5749 15.5088 11.5749C15.7008 11.5749 15.8927 11.5017 16.0391 11.3552L18.3382 9.05619C18.6311 8.76331 18.631 8.28847 18.3382 7.99559C18.0453 7.70272 17.5704 7.70272 17.2776 7.99559L15.5089 9.76437L14.8897 9.14516C14.5968 8.85228 14.1219 8.85228 13.8291 9.14516C13.5361 9.43803 13.5362 9.91288 13.8291 10.2057L14.9784 11.3552ZM21.9115 18.5052H33.6412C34.0553 18.5052 34.3912 18.1693 34.3912 17.7552C34.3912 17.341 34.0553 17.0052 33.6412 17.0052H21.9115C21.4973 17.0052 21.1615 17.341 21.1615 17.7552C21.1615 18.1693 21.4973 18.5052 21.9115 18.5052ZM14.9784 19.435C15.1249 19.5814 15.3168 19.6546 15.5088 19.6546C15.7008 19.6546 15.8927 19.5814 16.0391 19.435L18.3382 17.1359C18.6311 16.8431 18.631 16.3682 18.3382 16.0753C18.0453 15.7825 17.5704 15.7825 17.2776 16.0753L15.5089 17.8441L14.8897 17.2249C14.5968 16.932 14.1219 16.932 13.8291 17.2249C13.5361 17.5178 13.5362 17.9926 13.8291 18.2855L14.9784 19.435ZM44.7255 32.7397L41.4089 34.6544C41.0654 34.8528 40.6836 34.9541 40.296 34.9541C40.1007 34.9541 39.9041 34.9285 39.7102 34.8764C39.1313 34.7214 38.6482 34.3513 38.35 33.8349L38.2593 33.6777L36.5815 34.5344C37.0832 35.3298 37.0106 36.3106 36.5698 37.0685C36.3482 37.4494 36.0315 37.7776 35.6521 38.0043C35.8721 38.3645 35.989 38.7775 35.9874 39.2173C35.9841 40.1288 35.4708 41.0103 34.6797 41.4631C34.2402 41.7147 33.7541 41.8122 33.2675 41.756C33.2425 42.1649 33.1166 42.5667 32.9108 42.9201C32.4757 43.6673 31.6745 44.2077 30.753 44.1841C30.7432 44.6258 30.6142 45.0629 30.3923 45.4438C29.9673 46.1735 29.1939 46.7087 28.2988 46.7087C27.8911 46.7087 27.4581 46.5976 27.0213 46.3433L25.0405 45.1899L24.6552 45.7378C24.1725 46.424 23.4652 46.8052 22.6898 46.8052C22.6188 46.8052 22.5472 46.802 22.4751 46.7955C21.5858 46.7158 20.767 46.1511 20.3735 45.3508C19.5381 45.7826 18.5664 45.6254 17.8488 45.1207C17.3854 44.7947 17.0225 44.3202 16.8569 43.7738C16.1679 43.9244 15.4462 43.7425 14.8816 43.3452C14.1783 42.8505 13.7067 42.0133 13.8049 41.1027C13.3627 41.0563 12.9351 40.8898 12.5722 40.6347C11.5669 39.9273 11.0352 38.5199 11.9646 37.1988L12.0283 37.1082L9.54197 34.0033C9.2414 34.4315 8.80397 34.7389 8.29031 34.8765C8.09644 34.9286 7.89965 34.9542 7.70447 34.9542C7.3169 34.9542 6.93506 34.8529 6.59147 34.6545L3.27497 32.7397C2.20565 32.1224 1.83797 30.7502 2.45531 29.6808L8.27606 19.5989C8.45494 19.2892 8.69737 19.0387 8.97722 18.8535V3.94531C8.97722 3.53112 9.31303 3.19531 9.72722 3.19531H38.2732C38.6873 3.19531 39.0232 3.53112 39.0232 3.94531V18.8535C39.303 19.0386 39.5455 19.2891 39.7243 19.5988L45.5451 29.6807C46.1624 30.7502 45.7947 32.1223 44.7255 32.7397ZM10.4772 4.69531V18.4949C10.7711 18.5292 11.0629 18.6222 11.3349 18.7793L14.6515 20.6941C15.1681 20.9923 15.538 21.4753 15.6931 22.0543C15.7897 22.4151 15.7955 22.7854 15.7139 23.1383L19.8721 24.6237C21.626 23.056 22.9197 22.499 25.5885 23.0864C28.0904 23.6372 30.189 23.6423 32.277 23.0928C32.206 22.7536 32.2146 22.3996 32.3072 22.0542C32.4622 21.4753 32.8322 20.9922 33.3488 20.694L36.6653 18.7792C36.9374 18.6221 37.2292 18.5292 37.5231 18.4949V4.69531H10.4772ZM8.35134 33.0849L14.1721 23.003C14.27 22.8334 14.2957 22.6344 14.2443 22.4426C14.1929 22.2507 14.0711 22.0911 13.9015 21.9932L10.585 20.0784C10.469 20.0113 10.3419 19.9795 10.2166 19.9795C9.96084 19.9795 9.71194 20.1121 9.57515 20.3489L3.7544 30.4308C3.55059 30.7839 3.672 31.2369 4.02497 31.4406L7.34156 33.3555C7.51125 33.4535 7.71037 33.4792 7.90209 33.4276C8.0939 33.3762 8.25347 33.2546 8.35134 33.0849ZM14.7846 39.1829L16.5082 36.7324L16.5085 36.7319C17.0323 35.9847 16.3957 35.4808 16.2628 35.3874C16.1298 35.2938 15.4397 34.8654 14.9138 35.6129L13.1914 38.0616C12.6653 38.8094 13.3023 39.3141 13.4353 39.4077C13.5682 39.5013 14.258 39.9299 14.7841 39.1835L14.7846 39.1829ZM17.2403 41.685L19.6482 38.2618L20.0143 37.7413C20.5403 36.9935 19.9033 36.4888 19.7703 36.3953C19.6372 36.3016 18.9469 35.8727 18.4207 36.6205L17.7357 37.5944C17.7356 37.5946 17.7355 37.5947 17.7354 37.5949L17.7352 37.5954L16.0115 40.0459L15.5006 40.7722C14.9746 41.5201 15.6116 42.0248 15.7447 42.1183C15.8777 42.2118 16.5681 42.6406 17.0941 41.8931L17.2403 41.685ZM20.6062 42.8933C20.6068 42.8925 20.6074 42.8918 20.6079 42.891L21.4717 41.663L22.4679 40.2466C22.9938 39.499 22.357 38.9943 22.2241 38.9007C22.0912 38.8073 21.4018 38.3785 20.8759 39.1239L20.8751 39.125L18.4673 42.5481L18.4669 42.5488C17.9422 43.2961 18.5787 43.8004 18.7117 43.894C18.8448 43.9875 19.5352 44.4165 20.0611 43.6687L20.6062 42.8933ZM24.0477 42.3009C23.9147 42.2072 23.2248 41.7785 22.6989 42.5255L22.6986 42.5261L21.8348 43.7541C21.6153 44.0663 21.5733 44.3742 21.7102 44.6695C21.8673 45.0083 22.2369 45.2683 22.6089 45.3016C22.9329 45.3307 23.2087 45.1871 23.4283 44.8749L24.2919 43.647C24.8178 42.8992 24.1807 42.3944 24.0477 42.3009ZM34.9328 34.9895L25.6584 29.6211C24.8247 29.1396 24.0006 29.4866 22.7248 30.0921C22.6628 30.1214 22.601 30.1509 22.5389 30.1801C22.4458 30.3671 22.3519 30.5678 22.2541 30.7767C21.7724 31.8058 21.2264 32.9722 20.282 33.482C19.1704 34.0819 18.1784 34.1735 17.4888 33.7396C17.1713 33.5398 16.6465 33.0433 16.6978 31.9617L16.8964 27.7813C16.9054 27.5908 16.9867 27.4109 17.1238 27.2782C17.5139 26.9005 17.8639 26.5556 18.2024 26.2221C18.3572 26.0697 18.5062 25.9229 18.6516 25.7804L15.0444 24.4918L10.3536 32.6168L12.9269 35.8303L13.6869 34.7498C14.6159 33.4288 16.1198 33.4534 17.1253 34.1599C17.4526 34.3899 17.7297 34.694 17.9227 35.0452C18.7965 34.4847 19.8617 34.6255 20.6332 35.1682C21.2807 35.6235 21.7317 36.3693 21.7228 37.1952C22.2115 37.2198 22.6886 37.3931 23.0874 37.6737C23.9771 38.2999 24.4957 39.4741 23.9588 40.6517C24.3 40.7274 24.6254 40.873 24.9108 41.0738C25.7672 41.6763 26.2792 42.7864 25.8384 43.9186L27.7761 45.0469C28.5663 45.5068 29.0144 44.8292 29.0962 44.6887C29.1781 44.5483 29.5462 43.8247 28.758 43.3643L28.757 43.3636C28.7569 43.3635 28.7569 43.3635 28.7567 43.3634C28.7567 43.3634 28.7567 43.3634 28.7566 43.3634L26.2598 41.9098C25.9019 41.7013 25.7807 41.2422 25.9891 40.8843C26.1975 40.5264 26.6566 40.4053 27.0146 40.6136L29.5114 42.0673C29.5115 42.0674 29.5117 42.0674 29.5117 42.0675L29.512 42.0677C29.5126 42.068 29.5132 42.0684 29.5137 42.0687L30.2945 42.5234C31.0845 42.9833 31.5327 42.3057 31.6147 42.1652C31.6965 42.0247 32.0645 41.3011 31.2763 40.8407L31.2752 40.8401C31.2751 40.8401 31.2751 40.84 31.275 40.84C31.2748 40.8399 31.2746 40.8397 31.2744 40.8396L28.2137 39.0574C27.8557 38.849 27.7345 38.3899 27.9429 38.032C28.1514 37.674 28.6105 37.5529 28.9685 37.7612L32.0301 39.5439L32.0302 39.544C32.0309 39.5443 32.0314 39.5446 32.0319 39.545L33.0118 40.1156C33.3418 40.3078 33.6522 40.323 33.9346 40.1614C34.2588 39.9759 34.4861 39.5853 34.4874 39.2118C34.4887 38.8864 34.322 38.624 33.9921 38.4319L33.2006 37.971C33.2004 37.9709 33.2002 37.9708 33.2 37.9707L33.1993 37.9703C33.1992 37.9702 33.199 37.9701 33.1989 37.97L30.1676 36.2051C29.8097 35.9967 29.6885 35.5376 29.8969 35.1796C30.1054 34.8217 30.5644 34.7006 30.9224 34.9089L33.9537 36.6738C34.7439 37.1328 35.1915 36.455 35.2732 36.3145C35.3548 36.1738 35.7226 35.4494 34.9328 34.9895ZM37.5082 32.377L32.9411 24.4663C29.7912 25.3556 27.0737 24.9493 25.2661 24.5514C22.6254 23.9704 21.9785 24.6078 19.2552 27.2908C18.9896 27.5525 18.695 27.8428 18.3806 28.1488L18.1961 32.0331C18.184 32.2877 18.2333 32.4361 18.2876 32.4702C18.4145 32.5499 18.8749 32.5372 19.5695 32.1622C20.078 31.8877 20.5123 30.9598 20.8956 30.1409C21.0346 29.8438 21.1785 29.5366 21.3266 29.2575C21.4036 29.1127 21.5259 28.9971 21.6749 28.9283C21.8107 28.8657 21.9462 28.8013 22.0815 28.737C23.3793 28.1209 24.8502 27.4226 26.4092 28.3225L35.3327 33.4877L37.5082 32.377ZM44.246 30.4307L38.4253 20.3489C38.2215 19.9959 37.7684 19.8746 37.4154 20.0784L34.0988 21.9932C33.9292 22.0911 33.8076 22.2507 33.7561 22.4426C33.7047 22.6344 33.7303 22.8334 33.8283 23.003L39.649 33.085C39.7469 33.2546 39.9066 33.3762 40.0984 33.4276C40.2904 33.4794 40.4892 33.4535 40.6588 33.3555L43.9755 31.4407C44.3285 31.2369 44.4499 30.7838 44.246 30.4307Z" fill="#2A7EF9"/>
</svg>
