<svg width="48" height="48" viewBox="0 0 48 48" fill="current" xmlns="http://www.w3.org/2000/svg">
<path d="M41.3632 18.654H33.032V5.55102C33.0108 4.32526 32.5045 3.15792 31.6239 2.30491C30.7434 1.4519 29.5606 0.982829 28.3348 1.00054H6.63684C5.39672 0.969012 4.19464 1.43018 3.29381 2.28306C2.39299 3.13594 1.86684 4.31103 1.83057 5.55102V19.4406C1.86684 20.6806 2.39299 21.8557 3.29381 22.7086C4.19464 23.5614 5.39672 24.0226 6.63684 23.9911H6.75711V28.3567C6.75719 28.5431 6.80984 28.7257 6.90902 28.8835C7.0082 29.0413 7.14987 29.1679 7.31777 29.2488C7.48567 29.3297 7.67299 29.3615 7.8582 29.3408C8.04341 29.32 8.219 29.2474 8.3648 29.1313L14.8149 23.9911H14.968V37.0403C14.9895 38.2807 15.5019 39.4619 16.393 40.325C17.284 41.1881 18.481 41.6626 19.7214 41.6445H33.1852L39.636 46.7851C39.7818 46.9011 39.9574 46.9736 40.1426 46.9943C40.3277 47.015 40.5149 46.983 40.6827 46.9021C40.8505 46.8211 40.9921 46.6945 41.0912 46.5368C41.1903 46.379 41.2429 46.1965 41.2429 46.0102V41.6445H41.3632C42.6033 41.6761 43.8054 41.2149 44.7062 40.362C45.607 39.5091 46.1332 38.334 46.1695 37.0941V23.2045C46.1332 21.9645 45.607 20.7894 44.7062 19.9365C43.8054 19.0836 42.6033 18.6225 41.3632 18.654ZM14.6328 22.3489C14.3793 22.35 14.1334 22.436 13.9344 22.5931L8.39929 27.004V23.4398C8.3969 23.1486 8.27917 22.8703 8.07189 22.6658C7.86461 22.4613 7.58471 22.3474 7.29354 22.3489H6.63684C5.8322 22.3805 5.04777 22.0923 4.4549 21.5474C3.86204 21.0025 3.50894 20.245 3.47275 19.4406V5.55102C3.50894 4.74658 3.86204 3.98916 4.4549 3.44422C5.04776 2.89929 5.8322 2.61114 6.63684 2.64272H28.3348C29.1252 2.62461 29.8906 2.92054 30.4632 3.46567C31.0358 4.0108 31.369 4.76068 31.3898 5.55102V19.4406C31.3688 20.231 31.0355 20.9809 30.4627 21.526C29.8899 22.0711 29.1245 22.367 28.334 22.3489L14.6328 22.3489ZM44.5273 37.0941C44.4911 37.8985 44.138 38.6559 43.5451 39.2009C42.9523 39.7458 42.1678 40.0339 41.3632 40.0024H40.7065C40.4153 40.0008 40.1354 40.1148 39.9281 40.3193C39.7209 40.5238 39.6031 40.8021 39.6007 41.0933V44.6575L34.0632 40.2449C33.8649 40.0883 33.6198 40.0029 33.3672 40.0024H19.7214C18.9164 40.0207 18.137 39.7192 17.5539 39.1641C16.9707 38.6089 16.6314 37.8452 16.6102 37.0403V23.9911H28.334C29.411 24.0021 30.4587 23.6401 31.2993 22.9667C32.1399 22.2932 32.7217 21.3497 32.9459 20.2962H41.3632C42.1678 20.2646 42.9523 20.5527 43.5451 21.0977C44.138 21.6426 44.4911 22.4 44.5273 23.2045V37.0941Z" fill="current"/>
<path d="M21.7313 16.1993C22.6964 15.1074 23.212 13.6903 23.1744 12.2335C23.1368 10.7766 22.5486 9.38811 21.5284 8.34745C20.5082 7.30679 19.1316 6.69124 17.6758 6.62472C16.22 6.55819 14.793 7.04563 13.6821 7.98891C12.5712 8.9322 11.8589 10.2613 11.6886 11.7086C11.5182 13.156 11.9025 14.6141 12.764 15.7896C13.6255 16.965 14.9003 17.7704 16.3318 18.0437C17.7633 18.317 19.2451 18.0379 20.4791 17.2626L20.9444 17.79C21.0889 17.9519 21.2915 18.05 21.5081 18.063C21.7247 18.0759 21.9377 18.0026 22.1004 17.8591C22.2631 17.7155 22.3624 17.5134 22.3766 17.2969C22.3907 17.0803 22.3186 16.867 22.176 16.7035L21.7313 16.1993ZM17.4315 16.5038C16.6195 16.5038 15.8258 16.263 15.1507 15.8119C14.4755 15.3608 13.9493 14.7196 13.6386 13.9695C13.3279 13.2193 13.2466 12.3938 13.405 11.5974C13.5634 10.8011 13.9544 10.0695 14.5285 9.49537C15.1027 8.92121 15.8342 8.53021 16.6306 8.3718C17.427 8.21339 18.2524 8.29469 19.0026 8.60542C19.7528 8.91615 20.394 9.44236 20.8451 10.1175C21.2962 10.7926 21.537 11.5864 21.537 12.3984C21.533 13.3267 21.2113 14.2257 20.6254 14.9458L18.8452 12.928C18.7006 12.7666 18.498 12.6689 18.2817 12.6562C18.0654 12.6435 17.8528 12.7168 17.6903 12.8601C17.5278 13.0035 17.4285 13.2053 17.4141 13.4215C17.3998 13.6377 17.4714 13.8509 17.6135 14.0145L19.3637 15.9982C18.7719 16.3253 18.1077 16.4991 17.4315 16.5038Z" fill="current"/>
<path d="M35.4311 34.7185C33.9431 31.176 34.7344 33.0599 31.3289 24.9518L31.3257 24.944C31.2627 24.7954 31.1573 24.6685 31.0227 24.5794C30.8881 24.4903 30.7302 24.4427 30.5687 24.4427C30.4073 24.4427 30.2494 24.4903 30.1148 24.5794C29.9802 24.6685 29.8748 24.7954 29.8118 24.944L29.8088 24.9512C28.2549 28.6507 27.0462 31.5284 25.7064 34.7185C25.6239 34.9189 25.6241 35.1438 25.7067 35.3441C25.7894 35.5444 25.9479 35.7039 26.1477 35.7878C26.3475 35.8717 26.5724 35.8732 26.7733 35.792C26.9742 35.7109 27.1348 35.5535 27.2202 35.3544L28.3605 32.6393H32.7768L33.9172 35.3544C34.0021 35.5543 34.1627 35.7124 34.364 35.7942C34.5652 35.8759 34.7906 35.8746 34.9908 35.7905C35.1911 35.7064 35.3499 35.5463 35.4324 35.3454C35.5149 35.1445 35.5144 34.9191 35.4311 34.7185ZM29.0503 30.9971L30.5687 27.382L32.0871 30.9971H29.0503Z" fill="current"/>
</svg>
