<svg width="16" height="16" viewBox="0 0 16 16" fill="none" xmlns="http://www.w3.org/2000/svg">
<path d="M13.7855 12.8813L10.7121 9.92683C11.4466 9.01962 11.8888 7.86683 11.8888 6.61128C11.8888 3.70128 9.52101 1.3335 6.61105 1.3335C3.70108 1.3335 1.33334 3.70126 1.33334 6.61126C1.33334 9.52126 3.7011 11.889 6.61107 11.889C7.86661 11.889 9.01938 11.4468 9.92658 10.7124L13 13.6668C13.1083 13.7752 13.2506 13.8296 13.3928 13.8296C13.535 13.8296 13.6772 13.7752 13.7856 13.6668C14.0028 13.4496 14.0028 13.0985 13.7855 12.8813ZM6.61107 10.7779C4.31331 10.7779 2.44445 8.90904 2.44445 6.61126C2.44445 4.31347 4.31331 2.44459 6.61107 2.44459C8.90883 2.44459 10.7777 4.31347 10.7777 6.61126C10.7777 8.90904 8.90881 10.7779 6.61107 10.7779Z" fill="#ADADAD"/>
</svg>
