<svg width="48" height="48" viewBox="0 0 48 48" fill="current" xmlns="http://www.w3.org/2000/svg">
<path fill-rule="evenodd" clip-rule="evenodd" d="M8.25192 23.0417L11.253 27.45L15.0044 23.0417H24.6754C25.9641 23.0417 27.0088 22.0119 27.0088 20.7417V3.3C27.0088 2.02975 25.9641 1 24.6754 1H5.33333C4.04467 1 3 2.02974 3 3.3V20.7417C3 22.0119 4.04467 23.0417 5.33333 23.0417H8.25192ZM11.4087 24.5829L14.1882 21.3167H24.6754C24.9976 21.3167 25.2588 21.0592 25.2588 20.7417V3.3C25.2588 2.98244 24.9976 2.725 24.6754 2.725H5.33333C5.01116 2.725 4.75 2.98244 4.75 3.3V20.7417C4.75 21.0592 5.01117 21.3167 5.33333 21.3167H9.18508L11.4087 24.5829Z" fill="current"/>
<path fill-rule="evenodd" clip-rule="evenodd" d="M19.6861 14.5494C19.8945 14.7916 19.8642 15.1544 19.6184 15.3598L19.6168 15.3612L19.6145 15.3631L19.6082 15.3683L19.588 15.3845C19.5713 15.3977 19.5481 15.4158 19.5186 15.4381C19.4596 15.4825 19.3752 15.5435 19.2669 15.6155C19.0505 15.7594 18.7371 15.9481 18.3388 16.136C17.5431 16.5113 16.3975 16.8884 15.0043 16.8884C13.6112 16.8884 12.4656 16.5113 11.6699 16.136C11.2715 15.9481 10.9582 15.7594 10.7418 15.6155C10.6334 15.5435 10.549 15.4825 10.49 15.438C10.4605 15.4158 10.4373 15.3977 10.4206 15.3845L10.4005 15.3683L10.3941 15.3631L10.3919 15.3612L10.3902 15.3598C10.1445 15.1544 10.1142 14.7916 10.3226 14.5494C10.5308 14.3073 10.8985 14.2772 11.1442 14.4822L11.153 14.4893C11.162 14.4964 11.1771 14.5082 11.1981 14.5241C11.2403 14.5558 11.3061 14.6036 11.3941 14.6621C11.5703 14.7792 11.834 14.9385 12.1735 15.0986C12.8534 15.4194 13.8262 15.7384 15.0043 15.7384C16.1824 15.7384 17.1552 15.4194 17.8352 15.0986C18.0013 15.0203 18.1492 14.9421 18.2777 14.869L18.6146 14.6621L18.8654 14.4815C19.1111 14.2774 19.4782 14.3077 19.6861 14.5494Z" fill="current"/>
<path d="M13.5919 9.00399C13.5919 9.58062 13.1177 10.0481 12.5327 10.0481C11.9478 10.0481 11.4735 9.58062 11.4735 9.00399C11.4735 8.42736 11.9478 7.95991 12.5327 7.95991C13.1177 7.95991 13.5919 8.42736 13.5919 9.00399Z" fill="current"/>
<path d="M18.5351 9.00399C18.5351 9.58062 18.0609 10.0481 17.4759 10.0481C16.8909 10.0481 16.4167 9.58062 16.4167 9.00399C16.4167 8.42736 16.8909 7.95991 17.4759 7.95991C18.0609 7.95991 18.5351 8.42736 18.5351 9.00399Z" fill="current"/>
<path fill-rule="evenodd" clip-rule="evenodd" d="M19.3333 25.15V39.9083C19.3333 41.1786 20.378 42.2083 21.6667 42.2083H24.9479L28.1562 47L32.1667 42.2083H42.6667C43.9553 42.2083 45 41.1786 45 39.9083V20.55C45 19.2797 43.9553 18.25 42.6667 18.25H28.6667V19.975H42.6667C42.9888 19.975 43.25 20.2324 43.25 20.55V39.9083C43.25 40.2259 42.9888 40.4833 42.6667 40.4833H31.3417L28.3128 44.1023L25.8897 40.4833H21.6667C21.3445 40.4833 21.0833 40.2259 21.0833 39.9083V25.15H19.3333Z" fill="current"/>
<path fill-rule="evenodd" clip-rule="evenodd" d="M36.5206 34.8354L36.5102 34.8291C36.4999 34.823 36.4828 34.8129 36.459 34.7995C36.4116 34.7727 36.3377 34.7326 36.2391 34.6834C36.0418 34.585 35.7461 34.451 35.365 34.3162C34.6021 34.0463 33.5026 33.775 32.1667 33.775C30.8307 33.775 29.7312 34.0463 28.9683 34.3162C28.5872 34.451 28.2915 34.585 28.0942 34.6834C27.9956 34.7326 27.9217 34.7727 27.8743 34.7995C27.8506 34.8129 27.8335 34.823 27.8232 34.8291L27.8129 34.8353L27.8118 34.836C27.5401 35.0054 27.1804 34.9261 27.0078 34.6586C26.8349 34.3906 26.9151 34.0352 27.187 33.8648L27.5 34.35C27.187 33.8648 27.187 33.8648 27.187 33.8648L27.1887 33.8637L27.191 33.8623L27.1978 33.8581L27.2194 33.8451C27.2374 33.8344 27.2625 33.8197 27.2944 33.8016C27.3584 33.7655 27.45 33.7159 27.5676 33.6572C27.8028 33.54 28.1427 33.3865 28.5742 33.2338C29.4367 32.9287 30.6705 32.625 32.1667 32.625C33.6628 32.625 34.8966 32.9287 35.7591 33.2338C36.1906 33.3865 36.5306 33.54 36.7657 33.6572C36.8834 33.7159 36.975 33.7655 37.0389 33.8016C37.0709 33.8197 37.096 33.8344 37.1139 33.8451L37.1355 33.8581L37.1423 33.8623L37.1447 33.8637L37.146 33.8646C37.146 33.8646 37.1464 33.8648 36.8334 34.3499L37.146 33.8646C37.4179 34.035 37.4984 34.3906 37.3256 34.6586C37.1528 34.9264 36.7924 35.0055 36.5206 34.8354Z" fill="current"/>
<path d="M29.6233 27.3465C29.6233 27.9245 29.148 28.393 28.5617 28.393C27.9753 28.393 27.5 27.9245 27.5 27.3465C27.5 26.7685 27.9753 26.3 28.5617 26.3C29.148 26.3 29.6233 26.7685 29.6233 27.3465Z" fill="current"/>
<path d="M36.04 27.3465C36.04 27.9245 35.5647 28.393 34.9783 28.393C34.392 28.393 33.9167 27.9245 33.9167 27.3465C33.9167 26.7685 34.392 26.3 34.9783 26.3C35.5647 26.3 36.04 26.7685 36.04 27.3465Z" fill="current"/>
</svg>
