<svg width="16" height="16" viewBox="0 0 16 16" fill="current" xmlns="http://www.w3.org/2000/svg">
<path fill-rule="evenodd" clip-rule="evenodd" d="M2.12588 8.49416C1.99434 8.29049 1.89406 8.12037 1.82612 8.00008C1.89406 7.8798 1.99434 7.70968 2.12588 7.50601C2.39831 7.08418 2.80198 6.52283 3.3267 5.96313C4.38404 4.83529 5.8816 3.76675 7.75015 3.76675C9.61869 3.76675 11.1163 4.83529 12.1736 5.96313C12.6983 6.52283 13.102 7.08418 13.3744 7.50601C13.5059 7.70968 13.6062 7.8798 13.6742 8.00008C13.6062 8.12037 13.5059 8.29049 13.3744 8.49416C13.102 8.91599 12.6983 9.47734 12.1736 10.037C11.1163 11.1649 9.61869 12.2334 7.75015 12.2334C5.8816 12.2334 4.38404 11.1649 3.3267 10.037C2.80198 9.47734 2.39831 8.91599 2.12588 8.49416ZM14.1668 8.00009C14.5544 7.80629 14.5543 7.80614 14.5542 7.80597L14.1668 8.00009ZM14.5542 7.80597C14.6152 7.92797 14.6154 8.07188 14.5544 8.19388L14.1668 8.00009C14.5544 8.19388 14.5541 8.19445 14.554 8.19462L14.5534 8.19579L14.5516 8.1994L14.5454 8.2116C14.5401 8.22191 14.5325 8.23653 14.5226 8.25517C14.5029 8.29245 14.4741 8.34584 14.4363 8.41305C14.3607 8.54742 14.2491 8.73734 14.1024 8.96435C13.8098 9.41752 13.3749 10.0228 12.8059 10.6298C11.6757 11.8353 9.96493 13.1001 7.75015 13.1001C5.53536 13.1001 3.82459 11.8353 2.69443 10.6298C2.1254 10.0228 1.69052 9.41752 1.39785 8.96435C1.25124 8.73734 1.13961 8.54742 1.06403 8.41305C1.02623 8.34584 0.997393 8.29245 0.977668 8.25517C0.967804 8.23653 0.960213 8.22191 0.954913 8.2116L0.948681 8.1994L0.946856 8.19579L0.946268 8.19462L0.945895 8.19388L1.33348 8.00009C0.945895 7.80629 0.946183 7.80572 0.946268 7.80555L0.946856 7.80438L0.948681 7.80077L0.954913 7.78857C0.960213 7.77826 0.967804 7.76364 0.977668 7.745C0.997393 7.70772 1.02623 7.65433 1.06403 7.58712C1.13961 7.45275 1.25124 7.26283 1.39785 7.03582C1.69052 6.58265 2.1254 5.97734 2.69443 5.37038C3.82459 4.16488 5.53536 2.90009 7.75015 2.90009C9.96493 2.90009 11.6757 4.16488 12.8059 5.37038C13.3749 5.97734 13.8098 6.58265 14.1024 7.03582C14.2491 7.26283 14.3607 7.45275 14.4363 7.58712C14.4741 7.65433 14.5029 7.70772 14.5226 7.745C14.5325 7.76364 14.5401 7.77826 14.5454 7.78857L14.5516 7.80077L14.5534 7.80438L14.5542 7.80597ZM1.33348 8.00009C0.945895 8.19388 0.945811 8.19371 0.945895 8.19388C0.884897 8.07188 0.884897 7.92829 0.945895 7.80629L1.33348 8.00009ZM6.43348 8.00009C6.43348 7.27291 7.02297 6.68342 7.75015 6.68342C8.47732 6.68342 9.06681 7.27291 9.06681 8.00009C9.06681 8.72726 8.47732 9.31675 7.75015 9.31675C7.02297 9.31675 6.43348 8.72726 6.43348 8.00009ZM7.75015 5.81675C6.54432 5.81675 5.56681 6.79426 5.56681 8.00009C5.56681 9.20591 6.54432 10.1834 7.75015 10.1834C8.95597 10.1834 9.93348 9.20591 9.93348 8.00009C9.93348 6.79426 8.95597 5.81675 7.75015 5.81675Z" fill="current"/>
</svg>
