<svg width="48" height="48" viewBox="0 0 48 48" fill="current" xmlns="http://www.w3.org/2000/svg">
<path d="M41.9649 32.3249C40.7404 31.8749 39.3628 32.0249 38.1383 32.7749L30.7912 37.1249C30.4851 36.8999 30.179 36.6749 29.8728 36.5999L18.7757 32.6999C17.9339 32.3999 17.0155 32.3999 16.2502 32.7749C16.2502 32.7749 16.1736 32.7749 16.1736 32.8499L11.7348 35.4749V35.2499C11.7348 34.4249 11.046 33.7499 10.2042 33.7499H6.53064C5.68879 33.7499 5 34.4249 5 35.2499V46.5C5 47.325 5.68879 48 6.53064 48H10.1276C10.9695 48 11.6583 47.325 11.6583 46.5V46.125C13.342 45.225 14.0308 44.4 15.1787 44.55L27.4238 47.175C28.4187 47.475 29.4902 47.25 30.4086 46.65L42.8833 36.9749C44.567 35.8499 44.4139 33.2249 41.9649 32.3249ZM6.53064 46.5V35.2499H10.1276V46.5H6.53064ZM41.9649 35.7749C29.2606 45.225 29.5667 46.2 27.8065 45.675L15.4849 43.05H15.4083C13.6481 42.75 12.4236 43.95 11.6583 44.325V37.1249L14.2604 35.5874L16.8624 34.0499C17.3216 33.8999 17.7808 33.8999 18.24 34.0499L29.3371 37.95C30.332 38.325 30.7147 39.525 30.1024 40.35C29.6432 40.95 28.8779 41.175 28.1126 40.875L21.5309 38.4C21.1482 38.25 20.689 38.475 20.536 38.85C20.3829 39.225 20.6125 39.675 20.9952 39.825L27.5769 42.3C28.9545 42.9 30.4851 42.45 31.3269 41.325C31.9392 40.5 32.1688 39.525 31.7096 38.4L38.9801 34.1249C39.7455 33.6749 40.6638 33.5249 41.5057 33.8249C42.6537 34.1999 42.7302 35.2499 41.9649 35.7749Z" fill="current"/>
<path d="M23.2146 24.8241C23.9034 25.2741 24.3626 26.0241 24.5156 26.7741C23.8268 27.1491 23.4442 27.8991 23.4442 28.6491C23.4442 29.6991 24.2095 30.5991 25.2809 30.8241L25.5871 33.2241C25.6636 33.5991 25.9697 33.8991 26.3524 33.8991H32.3219C32.7045 33.8991 33.0107 33.5991 33.0872 33.2241L33.3933 30.7491C34.3117 30.4491 35.077 29.6241 35.077 28.6491C35.077 27.8241 34.6178 27.1491 34.0056 26.7741C34.0821 26.0241 34.5413 25.2741 35.3066 24.7491C38.1383 22.7991 39.8985 19.6491 39.8985 16.274C39.8985 10.424 34.9239 5.69899 28.8779 5.99899C23.4442 6.22399 18.9288 10.799 18.8523 16.124C18.6227 19.6491 20.3064 22.8741 23.2146 24.8241ZM26.9646 32.4741L26.8116 30.9741H31.7861L31.6331 32.4741H26.9646ZM32.628 29.4741H25.6636C25.2809 29.4741 24.8983 29.1741 24.8983 28.7241C24.8983 28.3491 25.2044 27.9741 25.6636 27.9741H32.628C33.0107 27.9741 33.3933 28.2741 33.3933 28.7241C33.3933 29.0991 33.0872 29.4741 32.628 29.4741ZM28.7249 7.574C33.8525 7.34899 38.1383 11.399 38.1383 16.349C38.1383 19.2741 36.6842 21.9741 34.2352 23.6241C33.1637 24.2991 32.4749 25.3491 32.3219 26.5491H26.0463C25.8932 25.4241 25.2044 24.3741 24.133 23.6241C21.6839 21.9741 20.2298 19.1991 20.2298 16.274C20.3064 11.699 24.133 7.799 28.7249 7.574Z" fill="current"/>
<path d="M28.9545 11.3252C31.8627 11.1752 34.3117 13.5002 34.3117 16.3502C34.3117 16.8002 34.6178 17.1003 35.077 17.1003C35.5362 17.1003 35.8423 16.8002 35.8423 16.3502C35.8423 12.6752 32.7045 9.67521 28.8779 9.82522C28.4187 9.82522 28.1126 10.2002 28.1126 10.5752C28.1126 11.0252 28.4953 11.3252 28.9545 11.3252Z" fill="current"/>
<path d="M29.1841 4.42502C29.6432 4.42502 29.9494 4.12502 29.9494 3.67502V0.750004C29.9494 0.300001 29.6432 0 29.1841 0C28.7249 0 28.4187 0.300001 28.4187 0.750004V3.67502C28.4187 4.12502 28.7249 4.42502 29.1841 4.42502Z" fill="current"/>
<path d="M23.7503 4.79981C23.9034 5.09981 24.133 5.24981 24.4391 5.24981C24.5156 5.24981 24.6687 5.24981 24.7452 5.17481C25.1279 5.02481 25.3575 4.57481 25.1279 4.19981L23.9799 1.49979C23.8268 1.12479 23.3676 0.899792 22.985 1.12479C22.6023 1.27479 22.3727 1.7248 22.6023 2.0998L23.7503 4.79981Z" fill="current"/>
<path d="M19.9237 7.64983C20.2298 7.94983 20.689 7.94983 20.9952 7.64983C21.3013 7.34983 21.3013 6.89983 20.9952 6.59983L18.8523 4.49982C18.5461 4.19981 18.0869 4.19981 17.7808 4.49982C17.4747 4.79982 17.4747 5.24982 17.7808 5.54982L19.9237 7.64983Z" fill="current"/>
<path d="M38.3679 7.87441L40.5108 5.7744C40.8169 5.4744 40.8169 5.0244 40.5108 4.7244C40.2046 4.42439 39.7454 4.42439 39.4393 4.7244L37.2964 6.74941C36.9903 7.04941 36.9903 7.49941 37.2964 7.79941C37.526 8.09941 38.0618 8.09941 38.3679 7.87441Z" fill="current"/>
<path d="M33.5464 5.32481C33.6229 5.39981 33.776 5.39981 33.8525 5.39981C34.1586 5.39981 34.4648 5.2498 34.5413 4.9498L35.6893 2.24979C35.8423 1.87479 35.6893 1.42479 35.3066 1.27479C34.9239 1.12478 34.4648 1.27479 34.3117 1.64979L33.1637 4.3498C33.0107 4.7248 33.1637 5.17481 33.5464 5.32481Z" fill="current"/>
</svg>
