<svg width="24" height="24" viewBox="0 0 24 24" fill="current" xmlns="http://www.w3.org/2000/svg">
<path d="M22 6.52982V8.42101C22 8.85231 21.6556 9.20259 21.231 9.20259C20.8063 9.20259 20.462 8.85231 20.462 8.42101V6.52982C20.462 6.09852 20.8063 5.74824 21.231 5.74824C21.6556 5.74824 22 6.09852 22 6.52982Z" fill="current"/>
<path d="M4.77457 9.28132V5.66951C4.77457 5.23729 5.12023 4.88792 5.54539 4.88792C5.96984 4.88792 6.31441 5.23836 6.31441 5.66951V9.28132C6.31441 9.71247 5.96988 10.0629 5.54539 10.0629C5.12023 10.0629 4.77457 9.71354 4.77457 9.28132Z" fill="current"/>
<path d="M19.2236 5.66951V9.28132C19.2236 9.71247 18.8791 10.0629 18.4546 10.0629C18.0302 10.0629 17.6856 9.71247 17.6856 9.28132V5.66951C17.6856 5.23836 18.0301 4.88792 18.4546 4.88792C18.8791 4.88792 19.2236 5.23836 19.2236 5.66951Z" fill="current"/>
<path fill-rule="evenodd" clip-rule="evenodd" d="M8.27344 5.7857C8.27344 3.69773 9.94469 2 12 2C14.0553 2 15.7266 3.69777 15.7266 5.7857V11.1651C15.7266 13.2529 14.0551 14.9508 12 14.9508C9.94488 14.9508 8.27344 13.2528 8.27344 11.1651V5.7857ZM12.9372 18.8195C14.3985 18.6332 15.7796 18.0153 16.9054 17.044C17.9676 16.1275 18.7618 14.9329 19.2016 13.6019C19.2966 13.3146 19.2536 13.0248 19.0793 12.7786C18.9051 12.5325 18.6484 12.3988 18.3499 12.3988H18.2696C17.877 12.3988 17.5432 12.6427 17.4181 13.0208C16.6458 15.3554 14.4905 16.9745 12 16.9745C9.50949 16.9745 7.35273 15.3556 6.58016 13.0207C6.45504 12.6426 6.12129 12.3988 5.72863 12.3988H5.64793C5.34949 12.3988 5.09273 12.5325 4.91848 12.7786C4.74426 13.0248 4.70121 13.3146 4.79621 13.602C5.23621 14.9332 6.03258 16.1276 7.09473 17.044C8.22043 18.0153 9.60152 18.6332 11.0629 18.8195V20.0952H7.3118C6.79434 20.0952 6.37457 20.5218 6.37457 21.0475C6.37457 21.5729 6.79449 22 7.3118 22H16.6866C17.2046 22 17.6256 21.5741 17.6256 21.0475C17.6256 20.5207 17.2047 20.0952 16.6866 20.0952H12.9373L12.9372 18.8195Z" fill="current"/>
<path d="M3.53801 6.52982V8.42101C3.53801 8.85231 3.19359 9.20259 2.76898 9.20259C2.34344 9.20255 2 8.85315 2 8.42101V6.52982C2 6.09764 2.3434 5.74824 2.76902 5.74824C3.19363 5.74824 3.53801 6.09852 3.53801 6.52982Z" fill="current"/>
</svg>
