<svg width="48" height="48" viewBox="0 0 48 48" fill="current" xmlns="http://www.w3.org/2000/svg">
<path fill-rule="evenodd" clip-rule="evenodd" d="M5.25 8C5.25 7.58579 5.58579 7.25 6 7.25H22C22.4142 7.25 22.75 7.58579 22.75 8C22.75 8.41421 22.4142 8.75 22 8.75H6C5.58579 8.75 5.25 8.41421 5.25 8Z" fill="current"/>
<path fill-rule="evenodd" clip-rule="evenodd" d="M5.25 14C5.25 13.5858 5.58579 13.25 6 13.25H22C22.4142 13.25 22.75 13.5858 22.75 14C22.75 14.4142 22.4142 14.75 22 14.75H6C5.58579 14.75 5.25 14.4142 5.25 14Z" fill="current"/>
<path fill-rule="evenodd" clip-rule="evenodd" d="M5.25 20C5.25 19.5858 5.58579 19.25 6 19.25H16C16.4142 19.25 16.75 19.5858 16.75 20C16.75 20.4142 16.4142 20.75 16 20.75H6C5.58579 20.75 5.25 20.4142 5.25 20Z" fill="current"/>
<path fill-rule="evenodd" clip-rule="evenodd" d="M5.25 26C5.25 25.5858 5.58579 25.25 6 25.25H16C16.4142 25.25 16.75 25.5858 16.75 26C16.75 26.4142 16.4142 26.75 16 26.75H6C5.58579 26.75 5.25 26.4142 5.25 26Z" fill="current"/>
<path fill-rule="evenodd" clip-rule="evenodd" d="M24.25 25C24.25 24.5858 24.5858 24.25 25 24.25H33.5714C33.9856 24.25 34.3214 24.5858 34.3214 25C34.3214 25.4142 33.9856 25.75 33.5714 25.75H25C24.5858 25.75 24.25 25.4142 24.25 25Z" fill="current"/>
<path fill-rule="evenodd" clip-rule="evenodd" d="M24.25 31C24.25 30.5858 24.5858 30.25 25 30.25H38C38.4142 30.25 38.75 30.5858 38.75 31C38.75 31.4142 38.4142 31.75 38 31.75H25C24.5858 31.75 24.25 31.4142 24.25 31Z" fill="current"/>
<path fill-rule="evenodd" clip-rule="evenodd" d="M5 2.5H24C24.8284 2.5 25.5 3.17157 25.5 4V16.5H27V4C27 2.34315 25.6569 1 24 1H5C3.34315 1 2 2.34315 2 4V29C2 30.6569 3.34315 32 5 32H19V30.5H5C4.17157 30.5 3.5 29.8284 3.5 29V4C3.5 3.17157 4.17157 2.5 5 2.5Z" fill="current"/>
<path fill-rule="evenodd" clip-rule="evenodd" d="M40 20.5H24C23.1716 20.5 22.5 21.1716 22.5 22V44C22.5 44.8284 23.1716 45.5 24 45.5H40C40.8284 45.5 41.5 44.8284 41.5 44V22C41.5 21.1716 40.8284 20.5 40 20.5ZM24 19C22.3431 19 21 20.3431 21 22V44C21 45.6569 22.3431 47 24 47H40C41.6569 47 43 45.6569 43 44V22C43 20.3431 41.6569 19 40 19H24Z" fill="current"/>
<path fill-rule="evenodd" clip-rule="evenodd" d="M9.93532 34.8532C10.2925 34.8175 10.6111 35.0781 10.6468 35.4353C10.7135 36.1022 11.1843 37.2798 12.1974 38.1919C13.1801 39.0767 14.6892 39.7262 16.8931 39.3588C17.2472 39.2998 17.5821 39.539 17.6412 39.8931C17.7002 40.2472 17.461 40.5821 17.1069 40.6412C14.5108 41.0738 12.6032 40.3066 11.3276 39.1581C10.0823 38.0369 9.4532 36.5645 9.35323 35.5647C9.31751 35.2075 9.57812 34.8889 9.93532 34.8532Z" fill="current"/>
<path fill-rule="evenodd" clip-rule="evenodd" d="M15.5404 37.5404C15.7942 37.2865 16.2058 37.2865 16.4596 37.5404L18.3182 39.399C18.6501 39.7309 18.6501 40.2691 18.3182 40.601L16.4596 42.4596C16.2058 42.7135 15.7942 42.7135 15.5404 42.4596C15.2865 42.2058 15.2865 41.7942 15.5404 41.5404L17.0808 40L15.5404 38.4596C15.2865 38.2058 15.2865 37.7942 15.5404 37.5404Z" fill="current"/>
</svg>
