<svg width="20" height="20" viewBox="0 0 20 20" fill="current" xmlns="http://www.w3.org/2000/svg">
<path d="M4.12651 12.457C4.24652 12.7193 4.12803 13.0277 3.86184 13.1459C3.79133 13.1772 3.71748 13.192 3.64489 13.192C3.4433 13.192 3.25083 13.0779 3.1626 12.8851C2.54336 11.532 2.35327 10.0408 2.61295 8.57275C2.87864 7.07063 3.59946 5.70486 4.69755 4.62311C6.11394 3.22779 7.99708 2.45938 10.0001 2.45938C11.4536 2.45938 12.8438 2.86432 14.0385 3.61951L13.6328 2.34327C13.5455 2.06876 13.7007 1.77658 13.9793 1.69061C14.2578 1.6047 14.5545 1.75747 14.6418 2.03198L15.5806 4.98521C15.629 5.13746 15.6039 5.30317 15.5124 5.43485C15.421 5.56655 15.2734 5.64972 15.1118 5.66046L12.1543 5.85763C12.1422 5.85844 12.1301 5.85886 12.1181 5.85886C11.8424 5.85886 11.61 5.64819 11.5912 5.37316C11.5715 5.08619 11.7916 4.83779 12.0829 4.81839L13.7763 4.7055C11.2595 2.9094 7.71133 3.12724 5.44516 5.35965C3.56251 7.21444 3.03258 10.0667 4.12651 12.457ZM16.9837 7.15083C16.8773 6.88297 16.5707 6.7509 16.2988 6.85565C16.0269 6.96047 15.8927 7.26258 15.9991 7.53041C16.9324 9.87995 16.3656 12.5506 14.5551 14.3342C13.299 15.5716 11.6499 16.1953 9.99765 16.1952C8.84795 16.1951 7.69673 15.8928 6.67618 15.2851L8.22874 15.1816C8.52004 15.1622 8.7402 14.9138 8.72051 14.6268C8.70081 14.3399 8.44906 14.1224 8.15737 14.1424L5.19992 14.3395C5.03831 14.3503 4.89068 14.4335 4.79925 14.5652C4.70779 14.6969 4.68271 14.8626 4.73109 15.0148L5.66988 17.968C5.74069 18.1907 5.94925 18.3334 6.17424 18.3334C6.22658 18.3334 6.27981 18.3256 6.33238 18.3094C6.61102 18.2235 6.76616 17.9313 6.67889 17.6568L6.22648 16.2336C7.39066 16.9035 8.69467 17.237 9.99752 17.237C11.9206 17.237 13.8408 16.511 15.3027 15.0708C17.4103 12.9945 18.0701 9.88571 16.9837 7.15083Z" fill="current"/>
</svg>
