<svg width="48" height="48" viewBox="0 0 48 48" fill="none" xmlns="http://www.w3.org/2000/svg">
<path fill-rule="evenodd" clip-rule="evenodd" d="M35.2265 11.4598C36.5446 12.7779 38.6815 12.7779 39.9995 11.4598C41.3175 10.1418 41.3175 8.00487 39.9995 6.68683C38.6815 5.36879 36.5446 5.36879 35.2265 6.68683C33.9085 8.00487 33.9085 10.1418 35.2265 11.4598ZM38.9388 10.3992C38.2066 11.1314 37.0194 11.1314 36.2872 10.3992C35.5549 9.6669 35.5549 8.47974 36.2872 7.74749C37.0194 7.01524 38.2066 7.01524 38.9388 7.74749C39.6711 8.47974 39.6711 9.6669 38.9388 10.3992Z" fill="#2A7EF9"/>
<path fill-rule="evenodd" clip-rule="evenodd" d="M8.00054 41.3117C9.31857 42.6298 11.4555 42.6298 12.7735 41.3117C14.0916 39.9937 14.0916 37.8568 12.7735 36.5387C11.4555 35.2207 9.31857 35.2207 8.00054 36.5387C6.6825 37.8568 6.6825 39.9937 8.00054 41.3117ZM11.7129 40.2511C10.9806 40.9833 9.79345 40.9833 9.0612 40.2511C8.32894 39.5188 8.32894 38.3317 9.0612 37.5994C9.79345 36.8672 10.9806 36.8672 11.7129 37.5994C12.4451 38.3317 12.4451 39.5188 11.7129 40.2511Z" fill="#2A7EF9"/>
<path fill-rule="evenodd" clip-rule="evenodd" d="M24.0001 43.429C22.6875 43.429 21.4061 43.2989 20.1676 43.0512C19.7615 42.97 19.3664 43.2334 19.2851 43.6395C19.2039 44.0457 19.4673 44.4408 19.8735 44.5221C21.2082 44.789 22.5882 44.929 24.0001 44.929C35.5593 44.929 44.9298 35.5584 44.9298 23.9993C44.9298 18.9539 43.1433 14.324 40.1696 10.7098C39.9064 10.39 39.4338 10.344 39.1139 10.6072C38.794 10.8704 38.7481 11.343 39.0113 11.6629C41.7723 15.0186 43.4298 19.3143 43.4298 23.9993C43.4298 34.73 34.7309 43.429 24.0001 43.429Z" fill="#2A7EF9"/>
<path fill-rule="evenodd" clip-rule="evenodd" d="M8.88624 37.3921C9.2061 37.1289 9.25205 36.6563 8.98887 36.3364C6.22782 32.9808 4.57031 28.685 4.57031 24C4.57031 13.2693 13.2693 4.57031 24 4.57031C25.3257 4.57031 26.6195 4.70301 27.8694 4.95553C28.2754 5.03756 28.671 4.77491 28.753 4.3689C28.8351 3.96289 28.5724 3.56726 28.1664 3.48523C26.8193 3.21308 25.426 3.07031 24 3.07031C12.4409 3.07031 3.07031 12.4409 3.07031 24C3.07031 29.0454 4.8568 33.6753 7.83056 37.2895C8.09374 37.6093 8.56639 37.6553 8.88624 37.3921Z" fill="#2A7EF9"/>
<path fill-rule="evenodd" clip-rule="evenodd" d="M20.8872 36.9981C20.8872 37.4123 21.223 37.7481 21.6372 37.7481H26.3627C26.7769 37.7481 27.1127 37.4123 27.1127 36.9981V35.5285C28.1191 35.2576 29.073 34.8588 29.9557 34.3503L30.9932 35.3878C31.1338 35.5285 31.3247 35.6076 31.5236 35.6075C31.7226 35.6075 31.9134 35.5284 32.054 35.3877L35.3942 32.045C35.6869 31.7521 35.6868 31.2774 35.394 30.9845L34.3577 29.9482C34.8661 29.0656 35.2649 28.1117 35.5358 27.1053H37C37.4142 27.1053 37.75 26.7695 37.75 26.3553V21.6298C37.75 21.2156 37.4142 20.8798 37 20.8798H35.5357C35.2648 19.8734 34.866 18.9195 34.3576 18.0369L35.3884 17.006C35.5291 16.8654 35.6081 16.6745 35.6081 16.4756C35.608 16.2766 35.5289 16.0858 35.3882 15.9452L32.0456 12.605C31.7527 12.3123 31.278 12.3124 30.9852 12.6052L29.9555 13.6349C29.073 13.1265 28.1191 12.7277 27.1127 12.4568V11.0005C27.1127 10.5863 26.7769 10.2505 26.3627 10.2505H21.6372C21.223 10.2505 20.8872 10.5863 20.8872 11.0005V12.4568C19.8807 12.7277 18.9269 13.1265 18.0443 13.6349L17.0147 12.6052C16.7219 12.3124 16.2472 12.3123 15.9542 12.605L12.6117 15.9452C12.4709 16.0858 12.3918 16.2766 12.3918 16.4756C12.3918 16.6745 12.4708 16.8654 12.6114 17.006L13.6423 18.0369C13.1338 18.9195 12.735 19.8734 12.4641 20.8798H11.0024C10.5884 20.8798 10.2527 21.2154 10.2524 21.6294L10.2499 26.3549C10.2498 26.5538 10.3287 26.7447 10.4694 26.8854C10.6101 27.0262 10.8009 27.1053 10.9999 27.1053H12.4641C12.7349 28.1117 13.1337 29.0656 13.6422 29.9482L12.6059 30.9845C12.3131 31.2774 12.313 31.7521 12.6057 32.045L15.9458 35.3877C16.0865 35.5284 16.2773 35.6075 16.4762 35.6075C16.6752 35.6076 16.866 35.5285 17.0067 35.3878L18.0442 34.3503C18.9268 34.8588 19.8807 35.2576 20.8872 35.5285V36.9981ZM22.3872 36.2481V34.9385C22.3872 34.585 22.1403 34.2795 21.7947 34.2052C20.545 33.9367 19.3782 33.445 18.3382 32.7728C18.0413 32.5809 17.6507 32.6224 17.4007 32.8724L16.4765 33.7966L14.1967 31.5151L15.12 30.5917C15.37 30.3417 15.4115 29.9512 15.2196 29.6543C14.5475 28.6142 14.0558 27.4474 13.7873 26.1977C13.7131 25.8521 13.4075 25.6053 13.054 25.6053H11.7503L11.752 22.3798H13.0541C13.4076 22.3798 13.7131 22.133 13.7874 21.7874C14.0559 20.5377 14.5476 19.3709 15.2197 18.3309C15.4116 18.034 15.3701 17.6435 15.1201 17.3935L14.2026 16.4759L16.4842 14.196L17.4009 15.1128C17.6509 15.3627 18.0414 15.4042 18.3383 15.2123C19.3783 14.5402 20.545 14.0486 21.7947 13.7801C22.1403 13.7059 22.3872 13.4004 22.3872 13.0468V11.7505H25.6127V13.0468C25.6127 13.4004 25.8595 13.7059 26.2052 13.7801C27.4548 14.0486 28.6215 14.5402 29.6615 15.2123C29.9584 15.4042 30.349 15.3627 30.599 15.1128L31.5157 14.196L33.7972 16.4759L32.8797 17.3935C32.6298 17.6435 32.5883 18.034 32.7802 18.3309C33.4523 19.3709 33.944 20.5377 34.2125 21.7874C34.2867 22.133 34.5922 22.3798 34.9457 22.3798H36.25V25.6053H34.9458C34.5923 25.6053 34.2868 25.8521 34.2125 26.1977C33.944 27.4474 33.4523 28.6142 32.7802 29.6543C32.5884 29.9512 32.6299 30.3417 32.8798 30.5917L33.8032 31.5151L31.5233 33.7966L30.5991 32.8724C30.3492 32.6224 29.9586 32.5809 29.6617 32.7728C28.6216 33.445 27.4548 33.9367 26.2051 34.2052C25.8595 34.2795 25.6127 34.585 25.6127 34.9385V36.2481H22.3872ZM17.761 23.9993C17.761 27.445 20.5543 30.2383 23.9999 30.2383C27.4456 30.2383 30.2389 27.445 30.2389 23.9993C30.2389 20.5536 27.4456 17.7604 23.9999 17.7604C20.5543 17.7604 17.761 20.5536 17.761 23.9993ZM23.9999 28.7383C21.3827 28.7383 19.261 26.6166 19.261 23.9993C19.261 21.3821 21.3827 19.2604 23.9999 19.2604C26.6172 19.2604 28.7389 21.3821 28.7389 23.9993C28.7389 26.6166 26.6172 28.7383 23.9999 28.7383Z" fill="#2A7EF9"/>
</svg>
