<svg width="25" height="24" viewBox="0 0 25 24" fill="none" xmlns="http://www.w3.org/2000/svg">
<path d="M16.6827 13.5593V4.0678C16.6827 1.89831 14.9177 0 12.6096 0C10.4373 0 8.53654 1.76271 8.53654 4.0678V13.5593C7.31461 14.6441 6.5 16.2712 6.5 18.0339C6.5 21.2881 9.21539 24 12.4738 24C15.7323 24 18.4477 21.2881 18.4477 18.0339C18.7192 16.2712 17.9046 14.6441 16.6827 13.5593ZM12.7454 22.1017C10.5731 22.1017 8.67231 20.339 8.67231 18.0339C8.67231 16.8136 9.21539 15.8644 10.03 15.0508L10.7088 14.5085V4.0678C10.7088 2.98305 11.6592 2.0339 12.7454 2.0339C13.8315 2.0339 14.7819 2.98305 14.7819 4.0678V14.5085L15.4608 15.0508C16.2754 15.8644 16.8185 16.8136 16.8185 18.0339C16.6827 20.2034 14.9177 22.1017 12.7454 22.1017Z" fill="#11A3F5"/>
<path d="M13.5808 15.625V9H11.5404V15.625C10.3162 16 9.5 17 9.5 18.25C9.5 19.75 10.8603 21 12.4926 21C14.1249 21 15.4852 19.75 15.4852 18.25C15.6212 17.125 14.8051 16 13.5808 15.625Z" fill="#11A3F5"/>
</svg>
