<svg width="15" height="10" viewBox="0 0 15 10" fill="none" xmlns="http://www.w3.org/2000/svg">
<path d="M5.45255 0.286867C5.41217 0.200969 5.34817 0.128338 5.26804 0.0774632C5.18792 0.0265887 5.09496 -0.000427246 5.00005 -0.000427246C4.90513 -0.000427246 4.81218 0.0265887 4.73205 0.0774632C4.65192 0.128338 4.58792 0.200969 4.54755 0.286867L0.547545 8.78687C0.519599 8.84629 0.503629 8.91064 0.50055 8.97623C0.497471 9.04183 0.507341 9.10738 0.529598 9.16916C0.574549 9.29393 0.667222 9.39574 0.787233 9.45218C0.907243 9.50862 1.04476 9.51508 1.16953 9.47013C1.2943 9.42518 1.3961 9.3325 1.45255 9.21249L2.4938 6.99999H7.5063L8.54755 9.21249C8.57549 9.27192 8.61487 9.32525 8.66343 9.36946C8.71199 9.41366 8.76878 9.44787 8.83056 9.47013C8.89234 9.49238 8.9579 9.50225 9.02349 9.49917C9.08909 9.49609 9.15343 9.48013 9.21286 9.45218C9.27228 9.42423 9.32562 9.38485 9.36982 9.33629C9.41403 9.28773 9.44824 9.23094 9.47049 9.16916C9.49275 9.10738 9.50262 9.04183 9.49954 8.97623C9.49646 8.91064 9.48049 8.84629 9.45255 8.78687L5.45255 0.286867ZM2.96442 5.99999L5.00005 1.67437L7.03567 5.99999H2.96442ZM12.5 2.99999C11.7025 2.99999 11.0794 3.21687 10.6482 3.64499C10.5579 3.73911 10.5079 3.86479 10.509 3.99521C10.5101 4.12563 10.5621 4.25047 10.6539 4.3431C10.7457 4.43573 10.8701 4.48882 11.0005 4.49104C11.1309 4.49326 11.257 4.44444 11.3519 4.35499C11.5894 4.11937 11.9769 3.99999 12.5 3.99999C13.3269 3.99999 14 4.56249 14 5.24999V5.45124C13.5563 5.15438 13.0339 4.99721 12.5 4.99999C11.1213 4.99999 10 6.00937 10 7.24999C10 8.49062 11.1213 9.49999 12.5 9.49999C13.0341 9.50233 13.5566 9.34449 14 9.04687C14.0063 9.17948 14.0649 9.30418 14.1631 9.39355C14.2612 9.48293 14.3909 9.52965 14.5235 9.52343C14.6561 9.51721 14.7808 9.45857 14.8702 9.36041C14.9595 9.26225 15.0063 9.1326 15 8.99999V5.24999C15 4.00937 13.8788 2.99999 12.5 2.99999ZM12.5 8.49999C11.6732 8.49999 11 7.93749 11 7.24999C11 6.56249 11.6732 5.99999 12.5 5.99999C13.3269 5.99999 14 6.56249 14 7.24999C14 7.93749 13.3269 8.49999 12.5 8.49999Z" fill="current"/>
</svg>
