<svg width="48" height="48" viewBox="0 0 48 48" fill="none" xmlns="http://www.w3.org/2000/svg">
<path fill-rule="evenodd" clip-rule="evenodd" d="M31.3289 23.5621L35.1855 21.332L35.1966 21.3251C35.4526 21.1537 35.7958 21.1537 36.0518 21.3251C36.3289 21.5106 36.5019 21.7773 36.5019 22.133V44.8637C36.5019 45.2194 36.3289 45.4861 36.0518 45.6716C35.7958 45.843 35.4526 45.843 35.1966 45.6716L35.1907 45.6677L24.1459 39.3598H20.5364C18.6 39.3598 17.0722 37.8266 17.0722 35.8797V30.4841H9.97493C9.69733 30.4841 9.48143 30.392 9.33533 30.2453C9.18915 30.0985 9.09723 29.8812 9.09723 29.6017C9.09723 29.3221 9.18915 29.1048 9.33533 28.958C9.48142 28.8113 9.69733 28.7193 9.97493 28.7193H18.1303L18.186 28.6726C18.8083 28.1518 19.6266 27.7451 20.5364 27.7451H24.1461L29.5735 24.6302V10.3512H23.8773C23.5997 10.3512 23.3838 10.2592 23.2377 10.1125C23.0915 9.96565 22.9996 9.74837 22.9996 9.46883V3.96502H5.44859C4.7016 3.96502 3.95535 4.58595 3.95535 5.46391V35.4467C3.95535 36.1948 4.57233 36.9456 5.44859 36.9456H13.208C13.4856 36.9456 13.7015 37.0376 13.8476 37.1844C13.9938 37.3312 14.0857 37.5485 14.0857 37.828C14.0857 38.1075 13.9938 38.3248 13.8476 38.4716C13.7015 38.6184 13.4856 38.7104 13.208 38.7104H5.44859C3.72371 38.7104 2.19995 37.2813 2.19995 35.4467V5.46391C2.19995 3.6252 3.62001 2.2002 5.44859 2.2002H23.8773C24.2253 2.2002 24.3918 2.36745 24.4888 2.46493L24.4899 2.46608L31.08 8.75947L31.0943 8.76909C31.202 8.8412 31.2625 8.9533 31.2955 9.07475C31.3285 9.19637 31.3289 9.30914 31.3289 9.36059V23.5621ZM24.755 5.10096V8.47818H28.252L24.755 5.10096ZM24.8603 37.6796L34.7465 43.3694V23.6273L24.8603 29.3172C24.7683 29.3629 24.7079 29.3816 24.6525 29.3909C24.5912 29.4012 24.5278 29.4017 24.4161 29.4017H20.6442C19.6707 29.4017 18.9354 30.1415 18.9354 31.117V35.8797C18.9354 36.8552 19.6707 37.595 20.6442 37.595H24.4161C24.5278 37.595 24.5912 37.5955 24.6525 37.6058C24.7079 37.6151 24.7683 37.6338 24.8603 37.6796ZM45.1323 29.2273C45.9826 32.0031 45.9842 34.9982 45.3438 37.893L45.3429 37.8972C45.2555 38.3361 44.8161 38.6931 44.2821 38.6055C44.0778 38.5633 43.8779 38.414 43.7389 38.2045C43.5993 37.9942 43.5387 37.7501 43.5796 37.5431C44.1235 34.9204 44.1244 32.2939 43.4712 29.6665C43.4287 29.4471 43.4725 29.1993 43.5856 28.9949C43.6992 28.7895 43.8711 28.647 44.0696 28.6071C44.2884 28.5632 44.5365 28.6068 44.7411 28.721C44.9451 28.8348 45.0875 29.0076 45.1273 29.2078L45.1293 29.2176L45.1323 29.2273ZM9.09723 17.0457C9.09723 16.7662 9.18915 16.5489 9.33533 16.4021C9.48143 16.2553 9.69733 16.1633 9.97493 16.1633H23.4462C23.7238 16.1633 23.9397 16.2553 24.0858 16.4021C24.232 16.5489 24.3239 16.7662 24.3239 17.0457C24.3239 17.3252 24.232 17.5425 24.0858 17.6893C23.9397 17.8361 23.7238 17.9281 23.4462 17.9281H9.97493C9.53417 17.9281 9.09723 17.5727 9.09723 17.0457ZM9.09723 23.3237C9.09723 23.0442 9.18915 22.8269 9.33533 22.6801C9.48143 22.5333 9.69733 22.4413 9.97493 22.4413H23.4462C23.7238 22.4413 23.9397 22.5333 24.0858 22.6801C24.232 22.8269 24.3239 23.0442 24.3239 23.3237C24.3239 23.6032 24.232 23.8205 24.0858 23.9673C23.9397 24.1141 23.7238 24.2061 23.4462 24.2061H9.97493C9.53417 24.2061 9.09723 23.8507 9.09723 23.3237Z" fill="#2A7EF9"/>
<path d="M40 31C40 31 40.3 32 40.3 34C40.3 36 40 37 40 37" stroke="#2A7EF9" stroke-width="1.8" stroke-linecap="round"/>
</svg>
