<svg width="16" height="16" viewBox="0 0 16 16" fill="current" xmlns="http://www.w3.org/2000/svg">
<path d="M8.17848 8.71763H10.6025C10.8216 8.71763 11 8.89287 11 9.10882C11.0002 9.32497 10.8221 9.5 10.6025 9.5H7.38333C7.3097 9.5 7.25 9.4403 7.25 9.36667V5.3914C7.25 5.17545 7.42815 5 7.64747 5C7.867 5 8.04515 5.17524 8.04515 5.3914V8.5843C8.04515 8.65793 8.10484 8.71763 8.17848 8.71763Z" fill="current"/>
<path fill-rule="evenodd" clip-rule="evenodd" d="M2 8C2 4.69153 4.69174 2 7.99979 2C11.3085 2 13.9998 4.69153 13.9998 8C13.9998 11.3085 11.3085 14 7.99979 14C4.69174 14 2 11.3085 2 8ZM2.79996 8C2.79996 10.8674 5.13257 13.2 7.99979 13.2C10.8676 13.2 13.1998 10.8674 13.1998 8C13.1998 5.13257 10.8674 2.79996 7.99979 2.79996C5.13279 2.79996 2.79996 5.13257 2.79996 8Z" fill="current"/>
</svg>
