<svg width="64" height="64" viewBox="0 0 64 64" fill="none" xmlns="http://www.w3.org/2000/svg">
<g clip-path="url(#clip0_6540_89339)">
<path d="M7.40115 26.9175L4.0249 30.3037H7.40115V26.9175Z" fill="#088FAF"/>
<path d="M56.5913 26.9175L59.9688 30.3037H56.5913V26.9175Z" fill="#088FAF"/>
<path d="M56.6326 13.6612C56.6325 13.3298 56.5008 13.0119 56.2663 12.7775L43.8388 0.349999C43.6045 0.115563 43.2866 -0.0161798 42.9551 -0.0162506H8.65259C8.32107 -0.0162506 8.00312 0.115445 7.7687 0.349866C7.53428 0.584286 7.40259 0.902229 7.40259 1.23375V62.7337C7.40259 63.0653 7.53428 63.3832 7.7687 63.6176C8.00312 63.8521 8.32107 63.9837 8.65259 63.9837H55.3826C55.7141 63.9837 56.0321 63.8521 56.2665 63.6176C56.5009 63.3832 56.6326 63.0653 56.6326 62.7337V13.6612Z" fill="#F1F1F1"/>
<path d="M56.5913 13.35C56.5368 13.1333 56.4245 12.9354 56.2663 12.7775L43.8388 0.349999C43.6045 0.115563 43.2866 -0.0161798 42.9551 -0.0162506V11.8487C42.9551 12.2466 43.1131 12.6281 43.3944 12.9094C43.6757 13.1907 44.0573 13.3487 44.4551 13.3487L56.5913 13.35Z" fill="#CCCCCC"/>
<path d="M56.5913 13.35H44.4563C44.0585 13.35 43.6769 13.192 43.3956 12.9107C43.1143 12.6294 42.9563 12.2478 42.9563 11.85V13.1187C42.9563 13.9475 43.4713 14.9937 44.5038 14.9937H56.6288V13.6613C56.6368 13.556 56.624 13.4503 56.5913 13.35Z" fill="#E8E8E8"/>
<path d="M59.0138 51.5213H4.98633C4.65481 51.5213 4.33687 51.3896 4.10244 51.1551C3.86802 50.9207 3.73633 50.6028 3.73633 50.2713V31.1038C3.73633 30.7722 3.86802 30.4543 4.10244 30.2199C4.33687 29.9854 4.65481 29.8538 4.98633 29.8538H59.0138C59.3453 29.8538 59.6633 29.9854 59.8977 30.2199C60.1321 30.4543 60.2638 30.7722 60.2638 31.1038V50.27C60.264 50.4343 60.2318 50.5969 60.169 50.7487C60.1063 50.9005 60.0142 51.0385 59.8982 51.1547C59.7821 51.2709 59.6442 51.3631 59.4925 51.426C59.3407 51.4889 59.1781 51.5213 59.0138 51.5213Z" fill="#29ABE1"/>
<path d="M7.40137 51.5213H56.6326V53.1425H7.40137V51.5213Z" fill="#E0E0E0"/>
<path d="M23.0262 45.5625C22.9187 45.4559 22.8348 45.328 22.7799 45.187C22.725 45.0459 22.7003 44.8949 22.7075 44.7438V38.8537H20.945C20.5775 38.8537 20.305 38.7763 20.125 38.6225C19.945 38.4688 19.8562 38.2325 19.8562 37.915C19.8562 37.5975 19.9462 37.365 20.125 37.215C20.3037 37.065 20.5775 36.99 20.945 36.99H26.7975C27.1637 36.99 27.4374 37.065 27.6162 37.215C27.7949 37.365 27.885 37.5988 27.885 37.915C27.885 38.2313 27.7962 38.4675 27.6162 38.6225C27.4362 38.7775 27.1637 38.8537 26.7975 38.8537H25.0337V44.75C25.0408 44.9012 25.0161 45.0522 24.9612 45.1932C24.9063 45.3342 24.8224 45.4622 24.715 45.5687C24.4785 45.7675 24.1795 45.8764 23.8706 45.8764C23.5617 45.8764 23.2627 45.7675 23.0262 45.5687V45.5625Z" fill="white"/>
<path d="M36.1149 44.8312C36.1159 44.9726 36.0868 45.1125 36.0297 45.2418C35.9726 45.371 35.8888 45.4867 35.7837 45.5812C35.6865 45.6821 35.57 45.7624 35.4412 45.8173C35.3123 45.8723 35.1738 45.9008 35.0337 45.9012C34.8866 45.9 34.7417 45.8656 34.6097 45.8007C34.4777 45.7358 34.362 45.642 34.2712 45.5262L32.1249 42.9425L29.9362 45.5187C29.8473 45.6334 29.7337 45.7267 29.6039 45.7916C29.4741 45.8565 29.3313 45.8914 29.1862 45.8937C29.0456 45.893 28.9066 45.8636 28.7777 45.8075C28.6488 45.7515 28.5326 45.6698 28.4362 45.5675C28.338 45.4785 28.2582 45.3711 28.2016 45.2513C28.145 45.1314 28.1125 45.0016 28.1062 44.8693C28.0998 44.7369 28.1196 44.6046 28.1644 44.4799C28.2092 44.3551 28.2782 44.2405 28.3674 44.1425L30.7687 41.3662L28.4312 38.6525C28.2603 38.468 28.1621 38.2277 28.1549 37.9762C28.1549 37.836 28.1844 37.6973 28.2414 37.5691C28.2985 37.441 28.3819 37.3263 28.4862 37.2325C28.585 37.1318 28.7029 37.0517 28.8329 36.997C28.963 36.9423 29.1026 36.914 29.2437 36.9137C29.3908 36.9152 29.5356 36.9497 29.6676 37.0146C29.7995 37.0795 29.9153 37.1732 30.0062 37.2887L32.1199 39.7887L34.2212 37.2887C34.3059 37.1726 34.4168 37.078 34.545 37.0129C34.6732 36.9477 34.8149 36.9137 34.9587 36.9137C35.0998 36.914 35.2394 36.9423 35.3695 36.997C35.4995 37.0517 35.6174 37.1318 35.7162 37.2325C35.8205 37.3263 35.9039 37.441 35.9609 37.5691C36.018 37.6973 36.0475 37.836 36.0474 37.9762C36.0446 38.226 35.9514 38.4663 35.7849 38.6525L33.4462 41.3662L35.8337 44.1425C36.0109 44.3284 36.1114 44.5744 36.1149 44.8312Z" fill="white"/>
<path d="M39.5098 45.5625C39.4024 45.4559 39.3185 45.328 39.2636 45.187C39.2086 45.0459 39.184 44.8949 39.1911 44.7438V38.8537H37.4273C37.0611 38.8537 36.7873 38.7763 36.6086 38.6225C36.4298 38.4688 36.3398 38.2325 36.3398 37.915C36.3398 37.5975 36.4286 37.365 36.6086 37.215C36.7886 37.065 37.0611 36.99 37.4273 36.99H43.2811C43.6469 36.99 43.9198 37.065 44.0998 37.215C44.2798 37.365 44.3694 37.5983 44.3686 37.915C44.3686 38.2325 44.2786 38.4675 44.0998 38.6225C43.9211 38.7775 43.6473 38.8537 43.2811 38.8537H41.5173V44.75C41.5245 44.9012 41.4998 45.0522 41.4449 45.1932C41.39 45.3342 41.3061 45.4622 41.1986 45.5687C40.9621 45.7675 40.6631 45.8764 40.3542 45.8764C40.0453 45.8764 39.7463 45.7675 39.5098 45.5687V45.5625Z" fill="white"/>
</g>
<defs>
<clipPath id="clip0_6540_89339">
<rect width="64" height="64" fill="white"/>
</clipPath>
</defs>
</svg>
