<svg width="16" height="16" viewBox="0 0 16 16" fill="current" xmlns="http://www.w3.org/2000/svg">
<path d="M7.55044 1.18632L3.17544 5.64091C3.0616 5.76093 2.9986 5.92168 3.00002 6.08853C3.00145 6.25539 3.06718 6.415 3.18306 6.53298C3.29894 6.65097 3.4557 6.7179 3.61957 6.71935C3.78344 6.7208 3.94132 6.65666 4.05919 6.54074L7.36732 3.17243L7.36732 14.3636C7.36732 14.5324 7.43317 14.6943 7.55038 14.8136C7.66759 14.933 7.82656 15 7.99232 15C8.15808 15 8.31705 14.933 8.43426 14.8136C8.55147 14.6943 8.61732 14.5324 8.61732 14.3636L8.61732 3.17243L11.9254 6.54074C11.9831 6.60152 12.0521 6.65 12.1283 6.68335C12.2046 6.7167 12.2866 6.73425 12.3696 6.73499C12.4526 6.73572 12.5349 6.71962 12.6117 6.68762C12.6885 6.65563 12.7583 6.60837 12.8169 6.54862C12.8756 6.48887 12.922 6.41782 12.9535 6.33961C12.9849 6.26141 13.0007 6.17761 13 6.09311C12.9993 6.00862 12.982 5.92511 12.9493 5.84747C12.9165 5.76983 12.8689 5.69961 12.8092 5.64091L8.43419 1.18632C8.31699 1.06702 8.15805 1 7.99232 1C7.82659 1 7.66765 1.06702 7.55044 1.18632Z" fill="current"/>
</svg>
