<svg width="48" height="48" viewBox="0 0 48 48" fill="none" xmlns="http://www.w3.org/2000/svg">
<path fill-rule="evenodd" clip-rule="evenodd" d="M13.737 35.3171C10.9 32.9072 8.98674 29.5808 8.34822 25.9528C8.25865 25.4435 8.59879 24.9581 9.10788 24.8686C9.61711 24.779 10.1026 25.1192 10.1922 25.6283C11.3748 32.348 17.1821 37.2264 24 37.2264C30.8179 37.2264 36.6252 32.3479 37.8078 25.6282C37.8974 25.119 38.3829 24.7789 38.8921 24.8686C39.4013 24.9582 39.7415 25.4436 39.6519 25.9529C39.0133 29.5808 37.1 32.9072 34.263 35.3171C31.7419 37.4588 28.6235 38.7549 25.3636 39.039L24.9362 39.0763V44.1277H34.5319C35.049 44.1277 35.4681 44.5468 35.4681 45.0638C35.4681 45.5809 35.049 46 34.5319 46H13.4681C12.951 46 12.5319 45.5809 12.5319 45.0638C12.5319 44.5468 12.951 44.1277 13.4681 44.1277H23.0638V39.0763L22.6364 39.039C19.3765 38.7549 16.2582 37.4588 13.737 35.3171ZM33.309 23.2073C33.309 28.3399 29.1326 32.5163 24 32.5163C18.8674 32.5163 14.691 28.34 14.691 23.2072V11.309C14.691 6.17644 18.8674 2 24 2C29.1326 2 33.309 6.17644 33.309 11.309V23.2073ZM24 3.87234C19.899 3.87234 16.5634 7.20796 16.5634 11.309V23.2072C16.5634 27.3082 19.899 30.6439 24 30.6439C28.101 30.6439 31.4366 27.3082 31.4366 23.2072V11.309C31.4366 7.20796 28.101 3.87234 24 3.87234ZM39.6659 10.9903V19.1029C39.6659 19.62 39.2468 20.0391 38.7298 20.0391C38.2127 20.0391 37.7936 19.62 37.7936 19.1029V10.9903C37.7936 10.4732 38.2127 10.0541 38.7298 10.0541C39.2468 10.0541 39.6659 10.4732 39.6659 10.9903ZM46 12.9224V17.1706C46 17.6877 45.5809 18.1067 45.0638 18.1067C44.5468 18.1067 44.1277 17.6877 44.1277 17.1706V12.9224C44.1277 12.4053 44.5468 11.9862 45.0638 11.9862C45.5809 11.9862 46 12.4053 46 12.9224ZM8.33407 19.1028V10.9902C8.33407 10.4731 8.75317 10.054 9.27024 10.054C9.78731 10.054 10.2064 10.4731 10.2064 10.9902V19.1028C10.2064 19.6199 9.78731 20.039 9.27024 20.039C8.75317 20.039 8.33407 19.6199 8.33407 19.1028ZM3.87234 12.9224V17.1706C3.87234 17.6877 3.45324 18.1067 2.93617 18.1067C2.4191 18.1067 2 17.6877 2 17.1706V12.9224C2 12.4053 2.4191 11.9862 2.93617 11.9862C3.45324 11.9862 3.87234 12.4053 3.87234 12.9224Z" fill="#2A7EF9"/>
</svg>
