<svg width="24" height="24" viewBox="0 0 24 24" fill="current" xmlns="http://www.w3.org/2000/svg">
<mask id="path-1-inside-1_18_2827" fill="current">
<path fill-rule="evenodd" clip-rule="evenodd" d="M12 24C18.6274 24 24 18.6274 24 12C24 5.37258 18.6274 0 12 0C5.37258 0 0 5.37258 0 12C0 18.6274 5.37258 24 12 24ZM12.105 7.5H12.0382V7.50075H11.8935C11.1794 7.50328 10.4653 7.51603 9.7515 7.539L9.62325 7.54425L9.55875 7.5465L9.42975 7.551L9.30225 7.55625C8.46975 7.59375 7.677 7.65375 7.31175 7.75125C7.05703 7.82017 6.8249 7.95484 6.63863 8.14176C6.45237 8.32868 6.31852 8.56129 6.2505 8.81625C6.17475 9.1005 6.1215 9.4785 6.0855 9.86775L6.078 9.94575L6.0615 10.1407L6.0555 10.2188L6.05325 10.2578L6.048 10.335C6.0075 10.95 6.0015 11.5073 6 11.6685V11.7607C6.00397 12.2703 6.02449 12.7795 6.0615 13.2878L6.0675 13.3658L6.0735 13.4445C6.111 13.8735 6.1665 14.3003 6.24975 14.613C6.31788 14.8678 6.45179 15.1003 6.63804 15.2871C6.8243 15.4738 7.05637 15.6084 7.311 15.6773C7.67625 15.7763 8.469 15.8355 9.3015 15.8723L9.42975 15.8775L9.558 15.8828L9.62325 15.8858L9.75075 15.8903C10.7557 15.9248 11.7142 15.9293 11.946 15.9293H12.0525C12.5107 15.9285 15.8175 15.912 16.6875 15.678C16.9422 15.6091 17.1744 15.4744 17.3606 15.2875C17.5469 15.1006 17.6807 14.868 17.7488 14.613C17.832 14.2995 17.8875 13.8735 17.925 13.4445L17.9318 13.3665L17.9377 13.2878C17.9918 12.5738 17.9985 11.8883 17.9993 11.7428V11.6865C17.9985 11.5463 17.9925 10.9043 17.9438 10.2188L17.9377 10.1407L17.9212 9.94575L17.9137 9.86775C17.8778 9.4785 17.8245 9.10125 17.7488 8.81625C17.6805 8.56139 17.5466 8.3289 17.3604 8.14201C17.1741 7.95512 16.9421 7.82038 16.6875 7.75125C15.8453 7.52475 12.7215 7.50225 12.105 7.5ZM10.8 13.521V9.9075L13.9178 11.715L10.8 13.521Z"/>
</mask>
<path fill-rule="evenodd" clip-rule="evenodd" d="M12 24C18.6274 24 24 18.6274 24 12C24 5.37258 18.6274 0 12 0C5.37258 0 0 5.37258 0 12C0 18.6274 5.37258 24 12 24ZM12.105 7.5H12.0382V7.50075H11.8935C11.1794 7.50328 10.4653 7.51603 9.7515 7.539L9.62325 7.54425L9.55875 7.5465L9.42975 7.551L9.30225 7.55625C8.46975 7.59375 7.677 7.65375 7.31175 7.75125C7.05703 7.82017 6.8249 7.95484 6.63863 8.14176C6.45237 8.32868 6.31852 8.56129 6.2505 8.81625C6.17475 9.1005 6.1215 9.4785 6.0855 9.86775L6.078 9.94575L6.0615 10.1407L6.0555 10.2188L6.05325 10.2578L6.048 10.335C6.0075 10.95 6.0015 11.5073 6 11.6685V11.7607C6.00397 12.2703 6.02449 12.7795 6.0615 13.2878L6.0675 13.3658L6.0735 13.4445C6.111 13.8735 6.1665 14.3003 6.24975 14.613C6.31788 14.8678 6.45179 15.1003 6.63804 15.2871C6.8243 15.4738 7.05637 15.6084 7.311 15.6773C7.67625 15.7763 8.469 15.8355 9.3015 15.8723L9.42975 15.8775L9.558 15.8828L9.62325 15.8858L9.75075 15.8903C10.7557 15.9248 11.7142 15.9293 11.946 15.9293H12.0525C12.5107 15.9285 15.8175 15.912 16.6875 15.678C16.9422 15.6091 17.1744 15.4744 17.3606 15.2875C17.5469 15.1006 17.6807 14.868 17.7488 14.613C17.832 14.2995 17.8875 13.8735 17.925 13.4445L17.9318 13.3665L17.9377 13.2878C17.9918 12.5738 17.9985 11.8883 17.9993 11.7428V11.6865C17.9985 11.5463 17.9925 10.9043 17.9438 10.2188L17.9377 10.1407L17.9212 9.94575L17.9137 9.86775C17.8778 9.4785 17.8245 9.10125 17.7488 8.81625C17.6805 8.56139 17.5466 8.3289 17.3604 8.14201C17.1741 7.95512 16.9421 7.82038 16.6875 7.75125C15.8453 7.52475 12.7215 7.50225 12.105 7.5ZM10.8 13.521V9.9075L13.9178 11.715L10.8 13.521Z" fill="current"/>
<path d="M12.0382 7.5V6.5H11.0382V7.5H12.0382ZM12.105 7.5L12.1087 6.5H12.105V7.5ZM12.0382 7.50075V8.50075H13.0382V7.50075H12.0382ZM11.8935 7.50075L11.8935 6.50074L11.89 6.50076L11.8935 7.50075ZM9.7515 7.539L9.71934 6.53948L9.7106 6.53984L9.7515 7.539ZM9.62325 7.54425L9.65812 8.54366L9.66415 8.54341L9.62325 7.54425ZM9.55875 7.5465L9.59361 8.54589L9.59362 8.54589L9.55875 7.5465ZM9.42975 7.551L9.39489 6.55159L9.38861 6.55185L9.42975 7.551ZM9.30225 7.55625L9.26111 6.55709L9.25725 6.55726L9.30225 7.55625ZM7.31175 7.75125L7.05384 6.78508L7.05058 6.78596L7.31175 7.75125ZM6.63863 8.14176L5.93028 7.4359L6.63863 8.14176ZM6.2505 8.81625L5.28429 8.55848L5.28422 8.55874L6.2505 8.81625ZM6.0855 9.86775L7.08092 9.96346L7.08125 9.95984L6.0855 9.86775ZM6.078 9.94575L5.08253 9.85004L5.08156 9.86144L6.078 9.94575ZM6.0615 10.1407L5.06503 10.0564L5.06445 10.0641L6.0615 10.1407ZM6.0555 10.2188L5.05845 10.1421L5.05771 10.1516L5.05716 10.1611L6.0555 10.2188ZM6.05325 10.2578L7.051 10.3256L7.05159 10.3154L6.05325 10.2578ZM6.048 10.335L5.0503 10.2672L5.05016 10.2693L6.048 10.335ZM6 11.6685L5 11.6592V11.6685H6ZM6 11.7607L4.99997 11.7607L5.00003 11.7686L6 11.7607ZM6.0615 13.2878L5.06413 13.3604L5.06445 13.3644L6.0615 13.2878ZM6.0675 13.3658L7.06461 13.2898L7.06455 13.2891L6.0675 13.3658ZM6.0735 13.4445L5.07633 13.5205L5.0773 13.5316L6.0735 13.4445ZM6.24975 14.613L5.2834 14.8702L5.28369 14.8713L6.24975 14.613ZM6.63804 15.2871L7.34615 14.5809L7.34615 14.5809L6.63804 15.2871ZM7.311 15.6773L7.57261 14.7121L7.57203 14.7119L7.311 15.6773ZM9.3015 15.8723L9.2574 16.8713L9.2606 16.8714L9.3015 15.8723ZM9.42975 15.8775L9.47065 14.8783L9.47065 14.8783L9.42975 15.8775ZM9.558 15.8828L9.60393 14.8838L9.5989 14.8836L9.558 15.8828ZM9.62325 15.8858L9.57732 16.8848L9.58797 16.8851L9.62325 15.8858ZM9.75075 15.8903L9.71547 16.8896L9.71644 16.8897L9.75075 15.8903ZM12.0525 15.9293L12.0525 16.9293L12.0541 16.9292L12.0525 15.9293ZM16.6875 15.678L16.9472 16.6437L16.9487 16.6433L16.6875 15.678ZM17.3606 15.2875L16.6523 14.5816L16.6523 14.5816L17.3606 15.2875ZM17.7488 14.613L18.715 14.8708L18.7153 14.8697L17.7488 14.613ZM17.925 13.4445L18.9212 13.5316L18.9213 13.5307L17.925 13.4445ZM17.9318 13.3665L18.9281 13.4527L18.9289 13.4425L17.9318 13.3665ZM17.9377 13.2878L18.9349 13.3637L18.9349 13.3632L17.9377 13.2878ZM17.9993 11.7428L18.9993 11.7479V11.7428H17.9993ZM17.9993 11.6865L18.9993 11.6865L18.9992 11.6811L17.9993 11.6865ZM17.9438 10.2188L18.9412 10.1478L18.9408 10.142L17.9438 10.2188ZM17.9377 10.1407L18.9348 10.064L18.9342 10.0564L17.9377 10.1407ZM17.9212 9.94575L18.9178 9.86143L18.9167 9.85004L17.9212 9.94575ZM17.9137 9.86775L16.918 9.95984L16.9183 9.96346L17.9137 9.86775ZM17.7488 8.81625L18.7152 8.55938L18.7147 8.55765L17.7488 8.81625ZM17.3604 8.14201L18.0687 7.43615L18.0687 7.43615L17.3604 8.14201ZM16.6875 7.75125L16.9495 6.78618L16.9472 6.78556L16.6875 7.75125ZM10.8 9.9075L11.3016 9.04237L9.8 8.17186V9.9075H10.8ZM10.8 13.521H9.8V15.2559L11.3012 14.3863L10.8 13.521ZM13.9178 11.715L14.419 12.5803L15.9122 11.7154L14.4193 10.8499L13.9178 11.715ZM23 12C23 18.0751 18.0751 23 12 23V25C19.1797 25 25 19.1797 25 12H23ZM12 1C18.0751 1 23 5.92487 23 12H25C25 4.8203 19.1797 -1 12 -1V1ZM1 12C1 5.92487 5.92487 1 12 1V-1C4.8203 -1 -1 4.8203 -1 12H1ZM12 23C5.92487 23 1 18.0751 1 12H-1C-1 19.1797 4.8203 25 12 25V23ZM12.0382 8.5H12.105V6.5H12.0382V8.5ZM13.0382 7.50075V7.5H11.0382V7.50075H13.0382ZM11.8935 8.50075H12.0382V6.50075H11.8935V8.50075ZM9.78366 8.53848C10.4879 8.51582 11.1924 8.50324 11.897 8.50074L11.89 6.50076C11.1663 6.50332 10.4427 6.51624 9.71934 6.53952L9.78366 8.53848ZM9.66415 8.54341L9.7924 8.53816L9.7106 6.53984L9.58235 6.54509L9.66415 8.54341ZM9.59362 8.54589L9.65812 8.54364L9.58838 6.54486L9.52388 6.54711L9.59362 8.54589ZM9.46461 8.55039L9.59361 8.54589L9.52389 6.54711L9.39489 6.55161L9.46461 8.55039ZM9.34339 8.5554L9.47089 8.55015L9.38861 6.55185L9.26111 6.5571L9.34339 8.5554ZM7.56966 8.71742C7.80826 8.65373 8.48082 8.59427 9.34725 8.55524L9.25725 6.55726C8.45868 6.59323 7.54574 6.65377 7.05384 6.78508L7.56966 8.71742ZM7.34699 8.84762C7.40951 8.78488 7.48742 8.73968 7.57292 8.71654L7.05058 6.78596C6.62663 6.90066 6.24029 7.1248 5.93028 7.4359L7.34699 8.84762ZM7.21671 9.07402C7.23954 8.98844 7.28447 8.91036 7.34699 8.84762L5.93028 7.4359C5.62028 7.747 5.3975 8.13413 5.28429 8.55848L7.21671 9.07402ZM7.08125 9.95984C7.11559 9.58852 7.16277 9.27642 7.21678 9.07375L5.28422 8.55874C5.18673 8.92458 5.12741 9.36848 5.08975 9.77566L7.08125 9.95984ZM7.07341 10.0415L7.08091 9.96346L5.09009 9.77204L5.08259 9.85004L7.07341 10.0415ZM7.05794 10.2251L7.07444 10.0301L5.08156 9.86144L5.06506 10.0564L7.05794 10.2251ZM7.05255 10.2954L7.05855 10.2174L5.06445 10.0641L5.05845 10.1421L7.05255 10.2954ZM7.05159 10.3154L7.05384 10.2764L5.05716 10.1611L5.05491 10.2001L7.05159 10.3154ZM7.0457 10.4028L7.05095 10.3256L5.05555 10.1899L5.0503 10.2672L7.0457 10.4028ZM6.99996 11.6778C7.00141 11.5215 7.00724 10.9869 7.04584 10.4007L5.05016 10.2693C5.00776 10.9131 5.00159 11.493 5.00004 11.6592L6.99996 11.6778ZM7 11.7607V11.6685H5V11.7607H7ZM7.05886 13.2151C7.02342 12.7285 7.00378 12.2408 6.99997 11.7529L5.00003 11.7686C5.00417 12.2997 5.02556 12.8306 5.06414 13.3604L7.05886 13.2151ZM7.06455 13.2891L7.05855 13.2111L5.06445 13.3644L5.07045 13.4424L7.06455 13.2891ZM7.07061 13.3685L7.06461 13.2898L5.07039 13.4417L5.07639 13.5205L7.07061 13.3685ZM7.2161 14.3558C7.1561 14.1303 7.10619 13.7748 7.0697 13.3574L5.0773 13.5316C5.11581 13.9722 5.1769 14.4702 5.2834 14.8702L7.2161 14.3558ZM7.34615 14.5809C7.28363 14.5183 7.23868 14.4402 7.21581 14.3547L5.28369 14.8713C5.39709 15.2954 5.61995 15.6823 5.92994 15.9932L7.34615 14.5809ZM7.57203 14.7119C7.48656 14.6888 7.40867 14.6436 7.34615 14.5809L5.92994 15.9932C6.23993 16.304 6.62617 16.528 7.04997 16.6426L7.57203 14.7119ZM9.3456 14.8732C8.4776 14.8349 7.80833 14.776 7.57261 14.7121L7.04939 16.6424C7.54417 16.7765 8.4604 16.8361 9.2574 16.8713L9.3456 14.8732ZM9.47065 14.8783L9.3424 14.8731L9.2606 16.8714L9.38885 16.8767L9.47065 14.8783ZM9.5989 14.8836L9.47065 14.8783L9.38885 16.8767L9.5171 16.8819L9.5989 14.8836ZM9.66918 14.8868L9.60393 14.8838L9.51207 16.8817L9.57732 16.8847L9.66918 14.8868ZM9.78602 14.8909L9.65853 14.8864L9.58797 16.8851L9.71547 16.8896L9.78602 14.8909ZM11.946 14.9293C11.7208 14.9293 10.7746 14.9248 9.78506 14.8908L9.71644 16.8897C10.7369 16.9247 11.7077 16.9293 11.946 16.9293V14.9293ZM12.0525 14.9293H11.946V16.9293H12.0525V14.9293ZM16.4278 14.7123C16.3105 14.7439 16.0263 14.7841 15.5825 14.8189C15.164 14.8518 14.6712 14.8752 14.1819 14.8917C13.2045 14.9246 12.2753 14.9289 12.0509 14.9293L12.0541 16.9292C12.288 16.9289 13.2412 16.9245 14.2493 16.8905C14.7527 16.8736 15.2784 16.8489 15.7389 16.8128C16.1741 16.7787 16.6295 16.7291 16.9472 16.6437L16.4278 14.7123ZM16.6523 14.5816C16.5897 14.6444 16.5118 14.6896 16.4263 14.7127L16.9487 16.6433C17.3726 16.5286 17.759 16.3044 18.069 15.9933L16.6523 14.5816ZM16.7825 14.3552C16.7597 14.4408 16.7148 14.5189 16.6523 14.5816L18.069 15.9933C18.379 15.6822 18.6017 15.2951 18.715 14.8708L16.7825 14.3552ZM16.9288 13.3574C16.8924 13.7744 16.8424 14.1297 16.7822 14.3563L18.7153 14.8697C18.8216 14.4693 18.8826 13.9726 18.9212 13.5316L16.9288 13.3574ZM16.9355 13.2803L16.9287 13.3583L18.9213 13.5307L18.928 13.4527L16.9355 13.2803ZM16.9406 13.2118L16.9346 13.2905L18.9289 13.4425L18.9349 13.3637L16.9406 13.2118ZM16.9993 11.7376C16.9986 11.8744 16.992 12.5329 16.9406 13.2123L18.9349 13.3632C18.9915 12.6146 18.9984 11.9021 18.9992 11.7479L16.9993 11.7376ZM16.9993 11.6865V11.7428H18.9993V11.6865H16.9993ZM16.9463 10.2897C16.9927 10.943 16.9986 11.5598 16.9993 11.6919L18.9992 11.6811C18.9984 11.5327 18.9923 10.8655 18.9412 10.1478L16.9463 10.2897ZM16.9407 10.2175L16.9467 10.2955L18.9408 10.142L18.9348 10.064L16.9407 10.2175ZM16.9248 10.0301L16.9413 10.2251L18.9342 10.0564L18.9177 9.86143L16.9248 10.0301ZM16.9183 9.96346L16.9258 10.0415L18.9167 9.85004L18.9092 9.77204L16.9183 9.96346ZM16.7823 9.07312C16.8365 9.27713 16.8837 9.58898 16.918 9.95984L18.9095 9.77566C18.8718 9.36802 18.8125 8.92537 18.7152 8.55938L16.7823 9.07312ZM16.652 8.84786C16.7147 8.91078 16.7598 8.98905 16.7828 9.07485L18.7147 8.55765C18.6012 8.13372 18.3785 7.74701 18.0687 7.43615L16.652 8.84786ZM16.4255 8.71632C16.5112 8.73959 16.5893 8.78495 16.652 8.84787L18.0687 7.43615C17.759 7.12528 17.373 6.90116 16.9495 6.78618L16.4255 8.71632ZM12.1014 8.49999C12.4056 8.5011 13.3285 8.50724 14.2761 8.5409C14.7505 8.55775 15.2226 8.58122 15.6224 8.61351C16.0461 8.64773 16.3156 8.68677 16.4278 8.71694L16.9472 6.78556C16.6383 6.70248 16.2015 6.65377 15.7834 6.62C15.3413 6.5843 14.8359 6.55953 14.3471 6.54216C13.3682 6.50739 12.4209 6.50115 12.1087 6.50001L12.1014 8.49999ZM9.8 9.9075V13.521H11.8V9.9075H9.8ZM14.4193 10.8499L11.3016 9.04237L10.2984 10.7726L13.4162 12.5801L14.4193 10.8499ZM11.3012 14.3863L14.419 12.5803L13.4165 10.8497L10.2988 12.6557L11.3012 14.3863Z" fill="current" mask="url(#path-1-inside-1_18_2827)"/>
</svg>
