<svg width="16" height="16" viewBox="0 0 16 16" fill="none" xmlns="http://www.w3.org/2000/svg">
<path fill-rule="evenodd" clip-rule="evenodd" d="M2 8C2 4.68621 4.68621 2 8 2C11.3138 2 14 4.68621 14 8C14 11.3138 11.3138 14 8 14C4.68621 14 2 11.3138 2 8ZM8 3C5.23849 3 3 5.23849 3 8C3 10.7615 5.23849 13 8 13C10.7615 13 13 10.7615 13 8C13 5.23849 10.7615 3 8 3ZM5.5 8C5.5 7.72386 5.72386 7.5 6 7.5H10C10.2761 7.5 10.5 7.72386 10.5 8C10.5 8.27614 10.2761 8.5 10 8.5H6C5.72386 8.5 5.5 8.27614 5.5 8Z" fill="white"/>
</svg>
