<svg width="16" height="16" viewBox="0 0 16 16" fill="none" xmlns="http://www.w3.org/2000/svg">
<path fill-rule="evenodd" clip-rule="evenodd" d="M2 8C2 4.68621 4.68621 2 8 2C11.3138 2 14 4.68621 14 8C14 11.3138 11.3138 14 8 14C4.68621 14 2 11.3138 2 8ZM8 3C5.23849 3 3 5.23849 3 8C3 10.7615 5.23849 13 8 13C10.7615 13 13 10.7615 13 8C13 5.23849 10.7615 3 8 3ZM7.99995 5.5002C8.27609 5.50019 8.49995 5.72405 8.49995 6.00019L8.49997 7.50012L9.99998 7.5002C10.2761 7.50021 10.5 7.72408 10.5 8.00022C10.4999 8.27636 10.2761 8.50021 9.99993 8.5002L8.49998 8.50012L8.5 10.0002C8.5 10.2763 8.27615 10.5002 8.00001 10.5002C7.72386 10.5002 7.5 10.2763 7.5 10.0002L7.49998 8.50007L5.99993 8.5C5.72378 8.49999 5.49994 8.27612 5.49995 7.99998C5.49996 7.72383 5.72383 7.49999 5.99998 7.5L7.49997 7.50007L7.49995 6.0002C7.49995 5.72406 7.7238 5.5002 7.99995 5.5002Z" fill="white"/>
</svg>
