<svg width="16" height="16" viewBox="0 0 16 16" fill="none" xmlns="http://www.w3.org/2000/svg">
<path d="M8 2C7.56397 2 7.21053 2.35346 7.21053 2.78947V7.21055H2.78947C2.35346 7.21055 2 7.56399 2 8.00002C2 8.43605 2.35346 8.78949 2.78947 8.78949H7.21053V13.2105C7.21053 13.6465 7.56397 14 8 14C8.43603 14 8.78947 13.6465 8.78947 13.2105V8.78949H13.2105C13.6465 8.78949 14 8.43605 14 8.00002C14 7.56399 13.6465 7.21055 13.2105 7.21055H8.78947V2.78947C8.78947 2.35346 8.43603 2 8 2Z" fill="white"/>
</svg>
