<svg width="16" height="24" viewBox="0 0 16 24" fill="none" xmlns="http://www.w3.org/2000/svg">
<g clip-path="url(#clip0)">
<path d="M7.99956 18.886C7.84594 18.886 7.69234 18.8273 7.57522 18.7102L3.8897 15.0247C3.65526 14.7902 3.65526 14.4101 3.8897 14.1758C4.12406 13.9414 4.5041 13.9414 4.73856 14.1758L7.99956 17.437L11.2606 14.1759C11.495 13.9415 11.875 13.9415 12.1094 14.1759C12.3439 14.4102 12.3439 14.7903 12.1094 15.0248L8.42389 18.7104C8.30672 18.8274 8.15312 18.886 7.99956 18.886Z" fill="#333333"/>
</g>
<g clip-path="url(#clip1)">
<path d="M8.00044 5.11404C8.15406 5.11404 8.30766 5.1727 8.42478 5.28976L12.1103 8.97532C12.3447 9.20977 12.3447 9.58988 12.1103 9.82424C11.8759 10.0586 11.4959 10.0586 11.2614 9.82424L8.00044 6.56305L4.73943 9.82412C4.50498 10.0585 4.12498 10.0585 3.89064 9.82412C3.65608 9.58977 3.65608 9.20965 3.89064 8.97521L7.57611 5.28965C7.69328 5.17256 7.84688 5.11404 8.00044 5.11404Z" fill="#333333"/>
</g>
<defs>
<clipPath id="clip0">
<rect width="10" height="10" fill="white" transform="translate(13 11) rotate(90)"/>
</clipPath>
<clipPath id="clip1">
<rect width="10" height="10" fill="white" transform="translate(3 13) rotate(-90)"/>
</clipPath>
</defs>
</svg>
