<svg width="100" height="100" viewBox="0 0 100 100" fill="none" xmlns="http://www.w3.org/2000/svg">
<circle cx="59" cy="50" r="40" fill="#1EB2FF" fill-opacity="0.1"/>
<path d="M56.7503 68C56.7503 72.962 52.7123 77 47.7503 77H39.5003C38.2553 77 37.1393 76.232 36.6983 75.068L14.9483 18.068C14.5943 17.147 14.7203 16.112 15.2783 15.299C15.8393 14.486 16.7633 14 17.7503 14H47.7503C52.7123 14 56.7503 18.038 56.7503 23V68Z" fill="#F9F9F9"/>
<path d="M38.75 26V80C38.75 82.07 37.07 83.75 35 83.75C34.58 83.75 34.19 83.69 33.8 83.57L15.8 77.57C14.33 77.06 13.25 75.65 13.25 74V20C13.25 17.93 14.93 16.25 17 16.25C17.42 16.25 17.81 16.31 18.2 16.43L36.2 22.43C37.67 22.94 38.75 24.35 38.75 26Z" fill="white"/>
<path d="M33.089 85.7022L15.065 79.6932C12.632 78.8532 11 76.5642 11 73.9992V19.9992C11 16.0482 14.843 13.0452 18.911 14.2962L36.935 20.3052C39.368 21.1452 41 23.4342 41 25.9992V79.9992C41 83.3082 38.309 85.9992 35 85.9992C34.358 85.9992 33.749 85.9062 33.089 85.7022ZM15.5 19.9992V73.9992C15.5 74.6382 15.926 75.2322 16.511 75.4362L34.46 81.4212C35.435 81.7152 36.5 81.0162 36.5 79.9992V25.9992C36.5 25.3602 36.074 24.7662 35.489 24.5622L17.537 18.5802C17.357 18.5232 17.189 18.4992 17 18.4992C16.172 18.4992 15.5 19.1712 15.5 19.9992Z" fill="white"/>
<path d="M80.75 47.75H52.25C51.008 47.75 50 46.742 50 45.5C50 44.258 51.008 43.25 52.25 43.25H80.75C81.992 43.25 83 44.258 83 45.5C83 46.742 81.992 47.75 80.75 47.75Z" fill="#1EB2FF"/>
<path d="M69.4993 59.0004C68.9233 59.0004 68.3473 58.7814 67.9093 58.3404C67.0302 57.4614 67.0302 56.0364 67.9093 55.1574L77.5693 45.4974L67.9093 35.8374C67.0302 34.9584 67.0302 33.5334 67.9093 32.6544C68.7883 31.7754 70.2133 31.7754 71.0923 32.6544L82.3423 43.9044C83.2213 44.7834 83.2213 46.2084 82.3423 47.0874L71.0923 58.3374C70.6513 58.7814 70.0753 59.0004 69.4993 59.0004Z" fill="#1EB2FF"/>
<path d="M35 86C34.358 86 33.749 85.91 33.14 85.721L15.086 79.706C12.629 78.848 11 76.559 11 74V20C11 16.691 13.691 14 17 14C17.642 14 18.251 14.09 18.86 14.279L36.914 20.294C39.371 21.152 41 23.441 41 26V80C41 83.309 38.309 86 35 86ZM17 18.5C16.175 18.5 15.5 19.175 15.5 20V74C15.5 74.639 15.929 75.233 16.541 75.446L34.511 81.434C34.64 81.476 34.808 81.5 35 81.5C35.825 81.5 36.5 80.825 36.5 80V26C36.5 25.361 36.071 24.767 35.459 24.554L17.489 18.566C17.36 18.524 17.192 18.5 17 18.5Z" fill="#1EB2FF"/>
<path d="M56.75 38C55.508 38 54.5 36.992 54.5 35.75V22.25C54.5 20.183 52.817 18.5 50.75 18.5H17C15.758 18.5 14.75 17.492 14.75 16.25C14.75 15.008 15.758 14 17 14H50.75C55.301 14 59 17.699 59 22.25V35.75C59 36.992 57.992 38 56.75 38Z" fill="#1EB2FF"/>
<path d="M50.75 77H38.75C37.508 77 36.5 75.992 36.5 74.75C36.5 73.508 37.508 72.5 38.75 72.5H50.75C52.817 72.5 54.5 70.817 54.5 68.75V55.25C54.5 54.008 55.508 53 56.75 53C57.992 53 59 54.008 59 55.25V68.75C59 73.301 55.301 77 50.75 77Z" fill="#1EB2FF"/>
</svg>
