<svg width="100" height="100" viewBox="0 0 100 100" fill="none" xmlns="http://www.w3.org/2000/svg">
<circle cx="59.5" cy="50" r="40" fill="#F1F1F1"/>
<path d="M78 40.5L72.5 35L42.5 64L48.5 70L78 40.5Z" fill="white"/>
<path d="M48.5 13.5H4V87H58V22L48.5 13.5Z" fill="white"/>
<path d="M77.9372 35.1761C75.1958 32.4345 70.735 32.4347 67.9927 35.1767C67.1492 36.0209 61.7641 41.4105 60.9414 42.2339V23.6603C60.9414 21.7822 60.21 20.0166 58.8819 18.6886L52.253 12.0594C50.925 10.7313 49.1592 10 47.2811 10H7.03516C3.15812 10 0.00390625 13.1542 0.00390625 17.0312V82.9688C0.00390625 86.8458 3.15812 90 7.03516 90H53.9102C57.7872 90 60.9414 86.8458 60.9414 82.9688V62.1298L77.937 45.1198C80.685 42.372 80.6856 37.9242 77.9372 35.1761ZM46.8791 14.6875C47.3219 14.6875 48.1752 14.6108 48.9384 15.3739L55.5675 22.0031C56.3112 22.747 56.2541 23.5622 56.2541 24.0625H46.8791V14.6875ZM56.2539 82.9688C56.2539 84.2611 55.2027 85.3125 53.9102 85.3125H7.03516C5.74281 85.3125 4.69141 84.2611 4.69141 82.9688V17.0312C4.69141 15.7389 5.74281 14.6875 7.03516 14.6875H42.1914V26.4062C42.1914 27.7006 43.2408 28.75 44.5352 28.75H56.2539V46.9255C56.2539 46.9255 49.3392 53.8461 49.3389 53.8462L46.0259 57.1594C45.7687 57.4166 45.5747 57.7303 45.4597 58.0755L42.145 68.0192C41.8642 68.8614 42.0834 69.79 42.7113 70.4177C43.3398 71.0462 44.2687 71.2644 45.1097 70.9839L55.0534 67.6694C55.3986 67.5544 55.7123 67.3605 55.9695 67.1031L56.2539 66.8188V82.9688ZM50.9977 58.8167L54.3122 62.1313L53.0461 63.3973L48.0744 65.0545L49.7316 60.0827L50.9977 58.8167ZM57.6261 58.8159L54.3116 55.5014C56.0766 53.735 63.9155 45.8894 65.578 44.2255L68.8925 47.54L57.6261 58.8159ZM74.6219 41.8059L72.2058 44.2241L68.8913 40.9095L71.3081 38.4906C72.2225 37.5767 73.7091 37.5769 74.6228 38.4906C75.5364 39.4047 75.5413 40.8864 74.6219 41.8059Z" fill="#DFE1E6"/>
<path d="M44.5352 33.4375H11.7227C10.4283 33.4375 9.37891 34.4869 9.37891 35.7812C9.37891 37.0756 10.4283 38.125 11.7227 38.125H44.5352C45.8295 38.125 46.8789 37.0756 46.8789 35.7812C46.8789 34.4869 45.8295 33.4375 44.5352 33.4375Z" fill="#DFE1E6"/>
<path d="M35.1602 42.8125H11.7227C10.4283 42.8125 9.37891 43.8619 9.37891 45.1562C9.37891 46.4506 10.4283 47.5 11.7227 47.5H35.1602C36.4545 47.5 37.5039 46.4506 37.5039 45.1562C37.5039 43.8619 36.4545 42.8125 35.1602 42.8125Z" fill="#DFE1E6"/>
<path d="M35.1602 52.1875H11.7227C10.4283 52.1875 9.37891 53.2369 9.37891 54.5312C9.37891 55.8256 10.4283 56.875 11.7227 56.875H35.1602C36.4545 56.875 37.5039 55.8256 37.5039 54.5312C37.5039 53.2369 36.4545 52.1875 35.1602 52.1875Z" fill="#DFE1E6"/>
<path d="M35.1602 61.5625H11.7227C10.4283 61.5625 9.37891 62.6119 9.37891 63.9062C9.37891 65.2006 10.4283 66.25 11.7227 66.25H35.1602C36.4545 66.25 37.5039 65.2006 37.5039 63.9062C37.5039 62.6119 36.4545 61.5625 35.1602 61.5625Z" fill="#DFE1E6"/>
<path d="M44.5352 75.9375H30.4727C29.1783 75.9375 28.1289 76.9869 28.1289 78.2812C28.1289 79.5756 29.1783 80.625 30.4727 80.625H44.5352C45.8295 80.625 46.8789 79.5756 46.8789 78.2812C46.8789 76.9869 45.8295 75.9375 44.5352 75.9375Z" fill="#DFE1E6"/>
</svg>
