<svg width="24" height="24" viewBox="0 0 24 24" fill="none" xmlns="http://www.w3.org/2000/svg">
<path d="M15.8227 23.3755C15.6977 23.4177 15.5719 23.4587 15.4453 23.4963C15.5723 23.4582 15.6977 23.4173 15.8227 23.3755Z" fill="#F9EDE0"/>
<path d="M16.4501 23.1455C16.3152 23.1993 16.1803 23.2523 16.043 23.3011C16.1803 23.2519 16.3157 23.1993 16.4501 23.1455Z" fill="#F9EDE0"/>
<path d="M12 24C18.6274 24 24 18.6274 24 12C24 5.37258 18.6274 0 12 0C5.37258 0 0 5.37258 0 12C0 18.6274 5.37258 24 12 24Z" fill="#C9E7FC"/>
<path d="M15.1985 23.5645C15.076 23.5984 14.9527 23.6307 14.8281 23.6609C14.9527 23.6307 15.076 23.5984 15.1985 23.5645Z" fill="#F9EDE0"/>
<path d="M11.1284 23.965C10.9819 23.9546 10.8358 23.9435 10.6914 23.9277C10.8362 23.9435 10.9823 23.9546 11.1284 23.965Z" fill="#F9EDE0"/>
<path d="M9.16722 23.6604C9.04308 23.6302 8.91977 23.5979 8.79688 23.564C8.91977 23.5983 9.04308 23.6306 9.16722 23.6604Z" fill="#F9EDE0"/>
<path d="M10.4426 23.8964C10.3115 23.8795 10.1807 23.8617 10.0508 23.8406C10.1803 23.8617 10.3115 23.8791 10.4426 23.8964Z" fill="#F9EDE0"/>
<path d="M11.9978 23.9998C11.7768 23.9998 11.5579 23.9928 11.3398 23.9812C11.5579 23.9928 11.7768 23.9998 11.9978 23.9998Z" fill="#F9EDE0"/>
<path d="M9.79718 23.7946C9.67139 23.7714 9.54601 23.7465 9.42188 23.7192C9.54601 23.7465 9.67139 23.7714 9.79718 23.7946Z" fill="#F9EDE0"/>
<path d="M7.37705 23.0754C7.19043 22.9972 7.00587 22.9153 6.82422 22.8284C7.00629 22.9153 7.19084 22.9976 7.37705 23.0754Z" fill="#F9EDE0"/>
<path d="M7.95795 23.3004C7.82099 23.2511 7.68568 23.1986 7.55078 23.1448C7.68568 23.1986 7.82099 23.2511 7.95795 23.3004Z" fill="#F9EDE0"/>
<path d="M12.6579 23.9812C12.4399 23.9928 12.221 23.9998 12 23.9998C12.221 23.9998 12.4399 23.9928 12.6579 23.9812Z" fill="#F9EDE0"/>
<path d="M13.3042 23.9277C13.1593 23.9435 13.0133 23.9546 12.8672 23.965C13.0133 23.9546 13.1593 23.9435 13.3042 23.9277Z" fill="#F9EDE0"/>
<path d="M14.5784 23.7192C14.4539 23.7465 14.3289 23.7714 14.2031 23.7946C14.3285 23.7714 14.4539 23.7465 14.5784 23.7192Z" fill="#F9EDE0"/>
<path d="M13.9466 23.8401C13.8166 23.8612 13.6859 23.879 13.5547 23.896C13.6854 23.879 13.8166 23.8616 13.9466 23.8401Z" fill="#F9EDE0"/>
<path d="M17.1714 22.8291C16.9906 22.9156 16.8069 22.9975 16.6211 23.0753C16.8069 22.9975 16.9906 22.916 17.1714 22.8291Z" fill="#F9EDE0"/>
<path d="M8.55707 23.4958C8.43003 23.4578 8.30465 23.4168 8.17969 23.375C8.30465 23.4168 8.43003 23.4578 8.55707 23.4958Z" fill="#F9EDE0"/>
<path d="M16.6208 23.0754C16.5628 23.0999 16.5037 23.1214 16.4453 23.1445C16.5032 23.1214 16.5624 23.0999 16.6208 23.0754Z" fill="#F9EDE0"/>
<path d="M17.1884 22.8218C17.183 22.8243 17.1773 22.8267 17.1719 22.8292C17.1773 22.8267 17.183 22.8247 17.1884 22.8218Z" fill="#F9EDE0"/>
<path d="M9.42121 23.719C9.33638 23.7004 9.25197 23.6809 9.16797 23.6606C9.25197 23.6809 9.33638 23.7004 9.42121 23.719Z" fill="#F9EDE0"/>
<path d="M10.053 23.84C9.96736 23.8259 9.88212 23.8102 9.79688 23.7944C9.88253 23.8102 9.96736 23.8263 10.053 23.84Z" fill="#F9EDE0"/>
<path d="M11.3404 23.9812C11.2696 23.9775 11.1993 23.9701 11.1289 23.9651C11.1997 23.9701 11.2696 23.9775 11.3404 23.9812Z" fill="#F9EDE0"/>
<path d="M10.6936 23.9279C10.6104 23.9188 10.5281 23.9072 10.4453 23.8965C10.5281 23.9072 10.6104 23.9188 10.6936 23.9279Z" fill="#F9EDE0"/>
<path d="M6.82266 22.8282C6.81811 22.8262 6.81315 22.8241 6.80859 22.822C6.81315 22.8241 6.81811 22.8262 6.82266 22.8282Z" fill="#F9EDE0"/>
<path d="M12.8677 23.9651C12.7969 23.9701 12.727 23.9775 12.6562 23.9812C12.727 23.9775 12.7969 23.9701 12.8677 23.9651Z" fill="#F9EDE0"/>
<path d="M15.4413 23.4958C15.361 23.5198 15.2803 23.5422 15.1992 23.5645C15.2803 23.5422 15.361 23.5198 15.4413 23.4958Z" fill="#F9EDE0"/>
<path d="M16.04 23.3003C15.9672 23.3264 15.8936 23.3499 15.8203 23.3748C15.8936 23.3499 15.9672 23.3264 16.04 23.3003Z" fill="#F9EDE0"/>
<path d="M7.55045 23.1448C7.4921 23.1216 7.43293 23.0997 7.375 23.0757C7.43293 23.0997 7.4921 23.1212 7.55045 23.1448Z" fill="#F9EDE0"/>
<path d="M8.17675 23.3748C8.10351 23.3499 8.02944 23.3264 7.95703 23.3003C8.02944 23.3264 8.1031 23.3499 8.17675 23.3748Z" fill="#F9EDE0"/>
<path d="M13.553 23.8965C13.4702 23.9072 13.3879 23.9192 13.3047 23.9279C13.3879 23.9188 13.4702 23.9072 13.553 23.8965Z" fill="#F9EDE0"/>
<path d="M14.8314 23.6604C14.7474 23.6807 14.663 23.7001 14.5781 23.7187C14.663 23.7005 14.7474 23.6811 14.8314 23.6604Z" fill="#F9EDE0"/>
<path d="M14.2015 23.7944C14.1162 23.8102 14.0314 23.8263 13.9453 23.84C14.0314 23.8263 14.1162 23.8102 14.2015 23.7944Z" fill="#F9EDE0"/>
<path d="M8.79676 23.5645C8.71607 23.5422 8.63496 23.5198 8.55469 23.4958C8.63496 23.5198 8.71565 23.5422 8.79676 23.5645Z" fill="#F9EDE0"/>
<path d="M14.7454 12.8251C16.0824 11.935 16.9642 10.416 16.9642 8.68964C16.9642 5.94743 14.7408 3.72412 11.9986 3.72412C9.25643 3.72412 7.03312 5.94743 7.03312 8.68964C7.03312 10.416 7.91492 11.935 9.25188 12.8251C9.25188 12.8251 9.2523 12.8255 9.25271 12.8255C9.2523 12.8255 9.2523 12.8251 9.2523 12.8251C6.05202 13.7896 3.56016 16.387 2.75781 19.6547L2.75823 19.6552C2.88898 19.8128 3.02471 19.9667 3.16333 20.1178C3.19685 20.1546 3.23202 20.1898 3.26636 20.2258C3.37312 20.3392 3.48112 20.4509 3.59202 20.5601C3.63795 20.6052 3.68471 20.6487 3.73147 20.6929C3.83409 20.7906 3.93795 20.887 4.04388 20.9809C4.09643 21.0273 4.14981 21.0732 4.20278 21.1187C4.30664 21.2077 4.41174 21.295 4.51892 21.3803C4.57519 21.4254 4.63188 21.4696 4.68857 21.5139C4.79698 21.5975 4.90705 21.6786 5.01836 21.7581C5.07588 21.799 5.13257 21.8408 5.19092 21.8809C5.30843 21.9621 5.42802 22.0398 5.54843 22.1168C5.60264 22.1512 5.65561 22.1867 5.71023 22.2207C5.84926 22.3063 5.99078 22.3883 6.13354 22.4685C6.17119 22.4896 6.20802 22.5124 6.24609 22.5331C6.43064 22.6341 6.61809 22.7309 6.80843 22.8223C6.81298 22.8244 6.81795 22.8265 6.8225 22.8285C7.00416 22.9154 7.18871 22.9978 7.37533 23.0756C7.43326 23.1 7.49243 23.1215 7.55078 23.1447C7.68567 23.1985 7.82057 23.2514 7.95795 23.3003C8.03078 23.3263 8.10443 23.3499 8.17767 23.3747C8.30264 23.4169 8.42843 23.4579 8.55505 23.4956C8.63533 23.5196 8.71602 23.5419 8.79712 23.5643C8.91961 23.5982 9.04292 23.6305 9.16747 23.6607C9.25147 23.6809 9.33588 23.7004 9.42071 23.719C9.54526 23.7463 9.67023 23.7712 9.79602 23.7943C9.88126 23.8101 9.96609 23.8262 10.0522 23.8398C10.1821 23.8609 10.3128 23.8787 10.444 23.8957C10.5268 23.9065 10.6091 23.9185 10.6923 23.9272C10.8371 23.9429 10.9832 23.9541 11.1293 23.9644C11.2 23.9694 11.2699 23.9768 11.3407 23.9805C11.5588 23.9929 11.7777 24 11.9986 24C12.2196 24 12.4385 23.9929 12.6566 23.9814C12.7273 23.9776 12.7977 23.9702 12.868 23.9652C13.0145 23.9549 13.1606 23.9437 13.305 23.928C13.3882 23.9189 13.4705 23.9073 13.5533 23.8965C13.6844 23.8796 13.8152 23.8618 13.9451 23.8407C14.0308 23.8266 14.116 23.8109 14.2013 23.7952C14.3271 23.772 14.4524 23.7472 14.5766 23.7198C14.6614 23.7012 14.7458 23.6818 14.8298 23.6615C14.9539 23.6313 15.0773 23.599 15.2002 23.5651C15.2808 23.5427 15.3619 23.5204 15.4422 23.4964C15.5693 23.4583 15.6946 23.4174 15.8196 23.3756C15.8928 23.3507 15.9669 23.3272 16.0393 23.3011C16.1763 23.2518 16.3116 23.1993 16.4465 23.1455C16.5048 23.1223 16.564 23.1004 16.622 23.0764C16.8077 22.9986 16.9915 22.9171 17.1723 22.8302C17.1777 22.8277 17.1835 22.8252 17.1888 22.8227C17.3792 22.7313 17.5666 22.6345 17.7512 22.5335C17.7893 22.5128 17.8261 22.4901 17.8637 22.4689C18.0065 22.3887 18.148 22.3067 18.2871 22.2211C18.3417 22.1876 18.3951 22.152 18.4488 22.1172C18.5693 22.0403 18.6888 21.9621 18.8064 21.8814C18.8643 21.8412 18.9214 21.7998 18.9789 21.7585C19.0902 21.6786 19.2003 21.5975 19.3087 21.5143C19.3658 21.4705 19.4221 21.4258 19.4784 21.3807C19.5851 21.2954 19.6906 21.2081 19.7945 21.1192C19.8479 21.0736 19.9013 21.0277 19.9534 20.9814C20.0593 20.8874 20.1632 20.791 20.2658 20.6934C20.3122 20.6491 20.3593 20.6052 20.4053 20.5605C20.5162 20.4513 20.6246 20.3396 20.7309 20.2262C20.7648 20.1898 20.8 20.1546 20.834 20.1182C20.9726 19.9672 21.1083 19.8132 21.2391 19.6556L21.2395 19.6552C20.4375 16.387 17.9457 13.7896 14.7454 12.8251Z" fill="#1EB2FF"/>
</svg>
